G04 #@! TF.FileFunction,Soldermask,Bot*
%FSLAX46Y46*%
G04 Gerber Fmt 4.6, Leading zero omitted, Abs format (unit mm)*
G04 Created by KiCad (PCBNEW 4.0.1-stable) date 2/1/2017 11:43:10 PM*
%MOMM*%
G01*
G04 APERTURE LIST*
%ADD10C,0.100000*%
%ADD11C,2.076400*%
%ADD12C,4.100000*%
%ADD13R,2.400000X1.100000*%
%ADD14R,1.600000X1.300000*%
%ADD15C,1.260000*%
%ADD16C,3.600000*%
G04 APERTURE END LIST*
D10*
D11*
X-27000000Y17500000D03*
X12000000Y17500000D03*
D12*
X-17000000Y13500000D03*
X-17000000Y-13500000D03*
X17000000Y-13500000D03*
X17000000Y13500000D03*
D13*
X1600000Y-1850000D03*
X-1600000Y-1850000D03*
X-1600000Y-600000D03*
X-1600000Y650000D03*
X-1600000Y1900000D03*
X1600000Y1900000D03*
X1600000Y650000D03*
X1600000Y-600000D03*
D14*
X-23091320Y-4912360D03*
X-20891320Y-4912360D03*
D15*
X7200000Y7000000D03*
X-7200000Y7000000D03*
X-9200000Y7000000D03*
X-8200000Y6000000D03*
X-7200000Y5000000D03*
X-9200000Y5000000D03*
X-8200000Y4000000D03*
X-7200000Y3000000D03*
X-9200000Y3000000D03*
X-8200000Y2000000D03*
X-7200000Y1000000D03*
X-9200000Y1000000D03*
X-8200000Y0D03*
X-9200000Y-1000000D03*
X-7200000Y-1000000D03*
X-8200000Y-2000000D03*
X-9200000Y-3000000D03*
X-7200000Y-3000000D03*
X-8200000Y-4000000D03*
X-9200000Y-5000000D03*
X-7200000Y-5000000D03*
X-8200000Y-6000000D03*
X-9200000Y-7000000D03*
X-7200000Y-7000000D03*
X9200000Y7000000D03*
X8200000Y6000000D03*
X7200000Y5000000D03*
X9200000Y5000000D03*
X8200000Y4000000D03*
X7200000Y3000000D03*
X9200000Y3000000D03*
X8200000Y2000000D03*
X7200000Y1000000D03*
X9200000Y1000000D03*
X8200000Y0D03*
X9200000Y-1000000D03*
X7200000Y-1000000D03*
X8200000Y-2000000D03*
X9200000Y-3000000D03*
X7200000Y-3000000D03*
X8200000Y-4000000D03*
X9200000Y-5000000D03*
X7200000Y-5000000D03*
X8200000Y-6000000D03*
X9200000Y-7000000D03*
X7200000Y-7000000D03*
D16*
X-10000000Y15500000D03*
X-10000000Y-15500000D03*
X10000000Y-15500000D03*
X7000000Y15500000D03*
D14*
X-23045600Y10287000D03*
X-20845600Y10287000D03*
X-23045600Y7721600D03*
X-20845600Y7721600D03*
X-23071000Y5257800D03*
X-20871000Y5257800D03*
X-23134500Y2679700D03*
X-20934500Y2679700D03*
X-23106560Y121920D03*
X-20906560Y121920D03*
X-23106560Y-2397760D03*
X-20906560Y-2397760D03*
X-23121800Y-7472680D03*
X-20921800Y-7472680D03*
X-23137040Y-10012680D03*
X-20937040Y-10012680D03*
X-22984640Y-12573000D03*
X-20784640Y-12573000D03*
X-23076080Y-15087600D03*
X-20876080Y-15087600D03*
X20900000Y15100000D03*
X23100000Y15100000D03*
X20875000Y12575000D03*
X23075000Y12575000D03*
X20875000Y10050000D03*
X23075000Y10050000D03*
X20875000Y7500000D03*
X23075000Y7500000D03*
X20850000Y4900000D03*
X23050000Y4900000D03*
X20850000Y2375000D03*
X23050000Y2375000D03*
X20875000Y-175000D03*
X23075000Y-175000D03*
X20875000Y-2725000D03*
X23075000Y-2725000D03*
X20875000Y-5225000D03*
X23075000Y-5225000D03*
X20875000Y-7750000D03*
X23075000Y-7750000D03*
X20875000Y-10350000D03*
X23075000Y-10350000D03*
X1100000Y3810000D03*
X-1100000Y3810000D03*
X-1100000Y-3810000D03*
X1100000Y-3810000D03*
M02*
