G04 #@! TF.FileFunction,Copper,L2,Bot,Signal*
%FSLAX46Y46*%
G04 Gerber Fmt 4.6, Leading zero omitted, Abs format (unit mm)*
G04 Created by KiCad (PCBNEW 4.0.2-stable) date 1/24/2017 5:25:06 AM*
%MOMM*%
G01*
G04 APERTURE LIST*
%ADD10C,0.100000*%
%ADD11R,2.000000X0.700000*%
%ADD12R,1.200000X0.900000*%
%ADD13C,0.860000*%
%ADD14C,0.685800*%
%ADD15C,0.254000*%
%ADD16C,0.250000*%
G04 APERTURE END LIST*
D10*
D11*
X1600000Y-1850000D03*
X-1600000Y-1850000D03*
X-1600000Y-600000D03*
X-1600000Y650000D03*
X-1600000Y1900000D03*
X1600000Y1900000D03*
X1600000Y650000D03*
X1600000Y-600000D03*
D12*
X-23091320Y-4912360D03*
X-20891320Y-4912360D03*
D13*
X7200000Y7000000D03*
X-7200000Y7000000D03*
X-9200000Y7000000D03*
X-8200000Y6000000D03*
X-7200000Y5000000D03*
X-9200000Y5000000D03*
X-8200000Y4000000D03*
X-7200000Y3000000D03*
X-9200000Y3000000D03*
X-8200000Y2000000D03*
X-7200000Y1000000D03*
X-9200000Y1000000D03*
X-8200000Y0D03*
X-9200000Y-1000000D03*
X-7200000Y-1000000D03*
X-8200000Y-2000000D03*
X-9200000Y-3000000D03*
X-7200000Y-3000000D03*
X-8200000Y-4000000D03*
X-9200000Y-5000000D03*
X-7200000Y-5000000D03*
X-8200000Y-6000000D03*
X-9200000Y-7000000D03*
X-7200000Y-7000000D03*
X9200000Y7000000D03*
X8200000Y6000000D03*
X7200000Y5000000D03*
X9200000Y5000000D03*
X8200000Y4000000D03*
X7200000Y3000000D03*
X9200000Y3000000D03*
X8200000Y2000000D03*
X7200000Y1000000D03*
X9200000Y1000000D03*
X8200000Y0D03*
X9200000Y-1000000D03*
X7200000Y-1000000D03*
X8200000Y-2000000D03*
X9200000Y-3000000D03*
X7200000Y-3000000D03*
X8200000Y-4000000D03*
X9200000Y-5000000D03*
X7200000Y-5000000D03*
X8200000Y-6000000D03*
X9200000Y-7000000D03*
X7200000Y-7000000D03*
D12*
X-23045600Y10287000D03*
X-20845600Y10287000D03*
X-23045600Y7721600D03*
X-20845600Y7721600D03*
X-23071000Y5257800D03*
X-20871000Y5257800D03*
X-23134500Y2679700D03*
X-20934500Y2679700D03*
X-23106560Y121920D03*
X-20906560Y121920D03*
X-23106560Y-2397760D03*
X-20906560Y-2397760D03*
X-23121800Y-7472680D03*
X-20921800Y-7472680D03*
X-23137040Y-10012680D03*
X-20937040Y-10012680D03*
X-22984640Y-12573000D03*
X-20784640Y-12573000D03*
X-23076080Y-15087600D03*
X-20876080Y-15087600D03*
X20900000Y15100000D03*
X23100000Y15100000D03*
X20875000Y12575000D03*
X23075000Y12575000D03*
X20875000Y10050000D03*
X23075000Y10050000D03*
X20875000Y7500000D03*
X23075000Y7500000D03*
X20850000Y4900000D03*
X23050000Y4900000D03*
X20850000Y2375000D03*
X23050000Y2375000D03*
X20875000Y-175000D03*
X23075000Y-175000D03*
X20875000Y-2725000D03*
X23075000Y-2725000D03*
X20875000Y-5225000D03*
X23075000Y-5225000D03*
X20875000Y-7750000D03*
X23075000Y-7750000D03*
X20875000Y-10350000D03*
X23075000Y-10350000D03*
X1100000Y3810000D03*
X-1100000Y3810000D03*
X-1100000Y-3810000D03*
X1100000Y-3810000D03*
D14*
X-27254200Y15407640D03*
X19450000Y17625000D03*
X-24612600Y10261600D03*
X-19075400Y10261600D03*
X-24638000Y7747000D03*
X-6223000Y5003800D03*
X-19100800Y7747000D03*
X-2209800Y-3810000D03*
X2325000Y-3800000D03*
X3350000Y-600000D03*
X-2362200Y3810000D03*
X2286000Y3810000D03*
X-24658320Y5293360D03*
X-19121120Y5293360D03*
X-6070600Y2997200D03*
X-14061440Y3002280D03*
X-24683720Y2778760D03*
X-19146520Y2778760D03*
X-24668480Y86360D03*
X-6070600Y1016000D03*
X-19131280Y86360D03*
X-24693880Y-2428240D03*
X-19156680Y-2428240D03*
X-24714200Y-4881880D03*
X-5994400Y-1016000D03*
X-19177000Y-4881880D03*
X-24739600Y-7396480D03*
X-19202400Y-7396480D03*
X-6045200Y-2997200D03*
X-24754840Y-10048240D03*
X-19217640Y-10048240D03*
X-24775160Y-12501880D03*
X-6045200Y-5003800D03*
X-19588480Y-12578080D03*
X-24800560Y-15016480D03*
X-19263360Y-15016480D03*
X-5918200Y-7010400D03*
X19350000Y15050000D03*
X24775000Y15075000D03*
X6200000Y5000000D03*
X19700000Y12575000D03*
X24750000Y12500000D03*
X19325000Y9950000D03*
X6150000Y3000000D03*
X24750000Y9975000D03*
X19225000Y7450000D03*
X24650000Y7475000D03*
X6150000Y1000000D03*
X19200000Y4875000D03*
X24625000Y4900000D03*
X19200000Y2350000D03*
X24625000Y2375000D03*
X6150000Y-1000000D03*
X19175000Y-225000D03*
X24600000Y-200000D03*
X19250000Y-2675000D03*
X6125000Y-3000000D03*
X24675000Y-2650000D03*
X19225000Y-5250000D03*
X24650000Y-5225000D03*
X6125000Y-5000000D03*
X19225000Y-7775000D03*
X24650000Y-7750000D03*
X19200000Y-10350000D03*
X6050000Y-7000000D03*
X24625000Y-10325000D03*
X-3149600Y660400D03*
X-3175000Y1879600D03*
X3149600Y1905000D03*
D15*
X-7200000Y7000000D02*
X-7200000Y8591920D01*
X-27254200Y15412720D02*
X-27254200Y15407640D01*
X-25181560Y17485360D02*
X-27254200Y15412720D01*
X-16093440Y17485360D02*
X-25181560Y17485360D01*
X-7200000Y8591920D02*
X-16093440Y17485360D01*
X7200000Y7000000D02*
X7200000Y11375000D01*
X13450000Y17625000D02*
X19450000Y17625000D01*
X7200000Y11375000D02*
X13450000Y17625000D01*
X-23045600Y10287000D02*
X-23045600Y9400720D01*
X-10144760Y9052560D02*
X-10144760Y9057640D01*
X-10154920Y9062720D02*
X-10144760Y9052560D01*
X-22707600Y9062720D02*
X-10154920Y9062720D01*
X-23045600Y9400720D02*
X-22707600Y9062720D01*
X-24612600Y10261600D02*
X-23071000Y10261600D01*
X-23071000Y10261600D02*
X-23045600Y10287000D01*
X-9200000Y7000000D02*
X-9200000Y8112880D01*
X-9200000Y8112880D02*
X-10144760Y9057640D01*
X-20845600Y10287000D02*
X-19100800Y10287000D01*
X-19100800Y10287000D02*
X-19075400Y10261600D01*
X-8200000Y6000000D02*
X-8200000Y8174600D01*
X-10287000Y10261600D02*
X-19075400Y10261600D01*
X-8200000Y8174600D02*
X-10287000Y10261600D01*
X-24638000Y7747000D02*
X-23071000Y7747000D01*
X-23071000Y7747000D02*
X-23045600Y7721600D01*
D16*
X-6226800Y5000000D02*
X-7200000Y5000000D01*
X-6226800Y5000000D02*
X-6223000Y5003800D01*
D15*
X-9200000Y5000000D02*
X-13173720Y5000000D01*
X-15920720Y7747000D02*
X-19100800Y7747000D01*
X-13173720Y5000000D02*
X-15920720Y7747000D01*
X-20845600Y7721600D02*
X-19126200Y7721600D01*
X-19126200Y7721600D02*
X-19100800Y7747000D01*
X-2209800Y-3810000D02*
X-1100000Y-3810000D01*
X1100000Y-3810000D02*
X2315000Y-3810000D01*
X2315000Y-3810000D02*
X2325000Y-3800000D01*
X1600000Y-600000D02*
X3350000Y-600000D01*
X-1100000Y3810000D02*
X-2362200Y3810000D01*
X1100000Y3810000D02*
X2286000Y3810000D01*
X-8200000Y4000000D02*
X-22821400Y4000000D01*
X-23071000Y4249600D02*
X-23071000Y5257800D01*
X-22821400Y4000000D02*
X-23071000Y4249600D01*
X-23071000Y5257800D02*
X-24622760Y5257800D01*
X-24622760Y5257800D02*
X-24658320Y5293360D01*
X-20871000Y5257800D02*
X-19156680Y5257800D01*
X-19156680Y5257800D02*
X-19121120Y5293360D01*
D16*
X-6073400Y3000000D02*
X-6070600Y2997200D01*
X-6073400Y3000000D02*
X-7200000Y3000000D01*
D15*
X-9200000Y3000000D02*
X-14059160Y3000000D01*
X-14059160Y3000000D02*
X-14061440Y3002280D01*
X-23134500Y2679700D02*
X-24584660Y2679700D01*
X-24584660Y2679700D02*
X-24683720Y2778760D01*
X-19146520Y2778760D02*
X-20835440Y2778760D01*
X-20835440Y2778760D02*
X-20934500Y2679700D01*
X-8200000Y2000000D02*
X-14644120Y2000000D01*
X-15422880Y2778760D02*
X-19146520Y2778760D01*
X-14644120Y2000000D02*
X-15422880Y2778760D01*
X-19245580Y2679700D02*
X-19146520Y2778760D01*
X-24668480Y86360D02*
X-23142120Y86360D01*
X-23142120Y86360D02*
X-23106560Y121920D01*
D16*
X-7200000Y1000000D02*
X-6086600Y1000000D01*
X-6086600Y1000000D02*
X-6070600Y1016000D01*
D15*
X-9200000Y1000000D02*
X-18217640Y1000000D01*
X-18217640Y1000000D02*
X-19131280Y86360D01*
X-20871000Y86360D02*
X-19131280Y86360D01*
X-20871000Y86360D02*
X-20906560Y121920D01*
X-8200000Y0D02*
X-15778480Y0D01*
X-23106560Y-1506400D02*
X-23106560Y-2397760D01*
X-22727920Y-1127760D02*
X-23106560Y-1506400D01*
X-16906240Y-1127760D02*
X-22727920Y-1127760D01*
X-15778480Y0D02*
X-16906240Y-1127760D01*
X-23137040Y-2428240D02*
X-24693880Y-2428240D01*
X-23137040Y-2428240D02*
X-23106560Y-2397760D01*
X-9200000Y-1000000D02*
X-14589000Y-1000000D01*
X-16017240Y-2428240D02*
X-19156680Y-2428240D01*
X-14589000Y-1000000D02*
X-16017240Y-2428240D01*
X-20876080Y-2428240D02*
X-19156680Y-2428240D01*
X-20876080Y-2428240D02*
X-20906560Y-2397760D01*
X-24714200Y-4881880D02*
X-23121800Y-4881880D01*
X-23121800Y-4881880D02*
X-23091320Y-4912360D01*
D16*
X-7200000Y-1000000D02*
X-6010400Y-1000000D01*
X-6010400Y-1000000D02*
X-5994400Y-1016000D01*
D15*
X-8200000Y-2000000D02*
X-13531600Y-2000000D01*
X-16413480Y-4881880D02*
X-19177000Y-4881880D01*
X-13531600Y-2000000D02*
X-16413480Y-4881880D01*
X-20860840Y-4881880D02*
X-19177000Y-4881880D01*
X-20860840Y-4881880D02*
X-20891320Y-4912360D01*
X-9200000Y-3000000D02*
X-12824720Y-3000000D01*
X-23121800Y-6525440D02*
X-23121800Y-7472680D01*
X-22778720Y-6182360D02*
X-23121800Y-6525440D01*
X-16007080Y-6182360D02*
X-22778720Y-6182360D01*
X-12824720Y-3000000D02*
X-16007080Y-6182360D01*
X-23198000Y-7396480D02*
X-24739600Y-7396480D01*
X-23198000Y-7396480D02*
X-23121800Y-7472680D01*
X-19202400Y-7396480D02*
X-20845600Y-7396480D01*
X-20845600Y-7396480D02*
X-20921800Y-7472680D01*
D16*
X-6048000Y-3000000D02*
X-6045200Y-2997200D01*
X-7200000Y-3000000D02*
X-6048000Y-3000000D01*
D15*
X-8200000Y-4000000D02*
X-12107680Y-4000000D01*
X-23137040Y-9095920D02*
X-23137040Y-10012680D01*
X-22788880Y-8747760D02*
X-23137040Y-9095920D01*
X-16855440Y-8747760D02*
X-22788880Y-8747760D01*
X-12107680Y-4000000D02*
X-16855440Y-8747760D01*
X-23172600Y-10048240D02*
X-24754840Y-10048240D01*
X-23172600Y-10048240D02*
X-23137040Y-10012680D01*
X-9200000Y-5000000D02*
X-11695440Y-5000000D01*
X-19217640Y-10048240D02*
X-19217640Y-10048240D01*
X-16743680Y-10048240D02*
X-19217640Y-10048240D01*
X-11695440Y-5000000D02*
X-16743680Y-10048240D01*
X-20901480Y-10048240D02*
X-19217640Y-10048240D01*
X-20901480Y-10048240D02*
X-20937040Y-10012680D01*
X-24775160Y-12501880D02*
X-23055760Y-12501880D01*
X-23055760Y-12501880D02*
X-22984640Y-12573000D01*
D16*
X-7200000Y-5000000D02*
X-6049000Y-5000000D01*
X-6049000Y-5000000D02*
X-6045200Y-5003800D01*
D15*
X-8200000Y-6000000D02*
X-10795520Y-6000000D01*
X-17830800Y-10820400D02*
X-19588480Y-12578080D01*
X-15615920Y-10820400D02*
X-17830800Y-10820400D01*
X-10795520Y-6000000D02*
X-15615920Y-10820400D01*
X-20784640Y-12573000D02*
X-19593560Y-12573000D01*
X-19593560Y-12573000D02*
X-19588480Y-12578080D01*
X-20713520Y-12501880D02*
X-20784640Y-12573000D01*
X-9200000Y-7000000D02*
X-9200000Y-10546200D01*
X-23076080Y-15933240D02*
X-23076080Y-15087600D01*
X-22641560Y-16367760D02*
X-23076080Y-15933240D01*
X-15021560Y-16367760D02*
X-22641560Y-16367760D01*
X-9200000Y-10546200D02*
X-15021560Y-16367760D01*
X-23147200Y-15016480D02*
X-24800560Y-15016480D01*
X-23147200Y-15016480D02*
X-23076080Y-15087600D01*
X-19263360Y-15016480D02*
X-20804960Y-15016480D01*
X-20804960Y-15016480D02*
X-20876080Y-15087600D01*
D16*
X-5928600Y-7000000D02*
X-5918200Y-7010400D01*
X-7200000Y-7000000D02*
X-5928600Y-7000000D01*
D15*
X9200000Y7000000D02*
X9200000Y9850000D01*
X18025000Y16375000D02*
X19350000Y15050000D01*
X15725000Y16375000D02*
X18025000Y16375000D01*
X9200000Y9850000D02*
X15725000Y16375000D01*
X19350000Y15050000D02*
X21025000Y15050000D01*
X8200000Y6000000D02*
X8200000Y10650000D01*
X23100000Y16050000D02*
X23100000Y15100000D01*
X22725000Y16425000D02*
X23100000Y16050000D01*
X19350000Y16425000D02*
X22725000Y16425000D01*
X18725000Y17050000D02*
X19350000Y16425000D01*
X14600000Y17050000D02*
X18725000Y17050000D01*
X8200000Y10650000D02*
X14600000Y17050000D01*
X23225000Y15050000D02*
X24750000Y15050000D01*
X24750000Y15050000D02*
X24775000Y15075000D01*
X7200000Y5000000D02*
X6200000Y5000000D01*
X20875000Y12575000D02*
X19700000Y12575000D01*
X9200000Y5000000D02*
X12925000Y5000000D01*
X23075000Y11750000D02*
X23075000Y12575000D01*
X22675000Y11350000D02*
X23075000Y11750000D01*
X19275000Y11350000D02*
X22675000Y11350000D01*
X12925000Y5000000D02*
X19275000Y11350000D01*
X24725000Y12475000D02*
X24750000Y12500000D01*
X23200000Y12475000D02*
X24725000Y12475000D01*
X8200000Y4000000D02*
X13375000Y4000000D01*
X13375000Y4000000D02*
X19325000Y9950000D01*
X19325000Y9950000D02*
X21000000Y9950000D01*
X7200000Y3000000D02*
X6150000Y3000000D01*
X24725000Y9950000D02*
X24750000Y9975000D01*
X23200000Y9950000D02*
X24725000Y9950000D01*
X9200000Y3000000D02*
X13900000Y3000000D01*
X18350000Y7450000D02*
X19225000Y7450000D01*
X13900000Y3000000D02*
X18350000Y7450000D01*
X19225000Y7450000D02*
X20900000Y7450000D01*
X8200000Y2000000D02*
X14500000Y2000000D01*
X23075000Y6675000D02*
X23075000Y7500000D01*
X22625000Y6225000D02*
X23075000Y6675000D01*
X18725000Y6225000D02*
X22625000Y6225000D01*
X14500000Y2000000D02*
X18725000Y6225000D01*
X24625000Y7450000D02*
X24650000Y7475000D01*
X23100000Y7450000D02*
X24625000Y7450000D01*
X7200000Y1000000D02*
X6150000Y1000000D01*
X19200000Y4875000D02*
X20875000Y4875000D01*
X9200000Y1000000D02*
X14950000Y1000000D01*
X23050000Y4000000D02*
X23050000Y4900000D01*
X22725000Y3675000D02*
X23050000Y4000000D01*
X17625000Y3675000D02*
X22725000Y3675000D01*
X14950000Y1000000D02*
X17625000Y3675000D01*
X23075000Y4875000D02*
X24600000Y4875000D01*
X24600000Y4875000D02*
X24625000Y4900000D01*
X8200000Y0D02*
X15400000Y0D01*
X17750000Y2350000D02*
X19200000Y2350000D01*
X15400000Y0D02*
X17750000Y2350000D01*
X19200000Y2350000D02*
X20875000Y2350000D01*
X9200000Y-1000000D02*
X15975000Y-1000000D01*
X23050000Y1525000D02*
X23050000Y2375000D01*
X22625000Y1100000D02*
X23050000Y1525000D01*
X18075000Y1100000D02*
X22625000Y1100000D01*
X15975000Y-1000000D02*
X18075000Y1100000D01*
X23075000Y2350000D02*
X24600000Y2350000D01*
X24600000Y2350000D02*
X24625000Y2375000D01*
X7200000Y-1000000D02*
X6150000Y-1000000D01*
X19175000Y-225000D02*
X20850000Y-225000D01*
X8200000Y-2000000D02*
X16200000Y-2000000D01*
X23075000Y-1100000D02*
X23075000Y-175000D01*
X22750000Y-1425000D02*
X23075000Y-1100000D01*
X16775000Y-1425000D02*
X22750000Y-1425000D01*
X16200000Y-2000000D02*
X16775000Y-1425000D01*
X24575000Y-225000D02*
X24600000Y-200000D01*
X23050000Y-225000D02*
X24575000Y-225000D01*
X9200000Y-3000000D02*
X17025000Y-3000000D01*
X17350000Y-2675000D02*
X19250000Y-2675000D01*
X17025000Y-3000000D02*
X17350000Y-2675000D01*
X19250000Y-2675000D02*
X20925000Y-2675000D01*
X7200000Y-3000000D02*
X6125000Y-3000000D01*
X23125000Y-2675000D02*
X24650000Y-2675000D01*
X24650000Y-2675000D02*
X24675000Y-2650000D01*
X8200000Y-4000000D02*
X15325000Y-4000000D01*
X16575000Y-5250000D02*
X19225000Y-5250000D01*
X15325000Y-4000000D02*
X16575000Y-5250000D01*
X19225000Y-5250000D02*
X20900000Y-5250000D01*
X9200000Y-5000000D02*
X15025000Y-5000000D01*
X23075000Y-6050000D02*
X23075000Y-5225000D01*
X22650000Y-6475000D02*
X23075000Y-6050000D01*
X16500000Y-6475000D02*
X22650000Y-6475000D01*
X15025000Y-5000000D02*
X16500000Y-6475000D01*
X24625000Y-5250000D02*
X24650000Y-5225000D01*
X23100000Y-5250000D02*
X24625000Y-5250000D01*
X7200000Y-5000000D02*
X6125000Y-5000000D01*
X19225000Y-7775000D02*
X20900000Y-7775000D01*
X14675000Y-6000000D02*
X17700000Y-9025000D01*
X8200000Y-6000000D02*
X14675000Y-6000000D01*
X23075000Y-8650000D02*
X23075000Y-7750000D01*
X22700000Y-9025000D02*
X23075000Y-8650000D01*
X17700000Y-9025000D02*
X22700000Y-9025000D01*
X24625000Y-7775000D02*
X24650000Y-7750000D01*
X23100000Y-7775000D02*
X24625000Y-7775000D01*
X9200000Y-7000000D02*
X13850000Y-7000000D01*
X17200000Y-10350000D02*
X19200000Y-10350000D01*
X13850000Y-7000000D02*
X17200000Y-10350000D01*
X19200000Y-10350000D02*
X20875000Y-10350000D01*
X7200000Y-7000000D02*
X6050000Y-7000000D01*
X23075000Y-10350000D02*
X24600000Y-10350000D01*
X24600000Y-10350000D02*
X24625000Y-10325000D01*
X-3139200Y650000D02*
X-3149600Y660400D01*
X-1600000Y650000D02*
X-3139200Y650000D01*
X-3154600Y1900000D02*
X-3175000Y1879600D01*
X-1600000Y1900000D02*
X-3154600Y1900000D01*
X3144600Y1900000D02*
X3149600Y1905000D01*
X1600000Y1900000D02*
X3144600Y1900000D01*
M02*
