M48
;DRILL file {KiCad 4.0.1-stable} date 2/1/2017 11:44:01 PM
;FORMAT={-:-/ absolute / inch / decimal}
FMAT,2
INCH,TZ
T1C0.013
T2C0.066
T3C0.126
T4C0.146
%
G90
G05
M72
T1
X-1.073Y0.6066
X-0.9764Y-0.5912
X-0.9754Y-0.4922
X-0.9746Y-0.3956
X-0.974Y-0.2912
X-0.973Y-0.1922
X-0.9722Y-0.0956
X-0.9718Y0.1094
X-0.9712Y0.0034
X-0.9708Y0.2084
X-0.97Y0.305
X-0.969Y0.404
X-0.7712Y-0.4952
X-0.7584Y-0.5912
X-0.7566Y-0.3956
X-0.756Y-0.2912
X-0.755Y-0.1922
X-0.7542Y-0.0956
X-0.7538Y0.1094
X-0.7532Y0.0034
X-0.7528Y0.2084
X-0.752Y0.305
X-0.751Y0.404
X-0.5536Y0.1182
X-0.245Y0.197
X-0.239Y0.118
X-0.239Y0.04
X-0.238Y-0.118
X-0.238Y-0.197
X-0.236Y-0.04
X-0.233Y-0.276
X-0.125Y0.074
X-0.124Y0.026
X-0.093Y0.15
X-0.087Y-0.15
X0.09Y0.15
X0.0915Y-0.1496
X0.124Y0.075
X0.1319Y-0.0236
X0.204Y-0.455
X0.204Y-0.758
X0.2382Y-0.2756
X0.2411Y-0.1181
X0.2411Y-0.1969
X0.2421Y0.1181
X0.2421Y0.0394
X0.2421Y-0.0394
X0.2441Y0.1969
X0.7549Y-0.0089
X0.7559Y0.1919
X0.7559Y0.0925
X0.7559Y-0.4075
X0.7569Y0.2933
X0.7569Y-0.2067
X0.7569Y-0.3061
X0.7579Y-0.1053
X0.7608Y0.3917
X0.7618Y0.5925
X0.7657Y0.6939
X0.7756Y0.4951
X0.9685Y-0.0079
X0.9695Y0.1929
X0.9695Y0.0935
X0.9695Y-0.4065
X0.9705Y0.2943
X0.9705Y-0.2057
X0.9705Y-0.3051
X0.9715Y-0.1043
X0.9744Y0.4921
X0.9744Y0.3927
X0.9754Y0.5935
T2
X-1.063Y0.689
X0.4724Y0.689
T3
X-0.3937Y0.6102
X-0.3937Y-0.6102
X0.2756Y0.6102
X0.3937Y-0.6102
T4
X-0.6693Y0.5315
X-0.6693Y-0.5315
X0.6693Y0.5315
X0.6693Y-0.5315
T0
M30
