%FSLAX45Y45*%
G04 Gerber Fmt 4.5, Leading zero omitted, Abs format (unit mm)*
G04 Created by KiCad (PCBNEW 4.0.1-stable) date 2/1/2017 11:44:05 PM*
%MOMM*%
G01*
G04 APERTURE LIST*
%ADD10C,0.127000*%
%ADD11C,0.150000*%
%ADD12C,0.200000*%
%ADD13C,0.300000*%
G04 APERTURE END LIST*
D10*
D11*
X-3000000Y2000000D02*
X-3000000Y-2000000D01*
X3000000Y2000000D02*
X-3000000Y2000000D01*
X3000000Y-2000000D02*
X3000000Y2000000D01*
X-3000000Y-2000000D02*
X3000000Y-2000000D01*
D12*
X-2741930Y1557274D02*
X-2708910Y1524254D01*
X-2708910Y1557274D02*
X-2741930Y1524254D01*
X-2496566Y-1485138D02*
X-2463546Y-1518158D01*
X-2463546Y-1485138D02*
X-2496566Y-1518158D01*
X-2494026Y-1233678D02*
X-2461006Y-1266698D01*
X-2461006Y-1233678D02*
X-2494026Y-1266698D01*
X-2491994Y-988314D02*
X-2458974Y-1021334D01*
X-2458974Y-988314D02*
X-2491994Y-1021334D01*
X-2490470Y-723138D02*
X-2457450Y-756158D01*
X-2457450Y-723138D02*
X-2490470Y-756158D01*
X-2487930Y-471678D02*
X-2454910Y-504698D01*
X-2454910Y-471678D02*
X-2487930Y-504698D01*
X-2485898Y-226314D02*
X-2452878Y-259334D01*
X-2452878Y-226314D02*
X-2485898Y-259334D01*
X-2484882Y294386D02*
X-2451862Y261366D01*
X-2451862Y294386D02*
X-2484882Y261366D01*
X-2483358Y25146D02*
X-2450338Y-7874D01*
X-2450338Y25146D02*
X-2483358Y-7874D01*
X-2482342Y545846D02*
X-2449322Y512826D01*
X-2449322Y545846D02*
X-2482342Y512826D01*
X-2480310Y791210D02*
X-2447290Y758190D01*
X-2447290Y791210D02*
X-2480310Y758190D01*
X-2477770Y1042670D02*
X-2444750Y1009650D01*
X-2444750Y1042670D02*
X-2477770Y1009650D01*
X-1975358Y-1241298D02*
X-1942338Y-1274318D01*
X-1942338Y-1241298D02*
X-1975358Y-1274318D01*
X-1942846Y-1485138D02*
X-1909826Y-1518158D01*
X-1909826Y-1485138D02*
X-1942846Y-1518158D01*
X-1938274Y-988314D02*
X-1905254Y-1021334D01*
X-1905254Y-988314D02*
X-1938274Y-1021334D01*
X-1936750Y-723138D02*
X-1903730Y-756158D01*
X-1903730Y-723138D02*
X-1936750Y-756158D01*
X-1934210Y-471678D02*
X-1901190Y-504698D01*
X-1901190Y-471678D02*
X-1934210Y-504698D01*
X-1932178Y-226314D02*
X-1899158Y-259334D01*
X-1899158Y-226314D02*
X-1932178Y-259334D01*
X-1931162Y294386D02*
X-1898142Y261366D01*
X-1898142Y294386D02*
X-1931162Y261366D01*
X-1929638Y25146D02*
X-1896618Y-7874D01*
X-1896618Y25146D02*
X-1929638Y-7874D01*
X-1928622Y545846D02*
X-1895602Y512826D01*
X-1895602Y545846D02*
X-1928622Y512826D01*
X-1926590Y791210D02*
X-1893570Y758190D01*
X-1893570Y791210D02*
X-1926590Y758190D01*
X-1924050Y1042670D02*
X-1891030Y1009650D01*
X-1891030Y1042670D02*
X-1924050Y1009650D01*
X-1422654Y316738D02*
X-1389634Y283718D01*
X-1389634Y316738D02*
X-1422654Y283718D01*
X-638810Y516890D02*
X-605790Y483870D01*
X-605790Y516890D02*
X-638810Y483870D01*
X-623570Y316230D02*
X-590550Y283210D01*
X-590550Y316230D02*
X-623570Y283210D01*
X-623570Y118110D02*
X-590550Y85090D01*
X-590550Y118110D02*
X-623570Y85090D01*
X-621030Y-283210D02*
X-588010Y-316230D01*
X-588010Y-283210D02*
X-621030Y-316230D01*
X-621030Y-483870D02*
X-588010Y-516890D01*
X-588010Y-483870D02*
X-621030Y-516890D01*
X-615950Y-85090D02*
X-582930Y-118110D01*
X-582930Y-85090D02*
X-615950Y-118110D01*
X-608330Y-684530D02*
X-575310Y-717550D01*
X-575310Y-684530D02*
X-608330Y-717550D01*
X-334010Y204470D02*
X-300990Y171450D01*
X-300990Y204470D02*
X-334010Y171450D01*
X-331470Y82550D02*
X-298450Y49530D01*
X-298450Y82550D02*
X-331470Y49530D01*
X-252730Y397510D02*
X-219710Y364490D01*
X-219710Y397510D02*
X-252730Y364490D01*
X-237490Y-364490D02*
X-204470Y-397510D01*
X-204470Y-364490D02*
X-237490Y-397510D01*
X212090Y397510D02*
X245110Y364490D01*
X245110Y397510D02*
X212090Y364490D01*
X215990Y-363490D02*
X249010Y-396510D01*
X249010Y-363490D02*
X215990Y-396510D01*
X298450Y207010D02*
X331470Y173990D01*
X331470Y207010D02*
X298450Y173990D01*
X318490Y-43490D02*
X351510Y-76510D01*
X351510Y-43490D02*
X318490Y-76510D01*
X501650Y-1139190D02*
X534670Y-1172210D01*
X534670Y-1139190D02*
X501650Y-1172210D01*
X501650Y-1908810D02*
X534670Y-1941830D01*
X534670Y-1908810D02*
X501650Y-1941830D01*
X588490Y-683490D02*
X621510Y-716510D01*
X621510Y-683490D02*
X588490Y-716510D01*
X595990Y-283490D02*
X629010Y-316510D01*
X629010Y-283490D02*
X595990Y-316510D01*
X595990Y-483490D02*
X629010Y-516510D01*
X629010Y-483490D02*
X595990Y-516510D01*
X598490Y316510D02*
X631510Y283490D01*
X631510Y316510D02*
X598490Y283490D01*
X598490Y116510D02*
X631510Y83490D01*
X631510Y116510D02*
X598490Y83490D01*
X598490Y-83490D02*
X631510Y-116510D01*
X631510Y-83490D02*
X598490Y-116510D01*
X603490Y516510D02*
X636510Y483490D01*
X636510Y516510D02*
X603490Y483490D01*
X1900990Y-5990D02*
X1934010Y-39010D01*
X1934010Y-5990D02*
X1900990Y-39010D01*
X1903490Y504010D02*
X1936510Y470990D01*
X1936510Y504010D02*
X1903490Y470990D01*
X1903490Y251510D02*
X1936510Y218490D01*
X1936510Y251510D02*
X1903490Y218490D01*
X1903490Y-1018490D02*
X1936510Y-1051510D01*
X1936510Y-1018490D02*
X1903490Y-1051510D01*
X1905990Y761510D02*
X1939010Y728490D01*
X1939010Y761510D02*
X1905990Y728490D01*
X1905990Y-508490D02*
X1939010Y-541510D01*
X1939010Y-508490D02*
X1905990Y-541510D01*
X1905990Y-760990D02*
X1939010Y-794010D01*
X1939010Y-760990D02*
X1905990Y-794010D01*
X1908490Y-250990D02*
X1941510Y-284010D01*
X1941510Y-250990D02*
X1908490Y-284010D01*
X1915990Y1011510D02*
X1949010Y978490D01*
X1949010Y1011510D02*
X1915990Y978490D01*
X1918490Y1521510D02*
X1951510Y1488490D01*
X1951510Y1521510D02*
X1918490Y1488490D01*
X1928490Y1779010D02*
X1961510Y1745990D01*
X1961510Y1779010D02*
X1928490Y1745990D01*
X1953490Y1274010D02*
X1986510Y1240990D01*
X1986510Y1274010D02*
X1953490Y1240990D01*
X2443490Y-3490D02*
X2476510Y-36510D01*
X2476510Y-3490D02*
X2443490Y-36510D01*
X2445990Y506510D02*
X2479010Y473490D01*
X2479010Y506510D02*
X2445990Y473490D01*
X2445990Y254010D02*
X2479010Y220990D01*
X2479010Y254010D02*
X2445990Y220990D01*
X2445990Y-1015990D02*
X2479010Y-1049010D01*
X2479010Y-1015990D02*
X2445990Y-1049010D01*
X2448490Y764010D02*
X2481510Y730990D01*
X2481510Y764010D02*
X2448490Y730990D01*
X2448490Y-505990D02*
X2481510Y-539010D01*
X2481510Y-505990D02*
X2448490Y-539010D01*
X2448490Y-758490D02*
X2481510Y-791510D01*
X2481510Y-758490D02*
X2448490Y-791510D01*
X2450990Y-248490D02*
X2484010Y-281510D01*
X2484010Y-248490D02*
X2450990Y-281510D01*
X2458490Y1266510D02*
X2491510Y1233490D01*
X2491510Y1266510D02*
X2458490Y1233490D01*
X2458490Y1014010D02*
X2491510Y980990D01*
X2491510Y1014010D02*
X2458490Y980990D01*
X2460990Y1524010D02*
X2494010Y1490990D01*
X2494010Y1524010D02*
X2460990Y1490990D01*
X-2616180Y1750000D02*
G75*
G03X-2616180Y1750000I-83820J0D01*
G01*
X1283820Y1750000D02*
G75*
G03X1283820Y1750000I-83820J0D01*
G01*
X-1000000Y1710000D02*
X-1000000Y1390000D01*
X-1160000Y1550000D02*
X-840000Y1550000D01*
X-1000000Y-1390000D02*
X-1000000Y-1710000D01*
X-1160000Y-1550000D02*
X-840000Y-1550000D01*
X700000Y1710000D02*
X700000Y1390000D01*
X540000Y1550000D02*
X860000Y1550000D01*
X1000000Y-1390000D02*
X1000000Y-1710000D01*
X840000Y-1550000D02*
X1160000Y-1550000D01*
X-1569184Y1219184D02*
X-1569184Y1480816D01*
X-1830816Y1480816D01*
X-1830816Y1219184D01*
X-1569184Y1219184D01*
X-1569184Y-1480816D02*
X-1569184Y-1219184D01*
X-1830816Y-1219184D01*
X-1830816Y-1480816D01*
X-1569184Y-1480816D01*
X1830816Y1219184D02*
X1830816Y1480816D01*
X1569184Y1480816D01*
X1569184Y1219184D01*
X1830816Y1219184D01*
X1830816Y-1480816D02*
X1830816Y-1219184D01*
X1569184Y-1219184D01*
X1569184Y-1480816D01*
X1830816Y-1480816D01*
D13*
X-2736072Y-2473214D02*
X-2736072Y-2173214D01*
X-2664643Y-2173214D01*
X-2621786Y-2187500D01*
X-2593214Y-2216072D01*
X-2578929Y-2244643D01*
X-2564643Y-2301786D01*
X-2564643Y-2344643D01*
X-2578929Y-2401786D01*
X-2593214Y-2430357D01*
X-2621786Y-2458929D01*
X-2664643Y-2473214D01*
X-2736072Y-2473214D01*
X-2436072Y-2473214D02*
X-2436072Y-2273214D01*
X-2436072Y-2330357D02*
X-2421786Y-2301786D01*
X-2407500Y-2287500D01*
X-2378929Y-2273214D01*
X-2350357Y-2273214D01*
X-2250357Y-2473214D02*
X-2250357Y-2273214D01*
X-2250357Y-2173214D02*
X-2264643Y-2187500D01*
X-2250357Y-2201786D01*
X-2236072Y-2187500D01*
X-2250357Y-2173214D01*
X-2250357Y-2201786D01*
X-2064643Y-2473214D02*
X-2093214Y-2458929D01*
X-2107500Y-2430357D01*
X-2107500Y-2173214D01*
X-1907500Y-2473214D02*
X-1936071Y-2458929D01*
X-1950357Y-2430357D01*
X-1950357Y-2173214D01*
X-1564643Y-2473214D02*
X-1564643Y-2173214D01*
X-1464643Y-2387500D01*
X-1364643Y-2173214D01*
X-1364643Y-2473214D01*
X-1093214Y-2473214D02*
X-1093214Y-2316072D01*
X-1107500Y-2287500D01*
X-1136072Y-2273214D01*
X-1193214Y-2273214D01*
X-1221786Y-2287500D01*
X-1093214Y-2458929D02*
X-1121786Y-2473214D01*
X-1193214Y-2473214D01*
X-1221786Y-2458929D01*
X-1236072Y-2430357D01*
X-1236072Y-2401786D01*
X-1221786Y-2373214D01*
X-1193214Y-2358929D01*
X-1121786Y-2358929D01*
X-1093214Y-2344643D01*
X-950357Y-2273214D02*
X-950357Y-2573214D01*
X-950357Y-2287500D02*
X-921786Y-2273214D01*
X-864643Y-2273214D01*
X-836071Y-2287500D01*
X-821786Y-2301786D01*
X-807500Y-2330357D01*
X-807500Y-2416072D01*
X-821786Y-2444643D01*
X-836071Y-2458929D01*
X-864643Y-2473214D01*
X-921786Y-2473214D01*
X-950357Y-2458929D01*
X-678929Y-2444643D02*
X-664643Y-2458929D01*
X-678929Y-2473214D01*
X-693214Y-2458929D01*
X-678929Y-2444643D01*
X-678929Y-2473214D01*
X-678929Y-2287500D02*
X-664643Y-2301786D01*
X-678929Y-2316072D01*
X-693214Y-2301786D01*
X-678929Y-2287500D01*
X-678929Y-2316072D01*
X-3040520Y-2950990D02*
X-3007500Y-2984010D01*
X-3007500Y-2950990D02*
X-3040520Y-2984010D01*
X-2678929Y-2803214D02*
X-2650357Y-2803214D01*
X-2621786Y-2817500D01*
X-2607500Y-2831786D01*
X-2593214Y-2860357D01*
X-2578929Y-2917500D01*
X-2578929Y-2988929D01*
X-2593214Y-3046071D01*
X-2607500Y-3074643D01*
X-2621786Y-3088929D01*
X-2650357Y-3103214D01*
X-2678929Y-3103214D01*
X-2707500Y-3088929D01*
X-2721786Y-3074643D01*
X-2736072Y-3046071D01*
X-2750357Y-2988929D01*
X-2750357Y-2917500D01*
X-2736072Y-2860357D01*
X-2721786Y-2831786D01*
X-2707500Y-2817500D01*
X-2678929Y-2803214D01*
X-2450357Y-3074643D02*
X-2436072Y-3088929D01*
X-2450357Y-3103214D01*
X-2464643Y-3088929D01*
X-2450357Y-3074643D01*
X-2450357Y-3103214D01*
X-2336072Y-2803214D02*
X-2150357Y-2803214D01*
X-2250357Y-2917500D01*
X-2207500Y-2917500D01*
X-2178929Y-2931786D01*
X-2164643Y-2946071D01*
X-2150357Y-2974643D01*
X-2150357Y-3046071D01*
X-2164643Y-3074643D01*
X-2178929Y-3088929D01*
X-2207500Y-3103214D01*
X-2293214Y-3103214D01*
X-2321786Y-3088929D01*
X-2336072Y-3074643D01*
X-2050357Y-2803214D02*
X-1864643Y-2803214D01*
X-1964643Y-2917500D01*
X-1921786Y-2917500D01*
X-1893214Y-2931786D01*
X-1878929Y-2946071D01*
X-1864643Y-2974643D01*
X-1864643Y-3046071D01*
X-1878929Y-3074643D01*
X-1893214Y-3088929D01*
X-1921786Y-3103214D01*
X-2007500Y-3103214D01*
X-2036071Y-3088929D01*
X-2050357Y-3074643D01*
X-1736071Y-3103214D02*
X-1736071Y-2903214D01*
X-1736071Y-2931786D02*
X-1721786Y-2917500D01*
X-1693214Y-2903214D01*
X-1650357Y-2903214D01*
X-1621786Y-2917500D01*
X-1607500Y-2946071D01*
X-1607500Y-3103214D01*
X-1607500Y-2946071D02*
X-1593214Y-2917500D01*
X-1564643Y-2903214D01*
X-1521786Y-2903214D01*
X-1493214Y-2917500D01*
X-1478929Y-2946071D01*
X-1478929Y-3103214D01*
X-1336072Y-3103214D02*
X-1336072Y-2903214D01*
X-1336072Y-2931786D02*
X-1321786Y-2917500D01*
X-1293214Y-2903214D01*
X-1250357Y-2903214D01*
X-1221786Y-2917500D01*
X-1207500Y-2946071D01*
X-1207500Y-3103214D01*
X-1207500Y-2946071D02*
X-1193214Y-2917500D01*
X-1164643Y-2903214D01*
X-1121786Y-2903214D01*
X-1093214Y-2917500D01*
X-1078929Y-2946071D01*
X-1078929Y-3103214D01*
X-493214Y-2788929D02*
X-750357Y-3174643D01*
X-107500Y-2803214D02*
X-78929Y-2803214D01*
X-50357Y-2817500D01*
X-36072Y-2831786D01*
X-21786Y-2860357D01*
X-7500Y-2917500D01*
X-7500Y-2988929D01*
X-21786Y-3046071D01*
X-36072Y-3074643D01*
X-50357Y-3088929D01*
X-78929Y-3103214D01*
X-107500Y-3103214D01*
X-136072Y-3088929D01*
X-150357Y-3074643D01*
X-164643Y-3046071D01*
X-178929Y-2988929D01*
X-178929Y-2917500D01*
X-164643Y-2860357D01*
X-150357Y-2831786D01*
X-136072Y-2817500D01*
X-107500Y-2803214D01*
X121071Y-3074643D02*
X135357Y-3088929D01*
X121071Y-3103214D01*
X106786Y-3088929D01*
X121071Y-3074643D01*
X121071Y-3103214D01*
X321071Y-2803214D02*
X349643Y-2803214D01*
X378214Y-2817500D01*
X392500Y-2831786D01*
X406785Y-2860357D01*
X421071Y-2917500D01*
X421071Y-2988929D01*
X406785Y-3046071D01*
X392500Y-3074643D01*
X378214Y-3088929D01*
X349643Y-3103214D01*
X321071Y-3103214D01*
X292500Y-3088929D01*
X278214Y-3074643D01*
X263928Y-3046071D01*
X249643Y-2988929D01*
X249643Y-2917500D01*
X263928Y-2860357D01*
X278214Y-2831786D01*
X292500Y-2817500D01*
X321071Y-2803214D01*
X706785Y-3103214D02*
X535357Y-3103214D01*
X621071Y-3103214D02*
X621071Y-2803214D01*
X592500Y-2846071D01*
X563928Y-2874643D01*
X535357Y-2888929D01*
X806785Y-2803214D02*
X992500Y-2803214D01*
X892500Y-2917500D01*
X935357Y-2917500D01*
X963928Y-2931786D01*
X978214Y-2946071D01*
X992500Y-2974643D01*
X992500Y-3046071D01*
X978214Y-3074643D01*
X963928Y-3088929D01*
X935357Y-3103214D01*
X849643Y-3103214D01*
X821071Y-3088929D01*
X806785Y-3074643D01*
X1106786Y-2803214D02*
X1106786Y-2860357D01*
X1221071Y-2803214D02*
X1221071Y-2860357D01*
X1663928Y-3217500D02*
X1649643Y-3203214D01*
X1621071Y-3160357D01*
X1606785Y-3131786D01*
X1592500Y-3088929D01*
X1578214Y-3017500D01*
X1578214Y-2960357D01*
X1592500Y-2888929D01*
X1606785Y-2846071D01*
X1621071Y-2817500D01*
X1649643Y-2774643D01*
X1663928Y-2760357D01*
X1749643Y-2803214D02*
X1949643Y-2803214D01*
X1821071Y-3103214D01*
X2221071Y-3103214D02*
X2049643Y-3103214D01*
X2135357Y-3103214D02*
X2135357Y-2803214D01*
X2106786Y-2846071D01*
X2078214Y-2874643D01*
X2049643Y-2888929D01*
X2578214Y-3103214D02*
X2578214Y-2803214D01*
X2706786Y-3103214D02*
X2706786Y-2946071D01*
X2692500Y-2917500D01*
X2663928Y-2903214D01*
X2621071Y-2903214D01*
X2592500Y-2917500D01*
X2578214Y-2931786D01*
X2892500Y-3103214D02*
X2863928Y-3088929D01*
X2849643Y-3074643D01*
X2835357Y-3046071D01*
X2835357Y-2960357D01*
X2849643Y-2931786D01*
X2863928Y-2917500D01*
X2892500Y-2903214D01*
X2935357Y-2903214D01*
X2963928Y-2917500D01*
X2978214Y-2931786D01*
X2992500Y-2960357D01*
X2992500Y-3046071D01*
X2978214Y-3074643D01*
X2963928Y-3088929D01*
X2935357Y-3103214D01*
X2892500Y-3103214D01*
X3163928Y-3103214D02*
X3135357Y-3088929D01*
X3121071Y-3060357D01*
X3121071Y-2803214D01*
X3392500Y-3088929D02*
X3363928Y-3103214D01*
X3306786Y-3103214D01*
X3278214Y-3088929D01*
X3263928Y-3060357D01*
X3263928Y-2946071D01*
X3278214Y-2917500D01*
X3306786Y-2903214D01*
X3363928Y-2903214D01*
X3392500Y-2917500D01*
X3406786Y-2946071D01*
X3406786Y-2974643D01*
X3263928Y-3003214D01*
X3521071Y-3088929D02*
X3549643Y-3103214D01*
X3606786Y-3103214D01*
X3635357Y-3088929D01*
X3649643Y-3060357D01*
X3649643Y-3046071D01*
X3635357Y-3017500D01*
X3606786Y-3003214D01*
X3563928Y-3003214D01*
X3535357Y-2988929D01*
X3521071Y-2960357D01*
X3521071Y-2946071D01*
X3535357Y-2917500D01*
X3563928Y-2903214D01*
X3606786Y-2903214D01*
X3635357Y-2917500D01*
X3749643Y-3217500D02*
X3763928Y-3203214D01*
X3792500Y-3160357D01*
X3806786Y-3131786D01*
X3821071Y-3088929D01*
X3835357Y-3017500D01*
X3835357Y-2960357D01*
X3821071Y-2888929D01*
X3806786Y-2846071D01*
X3792500Y-2817500D01*
X3763928Y-2774643D01*
X3749643Y-2760357D01*
X-3007500Y-3363500D02*
G75*
G03X-3007500Y-3363500I-83820J0D01*
G01*
X-2578929Y-3499214D02*
X-2750357Y-3499214D01*
X-2664643Y-3499214D02*
X-2664643Y-3199214D01*
X-2693214Y-3242071D01*
X-2721786Y-3270643D01*
X-2750357Y-3284929D01*
X-2450357Y-3470643D02*
X-2436072Y-3484929D01*
X-2450357Y-3499214D01*
X-2464643Y-3484929D01*
X-2450357Y-3470643D01*
X-2450357Y-3499214D01*
X-2178929Y-3199214D02*
X-2236072Y-3199214D01*
X-2264643Y-3213500D01*
X-2278929Y-3227786D01*
X-2307500Y-3270643D01*
X-2321786Y-3327786D01*
X-2321786Y-3442071D01*
X-2307500Y-3470643D01*
X-2293214Y-3484929D01*
X-2264643Y-3499214D01*
X-2207500Y-3499214D01*
X-2178929Y-3484929D01*
X-2164643Y-3470643D01*
X-2150357Y-3442071D01*
X-2150357Y-3370643D01*
X-2164643Y-3342071D01*
X-2178929Y-3327786D01*
X-2207500Y-3313500D01*
X-2264643Y-3313500D01*
X-2293214Y-3327786D01*
X-2307500Y-3342071D01*
X-2321786Y-3370643D01*
X-1978929Y-3327786D02*
X-2007500Y-3313500D01*
X-2021786Y-3299214D01*
X-2036071Y-3270643D01*
X-2036071Y-3256357D01*
X-2021786Y-3227786D01*
X-2007500Y-3213500D01*
X-1978929Y-3199214D01*
X-1921786Y-3199214D01*
X-1893214Y-3213500D01*
X-1878929Y-3227786D01*
X-1864643Y-3256357D01*
X-1864643Y-3270643D01*
X-1878929Y-3299214D01*
X-1893214Y-3313500D01*
X-1921786Y-3327786D01*
X-1978929Y-3327786D01*
X-2007500Y-3342071D01*
X-2021786Y-3356357D01*
X-2036071Y-3384929D01*
X-2036071Y-3442071D01*
X-2021786Y-3470643D01*
X-2007500Y-3484929D01*
X-1978929Y-3499214D01*
X-1921786Y-3499214D01*
X-1893214Y-3484929D01*
X-1878929Y-3470643D01*
X-1864643Y-3442071D01*
X-1864643Y-3384929D01*
X-1878929Y-3356357D01*
X-1893214Y-3342071D01*
X-1921786Y-3327786D01*
X-1736071Y-3499214D02*
X-1736071Y-3299214D01*
X-1736071Y-3327786D02*
X-1721786Y-3313500D01*
X-1693214Y-3299214D01*
X-1650357Y-3299214D01*
X-1621786Y-3313500D01*
X-1607500Y-3342071D01*
X-1607500Y-3499214D01*
X-1607500Y-3342071D02*
X-1593214Y-3313500D01*
X-1564643Y-3299214D01*
X-1521786Y-3299214D01*
X-1493214Y-3313500D01*
X-1478929Y-3342071D01*
X-1478929Y-3499214D01*
X-1336072Y-3499214D02*
X-1336072Y-3299214D01*
X-1336072Y-3327786D02*
X-1321786Y-3313500D01*
X-1293214Y-3299214D01*
X-1250357Y-3299214D01*
X-1221786Y-3313500D01*
X-1207500Y-3342071D01*
X-1207500Y-3499214D01*
X-1207500Y-3342071D02*
X-1193214Y-3313500D01*
X-1164643Y-3299214D01*
X-1121786Y-3299214D01*
X-1093214Y-3313500D01*
X-1078929Y-3342071D01*
X-1078929Y-3499214D01*
X-493214Y-3184929D02*
X-750357Y-3570643D01*
X-107500Y-3199214D02*
X-78929Y-3199214D01*
X-50357Y-3213500D01*
X-36072Y-3227786D01*
X-21786Y-3256357D01*
X-7500Y-3313500D01*
X-7500Y-3384929D01*
X-21786Y-3442071D01*
X-36072Y-3470643D01*
X-50357Y-3484929D01*
X-78929Y-3499214D01*
X-107500Y-3499214D01*
X-136072Y-3484929D01*
X-150357Y-3470643D01*
X-164643Y-3442071D01*
X-178929Y-3384929D01*
X-178929Y-3313500D01*
X-164643Y-3256357D01*
X-150357Y-3227786D01*
X-136072Y-3213500D01*
X-107500Y-3199214D01*
X121071Y-3470643D02*
X135357Y-3484929D01*
X121071Y-3499214D01*
X106786Y-3484929D01*
X121071Y-3470643D01*
X121071Y-3499214D01*
X321071Y-3199214D02*
X349643Y-3199214D01*
X378214Y-3213500D01*
X392500Y-3227786D01*
X406785Y-3256357D01*
X421071Y-3313500D01*
X421071Y-3384929D01*
X406785Y-3442071D01*
X392500Y-3470643D01*
X378214Y-3484929D01*
X349643Y-3499214D01*
X321071Y-3499214D01*
X292500Y-3484929D01*
X278214Y-3470643D01*
X263928Y-3442071D01*
X249643Y-3384929D01*
X249643Y-3313500D01*
X263928Y-3256357D01*
X278214Y-3227786D01*
X292500Y-3213500D01*
X321071Y-3199214D01*
X678214Y-3199214D02*
X621071Y-3199214D01*
X592500Y-3213500D01*
X578214Y-3227786D01*
X549643Y-3270643D01*
X535357Y-3327786D01*
X535357Y-3442071D01*
X549643Y-3470643D01*
X563928Y-3484929D01*
X592500Y-3499214D01*
X649643Y-3499214D01*
X678214Y-3484929D01*
X692500Y-3470643D01*
X706785Y-3442071D01*
X706785Y-3370643D01*
X692500Y-3342071D01*
X678214Y-3327786D01*
X649643Y-3313500D01*
X592500Y-3313500D01*
X563928Y-3327786D01*
X549643Y-3342071D01*
X535357Y-3370643D01*
X963928Y-3199214D02*
X906785Y-3199214D01*
X878214Y-3213500D01*
X863928Y-3227786D01*
X835357Y-3270643D01*
X821071Y-3327786D01*
X821071Y-3442071D01*
X835357Y-3470643D01*
X849643Y-3484929D01*
X878214Y-3499214D01*
X935357Y-3499214D01*
X963928Y-3484929D01*
X978214Y-3470643D01*
X992500Y-3442071D01*
X992500Y-3370643D01*
X978214Y-3342071D01*
X963928Y-3327786D01*
X935357Y-3313500D01*
X878214Y-3313500D01*
X849643Y-3327786D01*
X835357Y-3342071D01*
X821071Y-3370643D01*
X1106786Y-3199214D02*
X1106786Y-3256357D01*
X1221071Y-3199214D02*
X1221071Y-3256357D01*
X1663928Y-3613500D02*
X1649643Y-3599214D01*
X1621071Y-3556357D01*
X1606785Y-3527786D01*
X1592500Y-3484929D01*
X1578214Y-3413500D01*
X1578214Y-3356357D01*
X1592500Y-3284929D01*
X1606785Y-3242071D01*
X1621071Y-3213500D01*
X1649643Y-3170643D01*
X1663928Y-3156357D01*
X1763928Y-3227786D02*
X1778214Y-3213500D01*
X1806785Y-3199214D01*
X1878214Y-3199214D01*
X1906785Y-3213500D01*
X1921071Y-3227786D01*
X1935357Y-3256357D01*
X1935357Y-3284929D01*
X1921071Y-3327786D01*
X1749643Y-3499214D01*
X1935357Y-3499214D01*
X2292500Y-3499214D02*
X2292500Y-3199214D01*
X2421071Y-3499214D02*
X2421071Y-3342071D01*
X2406786Y-3313500D01*
X2378214Y-3299214D01*
X2335357Y-3299214D01*
X2306786Y-3313500D01*
X2292500Y-3327786D01*
X2606786Y-3499214D02*
X2578214Y-3484929D01*
X2563928Y-3470643D01*
X2549643Y-3442071D01*
X2549643Y-3356357D01*
X2563928Y-3327786D01*
X2578214Y-3313500D01*
X2606786Y-3299214D01*
X2649643Y-3299214D01*
X2678214Y-3313500D01*
X2692500Y-3327786D01*
X2706786Y-3356357D01*
X2706786Y-3442071D01*
X2692500Y-3470643D01*
X2678214Y-3484929D01*
X2649643Y-3499214D01*
X2606786Y-3499214D01*
X2878214Y-3499214D02*
X2849643Y-3484929D01*
X2835357Y-3456357D01*
X2835357Y-3199214D01*
X3106786Y-3484929D02*
X3078214Y-3499214D01*
X3021071Y-3499214D01*
X2992500Y-3484929D01*
X2978214Y-3456357D01*
X2978214Y-3342071D01*
X2992500Y-3313500D01*
X3021071Y-3299214D01*
X3078214Y-3299214D01*
X3106786Y-3313500D01*
X3121071Y-3342071D01*
X3121071Y-3370643D01*
X2978214Y-3399214D01*
X3235357Y-3484929D02*
X3263928Y-3499214D01*
X3321071Y-3499214D01*
X3349643Y-3484929D01*
X3363928Y-3456357D01*
X3363928Y-3442071D01*
X3349643Y-3413500D01*
X3321071Y-3399214D01*
X3278214Y-3399214D01*
X3249643Y-3384929D01*
X3235357Y-3356357D01*
X3235357Y-3342071D01*
X3249643Y-3313500D01*
X3278214Y-3299214D01*
X3321071Y-3299214D01*
X3349643Y-3313500D01*
X3463928Y-3613500D02*
X3478214Y-3599214D01*
X3506786Y-3556357D01*
X3521071Y-3527786D01*
X3535357Y-3484929D01*
X3549643Y-3413500D01*
X3549643Y-3356357D01*
X3535357Y-3284929D01*
X3521071Y-3242071D01*
X3506786Y-3213500D01*
X3478214Y-3170643D01*
X3463928Y-3156357D01*
X4006786Y-3613500D02*
X3992500Y-3599214D01*
X3963928Y-3556357D01*
X3949643Y-3527786D01*
X3935357Y-3484929D01*
X3921071Y-3413500D01*
X3921071Y-3356357D01*
X3935357Y-3284929D01*
X3949643Y-3242071D01*
X3963928Y-3213500D01*
X3992500Y-3170643D01*
X4006786Y-3156357D01*
X4121071Y-3299214D02*
X4121071Y-3499214D01*
X4121071Y-3327786D02*
X4135357Y-3313500D01*
X4163928Y-3299214D01*
X4206786Y-3299214D01*
X4235357Y-3313500D01*
X4249643Y-3342071D01*
X4249643Y-3499214D01*
X4435357Y-3499214D02*
X4406786Y-3484929D01*
X4392500Y-3470643D01*
X4378214Y-3442071D01*
X4378214Y-3356357D01*
X4392500Y-3327786D01*
X4406786Y-3313500D01*
X4435357Y-3299214D01*
X4478214Y-3299214D01*
X4506786Y-3313500D01*
X4521071Y-3327786D01*
X4535357Y-3356357D01*
X4535357Y-3442071D01*
X4521071Y-3470643D01*
X4506786Y-3484929D01*
X4478214Y-3499214D01*
X4435357Y-3499214D01*
X4621071Y-3299214D02*
X4735357Y-3299214D01*
X4663929Y-3199214D02*
X4663929Y-3456357D01*
X4678214Y-3484929D01*
X4706786Y-3499214D01*
X4735357Y-3499214D01*
X5063929Y-3299214D02*
X5063929Y-3599214D01*
X5063929Y-3313500D02*
X5092500Y-3299214D01*
X5149643Y-3299214D01*
X5178214Y-3313500D01*
X5192500Y-3327786D01*
X5206786Y-3356357D01*
X5206786Y-3442071D01*
X5192500Y-3470643D01*
X5178214Y-3484929D01*
X5149643Y-3499214D01*
X5092500Y-3499214D01*
X5063929Y-3484929D01*
X5378214Y-3499214D02*
X5349643Y-3484929D01*
X5335357Y-3456357D01*
X5335357Y-3199214D01*
X5621071Y-3499214D02*
X5621071Y-3342071D01*
X5606786Y-3313500D01*
X5578214Y-3299214D01*
X5521071Y-3299214D01*
X5492500Y-3313500D01*
X5621071Y-3484929D02*
X5592500Y-3499214D01*
X5521071Y-3499214D01*
X5492500Y-3484929D01*
X5478214Y-3456357D01*
X5478214Y-3427786D01*
X5492500Y-3399214D01*
X5521071Y-3384929D01*
X5592500Y-3384929D01*
X5621071Y-3370643D01*
X5721071Y-3299214D02*
X5835357Y-3299214D01*
X5763929Y-3199214D02*
X5763929Y-3456357D01*
X5778214Y-3484929D01*
X5806786Y-3499214D01*
X5835357Y-3499214D01*
X6049643Y-3484929D02*
X6021071Y-3499214D01*
X5963929Y-3499214D01*
X5935357Y-3484929D01*
X5921071Y-3456357D01*
X5921071Y-3342071D01*
X5935357Y-3313500D01*
X5963929Y-3299214D01*
X6021071Y-3299214D01*
X6049643Y-3313500D01*
X6063929Y-3342071D01*
X6063929Y-3370643D01*
X5921071Y-3399214D01*
X6321071Y-3499214D02*
X6321071Y-3199214D01*
X6321071Y-3484929D02*
X6292500Y-3499214D01*
X6235357Y-3499214D01*
X6206786Y-3484929D01*
X6192500Y-3470643D01*
X6178214Y-3442071D01*
X6178214Y-3356357D01*
X6192500Y-3327786D01*
X6206786Y-3313500D01*
X6235357Y-3299214D01*
X6292500Y-3299214D01*
X6321071Y-3313500D01*
X6435357Y-3613500D02*
X6449643Y-3599214D01*
X6478214Y-3556357D01*
X6492500Y-3527786D01*
X6506786Y-3484929D01*
X6521071Y-3413500D01*
X6521071Y-3356357D01*
X6506786Y-3284929D01*
X6492500Y-3242071D01*
X6478214Y-3213500D01*
X6449643Y-3170643D01*
X6435357Y-3156357D01*
X-3167500Y-3599500D02*
X-3167500Y-3919500D01*
X-3327500Y-3759500D02*
X-3007500Y-3759500D01*
X-2764643Y-3595214D02*
X-2578929Y-3595214D01*
X-2678929Y-3709500D01*
X-2636072Y-3709500D01*
X-2607500Y-3723786D01*
X-2593214Y-3738071D01*
X-2578929Y-3766643D01*
X-2578929Y-3838071D01*
X-2593214Y-3866643D01*
X-2607500Y-3880929D01*
X-2636072Y-3895214D01*
X-2721786Y-3895214D01*
X-2750357Y-3880929D01*
X-2764643Y-3866643D01*
X-2450357Y-3866643D02*
X-2436072Y-3880929D01*
X-2450357Y-3895214D01*
X-2464643Y-3880929D01*
X-2450357Y-3866643D01*
X-2450357Y-3895214D01*
X-2321786Y-3623786D02*
X-2307500Y-3609500D01*
X-2278929Y-3595214D01*
X-2207500Y-3595214D01*
X-2178929Y-3609500D01*
X-2164643Y-3623786D01*
X-2150357Y-3652357D01*
X-2150357Y-3680929D01*
X-2164643Y-3723786D01*
X-2336072Y-3895214D01*
X-2150357Y-3895214D01*
X-1964643Y-3595214D02*
X-1936071Y-3595214D01*
X-1907500Y-3609500D01*
X-1893214Y-3623786D01*
X-1878929Y-3652357D01*
X-1864643Y-3709500D01*
X-1864643Y-3780929D01*
X-1878929Y-3838071D01*
X-1893214Y-3866643D01*
X-1907500Y-3880929D01*
X-1936071Y-3895214D01*
X-1964643Y-3895214D01*
X-1993214Y-3880929D01*
X-2007500Y-3866643D01*
X-2021786Y-3838071D01*
X-2036071Y-3780929D01*
X-2036071Y-3709500D01*
X-2021786Y-3652357D01*
X-2007500Y-3623786D01*
X-1993214Y-3609500D01*
X-1964643Y-3595214D01*
X-1736071Y-3895214D02*
X-1736071Y-3695214D01*
X-1736071Y-3723786D02*
X-1721786Y-3709500D01*
X-1693214Y-3695214D01*
X-1650357Y-3695214D01*
X-1621786Y-3709500D01*
X-1607500Y-3738071D01*
X-1607500Y-3895214D01*
X-1607500Y-3738071D02*
X-1593214Y-3709500D01*
X-1564643Y-3695214D01*
X-1521786Y-3695214D01*
X-1493214Y-3709500D01*
X-1478929Y-3738071D01*
X-1478929Y-3895214D01*
X-1336072Y-3895214D02*
X-1336072Y-3695214D01*
X-1336072Y-3723786D02*
X-1321786Y-3709500D01*
X-1293214Y-3695214D01*
X-1250357Y-3695214D01*
X-1221786Y-3709500D01*
X-1207500Y-3738071D01*
X-1207500Y-3895214D01*
X-1207500Y-3738071D02*
X-1193214Y-3709500D01*
X-1164643Y-3695214D01*
X-1121786Y-3695214D01*
X-1093214Y-3709500D01*
X-1078929Y-3738071D01*
X-1078929Y-3895214D01*
X-493214Y-3580929D02*
X-750357Y-3966643D01*
X-107500Y-3595214D02*
X-78929Y-3595214D01*
X-50357Y-3609500D01*
X-36072Y-3623786D01*
X-21786Y-3652357D01*
X-7500Y-3709500D01*
X-7500Y-3780929D01*
X-21786Y-3838071D01*
X-36072Y-3866643D01*
X-50357Y-3880929D01*
X-78929Y-3895214D01*
X-107500Y-3895214D01*
X-136072Y-3880929D01*
X-150357Y-3866643D01*
X-164643Y-3838071D01*
X-178929Y-3780929D01*
X-178929Y-3709500D01*
X-164643Y-3652357D01*
X-150357Y-3623786D01*
X-136072Y-3609500D01*
X-107500Y-3595214D01*
X121071Y-3866643D02*
X135357Y-3880929D01*
X121071Y-3895214D01*
X106786Y-3880929D01*
X121071Y-3866643D01*
X121071Y-3895214D01*
X421071Y-3895214D02*
X249643Y-3895214D01*
X335357Y-3895214D02*
X335357Y-3595214D01*
X306786Y-3638071D01*
X278214Y-3666643D01*
X249643Y-3680929D01*
X535357Y-3623786D02*
X549643Y-3609500D01*
X578214Y-3595214D01*
X649643Y-3595214D01*
X678214Y-3609500D01*
X692500Y-3623786D01*
X706785Y-3652357D01*
X706785Y-3680929D01*
X692500Y-3723786D01*
X521071Y-3895214D01*
X706785Y-3895214D01*
X963928Y-3595214D02*
X906785Y-3595214D01*
X878214Y-3609500D01*
X863928Y-3623786D01*
X835357Y-3666643D01*
X821071Y-3723786D01*
X821071Y-3838071D01*
X835357Y-3866643D01*
X849643Y-3880929D01*
X878214Y-3895214D01*
X935357Y-3895214D01*
X963928Y-3880929D01*
X978214Y-3866643D01*
X992500Y-3838071D01*
X992500Y-3766643D01*
X978214Y-3738071D01*
X963928Y-3723786D01*
X935357Y-3709500D01*
X878214Y-3709500D01*
X849643Y-3723786D01*
X835357Y-3738071D01*
X821071Y-3766643D01*
X1106786Y-3595214D02*
X1106786Y-3652357D01*
X1221071Y-3595214D02*
X1221071Y-3652357D01*
X1663928Y-4009500D02*
X1649643Y-3995214D01*
X1621071Y-3952357D01*
X1606785Y-3923786D01*
X1592500Y-3880929D01*
X1578214Y-3809500D01*
X1578214Y-3752357D01*
X1592500Y-3680929D01*
X1606785Y-3638071D01*
X1621071Y-3609500D01*
X1649643Y-3566643D01*
X1663928Y-3552357D01*
X1906785Y-3695214D02*
X1906785Y-3895214D01*
X1835357Y-3580929D02*
X1763928Y-3795214D01*
X1949643Y-3795214D01*
X2292500Y-3895214D02*
X2292500Y-3595214D01*
X2421071Y-3895214D02*
X2421071Y-3738071D01*
X2406786Y-3709500D01*
X2378214Y-3695214D01*
X2335357Y-3695214D01*
X2306786Y-3709500D01*
X2292500Y-3723786D01*
X2606786Y-3895214D02*
X2578214Y-3880929D01*
X2563928Y-3866643D01*
X2549643Y-3838071D01*
X2549643Y-3752357D01*
X2563928Y-3723786D01*
X2578214Y-3709500D01*
X2606786Y-3695214D01*
X2649643Y-3695214D01*
X2678214Y-3709500D01*
X2692500Y-3723786D01*
X2706786Y-3752357D01*
X2706786Y-3838071D01*
X2692500Y-3866643D01*
X2678214Y-3880929D01*
X2649643Y-3895214D01*
X2606786Y-3895214D01*
X2878214Y-3895214D02*
X2849643Y-3880929D01*
X2835357Y-3852357D01*
X2835357Y-3595214D01*
X3106786Y-3880929D02*
X3078214Y-3895214D01*
X3021071Y-3895214D01*
X2992500Y-3880929D01*
X2978214Y-3852357D01*
X2978214Y-3738071D01*
X2992500Y-3709500D01*
X3021071Y-3695214D01*
X3078214Y-3695214D01*
X3106786Y-3709500D01*
X3121071Y-3738071D01*
X3121071Y-3766643D01*
X2978214Y-3795214D01*
X3235357Y-3880929D02*
X3263928Y-3895214D01*
X3321071Y-3895214D01*
X3349643Y-3880929D01*
X3363928Y-3852357D01*
X3363928Y-3838071D01*
X3349643Y-3809500D01*
X3321071Y-3795214D01*
X3278214Y-3795214D01*
X3249643Y-3780929D01*
X3235357Y-3752357D01*
X3235357Y-3738071D01*
X3249643Y-3709500D01*
X3278214Y-3695214D01*
X3321071Y-3695214D01*
X3349643Y-3709500D01*
X3463928Y-4009500D02*
X3478214Y-3995214D01*
X3506786Y-3952357D01*
X3521071Y-3923786D01*
X3535357Y-3880929D01*
X3549643Y-3809500D01*
X3549643Y-3752357D01*
X3535357Y-3680929D01*
X3521071Y-3638071D01*
X3506786Y-3609500D01*
X3478214Y-3566643D01*
X3463928Y-3552357D01*
X4006786Y-4009500D02*
X3992500Y-3995214D01*
X3963928Y-3952357D01*
X3949643Y-3923786D01*
X3935357Y-3880929D01*
X3921071Y-3809500D01*
X3921071Y-3752357D01*
X3935357Y-3680929D01*
X3949643Y-3638071D01*
X3963928Y-3609500D01*
X3992500Y-3566643D01*
X4006786Y-3552357D01*
X4121071Y-3695214D02*
X4121071Y-3895214D01*
X4121071Y-3723786D02*
X4135357Y-3709500D01*
X4163928Y-3695214D01*
X4206786Y-3695214D01*
X4235357Y-3709500D01*
X4249643Y-3738071D01*
X4249643Y-3895214D01*
X4435357Y-3895214D02*
X4406786Y-3880929D01*
X4392500Y-3866643D01*
X4378214Y-3838071D01*
X4378214Y-3752357D01*
X4392500Y-3723786D01*
X4406786Y-3709500D01*
X4435357Y-3695214D01*
X4478214Y-3695214D01*
X4506786Y-3709500D01*
X4521071Y-3723786D01*
X4535357Y-3752357D01*
X4535357Y-3838071D01*
X4521071Y-3866643D01*
X4506786Y-3880929D01*
X4478214Y-3895214D01*
X4435357Y-3895214D01*
X4621071Y-3695214D02*
X4735357Y-3695214D01*
X4663929Y-3595214D02*
X4663929Y-3852357D01*
X4678214Y-3880929D01*
X4706786Y-3895214D01*
X4735357Y-3895214D01*
X5063929Y-3695214D02*
X5063929Y-3995214D01*
X5063929Y-3709500D02*
X5092500Y-3695214D01*
X5149643Y-3695214D01*
X5178214Y-3709500D01*
X5192500Y-3723786D01*
X5206786Y-3752357D01*
X5206786Y-3838071D01*
X5192500Y-3866643D01*
X5178214Y-3880929D01*
X5149643Y-3895214D01*
X5092500Y-3895214D01*
X5063929Y-3880929D01*
X5378214Y-3895214D02*
X5349643Y-3880929D01*
X5335357Y-3852357D01*
X5335357Y-3595214D01*
X5621071Y-3895214D02*
X5621071Y-3738071D01*
X5606786Y-3709500D01*
X5578214Y-3695214D01*
X5521071Y-3695214D01*
X5492500Y-3709500D01*
X5621071Y-3880929D02*
X5592500Y-3895214D01*
X5521071Y-3895214D01*
X5492500Y-3880929D01*
X5478214Y-3852357D01*
X5478214Y-3823786D01*
X5492500Y-3795214D01*
X5521071Y-3780929D01*
X5592500Y-3780929D01*
X5621071Y-3766643D01*
X5721071Y-3695214D02*
X5835357Y-3695214D01*
X5763929Y-3595214D02*
X5763929Y-3852357D01*
X5778214Y-3880929D01*
X5806786Y-3895214D01*
X5835357Y-3895214D01*
X6049643Y-3880929D02*
X6021071Y-3895214D01*
X5963929Y-3895214D01*
X5935357Y-3880929D01*
X5921071Y-3852357D01*
X5921071Y-3738071D01*
X5935357Y-3709500D01*
X5963929Y-3695214D01*
X6021071Y-3695214D01*
X6049643Y-3709500D01*
X6063929Y-3738071D01*
X6063929Y-3766643D01*
X5921071Y-3795214D01*
X6321071Y-3895214D02*
X6321071Y-3595214D01*
X6321071Y-3880929D02*
X6292500Y-3895214D01*
X6235357Y-3895214D01*
X6206786Y-3880929D01*
X6192500Y-3866643D01*
X6178214Y-3838071D01*
X6178214Y-3752357D01*
X6192500Y-3723786D01*
X6206786Y-3709500D01*
X6235357Y-3695214D01*
X6292500Y-3695214D01*
X6321071Y-3709500D01*
X6435357Y-4009500D02*
X6449643Y-3995214D01*
X6478214Y-3952357D01*
X6492500Y-3923786D01*
X6506786Y-3880929D01*
X6521071Y-3809500D01*
X6521071Y-3752357D01*
X6506786Y-3680929D01*
X6492500Y-3638071D01*
X6478214Y-3609500D01*
X6449643Y-3566643D01*
X6435357Y-3552357D01*
X-3061684Y-4340316D02*
X-3061684Y-4078684D01*
X-3323316Y-4078684D01*
X-3323316Y-4340316D01*
X-3061684Y-4340316D01*
X-2764643Y-4045214D02*
X-2578929Y-4045214D01*
X-2678929Y-4159500D01*
X-2636072Y-4159500D01*
X-2607500Y-4173786D01*
X-2593214Y-4188071D01*
X-2578929Y-4216643D01*
X-2578929Y-4288072D01*
X-2593214Y-4316643D01*
X-2607500Y-4330929D01*
X-2636072Y-4345214D01*
X-2721786Y-4345214D01*
X-2750357Y-4330929D01*
X-2764643Y-4316643D01*
X-2450357Y-4316643D02*
X-2436072Y-4330929D01*
X-2450357Y-4345214D01*
X-2464643Y-4330929D01*
X-2450357Y-4316643D01*
X-2450357Y-4345214D01*
X-2336072Y-4045214D02*
X-2136072Y-4045214D01*
X-2264643Y-4345214D01*
X-1964643Y-4045214D02*
X-1936071Y-4045214D01*
X-1907500Y-4059500D01*
X-1893214Y-4073786D01*
X-1878929Y-4102357D01*
X-1864643Y-4159500D01*
X-1864643Y-4230929D01*
X-1878929Y-4288072D01*
X-1893214Y-4316643D01*
X-1907500Y-4330929D01*
X-1936071Y-4345214D01*
X-1964643Y-4345214D01*
X-1993214Y-4330929D01*
X-2007500Y-4316643D01*
X-2021786Y-4288072D01*
X-2036071Y-4230929D01*
X-2036071Y-4159500D01*
X-2021786Y-4102357D01*
X-2007500Y-4073786D01*
X-1993214Y-4059500D01*
X-1964643Y-4045214D01*
X-1736071Y-4345214D02*
X-1736071Y-4145214D01*
X-1736071Y-4173786D02*
X-1721786Y-4159500D01*
X-1693214Y-4145214D01*
X-1650357Y-4145214D01*
X-1621786Y-4159500D01*
X-1607500Y-4188071D01*
X-1607500Y-4345214D01*
X-1607500Y-4188071D02*
X-1593214Y-4159500D01*
X-1564643Y-4145214D01*
X-1521786Y-4145214D01*
X-1493214Y-4159500D01*
X-1478929Y-4188071D01*
X-1478929Y-4345214D01*
X-1336072Y-4345214D02*
X-1336072Y-4145214D01*
X-1336072Y-4173786D02*
X-1321786Y-4159500D01*
X-1293214Y-4145214D01*
X-1250357Y-4145214D01*
X-1221786Y-4159500D01*
X-1207500Y-4188071D01*
X-1207500Y-4345214D01*
X-1207500Y-4188071D02*
X-1193214Y-4159500D01*
X-1164643Y-4145214D01*
X-1121786Y-4145214D01*
X-1093214Y-4159500D01*
X-1078929Y-4188071D01*
X-1078929Y-4345214D01*
X-493214Y-4030929D02*
X-750357Y-4416643D01*
X-107500Y-4045214D02*
X-78929Y-4045214D01*
X-50357Y-4059500D01*
X-36072Y-4073786D01*
X-21786Y-4102357D01*
X-7500Y-4159500D01*
X-7500Y-4230929D01*
X-21786Y-4288072D01*
X-36072Y-4316643D01*
X-50357Y-4330929D01*
X-78929Y-4345214D01*
X-107500Y-4345214D01*
X-136072Y-4330929D01*
X-150357Y-4316643D01*
X-164643Y-4288072D01*
X-178929Y-4230929D01*
X-178929Y-4159500D01*
X-164643Y-4102357D01*
X-150357Y-4073786D01*
X-136072Y-4059500D01*
X-107500Y-4045214D01*
X121071Y-4316643D02*
X135357Y-4330929D01*
X121071Y-4345214D01*
X106786Y-4330929D01*
X121071Y-4316643D01*
X121071Y-4345214D01*
X421071Y-4345214D02*
X249643Y-4345214D01*
X335357Y-4345214D02*
X335357Y-4045214D01*
X306786Y-4088071D01*
X278214Y-4116643D01*
X249643Y-4130929D01*
X678214Y-4145214D02*
X678214Y-4345214D01*
X606786Y-4030929D02*
X535357Y-4245214D01*
X721071Y-4245214D01*
X963928Y-4045214D02*
X906785Y-4045214D01*
X878214Y-4059500D01*
X863928Y-4073786D01*
X835357Y-4116643D01*
X821071Y-4173786D01*
X821071Y-4288072D01*
X835357Y-4316643D01*
X849643Y-4330929D01*
X878214Y-4345214D01*
X935357Y-4345214D01*
X963928Y-4330929D01*
X978214Y-4316643D01*
X992500Y-4288072D01*
X992500Y-4216643D01*
X978214Y-4188071D01*
X963928Y-4173786D01*
X935357Y-4159500D01*
X878214Y-4159500D01*
X849643Y-4173786D01*
X835357Y-4188071D01*
X821071Y-4216643D01*
X1106786Y-4045214D02*
X1106786Y-4102357D01*
X1221071Y-4045214D02*
X1221071Y-4102357D01*
X1663928Y-4459500D02*
X1649643Y-4445214D01*
X1621071Y-4402357D01*
X1606785Y-4373786D01*
X1592500Y-4330929D01*
X1578214Y-4259500D01*
X1578214Y-4202357D01*
X1592500Y-4130929D01*
X1606785Y-4088071D01*
X1621071Y-4059500D01*
X1649643Y-4016643D01*
X1663928Y-4002357D01*
X1906785Y-4145214D02*
X1906785Y-4345214D01*
X1835357Y-4030929D02*
X1763928Y-4245214D01*
X1949643Y-4245214D01*
X2292500Y-4345214D02*
X2292500Y-4045214D01*
X2421071Y-4345214D02*
X2421071Y-4188071D01*
X2406786Y-4159500D01*
X2378214Y-4145214D01*
X2335357Y-4145214D01*
X2306786Y-4159500D01*
X2292500Y-4173786D01*
X2606786Y-4345214D02*
X2578214Y-4330929D01*
X2563928Y-4316643D01*
X2549643Y-4288072D01*
X2549643Y-4202357D01*
X2563928Y-4173786D01*
X2578214Y-4159500D01*
X2606786Y-4145214D01*
X2649643Y-4145214D01*
X2678214Y-4159500D01*
X2692500Y-4173786D01*
X2706786Y-4202357D01*
X2706786Y-4288072D01*
X2692500Y-4316643D01*
X2678214Y-4330929D01*
X2649643Y-4345214D01*
X2606786Y-4345214D01*
X2878214Y-4345214D02*
X2849643Y-4330929D01*
X2835357Y-4302357D01*
X2835357Y-4045214D01*
X3106786Y-4330929D02*
X3078214Y-4345214D01*
X3021071Y-4345214D01*
X2992500Y-4330929D01*
X2978214Y-4302357D01*
X2978214Y-4188071D01*
X2992500Y-4159500D01*
X3021071Y-4145214D01*
X3078214Y-4145214D01*
X3106786Y-4159500D01*
X3121071Y-4188071D01*
X3121071Y-4216643D01*
X2978214Y-4245214D01*
X3235357Y-4330929D02*
X3263928Y-4345214D01*
X3321071Y-4345214D01*
X3349643Y-4330929D01*
X3363928Y-4302357D01*
X3363928Y-4288072D01*
X3349643Y-4259500D01*
X3321071Y-4245214D01*
X3278214Y-4245214D01*
X3249643Y-4230929D01*
X3235357Y-4202357D01*
X3235357Y-4188071D01*
X3249643Y-4159500D01*
X3278214Y-4145214D01*
X3321071Y-4145214D01*
X3349643Y-4159500D01*
X3463928Y-4459500D02*
X3478214Y-4445214D01*
X3506786Y-4402357D01*
X3521071Y-4373786D01*
X3535357Y-4330929D01*
X3549643Y-4259500D01*
X3549643Y-4202357D01*
X3535357Y-4130929D01*
X3521071Y-4088071D01*
X3506786Y-4059500D01*
X3478214Y-4016643D01*
X3463928Y-4002357D01*
X4006786Y-4459500D02*
X3992500Y-4445214D01*
X3963928Y-4402357D01*
X3949643Y-4373786D01*
X3935357Y-4330929D01*
X3921071Y-4259500D01*
X3921071Y-4202357D01*
X3935357Y-4130929D01*
X3949643Y-4088071D01*
X3963928Y-4059500D01*
X3992500Y-4016643D01*
X4006786Y-4002357D01*
X4121071Y-4145214D02*
X4121071Y-4345214D01*
X4121071Y-4173786D02*
X4135357Y-4159500D01*
X4163928Y-4145214D01*
X4206786Y-4145214D01*
X4235357Y-4159500D01*
X4249643Y-4188071D01*
X4249643Y-4345214D01*
X4435357Y-4345214D02*
X4406786Y-4330929D01*
X4392500Y-4316643D01*
X4378214Y-4288072D01*
X4378214Y-4202357D01*
X4392500Y-4173786D01*
X4406786Y-4159500D01*
X4435357Y-4145214D01*
X4478214Y-4145214D01*
X4506786Y-4159500D01*
X4521071Y-4173786D01*
X4535357Y-4202357D01*
X4535357Y-4288072D01*
X4521071Y-4316643D01*
X4506786Y-4330929D01*
X4478214Y-4345214D01*
X4435357Y-4345214D01*
X4621071Y-4145214D02*
X4735357Y-4145214D01*
X4663929Y-4045214D02*
X4663929Y-4302357D01*
X4678214Y-4330929D01*
X4706786Y-4345214D01*
X4735357Y-4345214D01*
X5063929Y-4145214D02*
X5063929Y-4445214D01*
X5063929Y-4159500D02*
X5092500Y-4145214D01*
X5149643Y-4145214D01*
X5178214Y-4159500D01*
X5192500Y-4173786D01*
X5206786Y-4202357D01*
X5206786Y-4288072D01*
X5192500Y-4316643D01*
X5178214Y-4330929D01*
X5149643Y-4345214D01*
X5092500Y-4345214D01*
X5063929Y-4330929D01*
X5378214Y-4345214D02*
X5349643Y-4330929D01*
X5335357Y-4302357D01*
X5335357Y-4045214D01*
X5621071Y-4345214D02*
X5621071Y-4188071D01*
X5606786Y-4159500D01*
X5578214Y-4145214D01*
X5521071Y-4145214D01*
X5492500Y-4159500D01*
X5621071Y-4330929D02*
X5592500Y-4345214D01*
X5521071Y-4345214D01*
X5492500Y-4330929D01*
X5478214Y-4302357D01*
X5478214Y-4273786D01*
X5492500Y-4245214D01*
X5521071Y-4230929D01*
X5592500Y-4230929D01*
X5621071Y-4216643D01*
X5721071Y-4145214D02*
X5835357Y-4145214D01*
X5763929Y-4045214D02*
X5763929Y-4302357D01*
X5778214Y-4330929D01*
X5806786Y-4345214D01*
X5835357Y-4345214D01*
X6049643Y-4330929D02*
X6021071Y-4345214D01*
X5963929Y-4345214D01*
X5935357Y-4330929D01*
X5921071Y-4302357D01*
X5921071Y-4188071D01*
X5935357Y-4159500D01*
X5963929Y-4145214D01*
X6021071Y-4145214D01*
X6049643Y-4159500D01*
X6063929Y-4188071D01*
X6063929Y-4216643D01*
X5921071Y-4245214D01*
X6321071Y-4345214D02*
X6321071Y-4045214D01*
X6321071Y-4330929D02*
X6292500Y-4345214D01*
X6235357Y-4345214D01*
X6206786Y-4330929D01*
X6192500Y-4316643D01*
X6178214Y-4288072D01*
X6178214Y-4202357D01*
X6192500Y-4173786D01*
X6206786Y-4159500D01*
X6235357Y-4145214D01*
X6292500Y-4145214D01*
X6321071Y-4159500D01*
X6435357Y-4459500D02*
X6449643Y-4445214D01*
X6478214Y-4402357D01*
X6492500Y-4373786D01*
X6506786Y-4330929D01*
X6521071Y-4259500D01*
X6521071Y-4202357D01*
X6506786Y-4130929D01*
X6492500Y-4088071D01*
X6478214Y-4059500D01*
X6449643Y-4016643D01*
X6435357Y-4002357D01*
M02*
