G04 #@! TF.FileFunction,Legend,Top*
%FSLAX46Y46*%
G04 Gerber Fmt 4.6, Leading zero omitted, Abs format (unit mm)*
G04 Created by KiCad (PCBNEW 4.0.1-stable) date 5/8/2017 10:12:07 PM*
%MOMM*%
G01*
G04 APERTURE LIST*
%ADD10C,0.100000*%
%ADD11C,0.120000*%
%ADD12C,0.150000*%
%ADD13C,0.200000*%
%ADD14C,0.125000*%
G04 APERTURE END LIST*
D10*
D11*
X-22257771Y14818590D02*
X-22143485Y14780495D01*
X-21953009Y14780495D01*
X-21876819Y14818590D01*
X-21838723Y14856686D01*
X-21800628Y14932876D01*
X-21800628Y15009067D01*
X-21838723Y15085257D01*
X-21876819Y15123352D01*
X-21953009Y15161448D01*
X-22105390Y15199543D01*
X-22181581Y15237638D01*
X-22219676Y15275733D01*
X-22257771Y15351924D01*
X-22257771Y15428114D01*
X-22219676Y15504305D01*
X-22181581Y15542400D01*
X-22105390Y15580495D01*
X-21914914Y15580495D01*
X-21800628Y15542400D01*
X-21000628Y14856686D02*
X-21038723Y14818590D01*
X-21153009Y14780495D01*
X-21229199Y14780495D01*
X-21343485Y14818590D01*
X-21419676Y14894781D01*
X-21457771Y14970971D01*
X-21495866Y15123352D01*
X-21495866Y15237638D01*
X-21457771Y15390019D01*
X-21419676Y15466210D01*
X-21343485Y15542400D01*
X-21229199Y15580495D01*
X-21153009Y15580495D01*
X-21038723Y15542400D01*
X-21000628Y15504305D01*
X-20657771Y14780495D02*
X-20657771Y15580495D01*
X-20200628Y14780495D02*
X-20543485Y15237638D01*
X-20200628Y15580495D02*
X-20657771Y15123352D01*
X-22200628Y16418590D02*
X-22086342Y16380495D01*
X-21895866Y16380495D01*
X-21819676Y16418590D01*
X-21781580Y16456686D01*
X-21743485Y16532876D01*
X-21743485Y16609067D01*
X-21781580Y16685257D01*
X-21819676Y16723352D01*
X-21895866Y16761448D01*
X-22048247Y16799543D01*
X-22124438Y16837638D01*
X-22162533Y16875733D01*
X-22200628Y16951924D01*
X-22200628Y17028114D01*
X-22162533Y17104305D01*
X-22124438Y17142400D01*
X-22048247Y17180495D01*
X-21857771Y17180495D01*
X-21743485Y17142400D01*
X-21400628Y16380495D02*
X-21400628Y17180495D01*
X-21210152Y17180495D01*
X-21095866Y17142400D01*
X-21019675Y17066210D01*
X-20981580Y16990019D01*
X-20943485Y16837638D01*
X-20943485Y16723352D01*
X-20981580Y16570971D01*
X-21019675Y16494781D01*
X-21095866Y16418590D01*
X-21210152Y16380495D01*
X-21400628Y16380495D01*
X-20638723Y16609067D02*
X-20257771Y16609067D01*
X-20714914Y16380495D02*
X-20448247Y17180495D01*
X-20181580Y16380495D01*
X-12249200Y2052400D02*
X-12282534Y2019067D01*
X-12382534Y1985733D01*
X-12449200Y1985733D01*
X-12549200Y2019067D01*
X-12615867Y2085733D01*
X-12649200Y2152400D01*
X-12682534Y2285733D01*
X-12682534Y2385733D01*
X-12649200Y2519067D01*
X-12615867Y2585733D01*
X-12549200Y2652400D01*
X-12449200Y2685733D01*
X-12382534Y2685733D01*
X-12282534Y2652400D01*
X-12249200Y2619067D01*
X-11982534Y2019067D02*
X-11882534Y1985733D01*
X-11715867Y1985733D01*
X-11649200Y2019067D01*
X-11615867Y2052400D01*
X-11582534Y2119067D01*
X-11582534Y2185733D01*
X-11615867Y2252400D01*
X-11649200Y2285733D01*
X-11715867Y2319067D01*
X-11849200Y2352400D01*
X-11915867Y2385733D01*
X-11949200Y2419067D01*
X-11982534Y2485733D01*
X-11982534Y2552400D01*
X-11949200Y2619067D01*
X-11915867Y2652400D01*
X-11849200Y2685733D01*
X-11682534Y2685733D01*
X-11582534Y2652400D01*
X-11315867Y2619067D02*
X-11282533Y2652400D01*
X-11215867Y2685733D01*
X-11049200Y2685733D01*
X-10982533Y2652400D01*
X-10949200Y2619067D01*
X-10915867Y2552400D01*
X-10915867Y2485733D01*
X-10949200Y2385733D01*
X-11349200Y1985733D01*
X-10915867Y1985733D01*
X-12815867Y2806400D02*
X-10782533Y2806400D01*
X2450800Y-3367600D02*
X2417466Y-3400933D01*
X2317466Y-3434267D01*
X2250800Y-3434267D01*
X2150800Y-3400933D01*
X2084133Y-3334267D01*
X2050800Y-3267600D01*
X2017466Y-3134267D01*
X2017466Y-3034267D01*
X2050800Y-2900933D01*
X2084133Y-2834267D01*
X2150800Y-2767600D01*
X2250800Y-2734267D01*
X2317466Y-2734267D01*
X2417466Y-2767600D01*
X2450800Y-2800933D01*
X2717466Y-3400933D02*
X2817466Y-3434267D01*
X2984133Y-3434267D01*
X3050800Y-3400933D01*
X3084133Y-3367600D01*
X3117466Y-3300933D01*
X3117466Y-3234267D01*
X3084133Y-3167600D01*
X3050800Y-3134267D01*
X2984133Y-3100933D01*
X2850800Y-3067600D01*
X2784133Y-3034267D01*
X2750800Y-3000933D01*
X2717466Y-2934267D01*
X2717466Y-2867600D01*
X2750800Y-2800933D01*
X2784133Y-2767600D01*
X2850800Y-2734267D01*
X3017466Y-2734267D01*
X3117466Y-2767600D01*
X3784133Y-3434267D02*
X3384133Y-3434267D01*
X3584133Y-3434267D02*
X3584133Y-2734267D01*
X3517467Y-2834267D01*
X3450800Y-2900933D01*
X3384133Y-2934267D01*
X1884133Y-2613600D02*
X3917467Y-2613600D01*
X-27967295Y10005733D02*
X-27491104Y10005733D01*
X-28062533Y9720019D02*
X-27729200Y10720019D01*
X-27395866Y9720019D01*
X-27657771Y7673829D02*
X-27514914Y7626210D01*
X-27467295Y7578590D01*
X-27419676Y7483352D01*
X-27419676Y7340495D01*
X-27467295Y7245257D01*
X-27514914Y7197638D01*
X-27610152Y7150019D01*
X-27991105Y7150019D01*
X-27991105Y8150019D01*
X-27657771Y8150019D01*
X-27562533Y8102400D01*
X-27514914Y8054781D01*
X-27467295Y7959543D01*
X-27467295Y7864305D01*
X-27514914Y7769067D01*
X-27562533Y7721448D01*
X-27657771Y7673829D01*
X-27991105Y7673829D01*
X-27429676Y4665257D02*
X-27477295Y4617638D01*
X-27620152Y4570019D01*
X-27715390Y4570019D01*
X-27858248Y4617638D01*
X-27953486Y4712876D01*
X-28001105Y4808114D01*
X-28048724Y4998590D01*
X-28048724Y5141448D01*
X-28001105Y5331924D01*
X-27953486Y5427162D01*
X-27858248Y5522400D01*
X-27715390Y5570019D01*
X-27620152Y5570019D01*
X-27477295Y5522400D01*
X-27429676Y5474781D01*
X-27971105Y1970019D02*
X-27971105Y2970019D01*
X-27733010Y2970019D01*
X-27590152Y2922400D01*
X-27494914Y2827162D01*
X-27447295Y2731924D01*
X-27399676Y2541448D01*
X-27399676Y2398590D01*
X-27447295Y2208114D01*
X-27494914Y2112876D01*
X-27590152Y2017638D01*
X-27733010Y1970019D01*
X-27971105Y1970019D01*
X-27883486Y53829D02*
X-27550152Y53829D01*
X-27407295Y-469981D02*
X-27883486Y-469981D01*
X-27883486Y530019D01*
X-27407295Y530019D01*
X-27536342Y-2476171D02*
X-27869676Y-2476171D01*
X-27869676Y-2999981D02*
X-27869676Y-1999981D01*
X-27393485Y-1999981D01*
X-27407295Y-4627600D02*
X-27502533Y-4579981D01*
X-27645390Y-4579981D01*
X-27788248Y-4627600D01*
X-27883486Y-4722838D01*
X-27931105Y-4818076D01*
X-27978724Y-5008552D01*
X-27978724Y-5151410D01*
X-27931105Y-5341886D01*
X-27883486Y-5437124D01*
X-27788248Y-5532362D01*
X-27645390Y-5579981D01*
X-27550152Y-5579981D01*
X-27407295Y-5532362D01*
X-27359676Y-5484743D01*
X-27359676Y-5151410D01*
X-27550152Y-5151410D01*
X-28014914Y-8099981D02*
X-28014914Y-7099981D01*
X-28014914Y-7576171D02*
X-27443485Y-7576171D01*
X-27443485Y-8099981D02*
X-27443485Y-7099981D01*
X-27789200Y-10689981D02*
X-27789200Y-9689981D01*
X-27766342Y-12149981D02*
X-27766342Y-12864267D01*
X-27813962Y-13007124D01*
X-27909200Y-13102362D01*
X-28052057Y-13149981D01*
X-28147295Y-13149981D01*
X-28161105Y-15659981D02*
X-28161105Y-14659981D01*
X-27589676Y-15659981D02*
X-28018248Y-15088552D01*
X-27589676Y-14659981D02*
X-28161105Y-15231410D01*
X28080324Y14640019D02*
X27604133Y14640019D01*
X27604133Y15640019D01*
X27437467Y12090019D02*
X27437467Y13090019D01*
X27770801Y12375733D01*
X28104134Y13090019D01*
X28104134Y12090019D01*
X27465086Y9610019D02*
X27465086Y10610019D01*
X28036515Y9610019D01*
X28036515Y10610019D01*
X27675562Y7960019D02*
X27866039Y7960019D01*
X27961277Y7912400D01*
X28056515Y7817162D01*
X28104134Y7626686D01*
X28104134Y7293352D01*
X28056515Y7102876D01*
X27961277Y7007638D01*
X27866039Y6960019D01*
X27675562Y6960019D01*
X27580324Y7007638D01*
X27485086Y7102876D01*
X27437467Y7293352D01*
X27437467Y7626686D01*
X27485086Y7817162D01*
X27580324Y7912400D01*
X27675562Y7960019D01*
X27378895Y4440019D02*
X27378895Y5440019D01*
X27759848Y5440019D01*
X27855086Y5392400D01*
X27902705Y5344781D01*
X27950324Y5249543D01*
X27950324Y5106686D01*
X27902705Y5011448D01*
X27855086Y4963829D01*
X27759848Y4916210D01*
X27378895Y4916210D01*
X28101753Y1904781D02*
X28006515Y1952400D01*
X27911277Y2047638D01*
X27768420Y2190495D01*
X27673181Y2238114D01*
X27577943Y2238114D01*
X27625562Y2000019D02*
X27530324Y2047638D01*
X27435086Y2142876D01*
X27387467Y2333352D01*
X27387467Y2666686D01*
X27435086Y2857162D01*
X27530324Y2952400D01*
X27625562Y3000019D01*
X27816039Y3000019D01*
X27911277Y2952400D01*
X28006515Y2857162D01*
X28054134Y2666686D01*
X28054134Y2333352D01*
X28006515Y2142876D01*
X27911277Y2047638D01*
X27816039Y2000019D01*
X27625562Y2000019D01*
X28090324Y-589981D02*
X27756990Y-113790D01*
X27518895Y-589981D02*
X27518895Y410019D01*
X27899848Y410019D01*
X27995086Y362400D01*
X28042705Y314781D01*
X28090324Y219543D01*
X28090324Y76686D01*
X28042705Y-18552D01*
X27995086Y-66171D01*
X27899848Y-113790D01*
X27518895Y-113790D01*
X27515086Y-3132362D02*
X27657943Y-3179981D01*
X27896039Y-3179981D01*
X27991277Y-3132362D01*
X28038896Y-3084743D01*
X28086515Y-2989505D01*
X28086515Y-2894267D01*
X28038896Y-2799029D01*
X27991277Y-2751410D01*
X27896039Y-2703790D01*
X27705562Y-2656171D01*
X27610324Y-2608552D01*
X27562705Y-2560933D01*
X27515086Y-2465695D01*
X27515086Y-2370457D01*
X27562705Y-2275219D01*
X27610324Y-2227600D01*
X27705562Y-2179981D01*
X27943658Y-2179981D01*
X28086515Y-2227600D01*
X27525086Y-4679981D02*
X28096515Y-4679981D01*
X27810800Y-5679981D02*
X27810800Y-4679981D01*
X27515086Y-7219981D02*
X27515086Y-8029505D01*
X27562705Y-8124743D01*
X27610324Y-8172362D01*
X27705562Y-8219981D01*
X27896039Y-8219981D01*
X27991277Y-8172362D01*
X28038896Y-8124743D01*
X28086515Y-8029505D01*
X28086515Y-7219981D01*
X27417467Y-9739981D02*
X27750800Y-10739981D01*
X28084134Y-9739981D01*
X20944133Y-14644267D02*
X20944133Y-14310934D01*
X21644133Y-14310934D01*
X21310800Y-14877601D02*
X21310800Y-15110934D01*
X20944133Y-15210934D02*
X20944133Y-14877601D01*
X21644133Y-14877601D01*
X21644133Y-15210934D01*
X20944133Y-15510934D02*
X21644133Y-15510934D01*
X21644133Y-15677600D01*
X21610800Y-15777600D01*
X21544133Y-15844267D01*
X21477467Y-15877600D01*
X21344133Y-15910934D01*
X21244133Y-15910934D01*
X21110800Y-15877600D01*
X21044133Y-15844267D01*
X20977467Y-15777600D01*
X20944133Y-15677600D01*
X20944133Y-15510934D01*
X21577467Y-16177600D02*
X21610800Y-16210934D01*
X21644133Y-16277600D01*
X21644133Y-16444267D01*
X21610800Y-16510934D01*
X21577467Y-16544267D01*
X21510800Y-16577600D01*
X21444133Y-16577600D01*
X21344133Y-16544267D01*
X20944133Y-16144267D01*
X20944133Y-16577600D01*
X27254133Y-12064267D02*
X27254133Y-11730934D01*
X27954133Y-11730934D01*
X27620800Y-12297601D02*
X27620800Y-12530934D01*
X27254133Y-12630934D02*
X27254133Y-12297601D01*
X27954133Y-12297601D01*
X27954133Y-12630934D01*
X27254133Y-12930934D02*
X27954133Y-12930934D01*
X27954133Y-13097600D01*
X27920800Y-13197600D01*
X27854133Y-13264267D01*
X27787467Y-13297600D01*
X27654133Y-13330934D01*
X27554133Y-13330934D01*
X27420800Y-13297600D01*
X27354133Y-13264267D01*
X27287467Y-13197600D01*
X27254133Y-13097600D01*
X27254133Y-12930934D01*
X27254133Y-13997600D02*
X27254133Y-13597600D01*
X27254133Y-13797600D02*
X27954133Y-13797600D01*
X27854133Y-13730934D01*
X27787467Y-13664267D01*
X27754133Y-13597600D01*
X27877467Y-15673314D02*
X27839372Y-15711410D01*
X27725086Y-15749505D01*
X27648896Y-15749505D01*
X27534610Y-15711410D01*
X27458419Y-15635219D01*
X27420324Y-15559029D01*
X27382229Y-15406648D01*
X27382229Y-15292362D01*
X27420324Y-15139981D01*
X27458419Y-15063790D01*
X27534610Y-14987600D01*
X27648896Y-14949505D01*
X27725086Y-14949505D01*
X27839372Y-14987600D01*
X27877467Y-15025695D01*
X28182229Y-15711410D02*
X28296515Y-15749505D01*
X28486991Y-15749505D01*
X28563181Y-15711410D01*
X28601277Y-15673314D01*
X28639372Y-15597124D01*
X28639372Y-15520933D01*
X28601277Y-15444743D01*
X28563181Y-15406648D01*
X28486991Y-15368552D01*
X28334610Y-15330457D01*
X28258419Y-15292362D01*
X28220324Y-15254267D01*
X28182229Y-15178076D01*
X28182229Y-15101886D01*
X28220324Y-15025695D01*
X28258419Y-14987600D01*
X28334610Y-14949505D01*
X28525086Y-14949505D01*
X28639372Y-14987600D01*
X27229848Y-14811600D02*
X28791753Y-14811600D01*
X20444610Y-18283314D02*
X20406515Y-18321410D01*
X20292229Y-18359505D01*
X20216039Y-18359505D01*
X20101753Y-18321410D01*
X20025562Y-18245219D01*
X19987467Y-18169029D01*
X19949372Y-18016648D01*
X19949372Y-17902362D01*
X19987467Y-17749981D01*
X20025562Y-17673790D01*
X20101753Y-17597600D01*
X20216039Y-17559505D01*
X20292229Y-17559505D01*
X20406515Y-17597600D01*
X20444610Y-17635695D01*
X21168420Y-18359505D02*
X20787467Y-18359505D01*
X20787467Y-17559505D01*
X21435086Y-18359505D02*
X21435086Y-17559505D01*
X21892229Y-18359505D02*
X21549372Y-17902362D01*
X21892229Y-17559505D02*
X21435086Y-18016648D01*
X-24064438Y-20181410D02*
X-23950152Y-20219505D01*
X-23759676Y-20219505D01*
X-23683486Y-20181410D01*
X-23645390Y-20143314D01*
X-23607295Y-20067124D01*
X-23607295Y-19990933D01*
X-23645390Y-19914743D01*
X-23683486Y-19876648D01*
X-23759676Y-19838552D01*
X-23912057Y-19800457D01*
X-23988248Y-19762362D01*
X-24026343Y-19724267D01*
X-24064438Y-19648076D01*
X-24064438Y-19571886D01*
X-24026343Y-19495695D01*
X-23988248Y-19457600D01*
X-23912057Y-19419505D01*
X-23721581Y-19419505D01*
X-23607295Y-19457600D01*
X-23112057Y-19419505D02*
X-22959676Y-19419505D01*
X-22883485Y-19457600D01*
X-22807295Y-19533790D01*
X-22769200Y-19686171D01*
X-22769200Y-19952838D01*
X-22807295Y-20105219D01*
X-22883485Y-20181410D01*
X-22959676Y-20219505D01*
X-23112057Y-20219505D01*
X-23188247Y-20181410D01*
X-23264438Y-20105219D01*
X-23302533Y-19952838D01*
X-23302533Y-19686171D01*
X-23264438Y-19533790D01*
X-23188247Y-19457600D01*
X-23112057Y-19419505D01*
X-22426343Y-20219505D02*
X-22426343Y-19419505D01*
X-22159676Y-19990933D01*
X-21893009Y-19419505D01*
X-21893009Y-20219505D01*
X-21512057Y-20219505D02*
X-21512057Y-19419505D01*
X6426991Y15770495D02*
X6426991Y16570495D01*
X6960324Y16570495D02*
X7112705Y16570495D01*
X7188896Y16532400D01*
X7265086Y16456210D01*
X7303181Y16303829D01*
X7303181Y16037162D01*
X7265086Y15884781D01*
X7188896Y15808590D01*
X7112705Y15770495D01*
X6960324Y15770495D01*
X6884134Y15808590D01*
X6807943Y15884781D01*
X6769848Y16037162D01*
X6769848Y16303829D01*
X6807943Y16456210D01*
X6884134Y16532400D01*
X6960324Y16570495D01*
X7455562Y15694305D02*
X8065086Y15694305D01*
X8522229Y16189543D02*
X8636515Y16151448D01*
X8674610Y16113352D01*
X8712705Y16037162D01*
X8712705Y15922876D01*
X8674610Y15846686D01*
X8636515Y15808590D01*
X8560324Y15770495D01*
X8255562Y15770495D01*
X8255562Y16570495D01*
X8522229Y16570495D01*
X8598419Y16532400D01*
X8636515Y16494305D01*
X8674610Y16418114D01*
X8674610Y16341924D01*
X8636515Y16265733D01*
X8598419Y16227638D01*
X8522229Y16189543D01*
X8255562Y16189543D01*
X3164134Y15740495D02*
X3164134Y16540495D01*
X3697467Y16540495D02*
X3849848Y16540495D01*
X3926039Y16502400D01*
X4002229Y16426210D01*
X4040324Y16273829D01*
X4040324Y16007162D01*
X4002229Y15854781D01*
X3926039Y15778590D01*
X3849848Y15740495D01*
X3697467Y15740495D01*
X3621277Y15778590D01*
X3545086Y15854781D01*
X3506991Y16007162D01*
X3506991Y16273829D01*
X3545086Y16426210D01*
X3621277Y16502400D01*
X3697467Y16540495D01*
X4192705Y15664305D02*
X4802229Y15664305D01*
X4954610Y15969067D02*
X5335562Y15969067D01*
X4878419Y15740495D02*
X5145086Y16540495D01*
X5411753Y15740495D01*
X-27694438Y-20221410D02*
X-27580152Y-20259505D01*
X-27389676Y-20259505D01*
X-27313486Y-20221410D01*
X-27275390Y-20183314D01*
X-27237295Y-20107124D01*
X-27237295Y-20030933D01*
X-27275390Y-19954743D01*
X-27313486Y-19916648D01*
X-27389676Y-19878552D01*
X-27542057Y-19840457D01*
X-27618248Y-19802362D01*
X-27656343Y-19764267D01*
X-27694438Y-19688076D01*
X-27694438Y-19611886D01*
X-27656343Y-19535695D01*
X-27618248Y-19497600D01*
X-27542057Y-19459505D01*
X-27351581Y-19459505D01*
X-27237295Y-19497600D01*
X-26894438Y-20259505D02*
X-26894438Y-19459505D01*
X-26513486Y-20259505D02*
X-26513486Y-19459505D01*
X-26246819Y-20030933D01*
X-25980152Y-19459505D01*
X-25980152Y-20259505D01*
X-25446819Y-19459505D02*
X-25294438Y-19459505D01*
X-25218247Y-19497600D01*
X-25142057Y-19573790D01*
X-25103962Y-19726171D01*
X-25103962Y-19992838D01*
X-25142057Y-20145219D01*
X-25218247Y-20221410D01*
X-25294438Y-20259505D01*
X-25446819Y-20259505D01*
X-25523009Y-20221410D01*
X-25599200Y-20145219D01*
X-25637295Y-19992838D01*
X-25637295Y-19726171D01*
X-25599200Y-19573790D01*
X-25523009Y-19497600D01*
X-25446819Y-19459505D01*
X13751277Y-18347600D02*
X13675086Y-18309505D01*
X13560801Y-18309505D01*
X13446515Y-18347600D01*
X13370324Y-18423790D01*
X13332229Y-18499981D01*
X13294134Y-18652362D01*
X13294134Y-18766648D01*
X13332229Y-18919029D01*
X13370324Y-18995219D01*
X13446515Y-19071410D01*
X13560801Y-19109505D01*
X13636991Y-19109505D01*
X13751277Y-19071410D01*
X13789372Y-19033314D01*
X13789372Y-18766648D01*
X13636991Y-18766648D01*
X14132229Y-19109505D02*
X14132229Y-18309505D01*
X14589372Y-19109505D01*
X14589372Y-18309505D01*
X14970324Y-19109505D02*
X14970324Y-18309505D01*
X15160800Y-18309505D01*
X15275086Y-18347600D01*
X15351277Y-18423790D01*
X15389372Y-18499981D01*
X15427467Y-18652362D01*
X15427467Y-18766648D01*
X15389372Y-18919029D01*
X15351277Y-18995219D01*
X15275086Y-19071410D01*
X15160800Y-19109505D01*
X14970324Y-19109505D01*
X21911277Y23082400D02*
X21835086Y23120495D01*
X21720801Y23120495D01*
X21606515Y23082400D01*
X21530324Y23006210D01*
X21492229Y22930019D01*
X21454134Y22777638D01*
X21454134Y22663352D01*
X21492229Y22510971D01*
X21530324Y22434781D01*
X21606515Y22358590D01*
X21720801Y22320495D01*
X21796991Y22320495D01*
X21911277Y22358590D01*
X21949372Y22396686D01*
X21949372Y22663352D01*
X21796991Y22663352D01*
X22292229Y22320495D02*
X22292229Y23120495D01*
X22749372Y22320495D01*
X22749372Y23120495D01*
X23130324Y22320495D02*
X23130324Y23120495D01*
X23320800Y23120495D01*
X23435086Y23082400D01*
X23511277Y23006210D01*
X23549372Y22930019D01*
X23587467Y22777638D01*
X23587467Y22663352D01*
X23549372Y22510971D01*
X23511277Y22434781D01*
X23435086Y22358590D01*
X23320800Y22320495D01*
X23130324Y22320495D01*
X-4077772Y-19709505D02*
X-3811105Y-20509505D01*
X-3544438Y-19709505D01*
X-3315867Y-19785695D02*
X-3277772Y-19747600D01*
X-3201581Y-19709505D01*
X-3011105Y-19709505D01*
X-2934915Y-19747600D01*
X-2896819Y-19785695D01*
X-2858724Y-19861886D01*
X-2858724Y-19938076D01*
X-2896819Y-20052362D01*
X-3353962Y-20509505D01*
X-2858724Y-20509505D01*
X-2515867Y-20509505D02*
X-2515867Y-19709505D01*
X-2211105Y-19709505D01*
X-2134914Y-19747600D01*
X-2096819Y-19785695D01*
X-2058724Y-19861886D01*
X-2058724Y-19976171D01*
X-2096819Y-20052362D01*
X-2134914Y-20090457D01*
X-2211105Y-20128552D01*
X-2515867Y-20128552D01*
X-1334914Y-19709505D02*
X-1715867Y-19709505D01*
X-1753962Y-20090457D01*
X-1715867Y-20052362D01*
X-1639676Y-20014267D01*
X-1449200Y-20014267D01*
X-1373010Y-20052362D01*
X-1334914Y-20090457D01*
X-1296819Y-20166648D01*
X-1296819Y-20357124D01*
X-1334914Y-20433314D01*
X-1373010Y-20471410D01*
X-1449200Y-20509505D01*
X-1639676Y-20509505D01*
X-1715867Y-20471410D01*
X-1753962Y-20433314D01*
X-18319676Y17420495D02*
X-17824438Y17420495D01*
X-18091105Y17115733D01*
X-17976819Y17115733D01*
X-17900629Y17077638D01*
X-17862533Y17039543D01*
X-17824438Y16963352D01*
X-17824438Y16772876D01*
X-17862533Y16696686D01*
X-17900629Y16658590D01*
X-17976819Y16620495D01*
X-18205391Y16620495D01*
X-18281581Y16658590D01*
X-18319676Y16696686D01*
X-17595867Y17420495D02*
X-17329200Y16620495D01*
X-17062533Y17420495D01*
X-16872057Y17420495D02*
X-16376819Y17420495D01*
X-16643486Y17115733D01*
X-16529200Y17115733D01*
X-16453010Y17077638D01*
X-16414914Y17039543D01*
X-16376819Y16963352D01*
X-16376819Y16772876D01*
X-16414914Y16696686D01*
X-16453010Y16658590D01*
X-16529200Y16620495D01*
X-16757772Y16620495D01*
X-16833962Y16658590D01*
X-16872057Y16696686D01*
D12*
X17256991Y-20355219D02*
X16890325Y-19831410D01*
X16628420Y-20355219D02*
X16628420Y-19255219D01*
X17047467Y-19255219D01*
X17152229Y-19307600D01*
X17204610Y-19359981D01*
X17256991Y-19464743D01*
X17256991Y-19621886D01*
X17204610Y-19726648D01*
X17152229Y-19779029D01*
X17047467Y-19831410D01*
X16628420Y-19831410D01*
X18147467Y-20302838D02*
X18042705Y-20355219D01*
X17833182Y-20355219D01*
X17728420Y-20302838D01*
X17676039Y-20198076D01*
X17676039Y-19779029D01*
X17728420Y-19674267D01*
X17833182Y-19621886D01*
X18042705Y-19621886D01*
X18147467Y-19674267D01*
X18199848Y-19779029D01*
X18199848Y-19883790D01*
X17676039Y-19988552D01*
X18566515Y-19621886D02*
X18828420Y-20355219D01*
X19090324Y-19621886D01*
X20085562Y-20355219D02*
X19456991Y-20355219D01*
X19771277Y-20355219D02*
X19771277Y-19255219D01*
X19666515Y-19412362D01*
X19561753Y-19517124D01*
X19456991Y-19569505D01*
D10*
X-13208000Y8407400D02*
X-13208000Y3962400D01*
X-13208000Y3962400D02*
X-18034000Y3962400D01*
X-18034000Y3962400D02*
X-18415000Y4216400D01*
X-18415000Y4216400D02*
X-18415000Y8407400D01*
X-18415000Y8407400D02*
X-13208000Y8407400D01*
X-13255300Y-1208900D02*
X-13255300Y-5653900D01*
X-13255300Y-5653900D02*
X-18081300Y-5653900D01*
X-18081300Y-5653900D02*
X-18462300Y-5399900D01*
X-18462300Y-5399900D02*
X-18462300Y-1208900D01*
X-18462300Y-1208900D02*
X-13255300Y-1208900D01*
X-13309600Y-11963400D02*
X-13309600Y-16408400D01*
X-13309600Y-16408400D02*
X-18135600Y-16408400D01*
X-18135600Y-16408400D02*
X-18516600Y-16154400D01*
X-18516600Y-16154400D02*
X-18516600Y-11963400D01*
X-18516600Y-11963400D02*
X-13309600Y-11963400D01*
X-4565200Y16106400D02*
X-4565200Y9506400D01*
X-4565200Y16106400D02*
X-3965200Y16706400D01*
X-3965200Y16706400D02*
X2634800Y16706400D01*
X2634800Y16706400D02*
X2634800Y9506400D01*
X2634800Y9506400D02*
X-4565200Y9506400D01*
X19796760Y10886440D02*
X19796760Y6441440D01*
X19796760Y6441440D02*
X14970760Y6441440D01*
X14970760Y6441440D02*
X14589760Y6695440D01*
X14589760Y6695440D02*
X14589760Y10886440D01*
X14589760Y10886440D02*
X19796760Y10886440D01*
D13*
X-8201011Y-10821079D02*
G75*
G03X-8201011Y-10821079I-90139J0D01*
G01*
D10*
X-4241150Y-10096079D02*
X-4241150Y-10996079D01*
X-4241150Y-10996079D02*
X-4641150Y-10996079D01*
X-4591150Y-8196079D02*
X-4241150Y-8196079D01*
X-4241150Y-8196079D02*
X-4241150Y-9096079D01*
X-7941150Y-10146079D02*
X-7941150Y-10996079D01*
X-7941150Y-10996079D02*
X-7541150Y-10996079D01*
X-7541150Y-8196079D02*
X-7941150Y-8196079D01*
X-7941150Y-8196079D02*
X-7941150Y-9096079D01*
X19796760Y574040D02*
X19796760Y-3870960D01*
X19796760Y-3870960D02*
X14970760Y-3870960D01*
X14970760Y-3870960D02*
X14589760Y-3616960D01*
X14589760Y-3616960D02*
X14589760Y574040D01*
X14589760Y574040D02*
X19796760Y574040D01*
X19735800Y-10434320D02*
X19735800Y-14879320D01*
X19735800Y-14879320D02*
X14909800Y-14879320D01*
X14909800Y-14879320D02*
X14528800Y-14625320D01*
X14528800Y-14625320D02*
X14528800Y-10434320D01*
X14528800Y-10434320D02*
X19735800Y-10434320D01*
X6179820Y-10460280D02*
X6179820Y-11360280D01*
X6179820Y-8360280D02*
X6179820Y-9260280D01*
X3779820Y-10260280D02*
X3779820Y-9460280D01*
X6179820Y-11360280D02*
X6179820Y-11560280D01*
X6179820Y-11560280D02*
X3779820Y-11560280D01*
X3779820Y-11560280D02*
X3779820Y-11360280D01*
X6179820Y-8360280D02*
X6179820Y-8160280D01*
X6179820Y-8160280D02*
X3779820Y-8160280D01*
X3779820Y-8160280D02*
X3779820Y-8360280D01*
X-12004800Y14254600D02*
X-12804800Y14254600D01*
X-10904800Y16654600D02*
X-10704800Y16654600D01*
X-10704800Y16654600D02*
X-10704800Y14254600D01*
X-10704800Y14254600D02*
X-10904800Y14254600D01*
X-13904800Y16654600D02*
X-14104800Y16654600D01*
X-14104800Y16654600D02*
X-14104800Y14254600D01*
X-14104800Y14254600D02*
X-13904800Y14254600D01*
X6548800Y3034420D02*
X6548800Y2234420D01*
X4148800Y4134420D02*
X4148800Y4334420D01*
X4148800Y4334420D02*
X6548800Y4334420D01*
X6548800Y4334420D02*
X6548800Y4134420D01*
X4148800Y1134420D02*
X4148800Y934420D01*
X4148800Y934420D02*
X6548800Y934420D01*
X6548800Y934420D02*
X6548800Y1134420D01*
X-294180Y-11116280D02*
X-1094180Y-11116280D01*
X805820Y-8716280D02*
X1005820Y-8716280D01*
X1005820Y-8716280D02*
X1005820Y-11116280D01*
X1005820Y-11116280D02*
X805820Y-11116280D01*
X-2194180Y-8716280D02*
X-2394180Y-8716280D01*
X-2394180Y-8716280D02*
X-2394180Y-11116280D01*
X-2394180Y-11116280D02*
X-2194180Y-11116280D01*
X-4741700Y1384300D02*
X-5541700Y1384300D01*
X-3641700Y3784300D02*
X-3441700Y3784300D01*
X-3441700Y3784300D02*
X-3441700Y1384300D01*
X-3441700Y1384300D02*
X-3641700Y1384300D01*
X-6641700Y3784300D02*
X-6841700Y3784300D01*
X-6841700Y3784300D02*
X-6841700Y1384300D01*
X-6841700Y1384300D02*
X-6641700Y1384300D01*
X3779820Y-14578280D02*
X3779820Y-13778280D01*
X6179820Y-15678280D02*
X6179820Y-15878280D01*
X6179820Y-15878280D02*
X3779820Y-15878280D01*
X3779820Y-15878280D02*
X3779820Y-15678280D01*
X6179820Y-12678280D02*
X6179820Y-12478280D01*
X6179820Y-12478280D02*
X3779820Y-12478280D01*
X3779820Y-12478280D02*
X3779820Y-12678280D01*
X-6216700Y-18910000D02*
X-7016700Y-18910000D01*
X-5116700Y-16510000D02*
X-4916700Y-16510000D01*
X-4916700Y-16510000D02*
X-4916700Y-18910000D01*
X-4916700Y-18910000D02*
X-5116700Y-18910000D01*
X-8116700Y-16510000D02*
X-8316700Y-16510000D01*
X-8316700Y-16510000D02*
X-8316700Y-18910000D01*
X-8316700Y-18910000D02*
X-8116700Y-18910000D01*
X3225820Y-7233480D02*
G75*
G03X3225820Y-7233480I-100000J0D01*
G01*
X2825820Y-6933480D02*
X625820Y-6933480D01*
X625820Y-6933480D02*
X625820Y-4533480D01*
X625820Y-4533480D02*
X2825820Y-4533480D01*
X2825820Y-4533480D02*
X2825820Y-6933480D01*
X-7358580Y2652220D02*
G75*
G03X-7358580Y2652220I-100000J0D01*
G01*
X-7758580Y2352220D02*
X-7758580Y152220D01*
X-7758580Y152220D02*
X-10158580Y152220D01*
X-10158580Y152220D02*
X-10158580Y2352220D01*
X-10158580Y2352220D02*
X-7758580Y2352220D01*
D12*
X-9957460Y-13876880D02*
X-9957460Y-12876880D01*
X-8607460Y-12876880D02*
X-8607460Y-13876880D01*
X-6227460Y-13876880D02*
X-6227460Y-12876880D01*
X-4877460Y-12876880D02*
X-4877460Y-13876880D01*
X-4307460Y-13876880D02*
X-4307460Y-12876880D01*
X-2957460Y-12876880D02*
X-2957460Y-13876880D01*
X-8127460Y-13876880D02*
X-8127460Y-12876880D01*
X-6777460Y-12876880D02*
X-6777460Y-13876880D01*
X11218800Y-16143600D02*
X10218800Y-16143600D01*
X10218800Y-14793600D02*
X11218800Y-14793600D01*
X11193400Y-14467200D02*
X10193400Y-14467200D01*
X10193400Y-13117200D02*
X11193400Y-13117200D01*
D10*
X-524200Y1200420D02*
G75*
G03X-524200Y1200420I-127000J0D01*
G01*
X2523800Y3994420D02*
X2777800Y3994420D01*
X2777800Y3994420D02*
X2777800Y1454420D01*
X2777800Y1454420D02*
X2523800Y1454420D01*
X-270200Y1454420D02*
X-524200Y1454420D01*
X-524200Y1454420D02*
X-524200Y3994420D01*
X-524200Y3994420D02*
X-270200Y3994420D01*
D12*
X-20398100Y8567800D02*
X-20398100Y9567800D01*
X-19048100Y9567800D02*
X-19048100Y8567800D01*
X-1230000Y-17432400D02*
X-1230000Y-18432400D01*
X-2580000Y-18432400D02*
X-2580000Y-17432400D01*
X-4314820Y-18414620D02*
X-4314820Y-17414620D01*
X-2964820Y-17414620D02*
X-2964820Y-18414620D01*
X-13481600Y11876200D02*
X-14481600Y11876200D01*
X-14481600Y13226200D02*
X-13481600Y13226200D01*
X-11674900Y13213500D02*
X-10674900Y13213500D01*
X-10674900Y11863500D02*
X-11674900Y11863500D01*
X-10122700Y14908700D02*
X-10122700Y15908700D01*
X-8772700Y15908700D02*
X-8772700Y14908700D01*
X-8773800Y-17457800D02*
X-8773800Y-18457800D01*
X-10123800Y-18457800D02*
X-10123800Y-17457800D01*
X-18832200Y30100D02*
X-18832200Y-969900D01*
X-20182200Y-969900D02*
X-20182200Y30100D01*
X-18857600Y-10549000D02*
X-18857600Y-11549000D01*
X-20207600Y-11549000D02*
X-20207600Y-10549000D01*
X2661280Y-13307440D02*
X2661280Y-14307440D01*
X1311280Y-14307440D02*
X1311280Y-13307440D01*
X12260800Y12347400D02*
X13260800Y12347400D01*
X13260800Y10997400D02*
X12260800Y10997400D01*
X4798800Y6079420D02*
X5798800Y6079420D01*
X5798800Y4729420D02*
X4798800Y4729420D01*
X12837800Y33400D02*
X12837800Y1033400D01*
X14187800Y1033400D02*
X14187800Y33400D01*
X12599040Y-11137520D02*
X12599040Y-10137520D01*
X13949040Y-10137520D02*
X13949040Y-11137520D01*
X17315800Y16187400D02*
X18315800Y16187400D01*
X18315800Y14837400D02*
X17315800Y14837400D01*
X18365800Y18287400D02*
X17365800Y18287400D01*
X17365800Y19637400D02*
X18365800Y19637400D01*
X17340800Y17862400D02*
X18340800Y17862400D01*
X18340800Y16512400D02*
X17340800Y16512400D01*
X7068440Y-7273920D02*
X6068440Y-7273920D01*
X6068440Y-5923920D02*
X7068440Y-5923920D01*
X7059660Y-5637280D02*
X6059660Y-5637280D01*
X6059660Y-4287280D02*
X7059660Y-4287280D01*
X2720820Y-9176280D02*
X2720820Y-10176280D01*
X1370820Y-10176280D02*
X1370820Y-9176280D01*
X-3495680Y-5082920D02*
X-3495680Y-6082920D01*
X-4845680Y-6082920D02*
X-4845680Y-5082920D01*
X-9367140Y7832720D02*
X-8367140Y7832720D01*
X-8367140Y6482720D02*
X-9367140Y6482720D01*
X-9377300Y6232520D02*
X-8377300Y6232520D01*
X-8377300Y4882520D02*
X-9377300Y4882520D01*
X2250800Y5229420D02*
X1250800Y5229420D01*
X1250800Y6579420D02*
X2250800Y6579420D01*
X-3332860Y4915540D02*
X-4332860Y4915540D01*
X-4332860Y6265540D02*
X-3332860Y6265540D01*
X1859920Y-1607440D02*
X1859920Y-607440D01*
X3209920Y-607440D02*
X3209920Y-1607440D01*
X-3199760Y-6062600D02*
X-3199760Y-5062600D01*
X-1849760Y-5062600D02*
X-1849760Y-6062600D01*
D11*
X-1042300Y1380360D02*
X-1117300Y1380360D01*
X-1042300Y4355360D02*
X-1092300Y4355360D01*
X-1042300Y1380360D02*
X-1042300Y4355360D01*
X-2717300Y4355360D02*
X-1092300Y4355360D01*
X-1092300Y1380360D02*
X-2717300Y1380360D01*
X-2717300Y1380360D02*
X-2717300Y4355360D01*
D12*
X-5832220Y4915540D02*
X-6832220Y4915540D01*
X-6832220Y6265540D02*
X-5832220Y6265540D01*
X-195200Y-1268100D02*
X804800Y-1268100D01*
X804800Y-2618100D02*
X-195200Y-2618100D01*
X817500Y-984880D02*
X-182500Y-984880D01*
X-182500Y365120D02*
X817500Y365120D01*
X-10281280Y-10047860D02*
X-10281280Y-9047860D01*
X-8931280Y-9047860D02*
X-8931280Y-10047860D01*
X-26281000Y17515200D02*
X-25281000Y17515200D01*
X-25281000Y16165200D02*
X-26281000Y16165200D01*
X7761600Y-1278000D02*
X7761600Y-2278000D01*
X6411600Y-2278000D02*
X6411600Y-1278000D01*
X7975800Y7342400D02*
X7975800Y8342400D01*
X9325800Y8342400D02*
X9325800Y7342400D01*
X9739000Y-2303400D02*
X9739000Y-1303400D01*
X11089000Y-1303400D02*
X11089000Y-2303400D01*
X9412600Y-1278000D02*
X9412600Y-2278000D01*
X8062600Y-2278000D02*
X8062600Y-1278000D01*
D10*
X8563000Y1181000D02*
X11263000Y1181000D01*
X8563000Y1181000D02*
X8163000Y1581000D01*
X8163000Y1581000D02*
X8163000Y3381000D01*
X11263000Y1181000D02*
X11263000Y4381000D01*
X11263000Y4381000D02*
X8163000Y4381000D01*
X8163000Y4381000D02*
X8163000Y3381000D01*
X6170800Y-18587600D02*
X6170800Y-19487600D01*
X6170800Y-16487600D02*
X6170800Y-17387600D01*
X3770800Y-18387600D02*
X3770800Y-17587600D01*
X6170800Y-19487600D02*
X6170800Y-19687600D01*
X6170800Y-19687600D02*
X3770800Y-19687600D01*
X3770800Y-19687600D02*
X3770800Y-19487600D01*
X6170800Y-16487600D02*
X6170800Y-16287600D01*
X6170800Y-16287600D02*
X3770800Y-16287600D01*
X3770800Y-16287600D02*
X3770800Y-16487600D01*
D12*
X7375800Y-18417600D02*
X7375800Y-17417600D01*
X8725800Y-17417600D02*
X8725800Y-18417600D01*
D10*
X-4952000Y469600D02*
X-3326400Y469600D01*
X-3326400Y469600D02*
X-3326400Y-444800D01*
X-3326400Y-444800D02*
X-4952000Y-444800D01*
X-4952000Y-444800D02*
X-4952000Y469600D01*
D12*
X-189200Y-2882600D02*
X810800Y-2882600D01*
X810800Y-4232600D02*
X-189200Y-4232600D01*
D10*
X-3296400Y-3444800D02*
X-4922000Y-3444800D01*
X-4922000Y-3444800D02*
X-4922000Y-2530400D01*
X-4922000Y-2530400D02*
X-3296400Y-2530400D01*
X-3296400Y-2530400D02*
X-3296400Y-3444800D01*
X-3316400Y-2214800D02*
X-4942000Y-2214800D01*
X-4942000Y-2214800D02*
X-4942000Y-1300400D01*
X-4942000Y-1300400D02*
X-3316400Y-1300400D01*
X-3316400Y-1300400D02*
X-3316400Y-2214800D01*
X10440800Y24687400D02*
X17440800Y24687400D01*
X17440800Y20887400D02*
X16540800Y20887400D01*
X11340800Y20887400D02*
X10440800Y20887400D01*
X10440800Y20887400D02*
X10440800Y21787400D01*
X17440800Y20887400D02*
X17440800Y21787400D01*
D11*
X-25384200Y19400000D02*
X-15164200Y19400000D01*
X-15164200Y19400000D02*
X-15164200Y24600000D01*
X-15164200Y24600000D02*
X-27984200Y24600000D01*
X-27984200Y24600000D02*
X-27984200Y22000000D01*
X-27984200Y22000000D02*
X-25384200Y22000000D01*
X-25384200Y22000000D02*
X-25384200Y19400000D01*
X-26654200Y19400000D02*
X-27984200Y19400000D01*
X-27984200Y19400000D02*
X-27984200Y20730000D01*
X-4834200Y19400000D02*
X5385800Y19400000D01*
X5385800Y19400000D02*
X5385800Y24600000D01*
X5385800Y24600000D02*
X-7434200Y24600000D01*
X-7434200Y24600000D02*
X-7434200Y22000000D01*
X-7434200Y22000000D02*
X-4834200Y22000000D01*
X-4834200Y22000000D02*
X-4834200Y19400000D01*
X-6104200Y19400000D02*
X-7434200Y19400000D01*
X-7434200Y19400000D02*
X-7434200Y20730000D01*
X-19850033Y6697773D02*
X-19850033Y6131107D01*
X-19816700Y6064440D01*
X-19783367Y6031107D01*
X-19716700Y5997773D01*
X-19583367Y5997773D01*
X-19516700Y6031107D01*
X-19483367Y6064440D01*
X-19450033Y6131107D01*
X-19450033Y6697773D01*
X-18750034Y5997773D02*
X-19150034Y5997773D01*
X-18950034Y5997773D02*
X-18950034Y6697773D01*
X-19016700Y6597773D01*
X-19083367Y6531107D01*
X-19150034Y6497773D01*
X-20071013Y-3243787D02*
X-20071013Y-3810453D01*
X-20037680Y-3877120D01*
X-20004347Y-3910453D01*
X-19937680Y-3943787D01*
X-19804347Y-3943787D01*
X-19737680Y-3910453D01*
X-19704347Y-3877120D01*
X-19671013Y-3810453D01*
X-19671013Y-3243787D01*
X-19037680Y-3477120D02*
X-19037680Y-3943787D01*
X-19204347Y-3210453D02*
X-19371014Y-3710453D01*
X-18937680Y-3710453D01*
X-20106573Y-14216587D02*
X-20106573Y-14783253D01*
X-20073240Y-14849920D01*
X-20039907Y-14883253D01*
X-19973240Y-14916587D01*
X-19839907Y-14916587D01*
X-19773240Y-14883253D01*
X-19739907Y-14849920D01*
X-19706573Y-14783253D01*
X-19706573Y-14216587D01*
X-19273240Y-14516587D02*
X-19339907Y-14483253D01*
X-19373240Y-14449920D01*
X-19406574Y-14383253D01*
X-19406574Y-14349920D01*
X-19373240Y-14283253D01*
X-19339907Y-14249920D01*
X-19273240Y-14216587D01*
X-19139907Y-14216587D01*
X-19073240Y-14249920D01*
X-19039907Y-14283253D01*
X-19006574Y-14349920D01*
X-19006574Y-14383253D01*
X-19039907Y-14449920D01*
X-19073240Y-14483253D01*
X-19139907Y-14516587D01*
X-19273240Y-14516587D01*
X-19339907Y-14549920D01*
X-19373240Y-14583253D01*
X-19406574Y-14649920D01*
X-19406574Y-14783253D01*
X-19373240Y-14849920D01*
X-19339907Y-14883253D01*
X-19273240Y-14916587D01*
X-19139907Y-14916587D01*
X-19073240Y-14883253D01*
X-19039907Y-14849920D01*
X-19006574Y-14783253D01*
X-19006574Y-14649920D01*
X-19039907Y-14583253D01*
X-19073240Y-14549920D01*
X-19139907Y-14516587D01*
X-6149866Y17553733D02*
X-6149866Y16987067D01*
X-6116533Y16920400D01*
X-6083200Y16887067D01*
X-6016533Y16853733D01*
X-5883200Y16853733D01*
X-5816533Y16887067D01*
X-5783200Y16920400D01*
X-5749866Y16987067D01*
X-5749866Y17553733D01*
X-5049867Y16853733D02*
X-5449867Y16853733D01*
X-5249867Y16853733D02*
X-5249867Y17553733D01*
X-5316533Y17453733D01*
X-5383200Y17387067D01*
X-5449867Y17353733D01*
X-4783200Y17487067D02*
X-4749866Y17520400D01*
X-4683200Y17553733D01*
X-4516533Y17553733D01*
X-4449866Y17520400D01*
X-4416533Y17487067D01*
X-4383200Y17420400D01*
X-4383200Y17353733D01*
X-4416533Y17253733D01*
X-4816533Y16853733D01*
X-4383200Y16853733D01*
X12404134Y8075733D02*
X12404134Y7509067D01*
X12437467Y7442400D01*
X12470800Y7409067D01*
X12537467Y7375733D01*
X12670800Y7375733D01*
X12737467Y7409067D01*
X12770800Y7442400D01*
X12804134Y7509067D01*
X12804134Y8075733D01*
X13504133Y7375733D02*
X13104133Y7375733D01*
X13304133Y7375733D02*
X13304133Y8075733D01*
X13237467Y7975733D01*
X13170800Y7909067D01*
X13104133Y7875733D01*
X14170800Y7375733D02*
X13770800Y7375733D01*
X13970800Y7375733D02*
X13970800Y8075733D01*
X13904134Y7975733D01*
X13837467Y7909067D01*
X13770800Y7875733D01*
D10*
X-6609013Y-6627067D02*
X-6609013Y-7193733D01*
X-6575680Y-7260400D01*
X-6542347Y-7293733D01*
X-6475680Y-7327067D01*
X-6342347Y-7327067D01*
X-6275680Y-7293733D01*
X-6242347Y-7260400D01*
X-6209013Y-7193733D01*
X-6209013Y-6627067D01*
X-5942347Y-6627067D02*
X-5509014Y-6627067D01*
X-5742347Y-6893733D01*
X-5642347Y-6893733D01*
X-5575680Y-6927067D01*
X-5542347Y-6960400D01*
X-5509014Y-7027067D01*
X-5509014Y-7193733D01*
X-5542347Y-7260400D01*
X-5575680Y-7293733D01*
X-5642347Y-7327067D01*
X-5842347Y-7327067D01*
X-5909014Y-7293733D01*
X-5942347Y-7260400D01*
D11*
X12464134Y-2564267D02*
X12464134Y-3130933D01*
X12497467Y-3197600D01*
X12530800Y-3230933D01*
X12597467Y-3264267D01*
X12730800Y-3264267D01*
X12797467Y-3230933D01*
X12830800Y-3197600D01*
X12864134Y-3130933D01*
X12864134Y-2564267D01*
X13564133Y-3264267D02*
X13164133Y-3264267D01*
X13364133Y-3264267D02*
X13364133Y-2564267D01*
X13297467Y-2664267D01*
X13230800Y-2730933D01*
X13164133Y-2764267D01*
X13797467Y-2564267D02*
X14264134Y-2564267D01*
X13964134Y-3264267D01*
X12394134Y-13454267D02*
X12394134Y-14020933D01*
X12427467Y-14087600D01*
X12460800Y-14120933D01*
X12527467Y-14154267D01*
X12660800Y-14154267D01*
X12727467Y-14120933D01*
X12760800Y-14087600D01*
X12794134Y-14020933D01*
X12794134Y-13454267D01*
X13494133Y-14154267D02*
X13094133Y-14154267D01*
X13294133Y-14154267D02*
X13294133Y-13454267D01*
X13227467Y-13554267D01*
X13160800Y-13620933D01*
X13094133Y-13654267D01*
X13894134Y-13754267D02*
X13827467Y-13720933D01*
X13794134Y-13687600D01*
X13760800Y-13620933D01*
X13760800Y-13587600D01*
X13794134Y-13520933D01*
X13827467Y-13487600D01*
X13894134Y-13454267D01*
X14027467Y-13454267D01*
X14094134Y-13487600D01*
X14127467Y-13520933D01*
X14160800Y-13587600D01*
X14160800Y-13620933D01*
X14127467Y-13687600D01*
X14094134Y-13720933D01*
X14027467Y-13754267D01*
X13894134Y-13754267D01*
X13827467Y-13787600D01*
X13794134Y-13820933D01*
X13760800Y-13887600D01*
X13760800Y-14020933D01*
X13794134Y-14087600D01*
X13827467Y-14120933D01*
X13894134Y-14154267D01*
X14027467Y-14154267D01*
X14094134Y-14120933D01*
X14127467Y-14087600D01*
X14160800Y-14020933D01*
X14160800Y-13887600D01*
X14127467Y-13820933D01*
X14094134Y-13787600D01*
X14027467Y-13754267D01*
D10*
X7350133Y-9044733D02*
X7283467Y-9011400D01*
X7216800Y-8944733D01*
X7116800Y-8844733D01*
X7050133Y-8811400D01*
X6983467Y-8811400D01*
X7016800Y-8978067D02*
X6950133Y-8944733D01*
X6883467Y-8878067D01*
X6850133Y-8744733D01*
X6850133Y-8511400D01*
X6883467Y-8378067D01*
X6950133Y-8311400D01*
X7016800Y-8278067D01*
X7150133Y-8278067D01*
X7216800Y-8311400D01*
X7283467Y-8378067D01*
X7316800Y-8511400D01*
X7316800Y-8744733D01*
X7283467Y-8878067D01*
X7216800Y-8944733D01*
X7150133Y-8978067D01*
X7016800Y-8978067D01*
X7983466Y-8978067D02*
X7583466Y-8978067D01*
X7783466Y-8978067D02*
X7783466Y-8278067D01*
X7716800Y-8378067D01*
X7650133Y-8444733D01*
X7583466Y-8478067D01*
D11*
X-15899233Y15779333D02*
X-15899233Y15212667D01*
X-15865900Y15146000D01*
X-15832567Y15112667D01*
X-15765900Y15079333D01*
X-15632567Y15079333D01*
X-15565900Y15112667D01*
X-15532567Y15146000D01*
X-15499233Y15212667D01*
X-15499233Y15779333D01*
X-15199234Y15712667D02*
X-15165900Y15746000D01*
X-15099234Y15779333D01*
X-14932567Y15779333D01*
X-14865900Y15746000D01*
X-14832567Y15712667D01*
X-14799234Y15646000D01*
X-14799234Y15579333D01*
X-14832567Y15479333D01*
X-15232567Y15079333D01*
X-14799234Y15079333D01*
D10*
X4772134Y695753D02*
X4772134Y129087D01*
X4805467Y62420D01*
X4838800Y29087D01*
X4905467Y-4247D01*
X5038800Y-4247D01*
X5105467Y29087D01*
X5138800Y62420D01*
X5172134Y129087D01*
X5172134Y695753D01*
X5872133Y-4247D02*
X5472133Y-4247D01*
X5672133Y-4247D02*
X5672133Y695753D01*
X5605467Y595753D01*
X5538800Y529087D01*
X5472133Y495753D01*
X6472134Y462420D02*
X6472134Y-4247D01*
X6305467Y729087D02*
X6138800Y229087D01*
X6572134Y229087D01*
X-1219133Y-12011867D02*
X-1219133Y-12578533D01*
X-1185800Y-12645200D01*
X-1152467Y-12678533D01*
X-1085800Y-12711867D01*
X-952467Y-12711867D01*
X-885800Y-12678533D01*
X-852467Y-12645200D01*
X-819133Y-12578533D01*
X-819133Y-12011867D01*
X-185800Y-12011867D02*
X-319134Y-12011867D01*
X-385800Y-12045200D01*
X-419134Y-12078533D01*
X-485800Y-12178533D01*
X-519134Y-12311867D01*
X-519134Y-12578533D01*
X-485800Y-12645200D01*
X-452467Y-12678533D01*
X-385800Y-12711867D01*
X-252467Y-12711867D01*
X-185800Y-12678533D01*
X-152467Y-12645200D01*
X-119134Y-12578533D01*
X-119134Y-12411867D01*
X-152467Y-12345200D01*
X-185800Y-12311867D01*
X-252467Y-12278533D01*
X-385800Y-12278533D01*
X-452467Y-12311867D01*
X-485800Y-12345200D01*
X-519134Y-12411867D01*
X-7375866Y615733D02*
X-7375866Y49067D01*
X-7342533Y-17600D01*
X-7309200Y-50933D01*
X-7242533Y-84267D01*
X-7109200Y-84267D01*
X-7042533Y-50933D01*
X-7009200Y-17600D01*
X-6975866Y49067D01*
X-6975866Y615733D01*
X-6275867Y-84267D02*
X-6675867Y-84267D01*
X-6475867Y-84267D02*
X-6475867Y615733D01*
X-6542533Y515733D01*
X-6609200Y449067D01*
X-6675867Y415733D01*
X-6042533Y615733D02*
X-5609200Y615733D01*
X-5842533Y349067D01*
X-5742533Y349067D01*
X-5675866Y315733D01*
X-5642533Y282400D01*
X-5609200Y215733D01*
X-5609200Y49067D01*
X-5642533Y-17600D01*
X-5675866Y-50933D01*
X-5742533Y-84267D01*
X-5942533Y-84267D01*
X-6009200Y-50933D01*
X-6042533Y-17600D01*
X6702534Y-11859467D02*
X6702534Y-12426133D01*
X6735867Y-12492800D01*
X6769200Y-12526133D01*
X6835867Y-12559467D01*
X6969200Y-12559467D01*
X7035867Y-12526133D01*
X7069200Y-12492800D01*
X7102534Y-12426133D01*
X7102534Y-11859467D01*
X7802533Y-12559467D02*
X7402533Y-12559467D01*
X7602533Y-12559467D02*
X7602533Y-11859467D01*
X7535867Y-11959467D01*
X7469200Y-12026133D01*
X7402533Y-12059467D01*
X8235867Y-11859467D02*
X8302534Y-11859467D01*
X8369200Y-11892800D01*
X8402534Y-11926133D01*
X8435867Y-11992800D01*
X8469200Y-12126133D01*
X8469200Y-12292800D01*
X8435867Y-12426133D01*
X8402534Y-12492800D01*
X8369200Y-12526133D01*
X8302534Y-12559467D01*
X8235867Y-12559467D01*
X8169200Y-12526133D01*
X8135867Y-12492800D01*
X8102534Y-12426133D01*
X8069200Y-12292800D01*
X8069200Y-12126133D01*
X8102534Y-11992800D01*
X8135867Y-11926133D01*
X8169200Y-11892800D01*
X8235867Y-11859467D01*
D11*
X-9601133Y-15821867D02*
X-9601133Y-16388533D01*
X-9567800Y-16455200D01*
X-9534467Y-16488533D01*
X-9467800Y-16521867D01*
X-9334467Y-16521867D01*
X-9267800Y-16488533D01*
X-9234467Y-16455200D01*
X-9201133Y-16388533D01*
X-9201133Y-15821867D01*
X-8534467Y-15821867D02*
X-8867800Y-15821867D01*
X-8901134Y-16155200D01*
X-8867800Y-16121867D01*
X-8801134Y-16088533D01*
X-8634467Y-16088533D01*
X-8567800Y-16121867D01*
X-8534467Y-16155200D01*
X-8501134Y-16221867D01*
X-8501134Y-16388533D01*
X-8534467Y-16455200D01*
X-8567800Y-16488533D01*
X-8634467Y-16521867D01*
X-8801134Y-16521867D01*
X-8867800Y-16488533D01*
X-8901134Y-16455200D01*
D10*
X1267527Y-7269687D02*
X1267527Y-7836353D01*
X1300860Y-7903020D01*
X1334193Y-7936353D01*
X1400860Y-7969687D01*
X1534193Y-7969687D01*
X1600860Y-7936353D01*
X1634193Y-7903020D01*
X1667527Y-7836353D01*
X1667527Y-7269687D01*
X1934193Y-7269687D02*
X2400860Y-7269687D01*
X2100860Y-7969687D01*
X-12172206Y1361233D02*
X-12172206Y794567D01*
X-12138873Y727900D01*
X-12105540Y694567D01*
X-12038873Y661233D01*
X-11905540Y661233D01*
X-11838873Y694567D01*
X-11805540Y727900D01*
X-11772206Y794567D01*
X-11772206Y1361233D01*
X-11072207Y661233D02*
X-11472207Y661233D01*
X-11272207Y661233D02*
X-11272207Y1361233D01*
X-11338873Y1261233D01*
X-11405540Y1194567D01*
X-11472207Y1161233D01*
X-10438873Y1361233D02*
X-10772206Y1361233D01*
X-10805540Y1027900D01*
X-10772206Y1061233D01*
X-10705540Y1094567D01*
X-10538873Y1094567D01*
X-10472206Y1061233D01*
X-10438873Y1027900D01*
X-10405540Y961233D01*
X-10405540Y794567D01*
X-10438873Y727900D01*
X-10472206Y694567D01*
X-10538873Y661233D01*
X-10705540Y661233D01*
X-10772206Y694567D01*
X-10805540Y727900D01*
X-9362266Y-15378867D02*
X-9595600Y-15045533D01*
X-9762266Y-15378867D02*
X-9762266Y-14678867D01*
X-9495600Y-14678867D01*
X-9428933Y-14712200D01*
X-9395600Y-14745533D01*
X-9362266Y-14812200D01*
X-9362266Y-14912200D01*
X-9395600Y-14978867D01*
X-9428933Y-15012200D01*
X-9495600Y-15045533D01*
X-9762266Y-15045533D01*
X-8762266Y-14912200D02*
X-8762266Y-15378867D01*
X-8928933Y-14645533D02*
X-9095600Y-15145533D01*
X-8662266Y-15145533D01*
X-5653866Y-15378867D02*
X-5887200Y-15045533D01*
X-6053866Y-15378867D02*
X-6053866Y-14678867D01*
X-5787200Y-14678867D01*
X-5720533Y-14712200D01*
X-5687200Y-14745533D01*
X-5653866Y-14812200D01*
X-5653866Y-14912200D01*
X-5687200Y-14978867D01*
X-5720533Y-15012200D01*
X-5787200Y-15045533D01*
X-6053866Y-15045533D01*
X-4987200Y-15378867D02*
X-5387200Y-15378867D01*
X-5187200Y-15378867D02*
X-5187200Y-14678867D01*
X-5253866Y-14778867D01*
X-5320533Y-14845533D01*
X-5387200Y-14878867D01*
X-3748866Y-15378867D02*
X-3982200Y-15045533D01*
X-4148866Y-15378867D02*
X-4148866Y-14678867D01*
X-3882200Y-14678867D01*
X-3815533Y-14712200D01*
X-3782200Y-14745533D01*
X-3748866Y-14812200D01*
X-3748866Y-14912200D01*
X-3782200Y-14978867D01*
X-3815533Y-15012200D01*
X-3882200Y-15045533D01*
X-4148866Y-15045533D01*
X-3482200Y-14745533D02*
X-3448866Y-14712200D01*
X-3382200Y-14678867D01*
X-3215533Y-14678867D01*
X-3148866Y-14712200D01*
X-3115533Y-14745533D01*
X-3082200Y-14812200D01*
X-3082200Y-14878867D01*
X-3115533Y-14978867D01*
X-3515533Y-15378867D01*
X-3082200Y-15378867D01*
X-7584266Y-15378867D02*
X-7817600Y-15045533D01*
X-7984266Y-15378867D02*
X-7984266Y-14678867D01*
X-7717600Y-14678867D01*
X-7650933Y-14712200D01*
X-7617600Y-14745533D01*
X-7584266Y-14812200D01*
X-7584266Y-14912200D01*
X-7617600Y-14978867D01*
X-7650933Y-15012200D01*
X-7717600Y-15045533D01*
X-7984266Y-15045533D01*
X-7350933Y-14678867D02*
X-6917600Y-14678867D01*
X-7150933Y-14945533D01*
X-7050933Y-14945533D01*
X-6984266Y-14978867D01*
X-6950933Y-15012200D01*
X-6917600Y-15078867D01*
X-6917600Y-15245533D01*
X-6950933Y-15312200D01*
X-6984266Y-15345533D01*
X-7050933Y-15378867D01*
X-7250933Y-15378867D01*
X-7317600Y-15345533D01*
X-7350933Y-15312200D01*
D11*
X7980260Y-15782727D02*
X7746926Y-15449393D01*
X7580260Y-15782727D02*
X7580260Y-15082727D01*
X7846926Y-15082727D01*
X7913593Y-15116060D01*
X7946926Y-15149393D01*
X7980260Y-15216060D01*
X7980260Y-15316060D01*
X7946926Y-15382727D01*
X7913593Y-15416060D01*
X7846926Y-15449393D01*
X7580260Y-15449393D01*
X8646926Y-15782727D02*
X8246926Y-15782727D01*
X8446926Y-15782727D02*
X8446926Y-15082727D01*
X8380260Y-15182727D01*
X8313593Y-15249393D01*
X8246926Y-15282727D01*
X9246927Y-15316060D02*
X9246927Y-15782727D01*
X9080260Y-15049393D02*
X8913593Y-15549393D01*
X9346927Y-15549393D01*
X7954860Y-14162207D02*
X7721526Y-13828873D01*
X7554860Y-14162207D02*
X7554860Y-13462207D01*
X7821526Y-13462207D01*
X7888193Y-13495540D01*
X7921526Y-13528873D01*
X7954860Y-13595540D01*
X7954860Y-13695540D01*
X7921526Y-13762207D01*
X7888193Y-13795540D01*
X7821526Y-13828873D01*
X7554860Y-13828873D01*
X8621526Y-14162207D02*
X8221526Y-14162207D01*
X8421526Y-14162207D02*
X8421526Y-13462207D01*
X8354860Y-13562207D01*
X8288193Y-13628873D01*
X8221526Y-13662207D01*
X8854860Y-13462207D02*
X9288193Y-13462207D01*
X9054860Y-13728873D01*
X9154860Y-13728873D01*
X9221527Y-13762207D01*
X9254860Y-13795540D01*
X9288193Y-13862207D01*
X9288193Y-14028873D01*
X9254860Y-14095540D01*
X9221527Y-14128873D01*
X9154860Y-14162207D01*
X8954860Y-14162207D01*
X8888193Y-14128873D01*
X8854860Y-14095540D01*
D10*
X-1694706Y5824013D02*
X-1694706Y5257347D01*
X-1661373Y5190680D01*
X-1628040Y5157347D01*
X-1561373Y5124013D01*
X-1428040Y5124013D01*
X-1361373Y5157347D01*
X-1328040Y5190680D01*
X-1294706Y5257347D01*
X-1294706Y5824013D01*
X-594707Y5124013D02*
X-994707Y5124013D01*
X-794707Y5124013D02*
X-794707Y5824013D01*
X-861373Y5724013D01*
X-928040Y5657347D01*
X-994707Y5624013D01*
X5294Y5824013D02*
X-128040Y5824013D01*
X-194706Y5790680D01*
X-228040Y5757347D01*
X-294706Y5657347D01*
X-328040Y5524013D01*
X-328040Y5257347D01*
X-294706Y5190680D01*
X-261373Y5157347D01*
X-194706Y5124013D01*
X-61373Y5124013D01*
X5294Y5157347D01*
X38627Y5190680D01*
X71960Y5257347D01*
X71960Y5424013D01*
X38627Y5490680D01*
X5294Y5524013D01*
X-61373Y5557347D01*
X-194706Y5557347D01*
X-261373Y5524013D01*
X-294706Y5490680D01*
X-328040Y5424013D01*
D11*
X-21439966Y9135300D02*
X-21473300Y9101967D01*
X-21573300Y9068633D01*
X-21639966Y9068633D01*
X-21739966Y9101967D01*
X-21806633Y9168633D01*
X-21839966Y9235300D01*
X-21873300Y9368633D01*
X-21873300Y9468633D01*
X-21839966Y9601967D01*
X-21806633Y9668633D01*
X-21739966Y9735300D01*
X-21639966Y9768633D01*
X-21573300Y9768633D01*
X-21473300Y9735300D01*
X-21439966Y9701967D01*
X-20773300Y9068633D02*
X-21173300Y9068633D01*
X-20973300Y9068633D02*
X-20973300Y9768633D01*
X-21039966Y9668633D01*
X-21106633Y9601967D01*
X-21173300Y9568633D01*
X-373800Y-18157000D02*
X-407134Y-18190333D01*
X-507134Y-18223667D01*
X-573800Y-18223667D01*
X-673800Y-18190333D01*
X-740467Y-18123667D01*
X-773800Y-18057000D01*
X-807134Y-17923667D01*
X-807134Y-17823667D01*
X-773800Y-17690333D01*
X-740467Y-17623667D01*
X-673800Y-17557000D01*
X-573800Y-17523667D01*
X-507134Y-17523667D01*
X-407134Y-17557000D01*
X-373800Y-17590333D01*
X292866Y-18223667D02*
X-107134Y-18223667D01*
X92866Y-18223667D02*
X92866Y-17523667D01*
X26200Y-17623667D01*
X-40467Y-17690333D01*
X-107134Y-17723667D01*
X959533Y-18223667D02*
X559533Y-18223667D01*
X759533Y-18223667D02*
X759533Y-17523667D01*
X692867Y-17623667D01*
X626200Y-17690333D01*
X559533Y-17723667D01*
X-4089820Y-16399320D02*
X-4123154Y-16432653D01*
X-4223154Y-16465987D01*
X-4289820Y-16465987D01*
X-4389820Y-16432653D01*
X-4456487Y-16365987D01*
X-4489820Y-16299320D01*
X-4523154Y-16165987D01*
X-4523154Y-16065987D01*
X-4489820Y-15932653D01*
X-4456487Y-15865987D01*
X-4389820Y-15799320D01*
X-4289820Y-15765987D01*
X-4223154Y-15765987D01*
X-4123154Y-15799320D01*
X-4089820Y-15832653D01*
X-3423154Y-16465987D02*
X-3823154Y-16465987D01*
X-3623154Y-16465987D02*
X-3623154Y-15765987D01*
X-3689820Y-15865987D01*
X-3756487Y-15932653D01*
X-3823154Y-15965987D01*
X-3156487Y-15832653D02*
X-3123153Y-15799320D01*
X-3056487Y-15765987D01*
X-2889820Y-15765987D01*
X-2823153Y-15799320D01*
X-2789820Y-15832653D01*
X-2756487Y-15899320D01*
X-2756487Y-15965987D01*
X-2789820Y-16065987D01*
X-3189820Y-16465987D01*
X-2756487Y-16465987D01*
X-16079466Y12352000D02*
X-16112800Y12318667D01*
X-16212800Y12285333D01*
X-16279466Y12285333D01*
X-16379466Y12318667D01*
X-16446133Y12385333D01*
X-16479466Y12452000D01*
X-16512800Y12585333D01*
X-16512800Y12685333D01*
X-16479466Y12818667D01*
X-16446133Y12885333D01*
X-16379466Y12952000D01*
X-16279466Y12985333D01*
X-16212800Y12985333D01*
X-16112800Y12952000D01*
X-16079466Y12918667D01*
X-15812800Y12918667D02*
X-15779466Y12952000D01*
X-15712800Y12985333D01*
X-15546133Y12985333D01*
X-15479466Y12952000D01*
X-15446133Y12918667D01*
X-15412800Y12852000D01*
X-15412800Y12785333D01*
X-15446133Y12685333D01*
X-15846133Y12285333D01*
X-15412800Y12285333D01*
X-9221466Y12326600D02*
X-9254800Y12293267D01*
X-9354800Y12259933D01*
X-9421466Y12259933D01*
X-9521466Y12293267D01*
X-9588133Y12359933D01*
X-9621466Y12426600D01*
X-9654800Y12559933D01*
X-9654800Y12659933D01*
X-9621466Y12793267D01*
X-9588133Y12859933D01*
X-9521466Y12926600D01*
X-9421466Y12959933D01*
X-9354800Y12959933D01*
X-9254800Y12926600D01*
X-9221466Y12893267D01*
X-8988133Y12959933D02*
X-8554800Y12959933D01*
X-8788133Y12693267D01*
X-8688133Y12693267D01*
X-8621466Y12659933D01*
X-8588133Y12626600D01*
X-8554800Y12559933D01*
X-8554800Y12393267D01*
X-8588133Y12326600D01*
X-8621466Y12293267D01*
X-8688133Y12259933D01*
X-8888133Y12259933D01*
X-8954800Y12293267D01*
X-8988133Y12326600D01*
X-9361166Y16949400D02*
X-9394500Y16916067D01*
X-9494500Y16882733D01*
X-9561166Y16882733D01*
X-9661166Y16916067D01*
X-9727833Y16982733D01*
X-9761166Y17049400D01*
X-9794500Y17182733D01*
X-9794500Y17282733D01*
X-9761166Y17416067D01*
X-9727833Y17482733D01*
X-9661166Y17549400D01*
X-9561166Y17582733D01*
X-9494500Y17582733D01*
X-9394500Y17549400D01*
X-9361166Y17516067D01*
X-8761166Y17349400D02*
X-8761166Y16882733D01*
X-8927833Y17616067D02*
X-9094500Y17116067D01*
X-8661166Y17116067D01*
X-11803800Y-18487200D02*
X-11837134Y-18520533D01*
X-11937134Y-18553867D01*
X-12003800Y-18553867D01*
X-12103800Y-18520533D01*
X-12170467Y-18453867D01*
X-12203800Y-18387200D01*
X-12237134Y-18253867D01*
X-12237134Y-18153867D01*
X-12203800Y-18020533D01*
X-12170467Y-17953867D01*
X-12103800Y-17887200D01*
X-12003800Y-17853867D01*
X-11937134Y-17853867D01*
X-11837134Y-17887200D01*
X-11803800Y-17920533D01*
X-11137134Y-18553867D02*
X-11537134Y-18553867D01*
X-11337134Y-18553867D02*
X-11337134Y-17853867D01*
X-11403800Y-17953867D01*
X-11470467Y-18020533D01*
X-11537134Y-18053867D01*
X-10703800Y-17853867D02*
X-10637133Y-17853867D01*
X-10570467Y-17887200D01*
X-10537133Y-17920533D01*
X-10503800Y-17987200D01*
X-10470467Y-18120533D01*
X-10470467Y-18287200D01*
X-10503800Y-18420533D01*
X-10537133Y-18487200D01*
X-10570467Y-18520533D01*
X-10637133Y-18553867D01*
X-10703800Y-18553867D01*
X-10770467Y-18520533D01*
X-10803800Y-18487200D01*
X-10837133Y-18420533D01*
X-10870467Y-18287200D01*
X-10870467Y-18120533D01*
X-10837133Y-17987200D01*
X-10803800Y-17920533D01*
X-10770467Y-17887200D01*
X-10703800Y-17853867D01*
X-19743246Y979360D02*
X-19776580Y946027D01*
X-19876580Y912693D01*
X-19943246Y912693D01*
X-20043246Y946027D01*
X-20109913Y1012693D01*
X-20143246Y1079360D01*
X-20176580Y1212693D01*
X-20176580Y1312693D01*
X-20143246Y1446027D01*
X-20109913Y1512693D01*
X-20043246Y1579360D01*
X-19943246Y1612693D01*
X-19876580Y1612693D01*
X-19776580Y1579360D01*
X-19743246Y1546027D01*
X-19143246Y1612693D02*
X-19276580Y1612693D01*
X-19343246Y1579360D01*
X-19376580Y1546027D01*
X-19443246Y1446027D01*
X-19476580Y1312693D01*
X-19476580Y1046027D01*
X-19443246Y979360D01*
X-19409913Y946027D01*
X-19343246Y912693D01*
X-19209913Y912693D01*
X-19143246Y946027D01*
X-19109913Y979360D01*
X-19076580Y1046027D01*
X-19076580Y1212693D01*
X-19109913Y1279360D01*
X-19143246Y1312693D01*
X-19209913Y1346027D01*
X-19343246Y1346027D01*
X-19409913Y1312693D01*
X-19443246Y1279360D01*
X-19476580Y1212693D01*
X-20109600Y-9571800D02*
X-20142934Y-9605133D01*
X-20242934Y-9638467D01*
X-20309600Y-9638467D01*
X-20409600Y-9605133D01*
X-20476267Y-9538467D01*
X-20509600Y-9471800D01*
X-20542934Y-9338467D01*
X-20542934Y-9238467D01*
X-20509600Y-9105133D01*
X-20476267Y-9038467D01*
X-20409600Y-8971800D01*
X-20309600Y-8938467D01*
X-20242934Y-8938467D01*
X-20142934Y-8971800D01*
X-20109600Y-9005133D01*
X-19442934Y-9638467D02*
X-19842934Y-9638467D01*
X-19642934Y-9638467D02*
X-19642934Y-8938467D01*
X-19709600Y-9038467D01*
X-19776267Y-9105133D01*
X-19842934Y-9138467D01*
X-19209600Y-8938467D02*
X-18776267Y-8938467D01*
X-19009600Y-9205133D01*
X-18909600Y-9205133D01*
X-18842933Y-9238467D01*
X-18809600Y-9271800D01*
X-18776267Y-9338467D01*
X-18776267Y-9505133D01*
X-18809600Y-9571800D01*
X-18842933Y-9605133D01*
X-18909600Y-9638467D01*
X-19109600Y-9638467D01*
X-19176267Y-9605133D01*
X-19209600Y-9571800D01*
X1434680Y-15759240D02*
X1401346Y-15792573D01*
X1301346Y-15825907D01*
X1234680Y-15825907D01*
X1134680Y-15792573D01*
X1068013Y-15725907D01*
X1034680Y-15659240D01*
X1001346Y-15525907D01*
X1001346Y-15425907D01*
X1034680Y-15292573D01*
X1068013Y-15225907D01*
X1134680Y-15159240D01*
X1234680Y-15125907D01*
X1301346Y-15125907D01*
X1401346Y-15159240D01*
X1434680Y-15192573D01*
X2101346Y-15825907D02*
X1701346Y-15825907D01*
X1901346Y-15825907D02*
X1901346Y-15125907D01*
X1834680Y-15225907D01*
X1768013Y-15292573D01*
X1701346Y-15325907D01*
X2434680Y-15825907D02*
X2568013Y-15825907D01*
X2634680Y-15792573D01*
X2668013Y-15759240D01*
X2734680Y-15659240D01*
X2768013Y-15525907D01*
X2768013Y-15259240D01*
X2734680Y-15192573D01*
X2701347Y-15159240D01*
X2634680Y-15125907D01*
X2501347Y-15125907D01*
X2434680Y-15159240D01*
X2401347Y-15192573D01*
X2368013Y-15259240D01*
X2368013Y-15425907D01*
X2401347Y-15492573D01*
X2434680Y-15525907D01*
X2501347Y-15559240D01*
X2634680Y-15559240D01*
X2701347Y-15525907D01*
X2734680Y-15492573D01*
X2768013Y-15425907D01*
X12330800Y12832400D02*
X12297466Y12799067D01*
X12197466Y12765733D01*
X12130800Y12765733D01*
X12030800Y12799067D01*
X11964133Y12865733D01*
X11930800Y12932400D01*
X11897466Y13065733D01*
X11897466Y13165733D01*
X11930800Y13299067D01*
X11964133Y13365733D01*
X12030800Y13432400D01*
X12130800Y13465733D01*
X12197466Y13465733D01*
X12297466Y13432400D01*
X12330800Y13399067D01*
X12597466Y13399067D02*
X12630800Y13432400D01*
X12697466Y13465733D01*
X12864133Y13465733D01*
X12930800Y13432400D01*
X12964133Y13399067D01*
X12997466Y13332400D01*
X12997466Y13265733D01*
X12964133Y13165733D01*
X12564133Y12765733D01*
X12997466Y12765733D01*
X13430800Y13465733D02*
X13497467Y13465733D01*
X13564133Y13432400D01*
X13597467Y13399067D01*
X13630800Y13332400D01*
X13664133Y13199067D01*
X13664133Y13032400D01*
X13630800Y12899067D01*
X13597467Y12832400D01*
X13564133Y12799067D01*
X13497467Y12765733D01*
X13430800Y12765733D01*
X13364133Y12799067D01*
X13330800Y12832400D01*
X13297467Y12899067D01*
X13264133Y13032400D01*
X13264133Y13199067D01*
X13297467Y13332400D01*
X13330800Y13399067D01*
X13364133Y13432400D01*
X13430800Y13465733D01*
X4886540Y6526720D02*
X4853206Y6493387D01*
X4753206Y6460053D01*
X4686540Y6460053D01*
X4586540Y6493387D01*
X4519873Y6560053D01*
X4486540Y6626720D01*
X4453206Y6760053D01*
X4453206Y6860053D01*
X4486540Y6993387D01*
X4519873Y7060053D01*
X4586540Y7126720D01*
X4686540Y7160053D01*
X4753206Y7160053D01*
X4853206Y7126720D01*
X4886540Y7093387D01*
X5153206Y7093387D02*
X5186540Y7126720D01*
X5253206Y7160053D01*
X5419873Y7160053D01*
X5486540Y7126720D01*
X5519873Y7093387D01*
X5553206Y7026720D01*
X5553206Y6960053D01*
X5519873Y6860053D01*
X5119873Y6460053D01*
X5553206Y6460053D01*
X6153207Y6926720D02*
X6153207Y6460053D01*
X5986540Y7193387D02*
X5819873Y6693387D01*
X6253207Y6693387D01*
X12910400Y-1494600D02*
X12877066Y-1527933D01*
X12777066Y-1561267D01*
X12710400Y-1561267D01*
X12610400Y-1527933D01*
X12543733Y-1461267D01*
X12510400Y-1394600D01*
X12477066Y-1261267D01*
X12477066Y-1161267D01*
X12510400Y-1027933D01*
X12543733Y-961267D01*
X12610400Y-894600D01*
X12710400Y-861267D01*
X12777066Y-861267D01*
X12877066Y-894600D01*
X12910400Y-927933D01*
X13177066Y-927933D02*
X13210400Y-894600D01*
X13277066Y-861267D01*
X13443733Y-861267D01*
X13510400Y-894600D01*
X13543733Y-927933D01*
X13577066Y-994600D01*
X13577066Y-1061267D01*
X13543733Y-1161267D01*
X13143733Y-1561267D01*
X13577066Y-1561267D01*
X14177067Y-861267D02*
X14043733Y-861267D01*
X13977067Y-894600D01*
X13943733Y-927933D01*
X13877067Y-1027933D01*
X13843733Y-1161267D01*
X13843733Y-1427933D01*
X13877067Y-1494600D01*
X13910400Y-1527933D01*
X13977067Y-1561267D01*
X14110400Y-1561267D01*
X14177067Y-1527933D01*
X14210400Y-1494600D01*
X14243733Y-1427933D01*
X14243733Y-1261267D01*
X14210400Y-1194600D01*
X14177067Y-1161267D01*
X14110400Y-1127933D01*
X13977067Y-1127933D01*
X13910400Y-1161267D01*
X13877067Y-1194600D01*
X13843733Y-1261267D01*
X12671640Y-9104440D02*
X12638306Y-9137773D01*
X12538306Y-9171107D01*
X12471640Y-9171107D01*
X12371640Y-9137773D01*
X12304973Y-9071107D01*
X12271640Y-9004440D01*
X12238306Y-8871107D01*
X12238306Y-8771107D01*
X12271640Y-8637773D01*
X12304973Y-8571107D01*
X12371640Y-8504440D01*
X12471640Y-8471107D01*
X12538306Y-8471107D01*
X12638306Y-8504440D01*
X12671640Y-8537773D01*
X12938306Y-8537773D02*
X12971640Y-8504440D01*
X13038306Y-8471107D01*
X13204973Y-8471107D01*
X13271640Y-8504440D01*
X13304973Y-8537773D01*
X13338306Y-8604440D01*
X13338306Y-8671107D01*
X13304973Y-8771107D01*
X12904973Y-9171107D01*
X13338306Y-9171107D01*
X13738307Y-8771107D02*
X13671640Y-8737773D01*
X13638307Y-8704440D01*
X13604973Y-8637773D01*
X13604973Y-8604440D01*
X13638307Y-8537773D01*
X13671640Y-8504440D01*
X13738307Y-8471107D01*
X13871640Y-8471107D01*
X13938307Y-8504440D01*
X13971640Y-8537773D01*
X14004973Y-8604440D01*
X14004973Y-8637773D01*
X13971640Y-8704440D01*
X13938307Y-8737773D01*
X13871640Y-8771107D01*
X13738307Y-8771107D01*
X13671640Y-8804440D01*
X13638307Y-8837773D01*
X13604973Y-8904440D01*
X13604973Y-9037773D01*
X13638307Y-9104440D01*
X13671640Y-9137773D01*
X13738307Y-9171107D01*
X13871640Y-9171107D01*
X13938307Y-9137773D01*
X13971640Y-9104440D01*
X14004973Y-9037773D01*
X14004973Y-8904440D01*
X13971640Y-8837773D01*
X13938307Y-8804440D01*
X13871640Y-8771107D01*
X19915800Y15237400D02*
X19882466Y15204067D01*
X19782466Y15170733D01*
X19715800Y15170733D01*
X19615800Y15204067D01*
X19549133Y15270733D01*
X19515800Y15337400D01*
X19482466Y15470733D01*
X19482466Y15570733D01*
X19515800Y15704067D01*
X19549133Y15770733D01*
X19615800Y15837400D01*
X19715800Y15870733D01*
X19782466Y15870733D01*
X19882466Y15837400D01*
X19915800Y15804067D01*
X20182466Y15804067D02*
X20215800Y15837400D01*
X20282466Y15870733D01*
X20449133Y15870733D01*
X20515800Y15837400D01*
X20549133Y15804067D01*
X20582466Y15737400D01*
X20582466Y15670733D01*
X20549133Y15570733D01*
X20149133Y15170733D01*
X20582466Y15170733D01*
X20915800Y15170733D02*
X21049133Y15170733D01*
X21115800Y15204067D01*
X21149133Y15237400D01*
X21215800Y15337400D01*
X21249133Y15470733D01*
X21249133Y15737400D01*
X21215800Y15804067D01*
X21182467Y15837400D01*
X21115800Y15870733D01*
X20982467Y15870733D01*
X20915800Y15837400D01*
X20882467Y15804067D01*
X20849133Y15737400D01*
X20849133Y15570733D01*
X20882467Y15504067D01*
X20915800Y15470733D01*
X20982467Y15437400D01*
X21115800Y15437400D01*
X21182467Y15470733D01*
X21215800Y15504067D01*
X21249133Y15570733D01*
X19840800Y18662400D02*
X19807466Y18629067D01*
X19707466Y18595733D01*
X19640800Y18595733D01*
X19540800Y18629067D01*
X19474133Y18695733D01*
X19440800Y18762400D01*
X19407466Y18895733D01*
X19407466Y18995733D01*
X19440800Y19129067D01*
X19474133Y19195733D01*
X19540800Y19262400D01*
X19640800Y19295733D01*
X19707466Y19295733D01*
X19807466Y19262400D01*
X19840800Y19229067D01*
X20074133Y19295733D02*
X20507466Y19295733D01*
X20274133Y19029067D01*
X20374133Y19029067D01*
X20440800Y18995733D01*
X20474133Y18962400D01*
X20507466Y18895733D01*
X20507466Y18729067D01*
X20474133Y18662400D01*
X20440800Y18629067D01*
X20374133Y18595733D01*
X20174133Y18595733D01*
X20107466Y18629067D01*
X20074133Y18662400D01*
X21174133Y18595733D02*
X20774133Y18595733D01*
X20974133Y18595733D02*
X20974133Y19295733D01*
X20907467Y19195733D01*
X20840800Y19129067D01*
X20774133Y19095733D01*
X19865800Y16920733D02*
X19632466Y17254067D01*
X19465800Y16920733D02*
X19465800Y17620733D01*
X19732466Y17620733D01*
X19799133Y17587400D01*
X19832466Y17554067D01*
X19865800Y17487400D01*
X19865800Y17387400D01*
X19832466Y17320733D01*
X19799133Y17287400D01*
X19732466Y17254067D01*
X19465800Y17254067D01*
X20532466Y16920733D02*
X20132466Y16920733D01*
X20332466Y16920733D02*
X20332466Y17620733D01*
X20265800Y17520733D01*
X20199133Y17454067D01*
X20132466Y17420733D01*
X21165800Y17620733D02*
X20832467Y17620733D01*
X20799133Y17287400D01*
X20832467Y17320733D01*
X20899133Y17354067D01*
X21065800Y17354067D01*
X21132467Y17320733D01*
X21165800Y17287400D01*
X21199133Y17220733D01*
X21199133Y17054067D01*
X21165800Y16987400D01*
X21132467Y16954067D01*
X21065800Y16920733D01*
X20899133Y16920733D01*
X20832467Y16954067D01*
X20799133Y16987400D01*
X8443134Y-6854000D02*
X8409800Y-6887333D01*
X8309800Y-6920667D01*
X8243134Y-6920667D01*
X8143134Y-6887333D01*
X8076467Y-6820667D01*
X8043134Y-6754000D01*
X8009800Y-6620667D01*
X8009800Y-6520667D01*
X8043134Y-6387333D01*
X8076467Y-6320667D01*
X8143134Y-6254000D01*
X8243134Y-6220667D01*
X8309800Y-6220667D01*
X8409800Y-6254000D01*
X8443134Y-6287333D01*
X8676467Y-6220667D02*
X9143134Y-6220667D01*
X8843134Y-6920667D01*
X8392334Y-5228400D02*
X8359000Y-5261733D01*
X8259000Y-5295067D01*
X8192334Y-5295067D01*
X8092334Y-5261733D01*
X8025667Y-5195067D01*
X7992334Y-5128400D01*
X7959000Y-4995067D01*
X7959000Y-4895067D01*
X7992334Y-4761733D01*
X8025667Y-4695067D01*
X8092334Y-4628400D01*
X8192334Y-4595067D01*
X8259000Y-4595067D01*
X8359000Y-4628400D01*
X8392334Y-4661733D01*
X8792334Y-4895067D02*
X8725667Y-4861733D01*
X8692334Y-4828400D01*
X8659000Y-4761733D01*
X8659000Y-4728400D01*
X8692334Y-4661733D01*
X8725667Y-4628400D01*
X8792334Y-4595067D01*
X8925667Y-4595067D01*
X8992334Y-4628400D01*
X9025667Y-4661733D01*
X9059000Y-4728400D01*
X9059000Y-4761733D01*
X9025667Y-4828400D01*
X8992334Y-4861733D01*
X8925667Y-4895067D01*
X8792334Y-4895067D01*
X8725667Y-4928400D01*
X8692334Y-4961733D01*
X8659000Y-5028400D01*
X8659000Y-5161733D01*
X8692334Y-5228400D01*
X8725667Y-5261733D01*
X8792334Y-5295067D01*
X8925667Y-5295067D01*
X8992334Y-5261733D01*
X9025667Y-5228400D01*
X9059000Y-5161733D01*
X9059000Y-5028400D01*
X9025667Y-4961733D01*
X8992334Y-4928400D01*
X8925667Y-4895067D01*
X1940734Y-11603800D02*
X1907400Y-11637133D01*
X1807400Y-11670467D01*
X1740734Y-11670467D01*
X1640734Y-11637133D01*
X1574067Y-11570467D01*
X1540734Y-11503800D01*
X1507400Y-11370467D01*
X1507400Y-11270467D01*
X1540734Y-11137133D01*
X1574067Y-11070467D01*
X1640734Y-11003800D01*
X1740734Y-10970467D01*
X1807400Y-10970467D01*
X1907400Y-11003800D01*
X1940734Y-11037133D01*
X2274067Y-11670467D02*
X2407400Y-11670467D01*
X2474067Y-11637133D01*
X2507400Y-11603800D01*
X2574067Y-11503800D01*
X2607400Y-11370467D01*
X2607400Y-11103800D01*
X2574067Y-11037133D01*
X2540734Y-11003800D01*
X2474067Y-10970467D01*
X2340734Y-10970467D01*
X2274067Y-11003800D01*
X2240734Y-11037133D01*
X2207400Y-11103800D01*
X2207400Y-11270467D01*
X2240734Y-11337133D01*
X2274067Y-11370467D01*
X2340734Y-11403800D01*
X2474067Y-11403800D01*
X2540734Y-11370467D01*
X2574067Y-11337133D01*
X2607400Y-11270467D01*
X-6573940Y-5690680D02*
X-6607274Y-5724013D01*
X-6707274Y-5757347D01*
X-6773940Y-5757347D01*
X-6873940Y-5724013D01*
X-6940607Y-5657347D01*
X-6973940Y-5590680D01*
X-7007274Y-5457347D01*
X-7007274Y-5357347D01*
X-6973940Y-5224013D01*
X-6940607Y-5157347D01*
X-6873940Y-5090680D01*
X-6773940Y-5057347D01*
X-6707274Y-5057347D01*
X-6607274Y-5090680D01*
X-6573940Y-5124013D01*
X-5907274Y-5757347D02*
X-6307274Y-5757347D01*
X-6107274Y-5757347D02*
X-6107274Y-5057347D01*
X-6173940Y-5157347D01*
X-6240607Y-5224013D01*
X-6307274Y-5257347D01*
X-5273940Y-5057347D02*
X-5607273Y-5057347D01*
X-5640607Y-5390680D01*
X-5607273Y-5357347D01*
X-5540607Y-5324013D01*
X-5373940Y-5324013D01*
X-5307273Y-5357347D01*
X-5273940Y-5390680D01*
X-5240607Y-5457347D01*
X-5240607Y-5624013D01*
X-5273940Y-5690680D01*
X-5307273Y-5724013D01*
X-5373940Y-5757347D01*
X-5540607Y-5757347D01*
X-5607273Y-5724013D01*
X-5640607Y-5690680D01*
X-11557420Y6854380D02*
X-11590754Y6821047D01*
X-11690754Y6787713D01*
X-11757420Y6787713D01*
X-11857420Y6821047D01*
X-11924087Y6887713D01*
X-11957420Y6954380D01*
X-11990754Y7087713D01*
X-11990754Y7187713D01*
X-11957420Y7321047D01*
X-11924087Y7387713D01*
X-11857420Y7454380D01*
X-11757420Y7487713D01*
X-11690754Y7487713D01*
X-11590754Y7454380D01*
X-11557420Y7421047D01*
X-11290754Y7421047D02*
X-11257420Y7454380D01*
X-11190754Y7487713D01*
X-11024087Y7487713D01*
X-10957420Y7454380D01*
X-10924087Y7421047D01*
X-10890754Y7354380D01*
X-10890754Y7287713D01*
X-10924087Y7187713D01*
X-11324087Y6787713D01*
X-10890754Y6787713D01*
X-10224087Y6787713D02*
X-10624087Y6787713D01*
X-10424087Y6787713D02*
X-10424087Y7487713D01*
X-10490753Y7387713D01*
X-10557420Y7321047D01*
X-10624087Y7287713D01*
X-11664100Y5345620D02*
X-11697434Y5312287D01*
X-11797434Y5278953D01*
X-11864100Y5278953D01*
X-11964100Y5312287D01*
X-12030767Y5378953D01*
X-12064100Y5445620D01*
X-12097434Y5578953D01*
X-12097434Y5678953D01*
X-12064100Y5812287D01*
X-12030767Y5878953D01*
X-11964100Y5945620D01*
X-11864100Y5978953D01*
X-11797434Y5978953D01*
X-11697434Y5945620D01*
X-11664100Y5912287D01*
X-11397434Y5912287D02*
X-11364100Y5945620D01*
X-11297434Y5978953D01*
X-11130767Y5978953D01*
X-11064100Y5945620D01*
X-11030767Y5912287D01*
X-10997434Y5845620D01*
X-10997434Y5778953D01*
X-11030767Y5678953D01*
X-11430767Y5278953D01*
X-10997434Y5278953D01*
X-10730767Y5912287D02*
X-10697433Y5945620D01*
X-10630767Y5978953D01*
X-10464100Y5978953D01*
X-10397433Y5945620D01*
X-10364100Y5912287D01*
X-10330767Y5845620D01*
X-10330767Y5778953D01*
X-10364100Y5678953D01*
X-10764100Y5278953D01*
X-10330767Y5278953D01*
X1279740Y7034720D02*
X1246406Y7001387D01*
X1146406Y6968053D01*
X1079740Y6968053D01*
X979740Y7001387D01*
X913073Y7068053D01*
X879740Y7134720D01*
X846406Y7268053D01*
X846406Y7368053D01*
X879740Y7501387D01*
X913073Y7568053D01*
X979740Y7634720D01*
X1079740Y7668053D01*
X1146406Y7668053D01*
X1246406Y7634720D01*
X1279740Y7601387D01*
X1546406Y7601387D02*
X1579740Y7634720D01*
X1646406Y7668053D01*
X1813073Y7668053D01*
X1879740Y7634720D01*
X1913073Y7601387D01*
X1946406Y7534720D01*
X1946406Y7468053D01*
X1913073Y7368053D01*
X1513073Y6968053D01*
X1946406Y6968053D01*
X2179740Y7668053D02*
X2613073Y7668053D01*
X2379740Y7401387D01*
X2479740Y7401387D01*
X2546407Y7368053D01*
X2579740Y7334720D01*
X2613073Y7268053D01*
X2613073Y7101387D01*
X2579740Y7034720D01*
X2546407Y7001387D01*
X2479740Y6968053D01*
X2279740Y6968053D01*
X2213073Y7001387D01*
X2179740Y7034720D01*
X-3955200Y6709600D02*
X-3988534Y6676267D01*
X-4088534Y6642933D01*
X-4155200Y6642933D01*
X-4255200Y6676267D01*
X-4321867Y6742933D01*
X-4355200Y6809600D01*
X-4388534Y6942933D01*
X-4388534Y7042933D01*
X-4355200Y7176267D01*
X-4321867Y7242933D01*
X-4255200Y7309600D01*
X-4155200Y7342933D01*
X-4088534Y7342933D01*
X-3988534Y7309600D01*
X-3955200Y7276267D01*
X-3688534Y7276267D02*
X-3655200Y7309600D01*
X-3588534Y7342933D01*
X-3421867Y7342933D01*
X-3355200Y7309600D01*
X-3321867Y7276267D01*
X-3288534Y7209600D01*
X-3288534Y7142933D01*
X-3321867Y7042933D01*
X-3721867Y6642933D01*
X-3288534Y6642933D01*
X-2655200Y7342933D02*
X-2988533Y7342933D01*
X-3021867Y7009600D01*
X-2988533Y7042933D01*
X-2921867Y7076267D01*
X-2755200Y7076267D01*
X-2688533Y7042933D01*
X-2655200Y7009600D01*
X-2621867Y6942933D01*
X-2621867Y6776267D01*
X-2655200Y6709600D01*
X-2688533Y6676267D01*
X-2755200Y6642933D01*
X-2921867Y6642933D01*
X-2988533Y6676267D01*
X-3021867Y6709600D01*
X3951820Y-1393000D02*
X3918486Y-1426333D01*
X3818486Y-1459667D01*
X3751820Y-1459667D01*
X3651820Y-1426333D01*
X3585153Y-1359667D01*
X3551820Y-1293000D01*
X3518486Y-1159667D01*
X3518486Y-1059667D01*
X3551820Y-926333D01*
X3585153Y-859667D01*
X3651820Y-793000D01*
X3751820Y-759667D01*
X3818486Y-759667D01*
X3918486Y-793000D01*
X3951820Y-826333D01*
X4218486Y-826333D02*
X4251820Y-793000D01*
X4318486Y-759667D01*
X4485153Y-759667D01*
X4551820Y-793000D01*
X4585153Y-826333D01*
X4618486Y-893000D01*
X4618486Y-959667D01*
X4585153Y-1059667D01*
X4185153Y-1459667D01*
X4618486Y-1459667D01*
X4851820Y-759667D02*
X5318487Y-759667D01*
X5018487Y-1459667D01*
X-2618566Y-7718227D02*
X-2851900Y-7384893D01*
X-3018566Y-7718227D02*
X-3018566Y-7018227D01*
X-2751900Y-7018227D01*
X-2685233Y-7051560D01*
X-2651900Y-7084893D01*
X-2618566Y-7151560D01*
X-2618566Y-7251560D01*
X-2651900Y-7318227D01*
X-2685233Y-7351560D01*
X-2751900Y-7384893D01*
X-3018566Y-7384893D01*
X-1985233Y-7018227D02*
X-2318566Y-7018227D01*
X-2351900Y-7351560D01*
X-2318566Y-7318227D01*
X-2251900Y-7284893D01*
X-2085233Y-7284893D01*
X-2018566Y-7318227D01*
X-1985233Y-7351560D01*
X-1951900Y-7418227D01*
X-1951900Y-7584893D01*
X-1985233Y-7651560D01*
X-2018566Y-7684893D01*
X-2085233Y-7718227D01*
X-2251900Y-7718227D01*
X-2318566Y-7684893D01*
X-2351900Y-7651560D01*
X-2000866Y420733D02*
X-2234200Y754067D01*
X-2400866Y420733D02*
X-2400866Y1120733D01*
X-2134200Y1120733D01*
X-2067533Y1087400D01*
X-2034200Y1054067D01*
X-2000866Y987400D01*
X-2000866Y887400D01*
X-2034200Y820733D01*
X-2067533Y787400D01*
X-2134200Y754067D01*
X-2400866Y754067D01*
X-1667533Y420733D02*
X-1534200Y420733D01*
X-1467533Y454067D01*
X-1434200Y487400D01*
X-1367533Y587400D01*
X-1334200Y720733D01*
X-1334200Y987400D01*
X-1367533Y1054067D01*
X-1400866Y1087400D01*
X-1467533Y1120733D01*
X-1600866Y1120733D01*
X-1667533Y1087400D01*
X-1700866Y1054067D01*
X-1734200Y987400D01*
X-1734200Y820733D01*
X-1700866Y754067D01*
X-1667533Y720733D01*
X-1600866Y687400D01*
X-1467533Y687400D01*
X-1400866Y720733D01*
X-1367533Y754067D01*
X-1334200Y820733D01*
X-6711100Y6650553D02*
X-6944434Y6983887D01*
X-7111100Y6650553D02*
X-7111100Y7350553D01*
X-6844434Y7350553D01*
X-6777767Y7317220D01*
X-6744434Y7283887D01*
X-6711100Y7217220D01*
X-6711100Y7117220D01*
X-6744434Y7050553D01*
X-6777767Y7017220D01*
X-6844434Y6983887D01*
X-7111100Y6983887D01*
X-6044434Y6650553D02*
X-6444434Y6650553D01*
X-6244434Y6650553D02*
X-6244434Y7350553D01*
X-6311100Y7250553D01*
X-6377767Y7183887D01*
X-6444434Y7150553D01*
X-5611100Y7350553D02*
X-5544433Y7350553D01*
X-5477767Y7317220D01*
X-5444433Y7283887D01*
X-5411100Y7217220D01*
X-5377767Y7083887D01*
X-5377767Y6917220D01*
X-5411100Y6783887D01*
X-5444433Y6717220D01*
X-5477767Y6683887D01*
X-5544433Y6650553D01*
X-5611100Y6650553D01*
X-5677767Y6683887D01*
X-5711100Y6717220D01*
X-5744433Y6783887D01*
X-5777767Y6917220D01*
X-5777767Y7083887D01*
X-5744433Y7217220D01*
X-5711100Y7283887D01*
X-5677767Y7317220D01*
X-5611100Y7350553D01*
X-2342300Y-2160707D02*
X-2575634Y-1827373D01*
X-2742300Y-2160707D02*
X-2742300Y-1460707D01*
X-2475634Y-1460707D01*
X-2408967Y-1494040D01*
X-2375634Y-1527373D01*
X-2342300Y-1594040D01*
X-2342300Y-1694040D01*
X-2375634Y-1760707D01*
X-2408967Y-1794040D01*
X-2475634Y-1827373D01*
X-2742300Y-1827373D01*
X-1675634Y-2160707D02*
X-2075634Y-2160707D01*
X-1875634Y-2160707D02*
X-1875634Y-1460707D01*
X-1942300Y-1560707D01*
X-2008967Y-1627373D01*
X-2075634Y-1660707D01*
X-1008967Y-2160707D02*
X-1408967Y-2160707D01*
X-1208967Y-2160707D02*
X-1208967Y-1460707D01*
X-1275633Y-1560707D01*
X-1342300Y-1627373D01*
X-1408967Y-1660707D01*
X-2418500Y-717987D02*
X-2651834Y-384653D01*
X-2818500Y-717987D02*
X-2818500Y-17987D01*
X-2551834Y-17987D01*
X-2485167Y-51320D01*
X-2451834Y-84653D01*
X-2418500Y-151320D01*
X-2418500Y-251320D01*
X-2451834Y-317987D01*
X-2485167Y-351320D01*
X-2551834Y-384653D01*
X-2818500Y-384653D01*
X-1751834Y-717987D02*
X-2151834Y-717987D01*
X-1951834Y-717987D02*
X-1951834Y-17987D01*
X-2018500Y-117987D01*
X-2085167Y-184653D01*
X-2151834Y-217987D01*
X-1485167Y-84653D02*
X-1451833Y-51320D01*
X-1385167Y-17987D01*
X-1218500Y-17987D01*
X-1151833Y-51320D01*
X-1118500Y-84653D01*
X-1085167Y-151320D01*
X-1085167Y-217987D01*
X-1118500Y-317987D01*
X-1518500Y-717987D01*
X-1085167Y-717987D01*
X-9700086Y-8022400D02*
X-9733420Y-8055733D01*
X-9833420Y-8089067D01*
X-9900086Y-8089067D01*
X-10000086Y-8055733D01*
X-10066753Y-7989067D01*
X-10100086Y-7922400D01*
X-10133420Y-7789067D01*
X-10133420Y-7689067D01*
X-10100086Y-7555733D01*
X-10066753Y-7489067D01*
X-10000086Y-7422400D01*
X-9900086Y-7389067D01*
X-9833420Y-7389067D01*
X-9733420Y-7422400D01*
X-9700086Y-7455733D01*
X-9066753Y-7389067D02*
X-9400086Y-7389067D01*
X-9433420Y-7722400D01*
X-9400086Y-7689067D01*
X-9333420Y-7655733D01*
X-9166753Y-7655733D01*
X-9100086Y-7689067D01*
X-9066753Y-7722400D01*
X-9033420Y-7789067D01*
X-9033420Y-7955733D01*
X-9066753Y-8022400D01*
X-9100086Y-8055733D01*
X-9166753Y-8089067D01*
X-9333420Y-8089067D01*
X-9400086Y-8055733D01*
X-9433420Y-8022400D01*
X-28491600Y16539400D02*
X-28524934Y16506067D01*
X-28624934Y16472733D01*
X-28691600Y16472733D01*
X-28791600Y16506067D01*
X-28858267Y16572733D01*
X-28891600Y16639400D01*
X-28924934Y16772733D01*
X-28924934Y16872733D01*
X-28891600Y17006067D01*
X-28858267Y17072733D01*
X-28791600Y17139400D01*
X-28691600Y17172733D01*
X-28624934Y17172733D01*
X-28524934Y17139400D01*
X-28491600Y17106067D01*
X-28258267Y17172733D02*
X-27824934Y17172733D01*
X-28058267Y16906067D01*
X-27958267Y16906067D01*
X-27891600Y16872733D01*
X-27858267Y16839400D01*
X-27824934Y16772733D01*
X-27824934Y16606067D01*
X-27858267Y16539400D01*
X-27891600Y16506067D01*
X-27958267Y16472733D01*
X-28158267Y16472733D01*
X-28224934Y16506067D01*
X-28258267Y16539400D01*
X-27191600Y17172733D02*
X-27524933Y17172733D01*
X-27558267Y16839400D01*
X-27524933Y16872733D01*
X-27458267Y16906067D01*
X-27291600Y16906067D01*
X-27224933Y16872733D01*
X-27191600Y16839400D01*
X-27158267Y16772733D01*
X-27158267Y16606067D01*
X-27191600Y16539400D01*
X-27224933Y16506067D01*
X-27291600Y16472733D01*
X-27458267Y16472733D01*
X-27524933Y16506067D01*
X-27558267Y16539400D01*
X6230200Y-3729800D02*
X6196866Y-3763133D01*
X6096866Y-3796467D01*
X6030200Y-3796467D01*
X5930200Y-3763133D01*
X5863533Y-3696467D01*
X5830200Y-3629800D01*
X5796866Y-3496467D01*
X5796866Y-3396467D01*
X5830200Y-3263133D01*
X5863533Y-3196467D01*
X5930200Y-3129800D01*
X6030200Y-3096467D01*
X6096866Y-3096467D01*
X6196866Y-3129800D01*
X6230200Y-3163133D01*
X6463533Y-3096467D02*
X6896866Y-3096467D01*
X6663533Y-3363133D01*
X6763533Y-3363133D01*
X6830200Y-3396467D01*
X6863533Y-3429800D01*
X6896866Y-3496467D01*
X6896866Y-3663133D01*
X6863533Y-3729800D01*
X6830200Y-3763133D01*
X6763533Y-3796467D01*
X6563533Y-3796467D01*
X6496866Y-3763133D01*
X6463533Y-3729800D01*
X7496867Y-3096467D02*
X7363533Y-3096467D01*
X7296867Y-3129800D01*
X7263533Y-3163133D01*
X7196867Y-3263133D01*
X7163533Y-3396467D01*
X7163533Y-3663133D01*
X7196867Y-3729800D01*
X7230200Y-3763133D01*
X7296867Y-3796467D01*
X7430200Y-3796467D01*
X7496867Y-3763133D01*
X7530200Y-3729800D01*
X7563533Y-3663133D01*
X7563533Y-3496467D01*
X7530200Y-3429800D01*
X7496867Y-3396467D01*
X7430200Y-3363133D01*
X7296867Y-3363133D01*
X7230200Y-3396467D01*
X7196867Y-3429800D01*
X7163533Y-3496467D01*
X8260800Y9272400D02*
X8227466Y9239067D01*
X8127466Y9205733D01*
X8060800Y9205733D01*
X7960800Y9239067D01*
X7894133Y9305733D01*
X7860800Y9372400D01*
X7827466Y9505733D01*
X7827466Y9605733D01*
X7860800Y9739067D01*
X7894133Y9805733D01*
X7960800Y9872400D01*
X8060800Y9905733D01*
X8127466Y9905733D01*
X8227466Y9872400D01*
X8260800Y9839067D01*
X8494133Y9905733D02*
X8927466Y9905733D01*
X8694133Y9639067D01*
X8794133Y9639067D01*
X8860800Y9605733D01*
X8894133Y9572400D01*
X8927466Y9505733D01*
X8927466Y9339067D01*
X8894133Y9272400D01*
X8860800Y9239067D01*
X8794133Y9205733D01*
X8594133Y9205733D01*
X8527466Y9239067D01*
X8494133Y9272400D01*
X9160800Y9905733D02*
X9627467Y9905733D01*
X9327467Y9205733D01*
X10116400Y-3755200D02*
X10083066Y-3788533D01*
X9983066Y-3821867D01*
X9916400Y-3821867D01*
X9816400Y-3788533D01*
X9749733Y-3721867D01*
X9716400Y-3655200D01*
X9683066Y-3521867D01*
X9683066Y-3421867D01*
X9716400Y-3288533D01*
X9749733Y-3221867D01*
X9816400Y-3155200D01*
X9916400Y-3121867D01*
X9983066Y-3121867D01*
X10083066Y-3155200D01*
X10116400Y-3188533D01*
X10349733Y-3121867D02*
X10783066Y-3121867D01*
X10549733Y-3388533D01*
X10649733Y-3388533D01*
X10716400Y-3421867D01*
X10749733Y-3455200D01*
X10783066Y-3521867D01*
X10783066Y-3688533D01*
X10749733Y-3755200D01*
X10716400Y-3788533D01*
X10649733Y-3821867D01*
X10449733Y-3821867D01*
X10383066Y-3788533D01*
X10349733Y-3755200D01*
X11183067Y-3421867D02*
X11116400Y-3388533D01*
X11083067Y-3355200D01*
X11049733Y-3288533D01*
X11049733Y-3255200D01*
X11083067Y-3188533D01*
X11116400Y-3155200D01*
X11183067Y-3121867D01*
X11316400Y-3121867D01*
X11383067Y-3155200D01*
X11416400Y-3188533D01*
X11449733Y-3255200D01*
X11449733Y-3288533D01*
X11416400Y-3355200D01*
X11383067Y-3388533D01*
X11316400Y-3421867D01*
X11183067Y-3421867D01*
X11116400Y-3455200D01*
X11083067Y-3488533D01*
X11049733Y-3555200D01*
X11049733Y-3688533D01*
X11083067Y-3755200D01*
X11116400Y-3788533D01*
X11183067Y-3821867D01*
X11316400Y-3821867D01*
X11383067Y-3788533D01*
X11416400Y-3755200D01*
X11449733Y-3688533D01*
X11449733Y-3555200D01*
X11416400Y-3488533D01*
X11383067Y-3455200D01*
X11316400Y-3421867D01*
X8620934Y-3821867D02*
X8387600Y-3488533D01*
X8220934Y-3821867D02*
X8220934Y-3121867D01*
X8487600Y-3121867D01*
X8554267Y-3155200D01*
X8587600Y-3188533D01*
X8620934Y-3255200D01*
X8620934Y-3355200D01*
X8587600Y-3421867D01*
X8554267Y-3455200D01*
X8487600Y-3488533D01*
X8220934Y-3488533D01*
X9020934Y-3421867D02*
X8954267Y-3388533D01*
X8920934Y-3355200D01*
X8887600Y-3288533D01*
X8887600Y-3255200D01*
X8920934Y-3188533D01*
X8954267Y-3155200D01*
X9020934Y-3121867D01*
X9154267Y-3121867D01*
X9220934Y-3155200D01*
X9254267Y-3188533D01*
X9287600Y-3255200D01*
X9287600Y-3288533D01*
X9254267Y-3355200D01*
X9220934Y-3388533D01*
X9154267Y-3421867D01*
X9020934Y-3421867D01*
X8954267Y-3455200D01*
X8920934Y-3488533D01*
X8887600Y-3555200D01*
X8887600Y-3688533D01*
X8920934Y-3755200D01*
X8954267Y-3788533D01*
X9020934Y-3821867D01*
X9154267Y-3821867D01*
X9220934Y-3788533D01*
X9254267Y-3755200D01*
X9287600Y-3688533D01*
X9287600Y-3555200D01*
X9254267Y-3488533D01*
X9220934Y-3455200D01*
X9154267Y-3421867D01*
X11477734Y3634533D02*
X11477734Y3067867D01*
X11511067Y3001200D01*
X11544400Y2967867D01*
X11611067Y2934533D01*
X11744400Y2934533D01*
X11811067Y2967867D01*
X11844400Y3001200D01*
X11877734Y3067867D01*
X11877734Y3634533D01*
X12177733Y3567867D02*
X12211067Y3601200D01*
X12277733Y3634533D01*
X12444400Y3634533D01*
X12511067Y3601200D01*
X12544400Y3567867D01*
X12577733Y3501200D01*
X12577733Y3434533D01*
X12544400Y3334533D01*
X12144400Y2934533D01*
X12577733Y2934533D01*
X12811067Y3634533D02*
X13244400Y3634533D01*
X13011067Y3367867D01*
X13111067Y3367867D01*
X13177734Y3334533D01*
X13211067Y3301200D01*
X13244400Y3234533D01*
X13244400Y3067867D01*
X13211067Y3001200D01*
X13177734Y2967867D01*
X13111067Y2934533D01*
X12911067Y2934533D01*
X12844400Y2967867D01*
X12811067Y3001200D01*
X2204133Y-18180933D02*
X2137467Y-18147600D01*
X2070800Y-18080933D01*
X1970800Y-17980933D01*
X1904133Y-17947600D01*
X1837467Y-17947600D01*
X1870800Y-18114267D02*
X1804133Y-18080933D01*
X1737467Y-18014267D01*
X1704133Y-17880933D01*
X1704133Y-17647600D01*
X1737467Y-17514267D01*
X1804133Y-17447600D01*
X1870800Y-17414267D01*
X2004133Y-17414267D01*
X2070800Y-17447600D01*
X2137467Y-17514267D01*
X2170800Y-17647600D01*
X2170800Y-17880933D01*
X2137467Y-18014267D01*
X2070800Y-18080933D01*
X2004133Y-18114267D01*
X1870800Y-18114267D01*
X2437466Y-17480933D02*
X2470800Y-17447600D01*
X2537466Y-17414267D01*
X2704133Y-17414267D01*
X2770800Y-17447600D01*
X2804133Y-17480933D01*
X2837466Y-17547600D01*
X2837466Y-17614267D01*
X2804133Y-17714267D01*
X2404133Y-18114267D01*
X2837466Y-18114267D01*
X9510800Y-18194267D02*
X9277466Y-17860933D01*
X9110800Y-18194267D02*
X9110800Y-17494267D01*
X9377466Y-17494267D01*
X9444133Y-17527600D01*
X9477466Y-17560933D01*
X9510800Y-17627600D01*
X9510800Y-17727600D01*
X9477466Y-17794267D01*
X9444133Y-17827600D01*
X9377466Y-17860933D01*
X9110800Y-17860933D01*
X10177466Y-18194267D02*
X9777466Y-18194267D01*
X9977466Y-18194267D02*
X9977466Y-17494267D01*
X9910800Y-17594267D01*
X9844133Y-17660933D01*
X9777466Y-17694267D01*
X10777467Y-17494267D02*
X10644133Y-17494267D01*
X10577467Y-17527600D01*
X10544133Y-17560933D01*
X10477467Y-17660933D01*
X10444133Y-17794267D01*
X10444133Y-18060933D01*
X10477467Y-18127600D01*
X10510800Y-18160933D01*
X10577467Y-18194267D01*
X10710800Y-18194267D01*
X10777467Y-18160933D01*
X10810800Y-18127600D01*
X10844133Y-18060933D01*
X10844133Y-17894267D01*
X10810800Y-17827600D01*
X10777467Y-17794267D01*
X10710800Y-17760933D01*
X10577467Y-17760933D01*
X10510800Y-17794267D01*
X10477467Y-17827600D01*
X10444133Y-17894267D01*
D14*
X-6100628Y-896171D02*
X-6124438Y-919981D01*
X-6195866Y-943790D01*
X-6243485Y-943790D01*
X-6314914Y-919981D01*
X-6362533Y-872362D01*
X-6386342Y-824743D01*
X-6410152Y-729505D01*
X-6410152Y-658076D01*
X-6386342Y-562838D01*
X-6362533Y-515219D01*
X-6314914Y-467600D01*
X-6243485Y-443790D01*
X-6195866Y-443790D01*
X-6124438Y-467600D01*
X-6100628Y-491410D01*
X-5933961Y-443790D02*
X-5624438Y-443790D01*
X-5791104Y-634267D01*
X-5719676Y-634267D01*
X-5672057Y-658076D01*
X-5648247Y-681886D01*
X-5624438Y-729505D01*
X-5624438Y-848552D01*
X-5648247Y-896171D01*
X-5672057Y-919981D01*
X-5719676Y-943790D01*
X-5862533Y-943790D01*
X-5910152Y-919981D01*
X-5933961Y-896171D01*
X-5386343Y-943790D02*
X-5291105Y-943790D01*
X-5243486Y-919981D01*
X-5219676Y-896171D01*
X-5172057Y-824743D01*
X-5148248Y-729505D01*
X-5148248Y-539029D01*
X-5172057Y-491410D01*
X-5195867Y-467600D01*
X-5243486Y-443790D01*
X-5338724Y-443790D01*
X-5386343Y-467600D01*
X-5410152Y-491410D01*
X-5433962Y-539029D01*
X-5433962Y-658076D01*
X-5410152Y-705695D01*
X-5386343Y-729505D01*
X-5338724Y-753314D01*
X-5243486Y-753314D01*
X-5195867Y-729505D01*
X-5172057Y-705695D01*
X-5148248Y-658076D01*
D11*
X-2419200Y-3827600D02*
X-2452534Y-3860933D01*
X-2552534Y-3894267D01*
X-2619200Y-3894267D01*
X-2719200Y-3860933D01*
X-2785867Y-3794267D01*
X-2819200Y-3727600D01*
X-2852534Y-3594267D01*
X-2852534Y-3494267D01*
X-2819200Y-3360933D01*
X-2785867Y-3294267D01*
X-2719200Y-3227600D01*
X-2619200Y-3194267D01*
X-2552534Y-3194267D01*
X-2452534Y-3227600D01*
X-2419200Y-3260933D01*
X-1819200Y-3427600D02*
X-1819200Y-3894267D01*
X-1985867Y-3160933D02*
X-2152534Y-3660933D01*
X-1719200Y-3660933D01*
X-1319200Y-3194267D02*
X-1252533Y-3194267D01*
X-1185867Y-3227600D01*
X-1152533Y-3260933D01*
X-1119200Y-3327600D01*
X-1085867Y-3460933D01*
X-1085867Y-3627600D01*
X-1119200Y-3760933D01*
X-1152533Y-3827600D01*
X-1185867Y-3860933D01*
X-1252533Y-3894267D01*
X-1319200Y-3894267D01*
X-1385867Y-3860933D01*
X-1419200Y-3827600D01*
X-1452533Y-3760933D01*
X-1485867Y-3627600D01*
X-1485867Y-3460933D01*
X-1452533Y-3327600D01*
X-1419200Y-3260933D01*
X-1385867Y-3227600D01*
X-1319200Y-3194267D01*
D14*
X-6190628Y-3153790D02*
X-6357295Y-2915695D01*
X-6476342Y-3153790D02*
X-6476342Y-2653790D01*
X-6285866Y-2653790D01*
X-6238247Y-2677600D01*
X-6214438Y-2701410D01*
X-6190628Y-2749029D01*
X-6190628Y-2820457D01*
X-6214438Y-2868076D01*
X-6238247Y-2891886D01*
X-6285866Y-2915695D01*
X-6476342Y-2915695D01*
X-5714438Y-3153790D02*
X-6000152Y-3153790D01*
X-5857295Y-3153790D02*
X-5857295Y-2653790D01*
X-5904914Y-2725219D01*
X-5952533Y-2772838D01*
X-6000152Y-2796648D01*
X-5547771Y-2653790D02*
X-5214438Y-2653790D01*
X-5428724Y-3153790D01*
X-6100628Y-1973790D02*
X-6267295Y-1735695D01*
X-6386342Y-1973790D02*
X-6386342Y-1473790D01*
X-6195866Y-1473790D01*
X-6148247Y-1497600D01*
X-6124438Y-1521410D01*
X-6100628Y-1569029D01*
X-6100628Y-1640457D01*
X-6124438Y-1688076D01*
X-6148247Y-1711886D01*
X-6195866Y-1735695D01*
X-6386342Y-1735695D01*
X-5624438Y-1973790D02*
X-5910152Y-1973790D01*
X-5767295Y-1973790D02*
X-5767295Y-1473790D01*
X-5814914Y-1545219D01*
X-5862533Y-1592838D01*
X-5910152Y-1616648D01*
X-5338724Y-1688076D02*
X-5386343Y-1664267D01*
X-5410152Y-1640457D01*
X-5433962Y-1592838D01*
X-5433962Y-1569029D01*
X-5410152Y-1521410D01*
X-5386343Y-1497600D01*
X-5338724Y-1473790D01*
X-5243486Y-1473790D01*
X-5195867Y-1497600D01*
X-5172057Y-1521410D01*
X-5148248Y-1569029D01*
X-5148248Y-1592838D01*
X-5172057Y-1640457D01*
X-5195867Y-1664267D01*
X-5243486Y-1688076D01*
X-5338724Y-1688076D01*
X-5386343Y-1711886D01*
X-5410152Y-1735695D01*
X-5433962Y-1783314D01*
X-5433962Y-1878552D01*
X-5410152Y-1926171D01*
X-5386343Y-1949981D01*
X-5338724Y-1973790D01*
X-5243486Y-1973790D01*
X-5195867Y-1949981D01*
X-5172057Y-1926171D01*
X-5148248Y-1878552D01*
X-5148248Y-1783314D01*
X-5172057Y-1735695D01*
X-5195867Y-1711886D01*
X-5243486Y-1688076D01*
D12*
X8402705Y22210019D02*
X8402705Y23210019D01*
X8783658Y23210019D01*
X8878896Y23162400D01*
X8926515Y23114781D01*
X8974134Y23019543D01*
X8974134Y22876686D01*
X8926515Y22781448D01*
X8878896Y22733829D01*
X8783658Y22686210D01*
X8402705Y22686210D01*
X9926515Y22210019D02*
X9355086Y22210019D01*
X9640800Y22210019D02*
X9640800Y23210019D01*
X9545562Y23067162D01*
X9450324Y22971924D01*
X9355086Y22924305D01*
X-21687295Y17770019D02*
X-21687295Y18770019D01*
X-21306342Y18770019D01*
X-21211104Y18722400D01*
X-21163485Y18674781D01*
X-21115866Y18579543D01*
X-21115866Y18436686D01*
X-21163485Y18341448D01*
X-21211104Y18293829D01*
X-21306342Y18246210D01*
X-21687295Y18246210D01*
X-20258723Y18436686D02*
X-20258723Y17770019D01*
X-20496819Y18817638D02*
X-20734914Y18103352D01*
X-20115866Y18103352D01*
X-2157295Y17710019D02*
X-2157295Y18710019D01*
X-1776342Y18710019D01*
X-1681104Y18662400D01*
X-1633485Y18614781D01*
X-1585866Y18519543D01*
X-1585866Y18376686D01*
X-1633485Y18281448D01*
X-1681104Y18233829D01*
X-1776342Y18186210D01*
X-2157295Y18186210D01*
X-681104Y18710019D02*
X-1157295Y18710019D01*
X-1204914Y18233829D01*
X-1157295Y18281448D01*
X-1062057Y18329067D01*
X-823961Y18329067D01*
X-728723Y18281448D01*
X-681104Y18233829D01*
X-633485Y18138590D01*
X-633485Y17900495D01*
X-681104Y17805257D01*
X-728723Y17757638D01*
X-823961Y17710019D01*
X-1062057Y17710019D01*
X-1157295Y17757638D01*
X-1204914Y17805257D01*
M02*
