M48
;DRILL file {KiCad 4.0.1-stable} date 5/8/2017 10:13:40 PM
;FORMAT={-:-/ absolute / inch / decimal}
FMAT,2
INCH,TZ
T1C0.008
T2C0.010
T3C0.039
T4C0.040
%
G90
G05
M72
T1
X-0.0951Y0.5731
X-0.0951Y0.516
X-0.0951Y0.4589
X-0.038Y0.5731
X-0.038Y0.516
X-0.038Y0.4589
X0.0191Y0.516
X0.0211Y0.5751
X0.0211Y0.4569
T2
X-1.0447Y0.6954
X-0.955Y0.663
X-0.8555Y-0.1975
X-0.855Y0.1805
X-0.8389Y-0.62
X-0.817Y0.3275
X-0.805Y0.011
X-0.8047Y-0.0668
X-0.804Y-0.406
X-0.783Y-0.2865
X-0.774Y0.6944
X-0.774Y0.2836
X-0.7445Y0.094
X-0.7435Y-0.2771
X-0.7425Y-0.0763
X-0.7415Y0.6019
X-0.7412Y0.3767
X-0.7267Y-0.6284
X-0.7189Y-0.3932
X-0.696Y0.3039
X-0.668Y-0.72
X-0.666Y-0.297
X-0.664Y0.164
X-0.6449Y-0.0763
X-0.6267Y-0.329
X-0.6126Y0.1741
X-0.6102Y0.2221
X-0.591Y-0.396
X-0.5909Y-0.7231
X-0.5889Y0.0485
X-0.587Y0.406
X-0.581Y-0.555
X-0.565Y-0.383
X-0.5634Y0.078
X-0.561Y0.419
X-0.54Y-0.396
X-0.5378Y0.0635
X-0.536Y0.406
X-0.5258Y0.6951
X-0.5145Y-0.6806
X-0.5141Y-0.3377
X-0.5114Y0.121
X-0.511Y-0.3074
X-0.4945Y0.4941
X-0.4941Y0.0442
X-0.4885Y0.6941
X-0.4649Y-0.2271
X-0.4649Y-0.5956
X-0.4511Y0.6019
X-0.4263Y0.184
X-0.4208Y0.1359
X-0.4208Y-0.5046
X-0.412Y-0.677
X-0.4082Y0.6557
X-0.3907Y-0.0898
X-0.379Y0.316
X-0.378Y-0.436
X-0.3715Y0.5411
X-0.3653Y-0.1157
X-0.3476Y0.1895
X-0.3419Y-0.3105
X-0.3419Y-0.6157
X-0.3401Y-0.0897
X-0.3378Y0.4257
X-0.3271Y0.0458
X-0.3177Y0.5654
X-0.3106Y-0.429
X-0.2907Y0.9385
X-0.289Y-0.292
X-0.2886Y0.4469
X-0.2693Y0.3221
X-0.2693Y-0.2692
X-0.2645Y0.5062
X-0.261Y-0.687
X-0.2378Y0.3962
X-0.208Y0.526
X-0.207Y0.585
X-0.207Y0.447
X-0.202Y0.184
X-0.2011Y0.0761
X-0.1716Y0.3434
X-0.1716Y-0.0357
X-0.169Y-0.293
X-0.164Y-0.163
X-0.159Y0.67
X-0.1441Y-0.3377
X-0.143Y-0.763
X-0.134Y-0.388
X-0.127Y0.684
X-0.1071Y0.3623
X-0.0978Y0.7121
X-0.097Y0.668
X-0.094Y0.22
X-0.075Y-0.646
X-0.0673Y0.3627
X-0.0657Y-0.1538
X-0.0657Y-0.5562
X-0.048Y0.343
X-0.048Y0.1143
X-0.048Y-0.012
X-0.0452Y-0.129
X-0.0374Y-0.2968
X-0.0279Y0.3615
X-0.0279Y0.2556
X-0.0161Y-0.7231
X-0.0082Y0.3426
X0.0063Y-0.6708
X0.0114Y0.3627
X0.03Y0.09
X0.0307Y0.3418
X0.031Y-0.187
X0.032Y-0.239
X0.0327Y0.6867
X0.0339Y-0.5731
X0.0508Y0.3615
X0.054Y-0.6436
X0.0603Y0.6832
X0.078Y-0.486
X0.0823Y0.6462
X0.0957Y-0.2385
X0.1036Y-0.6227
X0.1079Y0.0729
X0.1083Y-0.7452
X0.1099Y-0.316
X0.1146Y0.5064
X0.115Y0.5454
X0.1158Y0.6452
X0.1189Y0.4469
X0.1272Y0.141
X0.1406Y-0.0731
X0.1469Y0.467
X0.15Y0.213
X0.1551Y-0.1605
X0.1748Y0.1753
X0.178Y0.5257
X0.178Y0.2891
X0.1926Y-0.5956
X0.1926Y-0.6905
X0.1937Y-0.533
X0.2016Y-0.1617
X0.203Y0.067
X0.2162Y0.0981
X0.2217Y-0.666
X0.2374Y0.5588
X0.2374Y-0.0405
X0.2386Y-0.0995
X0.2408Y-0.3332
X0.2447Y-0.7407
X0.2605Y-0.2594
X0.2717Y0.4056
X0.2717Y0.2568
X0.2717Y0.1969
X0.2839Y-0.5208
X0.2881Y-0.2271
X0.2969Y0.2347
X0.3016Y0.3387
X0.3177Y-0.5042
X0.326Y0.4277
X0.3473Y0.0958
X0.3599Y0.6757
X0.3611Y-0.3298
X0.3638Y-0.5074
X0.3961Y-0.7216
X0.3962Y0.4328
X0.4217Y0.091
X0.4221Y0.3143
X0.4398Y0.4595
X0.4465Y0.3009
X0.4485Y-0.2466
X0.4485Y-0.3322
X0.454Y-0.1003
X0.4729Y0.4198
X0.4729Y0.1682
X0.479Y0.0841
X0.479Y-0.3893
X0.5217Y0.3025
X0.5229Y-0.4802
X0.5323Y-0.0767
X0.5465Y0.0958
X0.5469Y0.291
X0.5557Y0.6757
X0.5557Y0.4601
X0.5587Y0.8558
X0.5784Y0.7879
X0.5784Y0.5792
X0.5977Y0.1454
X0.5981Y0.8558
X0.6063Y0.2969
X0.6071Y-0.2597
X0.6114Y0.5174
X0.6134Y-0.3247
X0.6177Y0.8775
X0.6177Y0.5822
X0.6187Y0.6757
X0.6327Y-0.5204
X0.6327Y-0.668
X0.6351Y-0.1216
X0.6359Y0.2729
X0.6481Y0.0127
X0.6611Y0.2603
X0.6611Y-0.1433
X0.662Y0.8223
X0.6863Y0.2832
X0.7099Y-0.3342
X0.7122Y0.0139
X0.7126Y0.504
X0.7329Y0.7869
X0.7359Y-0.3243
X0.7378Y0.5147
X0.7378Y0.0946
X0.7611Y-0.3361
X0.7614Y-0.5125
X0.7634Y0.5029
X0.7634Y0.0143
X0.7644Y0.6757
X0.791Y-0.6204
X0.7992Y0.6257
X0.8162Y-0.6657
X0.8193Y0.6517
X0.8195Y-0.1875
X0.8201Y0.2367
X0.8217Y0.2017
X0.8481Y0.6048
X0.8485Y-0.1779
T3
X-1.0494Y0.9161
X-1.0494Y0.8161
X-1.0183Y0.5039
X-1.0183Y0.4039
X-1.0183Y0.3039
X-1.0183Y0.2039
X-1.0183Y0.1039
X-1.0183Y0.0039
X-1.0183Y-0.0961
X-1.0183Y-0.1961
X-1.0183Y-0.2961
X-1.0183Y-0.3961
X-1.0183Y-0.4961
X-1.0183Y-0.5961
X-1.0183Y-0.6961
X-0.9494Y0.9161
X-0.9494Y0.8161
X-0.9183Y0.5039
X-0.9183Y0.4039
X-0.9183Y0.3039
X-0.9183Y0.2039
X-0.9183Y0.1039
X-0.9183Y0.0039
X-0.9183Y-0.0961
X-0.9183Y-0.1961
X-0.9183Y-0.2961
X-0.9183Y-0.3961
X-0.9183Y-0.4961
X-0.9183Y-0.5961
X-0.9183Y-0.6961
X-0.8494Y0.9161
X-0.8494Y0.8161
X-0.7494Y0.9161
X-0.7494Y0.8161
X-0.6494Y0.9161
X-0.6494Y0.8161
X-0.2403Y0.9161
X-0.2403Y0.8161
X-0.1403Y0.9161
X-0.1403Y0.8161
X-0.0403Y0.9161
X-0.0403Y0.8161
X0.0597Y0.9161
X0.0597Y0.8161
X0.1597Y0.9161
X0.1597Y0.8161
X0.9187Y0.6929
X0.9187Y0.5929
X0.9187Y0.4929
X0.9187Y0.3929
X0.9187Y0.2929
X0.9187Y0.1929
X0.9187Y0.0929
X0.9187Y-0.0071
X0.9187Y-0.1071
X0.9187Y-0.2071
X0.9187Y-0.3071
X0.9187Y-0.4071
X0.9187Y-0.5071
X0.9187Y-0.6071
X0.9187Y-0.7071
X1.0187Y0.6929
X1.0187Y0.5929
X1.0187Y0.4929
X1.0187Y0.3929
X1.0187Y0.2929
X1.0187Y0.1929
X1.0187Y0.0929
X1.0187Y-0.0071
X1.0187Y-0.1071
X1.0187Y-0.2071
X1.0187Y-0.3071
X1.0187Y-0.4071
X1.0187Y-0.5071
X1.0187Y-0.6071
X1.0187Y-0.7071
T4
X0.481Y-0.725
X0.971Y0.895
T0
M30
