G04 #@! TF.FileFunction,Copper,L1,Top,Signal*
%FSLAX46Y46*%
G04 Gerber Fmt 4.6, Leading zero omitted, Abs format (unit mm)*
G04 Created by KiCad (PCBNEW 4.0.1-stable) date 5/8/2017 10:12:06 PM*
%MOMM*%
G01*
G04 APERTURE LIST*
%ADD10C,0.100000*%
%ADD11R,1.700000X1.700000*%
%ADD12O,1.700000X1.700000*%
%ADD13C,1.397000*%
%ADD14C,0.508000*%
%ADD15R,0.350000X1.200000*%
%ADD16R,0.710000X0.280000*%
%ADD17R,0.280000X0.710000*%
%ADD18C,0.280000*%
%ADD19R,1.150000X1.150000*%
%ADD20C,0.457200*%
%ADD21R,4.100000X4.100000*%
%ADD22R,0.900000X0.240000*%
%ADD23R,0.240000X0.900000*%
%ADD24R,1.900000X0.900000*%
%ADD25R,0.750000X0.900000*%
%ADD26R,1.000000X0.700000*%
%ADD27R,0.700000X1.000000*%
%ADD28R,1.450000X0.450000*%
%ADD29R,0.450000X1.450000*%
%ADD30R,0.900000X0.500000*%
%ADD31R,0.500000X0.900000*%
%ADD32R,0.400000X1.000000*%
%ADD33R,1.300000X0.700000*%
%ADD34R,0.410000X1.020000*%
%ADD35R,0.400000X0.600000*%
%ADD36R,0.330000X0.800000*%
%ADD37R,0.600000X2.600000*%
%ADD38C,0.152400*%
%ADD39C,0.254000*%
%ADD40C,0.203200*%
%ADD41C,0.177800*%
G04 APERTURE END LIST*
D10*
D11*
X25875000Y17600000D03*
D12*
X23335000Y17600000D03*
X25875000Y15060000D03*
X23335000Y15060000D03*
X25875000Y12520000D03*
X23335000Y12520000D03*
X25875000Y9980000D03*
X23335000Y9980000D03*
X25875000Y7440000D03*
X23335000Y7440000D03*
X25875000Y4900000D03*
X23335000Y4900000D03*
X25875000Y2360000D03*
X23335000Y2360000D03*
X25875000Y-180000D03*
X23335000Y-180000D03*
X25875000Y-2720000D03*
X23335000Y-2720000D03*
X25875000Y-5260000D03*
X23335000Y-5260000D03*
X25875000Y-7800000D03*
X23335000Y-7800000D03*
X25875000Y-10340000D03*
X23335000Y-10340000D03*
X25875000Y-12880000D03*
X23335000Y-12880000D03*
X25875000Y-15420000D03*
X23335000Y-15420000D03*
X25875000Y-17960000D03*
X23335000Y-17960000D03*
D11*
X-23325000Y12800000D03*
D12*
X-25865000Y12800000D03*
X-23325000Y10260000D03*
X-25865000Y10260000D03*
X-23325000Y7720000D03*
X-25865000Y7720000D03*
X-23325000Y5180000D03*
X-25865000Y5180000D03*
X-23325000Y2640000D03*
X-25865000Y2640000D03*
X-23325000Y100000D03*
X-25865000Y100000D03*
X-23325000Y-2440000D03*
X-25865000Y-2440000D03*
X-23325000Y-4980000D03*
X-25865000Y-4980000D03*
X-23325000Y-7520000D03*
X-25865000Y-7520000D03*
X-23325000Y-10060000D03*
X-25865000Y-10060000D03*
X-23325000Y-12600000D03*
X-25865000Y-12600000D03*
X-23325000Y-15140000D03*
X-25865000Y-15140000D03*
X-23325000Y-17680000D03*
X-25865000Y-17680000D03*
D13*
X12217400Y-18415000D03*
D14*
X-4589200Y-19737600D03*
D15*
X-18161000Y3073400D03*
X-17511000Y3073400D03*
X-16861000Y3073400D03*
X-16211000Y3073400D03*
X-15561000Y3073400D03*
X-14911000Y3073400D03*
X-14261000Y3073400D03*
X-13611000Y3073400D03*
X-13611000Y9273400D03*
X-14261000Y9273400D03*
X-14911000Y9273400D03*
X-15561000Y9273400D03*
X-16211000Y9273400D03*
X-16861000Y9273400D03*
X-17511000Y9273400D03*
X-18161000Y9273400D03*
X-18208300Y-6542900D03*
X-17558300Y-6542900D03*
X-16908300Y-6542900D03*
X-16258300Y-6542900D03*
X-15608300Y-6542900D03*
X-14958300Y-6542900D03*
X-14308300Y-6542900D03*
X-13658300Y-6542900D03*
X-13658300Y-342900D03*
X-14308300Y-342900D03*
X-14958300Y-342900D03*
X-15608300Y-342900D03*
X-16258300Y-342900D03*
X-16908300Y-342900D03*
X-17558300Y-342900D03*
X-18208300Y-342900D03*
X-18262600Y-17297400D03*
X-17612600Y-17297400D03*
X-16962600Y-17297400D03*
X-16312600Y-17297400D03*
X-15662600Y-17297400D03*
X-15012600Y-17297400D03*
X-14362600Y-17297400D03*
X-13712600Y-17297400D03*
X-13712600Y-11097400D03*
X-14362600Y-11097400D03*
X-15012600Y-11097400D03*
X-15662600Y-11097400D03*
X-16312600Y-11097400D03*
X-16962600Y-11097400D03*
X-17612600Y-11097400D03*
X-18262600Y-11097400D03*
D16*
X-4010200Y15356400D03*
X-4010200Y14856400D03*
X-4010200Y14356400D03*
X-4010200Y13856400D03*
X-4010200Y13356400D03*
X-4010200Y12856400D03*
X-4010200Y12356400D03*
X-4010200Y11856400D03*
X-4010200Y11356400D03*
X-4010200Y10856400D03*
D17*
X-3215200Y10061400D03*
X-2715200Y10061400D03*
X-2215200Y10061400D03*
X-1715200Y10061400D03*
X-1215200Y10061400D03*
X-715200Y10061400D03*
X-215200Y10061400D03*
X284800Y10061400D03*
X784800Y10061400D03*
X1284800Y10061400D03*
D16*
X2079800Y10856400D03*
X2079800Y11356400D03*
X2079800Y11856400D03*
X2079800Y12356400D03*
X2079800Y12856400D03*
X2079800Y13356400D03*
X2079800Y13856400D03*
X2079800Y14356400D03*
X2079800Y14856400D03*
X2079800Y15356400D03*
D17*
X1284800Y16151400D03*
X784800Y16151400D03*
X284800Y16151400D03*
X-215200Y16151400D03*
X-715200Y16151400D03*
X-1215200Y16151400D03*
X-1715200Y16151400D03*
X-2215200Y16151400D03*
X-2715200Y16151400D03*
X-3215200Y16151400D03*
D18*
X1724800Y10856400D03*
X1724800Y11356400D03*
X1724800Y11856400D03*
X1724800Y12356400D03*
X1724800Y12856400D03*
X1724800Y13356400D03*
X1724800Y13856400D03*
X1724800Y14356400D03*
X1724800Y14856400D03*
X1724800Y15356400D03*
X1284800Y15796400D03*
X784800Y15796400D03*
X284800Y15796400D03*
X-215200Y15796400D03*
X-715200Y15796400D03*
X-1215200Y15796400D03*
X-1715200Y15796400D03*
X-2215200Y15796400D03*
X-2715200Y15796400D03*
X-3215200Y15796400D03*
X-3655200Y15356400D03*
X-3655200Y14856400D03*
X-3655200Y14356400D03*
X-3655200Y13856400D03*
X-3655200Y13356400D03*
X-3655200Y12856400D03*
X-3655200Y12356400D03*
X-3655200Y11856400D03*
X-3655200Y11356400D03*
X-3655200Y10856400D03*
X-3215200Y10416400D03*
X-2715200Y10416400D03*
X-2215200Y10416400D03*
X-1715200Y10416400D03*
X-1215200Y10416400D03*
X-715200Y10416400D03*
X-215200Y10416400D03*
X284800Y10416400D03*
X784800Y10416400D03*
X1284800Y10416400D03*
D19*
X-965200Y13106400D03*
X-965200Y14556400D03*
X-965200Y11656400D03*
X-2415200Y11656400D03*
X-2415200Y13106400D03*
X-2415200Y14556400D03*
X484800Y14556400D03*
X484800Y13106400D03*
X484800Y11656400D03*
D20*
X-965200Y14556400D03*
X-2415200Y14556400D03*
X-2415200Y11656400D03*
X-2415200Y13106400D03*
X-965200Y13106400D03*
X534800Y11606400D03*
X-965200Y11656400D03*
X484800Y13106400D03*
X534800Y14606400D03*
D21*
X-965200Y13106400D03*
D15*
X14843760Y5552440D03*
X15493760Y5552440D03*
X16143760Y5552440D03*
X16793760Y5552440D03*
X17443760Y5552440D03*
X18093760Y5552440D03*
X18743760Y5552440D03*
X19393760Y5552440D03*
X19393760Y11752440D03*
X18743760Y11752440D03*
X18093760Y11752440D03*
X17443760Y11752440D03*
X16793760Y11752440D03*
X16143760Y11752440D03*
X15493760Y11752440D03*
X14843760Y11752440D03*
D22*
X-7891150Y-9846079D03*
D23*
X-7341150Y-10896079D03*
X-6841150Y-10896079D03*
X-6341150Y-10896079D03*
X-5841150Y-10896079D03*
X-5341150Y-10896079D03*
X-4841150Y-10896079D03*
D22*
X-4291150Y-9846079D03*
X-4291150Y-9346079D03*
D23*
X-4841150Y-8296079D03*
X-5341150Y-8296079D03*
X-5841150Y-8296079D03*
X-6341150Y-8296079D03*
X-6841150Y-8296079D03*
X-7341150Y-8296079D03*
D22*
X-7891150Y-9346079D03*
D24*
X-6091150Y-9596079D03*
D25*
X-6666150Y-9596079D03*
X-5516150Y-9596079D03*
D15*
X14843760Y-4759960D03*
X15493760Y-4759960D03*
X16143760Y-4759960D03*
X16793760Y-4759960D03*
X17443760Y-4759960D03*
X18093760Y-4759960D03*
X18743760Y-4759960D03*
X19393760Y-4759960D03*
X19393760Y1440040D03*
X18743760Y1440040D03*
X18093760Y1440040D03*
X17443760Y1440040D03*
X16793760Y1440040D03*
X16143760Y1440040D03*
X15493760Y1440040D03*
X14843760Y1440040D03*
X14782800Y-15768320D03*
X15432800Y-15768320D03*
X16082800Y-15768320D03*
X16732800Y-15768320D03*
X17382800Y-15768320D03*
X18032800Y-15768320D03*
X18682800Y-15768320D03*
X19332800Y-15768320D03*
X19332800Y-9568320D03*
X18682800Y-9568320D03*
X18032800Y-9568320D03*
X17382800Y-9568320D03*
X16732800Y-9568320D03*
X16082800Y-9568320D03*
X15432800Y-9568320D03*
X14782800Y-9568320D03*
D26*
X6179820Y-9860280D03*
X3779820Y-8910280D03*
X3779820Y-10810280D03*
D27*
X-12404800Y16654600D03*
X-11454800Y16654600D03*
X-13354800Y16654600D03*
X-13354800Y14254600D03*
X-11454800Y14254600D03*
D26*
X4148800Y2634420D03*
X4148800Y3584420D03*
X4148800Y1684420D03*
X6548800Y1684420D03*
X6548800Y3584420D03*
D27*
X-694180Y-8716280D03*
X255820Y-8716280D03*
X-1644180Y-8716280D03*
X-1644180Y-11116280D03*
X255820Y-11116280D03*
X-5141700Y3784300D03*
X-4191700Y3784300D03*
X-6091700Y3784300D03*
X-6091700Y1384300D03*
X-4191700Y1384300D03*
D26*
X6179820Y-14178280D03*
X6179820Y-15128280D03*
X6179820Y-13228280D03*
X3779820Y-13228280D03*
X3779820Y-15128280D03*
D27*
X-6616700Y-16510000D03*
X-5666700Y-16510000D03*
X-7566700Y-16510000D03*
X-7566700Y-18910000D03*
X-5666700Y-18910000D03*
D28*
X3925820Y-6708480D03*
X3925820Y-6058480D03*
X3925820Y-5408480D03*
X3925820Y-4758480D03*
X-474180Y-4758480D03*
X-474180Y-5408480D03*
X-474180Y-6058480D03*
X-474180Y-6708480D03*
D29*
X-7983580Y3452220D03*
X-8633580Y3452220D03*
X-9283580Y3452220D03*
X-9933580Y3452220D03*
X-9933580Y-947780D03*
X-9283580Y-947780D03*
X-8633580Y-947780D03*
X-7983580Y-947780D03*
D30*
X-9282460Y-12626880D03*
X-9282460Y-14126880D03*
X-5552460Y-12626880D03*
X-5552460Y-14126880D03*
X-3632460Y-12626880D03*
X-3632460Y-14126880D03*
X-7452460Y-12626880D03*
X-7452460Y-14126880D03*
D31*
X9968800Y-15468600D03*
X11468800Y-15468600D03*
X9943400Y-13792200D03*
X11443400Y-13792200D03*
D32*
X110800Y1324420D03*
X760800Y1324420D03*
X1410800Y1324420D03*
X2060800Y1324420D03*
X2060800Y4124420D03*
X1410800Y4124420D03*
X760800Y4124420D03*
X110800Y4124420D03*
D30*
X-19723100Y9817800D03*
X-19723100Y8317800D03*
X-1905000Y-18682400D03*
X-1905000Y-17182400D03*
X-3639820Y-17164620D03*
X-3639820Y-18664620D03*
D31*
X-14731600Y12551200D03*
X-13231600Y12551200D03*
X-10424900Y12538500D03*
X-11924900Y12538500D03*
D30*
X-9447700Y16158700D03*
X-9447700Y14658700D03*
X-9448800Y-18707800D03*
X-9448800Y-17207800D03*
D14*
X-17349200Y16032400D03*
X2890800Y-3907600D03*
X-22899200Y16672400D03*
X-22899200Y15112400D03*
X3990800Y17162400D03*
X7530800Y17132400D03*
D30*
X-19507200Y-1219900D03*
X-19507200Y280100D03*
X-19532600Y-11799000D03*
X-19532600Y-10299000D03*
X1986280Y-14557440D03*
X1986280Y-13057440D03*
D31*
X13510800Y11672400D03*
X12010800Y11672400D03*
X6048800Y5404420D03*
X4548800Y5404420D03*
D30*
X13512800Y1283400D03*
X13512800Y-216600D03*
X13274040Y-9887520D03*
X13274040Y-11387520D03*
D31*
X18565800Y15512400D03*
X17065800Y15512400D03*
X17115800Y18962400D03*
X18615800Y18962400D03*
X18590800Y17187400D03*
X17090800Y17187400D03*
X5818440Y-6598920D03*
X7318440Y-6598920D03*
X5809660Y-4962280D03*
X7309660Y-4962280D03*
D30*
X2045820Y-10426280D03*
X2045820Y-8926280D03*
X-4170680Y-6332920D03*
X-4170680Y-4832920D03*
D31*
X-8117140Y7157720D03*
X-9617140Y7157720D03*
X-8127300Y5557520D03*
X-9627300Y5557520D03*
X1000800Y5904420D03*
X2500800Y5904420D03*
X-4582860Y5590540D03*
X-3082860Y5590540D03*
D30*
X2534920Y-357440D03*
X2534920Y-1857440D03*
X-2524760Y-4812600D03*
X-2524760Y-6312600D03*
D33*
X-1892300Y1930360D03*
X-1892300Y3830360D03*
D31*
X-7082220Y5590540D03*
X-5582220Y5590540D03*
X1054800Y-1943100D03*
X-445200Y-1943100D03*
X-432500Y-309880D03*
X1067500Y-309880D03*
D30*
X-9606280Y-8797860D03*
X-9606280Y-10297860D03*
D31*
X-25031000Y16840200D03*
X-26531000Y16840200D03*
D30*
X7086600Y-2528000D03*
X7086600Y-1028000D03*
X8650800Y8592400D03*
X8650800Y7092400D03*
X10414000Y-1053400D03*
X10414000Y-2553400D03*
X8737600Y-2528000D03*
X8737600Y-1028000D03*
D34*
X8763000Y381000D03*
X9413000Y381000D03*
X10063000Y381000D03*
X10713000Y381000D03*
X10713000Y5181000D03*
X10063000Y5181000D03*
X9413000Y5181000D03*
X8763000Y5181000D03*
D13*
X24663400Y22733000D03*
D26*
X6170800Y-17987600D03*
X3770800Y-17037600D03*
X3770800Y-18937600D03*
D30*
X8050800Y-17167600D03*
X8050800Y-18667600D03*
D35*
X-3689200Y12400D03*
X-4589200Y12400D03*
D31*
X1060800Y-3557600D03*
X-439200Y-3557600D03*
D35*
X-4559200Y-2987600D03*
X-3659200Y-2987600D03*
X-4579200Y-1757600D03*
X-3679200Y-1757600D03*
D36*
X16190800Y20887400D03*
X15690800Y20887400D03*
X15190800Y20887400D03*
X14690800Y20887400D03*
X14190800Y20887400D03*
X13690800Y20887400D03*
X13190800Y20887400D03*
X12690800Y20887400D03*
X12190800Y20887400D03*
X11690800Y20887400D03*
D37*
X17090800Y23187400D03*
X10790800Y23187400D03*
D11*
X-26654200Y20730000D03*
D12*
X-26654200Y23270000D03*
X-24114200Y20730000D03*
X-24114200Y23270000D03*
X-21574200Y20730000D03*
X-21574200Y23270000D03*
X-19034200Y20730000D03*
X-19034200Y23270000D03*
X-16494200Y20730000D03*
X-16494200Y23270000D03*
D11*
X-6104200Y20730000D03*
D12*
X-6104200Y23270000D03*
X-3564200Y20730000D03*
X-3564200Y23270000D03*
X-1024200Y20730000D03*
X-1024200Y23270000D03*
X1515800Y20730000D03*
X1515800Y23270000D03*
X4055800Y20730000D03*
X4055800Y23270000D03*
D14*
X-11799200Y3362400D03*
X-17679200Y7720000D03*
X-1149200Y-3277600D03*
X20815800Y-4762600D03*
X-18884200Y-7037600D03*
X-12549200Y1122400D03*
X18615800Y19987400D03*
X-18909200Y2387400D03*
X15690800Y14787400D03*
X16815800Y20887400D03*
X13520800Y-1947600D03*
X10710800Y2312400D03*
X11530800Y-2547600D03*
X20870800Y5122400D03*
X3570800Y-1857600D03*
X7318440Y-5767600D03*
X-949200Y-7537600D03*
X2750800Y-18927600D03*
X13280800Y-12197600D03*
X-12989200Y3072400D03*
X13880800Y2432400D03*
X2790800Y-8027600D03*
X9240800Y-12887600D03*
X7210800Y-13227600D03*
X9170800Y-8377600D03*
X1981200Y-12344400D03*
X7660800Y8602400D03*
X11170800Y11672400D03*
X15400800Y7542400D03*
X10720800Y7982400D03*
X11340800Y7642400D03*
X13250800Y7682400D03*
X13890800Y7392400D03*
X5156200Y1701800D03*
X8820800Y2432400D03*
X6060800Y-2527600D03*
X15580800Y-8247600D03*
X11390800Y-8437600D03*
X20090800Y-15757600D03*
X-13069200Y-17287600D03*
X-12979200Y-7807600D03*
X-15919200Y-8357600D03*
X-16379200Y-1937600D03*
X-9626600Y8026400D03*
X-4165600Y-4140200D03*
X-10464800Y-17195800D03*
X-1905000Y-16408400D03*
X-3632200Y-19380200D03*
X-4038600Y17018000D03*
X-12406800Y17631200D03*
X-20447000Y279400D03*
X-20421600Y-10312400D03*
X-14757400Y-14097000D03*
X-6629400Y-17449800D03*
X-9435000Y13745000D03*
X-12559200Y12551200D03*
X-24257000Y16840200D03*
X787400Y-4749800D03*
X812800Y-6070600D03*
X-7340600Y-7416800D03*
X-9601200Y-11074400D03*
X-4292600Y-7442200D03*
X-3403600Y-9855200D03*
X3810000Y5410200D03*
X-1219200Y-304800D03*
X762000Y2286000D03*
X-2387600Y5588000D03*
X-5130800Y4673600D03*
X-8638540Y-2278380D03*
X-9923780Y-2280920D03*
X-20751800Y8318500D03*
X-15561000Y4422400D03*
X-21717000Y4584700D03*
X-21729700Y-5016500D03*
X17430800Y7192400D03*
X16791940Y6611620D03*
X16791940Y-3639820D03*
X860640Y-14557440D03*
X14115800Y17162400D03*
X19415800Y17162400D03*
X15715800Y17162400D03*
X15190800Y21737400D03*
X12165800Y2137400D03*
X-8309200Y1162400D03*
X-5109200Y1932400D03*
X-8684200Y-7887600D03*
X-8684200Y-15637600D03*
X-18834200Y15287400D03*
X-18459200Y-15962600D03*
X-18259200Y-9987600D03*
X-18859200Y-1937600D03*
X-18827450Y9569150D03*
X-2484200Y18087400D03*
X6115800Y-8462600D03*
X11390800Y-6262600D03*
X6615800Y-6587600D03*
X9140800Y17162400D03*
X6215800Y-18812600D03*
X14115800Y11687400D03*
X12165800Y-9887600D03*
X-11459200Y15287400D03*
X-1709200Y9212400D03*
X-2463800Y16967200D03*
X-13354800Y17656800D03*
X-19659200Y17637400D03*
X-19889200Y-7277600D03*
X-26534200Y17662400D03*
X-4359200Y-907600D03*
X-4359200Y8722400D03*
X-19659200Y7202400D03*
X-10369200Y16654600D03*
X10060800Y-18327600D03*
X10063000Y10992400D03*
X3730800Y11862400D03*
X3940800Y-4077600D03*
X-10689200Y-12817600D03*
X4440800Y4452400D03*
X-10689200Y3452400D03*
X-1669200Y-14127600D03*
X-1669200Y-3907600D03*
X-9279200Y-2937600D03*
X6030800Y-1027600D03*
X6030800Y14192400D03*
X14690800Y20012400D03*
X14690800Y14712400D03*
X-5283200Y13360400D03*
X6900800Y10302400D03*
X-5257800Y11353800D03*
X6900800Y6522400D03*
X-10829200Y4672400D03*
X6900800Y5002400D03*
X5630800Y-16917600D03*
X5120800Y-4107600D03*
X14190800Y21737400D03*
X-8579200Y10812400D03*
X15690800Y22287400D03*
X-7384200Y23837400D03*
X-6039200Y10062400D03*
X2090800Y16412400D03*
X2940800Y16387400D03*
X1290800Y9182400D03*
X2630800Y-15817600D03*
X780800Y8682400D03*
X1370800Y-16347600D03*
X-709200Y9182400D03*
X-709200Y6492400D03*
X-15499200Y5642400D03*
X-13614400Y10312400D03*
X-13659200Y1612400D03*
X19340800Y-13017600D03*
X19330800Y-8537600D03*
X19390800Y362400D03*
X19390800Y12772400D03*
X-13716000Y-10058400D03*
X-14351000Y-9728200D03*
X-14249400Y10642600D03*
X-14309200Y1982400D03*
X18740800Y13072400D03*
X18690800Y-8237600D03*
X18740800Y2402400D03*
X-15011400Y-10058400D03*
X-14959200Y1232400D03*
X-14909800Y10312400D03*
X-6719200Y12856400D03*
X18030800Y-8487600D03*
X18090800Y352400D03*
X18100800Y12802400D03*
X-5257800Y14859000D03*
X-13059200Y-8577600D03*
X-3659200Y-8577600D03*
X-15009200Y-18367600D03*
X-409200Y-18367600D03*
X-2719200Y9202400D03*
X21540800Y15362400D03*
X-3225800Y17373600D03*
X21550800Y-4517600D03*
X830800Y17442400D03*
X20300800Y15892400D03*
X20730800Y-16907600D03*
X160800Y-17037600D03*
X-1219200Y2902400D03*
X-1219200Y8712400D03*
X3230800Y3582400D03*
X4890800Y-15127600D03*
X4890800Y-17537600D03*
X-11809200Y-5767600D03*
X-11809200Y-15127600D03*
X15180800Y3692400D03*
X7540800Y5962400D03*
X8280800Y10862400D03*
X-21309200Y-15747600D03*
X-20439200Y-1697600D03*
X15420800Y-6597600D03*
X16460800Y322400D03*
X20810800Y16552400D03*
X1530800Y17352400D03*
X20830800Y6012400D03*
X-8829200Y4812400D03*
X-8069200Y14362400D03*
X3020800Y11352400D03*
X2430800Y-6057600D03*
X2910800Y12862400D03*
X-7329200Y11352400D03*
X-7889200Y-10897600D03*
X-209200Y8702400D03*
X-6839200Y8182400D03*
X-6839200Y-6837600D03*
X2740800Y1852400D03*
X2920800Y13852400D03*
X16070800Y-16967600D03*
X16070800Y-13217600D03*
X4920800Y-13537600D03*
X5490800Y2492400D03*
X4520800Y13352400D03*
X4520800Y7342400D03*
X15530800Y13142400D03*
X16130800Y-3087600D03*
X16150800Y6932400D03*
X-16865600Y4165600D03*
X-16967200Y-18288000D03*
X-16916400Y-7543800D03*
X290800Y9212400D03*
X12010800Y10662400D03*
X12010800Y4272400D03*
X8070800Y-12807600D03*
D38*
X-25865000Y10260000D02*
X-24580700Y11544300D01*
X-16211000Y11308800D02*
X-16211000Y9273400D01*
X-16446500Y11544300D02*
X-16211000Y11308800D01*
X-24580700Y11544300D02*
X-16446500Y11544300D01*
X-25865000Y10260000D02*
X-25865000Y10279200D01*
X-23325000Y10260000D02*
X-21591600Y10260000D01*
X-16861000Y10866600D02*
X-16861000Y9273400D01*
X-17106900Y11112500D02*
X-16861000Y10866600D01*
X-20739100Y11112500D02*
X-17106900Y11112500D01*
X-21591600Y10260000D02*
X-20739100Y11112500D01*
X-25865000Y7720000D02*
X-25865000Y7751900D01*
X-25865000Y7751900D02*
X-24574500Y9042400D01*
X-17511000Y10437100D02*
X-17511000Y9273400D01*
X-17716500Y10642600D02*
X-17511000Y10437100D01*
X-20434300Y10642600D02*
X-17716500Y10642600D01*
X-22034500Y9042400D02*
X-20434300Y10642600D01*
X-24574500Y9042400D02*
X-22034500Y9042400D01*
X-25865000Y7720000D02*
X-25858800Y7720000D01*
X-23325000Y7720000D02*
X-17679200Y7720000D01*
X-17679200Y7720000D02*
X-15813100Y7720000D01*
X-15561000Y7972100D02*
X-15561000Y9273400D01*
X-15813100Y7720000D02*
X-15561000Y7972100D01*
X11468800Y-15468600D02*
X12589800Y-15468600D01*
X21613200Y-15420000D02*
X23335000Y-15420000D01*
X20740800Y-14547600D02*
X21613200Y-15420000D01*
X13510800Y-14547600D02*
X20740800Y-14547600D01*
X12589800Y-15468600D02*
X13510800Y-14547600D01*
X-439200Y-3557600D02*
X-869200Y-3557600D01*
X-869200Y-3557600D02*
X-1149200Y-3277600D01*
D39*
X19393760Y-4759960D02*
X20813160Y-4759960D01*
X20813160Y-4759960D02*
X20815800Y-4762600D01*
D40*
X18615800Y18962400D02*
X18615800Y19987400D01*
D39*
X17065800Y15512400D02*
X16415800Y15512400D01*
X16415800Y15512400D02*
X15690800Y14787400D01*
D38*
X16190800Y20887400D02*
X16815800Y20887400D01*
X13512800Y-216600D02*
X13512800Y-1939600D01*
X13512800Y-1939600D02*
X13520800Y-1947600D01*
X10063000Y381000D02*
X10063000Y1664600D01*
X10063000Y1664600D02*
X10710800Y2312400D01*
X10713000Y381000D02*
X10713000Y2310200D01*
X10713000Y2310200D02*
X10710800Y2312400D01*
D40*
X10414000Y-2553400D02*
X11525000Y-2553400D01*
X11525000Y-2553400D02*
X11530800Y-2547600D01*
D38*
X19393760Y5552440D02*
X20440760Y5552440D01*
X20440760Y5552440D02*
X20870800Y5122400D01*
X2534920Y-1857440D02*
X3570640Y-1857440D01*
X3570640Y-1857440D02*
X3570800Y-1857600D01*
X7318440Y-6598920D02*
X7318440Y-5767600D01*
X7318440Y-5767600D02*
X7318440Y-4971060D01*
X7318440Y-4971060D02*
X7309660Y-4962280D01*
X-694180Y-8716280D02*
X-694180Y-7792620D01*
X-694180Y-7792620D02*
X-949200Y-7537600D01*
X3770800Y-18937600D02*
X2760800Y-18937600D01*
X2760800Y-18937600D02*
X2750800Y-18927600D01*
X13274040Y-11387520D02*
X13274040Y-12190840D01*
X13274040Y-12190840D02*
X13280800Y-12197600D01*
X-13611000Y3073400D02*
X-12990200Y3073400D01*
X-12990200Y3073400D02*
X-12989200Y3072400D01*
X6179820Y-13228280D02*
X7210120Y-13228280D01*
X7210120Y-13228280D02*
X7210800Y-13227600D01*
X1986280Y-12349480D02*
X1981200Y-12344400D01*
X1986280Y-12349480D02*
X1986280Y-13057440D01*
X7670800Y8592400D02*
X7660800Y8602400D01*
X7670800Y8592400D02*
X8650800Y8592400D01*
X12010800Y11672400D02*
X11170800Y11672400D01*
X5138820Y1684420D02*
X5156200Y1701800D01*
X5138820Y1684420D02*
X4148800Y1684420D01*
X7086600Y-2528000D02*
X6061200Y-2528000D01*
X6061200Y-2528000D02*
X6060800Y-2527600D01*
X19332800Y-15768320D02*
X20080080Y-15768320D01*
X20080080Y-15768320D02*
X20090800Y-15757600D01*
X-2215200Y10061400D02*
X-2215200Y11456400D01*
X-2215200Y11456400D02*
X-2415200Y11656400D01*
D39*
X-13712600Y-17297400D02*
X-13079000Y-17297400D01*
X-13079000Y-17297400D02*
X-13069200Y-17287600D01*
X-13658300Y-6542900D02*
X-13163900Y-6542900D01*
X-12979200Y-6727600D02*
X-12979200Y-7807600D01*
X-13163900Y-6542900D02*
X-12979200Y-6727600D01*
D38*
X-9617140Y7157720D02*
X-9617140Y8016940D01*
X-9617140Y8016940D02*
X-9626600Y8026400D01*
X-9627300Y5557520D02*
X-9627300Y7147560D01*
X-9627300Y7147560D02*
X-9617140Y7157720D01*
D40*
X-4170680Y-4832920D02*
X-4170680Y-4145280D01*
X-4170680Y-4145280D02*
X-4165600Y-4140200D01*
X-9448800Y-17207800D02*
X-10452800Y-17207800D01*
X-10452800Y-17207800D02*
X-10464800Y-17195800D01*
X-1905000Y-17182400D02*
X-1905000Y-16408400D01*
X-3639820Y-18664620D02*
X-3639820Y-19372580D01*
X-3639820Y-19372580D02*
X-3632200Y-19380200D01*
D38*
X-4010200Y15356400D02*
X-3215200Y15356400D01*
X-3215200Y15356400D02*
X-2415200Y14556400D01*
X-4010200Y13856400D02*
X-1715200Y13856400D01*
D40*
X-12404800Y16654600D02*
X-12404800Y17629200D01*
X-12404800Y17629200D02*
X-12406800Y17631200D01*
X-19507200Y280100D02*
X-20446300Y280100D01*
X-20446300Y280100D02*
X-20447000Y279400D01*
X-19532600Y-10299000D02*
X-20408200Y-10299000D01*
X-20408200Y-10299000D02*
X-20421600Y-10312400D01*
X-6616700Y-16510000D02*
X-6616700Y-17437100D01*
X-6616700Y-17437100D02*
X-6629400Y-17449800D01*
X-9447700Y14658700D02*
X-9447700Y13757700D01*
X-9447700Y13757700D02*
X-9435000Y13745000D01*
X-11924900Y12538500D02*
X-12546500Y12538500D01*
X-12559200Y12551200D02*
X-13231600Y12551200D01*
X-12546500Y12538500D02*
X-12559200Y12551200D01*
D39*
X-25031000Y16840200D02*
X-24257000Y16840200D01*
D38*
X-474180Y-4758480D02*
X778720Y-4758480D01*
X778720Y-4758480D02*
X787400Y-4749800D01*
X-474180Y-6058480D02*
X800680Y-6058480D01*
X800680Y-6058480D02*
X812800Y-6070600D01*
X-7341150Y-7417350D02*
X-7340600Y-7416800D01*
X-7341150Y-7417350D02*
X-7341150Y-8296079D01*
X-9606280Y-10297860D02*
X-9606280Y-11069320D01*
X-9606280Y-11069320D02*
X-9601200Y-11074400D01*
X-7891150Y-9846079D02*
X-8499879Y-9846079D01*
X-8951660Y-10297860D02*
X-9606280Y-10297860D01*
X-8499879Y-9846079D02*
X-8951660Y-10297860D01*
X-5841150Y-8296079D02*
X-5841150Y-7442200D01*
X-5842000Y-7467600D02*
X-5842000Y-7442200D01*
X-5842000Y-7443050D02*
X-5842000Y-7467600D01*
X-5841150Y-7442200D02*
X-5842000Y-7443050D01*
X-5341150Y-8296079D02*
X-5341150Y-7442200D01*
X-5334000Y-7467600D02*
X-5334000Y-7442200D01*
X-5334000Y-7449350D02*
X-5334000Y-7467600D01*
X-5341150Y-7442200D02*
X-5334000Y-7449350D01*
X-4841150Y-8296079D02*
X-4841150Y-7442200D01*
X-4841150Y-7442200D02*
X-4851400Y-7442200D01*
X-6341150Y-8296079D02*
X-6341150Y-7585750D01*
X-6197600Y-7442200D02*
X-5842000Y-7442200D01*
X-5842000Y-7442200D02*
X-5334000Y-7442200D01*
X-5334000Y-7442200D02*
X-4851400Y-7442200D01*
X-4851400Y-7442200D02*
X-4292600Y-7442200D01*
X-6341150Y-7585750D02*
X-6197600Y-7442200D01*
X-4291150Y-9846079D02*
X-3412721Y-9846079D01*
X-3412721Y-9846079D02*
X-3403600Y-9855200D01*
X4548800Y5404420D02*
X3815780Y5404420D01*
X3815780Y5404420D02*
X3810000Y5410200D01*
X-432500Y-309880D02*
X-1214120Y-309880D01*
X-1214120Y-309880D02*
X-1219200Y-304800D01*
X760800Y1324420D02*
X760800Y2284800D01*
X760800Y2284800D02*
X762000Y2286000D01*
X-3082860Y5590540D02*
X-2390140Y5590540D01*
X-2390140Y5590540D02*
X-2387600Y5588000D01*
X-5141700Y3784300D02*
X-5141700Y4662700D01*
X-5141700Y4662700D02*
X-5130800Y4673600D01*
X-8633580Y-947780D02*
X-8633580Y-2273420D01*
X-8633580Y-2273420D02*
X-8638540Y-2278380D01*
X-9933580Y-947780D02*
X-9933580Y-2271120D01*
X-9933580Y-2271120D02*
X-9923780Y-2280920D01*
X-19723100Y8317800D02*
X-20751100Y8317800D01*
X-20751100Y8317800D02*
X-20751800Y8318500D01*
X-1715200Y13856400D02*
X-965200Y13106400D01*
X11443400Y-13792200D02*
X21115400Y-13792200D01*
X24627400Y-14127600D02*
X25875000Y-12880000D01*
X21450800Y-14127600D02*
X24627400Y-14127600D01*
X21115400Y-13792200D02*
X21450800Y-14127600D01*
X-25865000Y5180000D02*
X-25842900Y5180000D01*
X-25842900Y5180000D02*
X-24574500Y3911600D01*
X-19354800Y3073400D02*
X-18161000Y3073400D01*
X-20193000Y3911600D02*
X-19354800Y3073400D01*
X-24574500Y3911600D02*
X-20193000Y3911600D01*
X-25865000Y5180000D02*
X-25855600Y5180000D01*
X-23325000Y5180000D02*
X-15949600Y5180000D01*
X-15561000Y4791400D02*
X-15561000Y4422400D01*
X-15561000Y4422400D02*
X-15561000Y3073400D01*
X-15949600Y5180000D02*
X-15561000Y4791400D01*
X-17511000Y3073400D02*
X-17511000Y4252200D01*
X-17843500Y4584700D02*
X-21717000Y4584700D01*
X-17511000Y4252200D02*
X-17843500Y4584700D01*
X-23325000Y2640000D02*
X-21410600Y2640000D01*
X-16211000Y2038900D02*
X-16211000Y3073400D01*
X-16386500Y1863400D02*
X-16211000Y2038900D01*
X-20634000Y1863400D02*
X-16386500Y1863400D01*
X-21410600Y2640000D02*
X-20634000Y1863400D01*
X-25865000Y100000D02*
X-25846100Y100000D01*
X-25846100Y100000D02*
X-24549100Y1397000D01*
X-24549100Y1397000D02*
X-16510000Y1397000D01*
X-16510000Y1397000D02*
X-16258300Y1145300D01*
X-16258300Y1145300D02*
X-16258300Y-342900D01*
X-23325000Y100000D02*
X-21464600Y100000D01*
X-16908300Y728500D02*
X-16908300Y-342900D01*
X-17106900Y927100D02*
X-16908300Y728500D01*
X-20637500Y927100D02*
X-17106900Y927100D01*
X-21464600Y100000D02*
X-20637500Y927100D01*
X-25865000Y-2440000D02*
X-25808000Y-2440000D01*
X-25808000Y-2440000D02*
X-24472900Y-1104900D01*
X-24472900Y-1104900D02*
X-21882100Y-1104900D01*
X-21882100Y-1104900D02*
X-20530900Y-2456100D01*
X-20530900Y-2456100D02*
X-18087000Y-2456100D01*
X-18087000Y-2456100D02*
X-17558300Y-1927400D01*
X-17558300Y-1927400D02*
X-17558300Y-342900D01*
X-23325000Y-2440000D02*
X-21626800Y-2440000D01*
X-15608300Y-2436700D02*
X-15608300Y-342900D01*
X-16059200Y-2887600D02*
X-15608300Y-2436700D01*
X-21179200Y-2887600D02*
X-16059200Y-2887600D01*
X-21626800Y-2440000D02*
X-21179200Y-2887600D01*
X-25865000Y-4980000D02*
X-25855600Y-4980000D01*
X-25855600Y-4980000D02*
X-24587200Y-6248400D01*
X-24587200Y-6248400D02*
X-21526500Y-6248400D01*
X-21526500Y-6248400D02*
X-21232000Y-6542900D01*
X-21232000Y-6542900D02*
X-18208300Y-6542900D01*
X-23325000Y-4980000D02*
X-23268000Y-4980000D01*
X-23268000Y-4980000D02*
X-21844000Y-3556000D01*
X-21844000Y-3556000D02*
X-15989300Y-3556000D01*
X-15989300Y-3556000D02*
X-15608300Y-3937000D01*
X-15608300Y-3937000D02*
X-15608300Y-6542900D01*
X-17558300Y-6542900D02*
X-17558300Y-5416000D01*
X-21717000Y-5003800D02*
X-21729700Y-5016500D01*
X-17970500Y-5003800D02*
X-21717000Y-5003800D01*
X-17558300Y-5416000D02*
X-17970500Y-5003800D01*
X-23325000Y-7520000D02*
X-20826400Y-7520000D01*
X-16258300Y-7673100D02*
X-16258300Y-6542900D01*
X-16637000Y-8051800D02*
X-16258300Y-7673100D01*
X-20294600Y-8051800D02*
X-16637000Y-8051800D01*
X-20826400Y-7520000D02*
X-20294600Y-8051800D01*
X-25865000Y-10060000D02*
X-25865000Y-10053500D01*
X-25865000Y-10053500D02*
X-24638000Y-8826500D01*
X-24638000Y-8826500D02*
X-21183600Y-8826500D01*
X-21183600Y-8826500D02*
X-21183600Y-8826500D01*
X-21183600Y-8826500D02*
X-16598900Y-8826500D01*
X-16598900Y-8826500D02*
X-16312600Y-9112800D01*
X-16312600Y-9112800D02*
X-16312600Y-11097400D01*
X-23325000Y-10060000D02*
X-21477300Y-10060000D01*
X-16962600Y-9466100D02*
X-16962600Y-11097400D01*
X-17221200Y-9207500D02*
X-16962600Y-9466100D01*
X-20624800Y-9207500D02*
X-17221200Y-9207500D01*
X-21477300Y-10060000D02*
X-20624800Y-9207500D01*
X-25865000Y-12600000D02*
X-25731800Y-12600000D01*
X-25731800Y-12600000D02*
X-24434800Y-11303000D01*
X-24434800Y-11303000D02*
X-21907500Y-11303000D01*
X-21907500Y-11303000D02*
X-20713700Y-12496800D01*
X-20713700Y-12496800D02*
X-17970500Y-12496800D01*
X-17970500Y-12496800D02*
X-17612600Y-12138900D01*
X-17612600Y-12138900D02*
X-17612600Y-11097400D01*
X-23325000Y-12600000D02*
X-21499500Y-12600000D01*
X-15662600Y-12817800D02*
X-15662600Y-11097400D01*
X-15887700Y-13042900D02*
X-15662600Y-12817800D01*
X-21056600Y-13042900D02*
X-15887700Y-13042900D01*
X-21499500Y-12600000D02*
X-21056600Y-13042900D01*
X-25865000Y-15140000D02*
X-25865000Y-15156000D01*
X-25865000Y-15156000D02*
X-24625300Y-16395700D01*
X-24625300Y-16395700D02*
X-21170900Y-16395700D01*
X-21170900Y-16395700D02*
X-20269200Y-17297400D01*
X-20269200Y-17297400D02*
X-18262600Y-17297400D01*
X-23325000Y-15140000D02*
X-15987700Y-15140000D01*
X-15662600Y-15465100D02*
X-15662600Y-17297400D01*
X-15987700Y-15140000D02*
X-15662600Y-15465100D01*
D41*
X-17612600Y-17297400D02*
X-17612600Y-19844200D01*
X24627400Y16352400D02*
X23335000Y15060000D01*
X28320800Y16352400D02*
X24627400Y16352400D01*
X29550800Y15122400D02*
X28320800Y16352400D01*
X29550800Y-19507600D02*
X29550800Y15122400D01*
X28400800Y-20657600D02*
X29550800Y-19507600D01*
X-16799200Y-20657600D02*
X28400800Y-20657600D01*
X-17612600Y-19844200D02*
X-16799200Y-20657600D01*
X-16312600Y-17297400D02*
X-16312600Y-19564200D01*
X28303200Y15060000D02*
X25875000Y15060000D01*
X29050800Y14312400D02*
X28303200Y15060000D01*
X29050800Y-19227600D02*
X29050800Y14312400D01*
X28000800Y-20277600D02*
X29050800Y-19227600D01*
X-15599200Y-20277600D02*
X28000800Y-20277600D01*
X-16312600Y-19564200D02*
X-15599200Y-20277600D01*
D38*
X23335000Y12520000D02*
X22018920Y12520000D01*
X16793760Y13730520D02*
X16793760Y11752440D01*
X17246600Y14183360D02*
X16793760Y13730520D01*
X20355560Y14183360D02*
X17246600Y14183360D01*
X22018920Y12520000D02*
X20355560Y14183360D01*
X25875000Y12520000D02*
X25875000Y12565360D01*
X25875000Y12565360D02*
X24658320Y13782040D01*
X24658320Y13782040D02*
X21579840Y13782040D01*
X21579840Y13782040D02*
X20665440Y14696440D01*
X20665440Y14696440D02*
X16596360Y14696440D01*
X16596360Y14696440D02*
X16143760Y14243840D01*
X16143760Y14243840D02*
X16143760Y11752440D01*
X23335000Y9980000D02*
X15790840Y9980000D01*
X15493760Y10277080D02*
X15493760Y11752440D01*
X15790840Y9980000D02*
X15493760Y10277080D01*
X25875000Y9980000D02*
X25874640Y9980000D01*
X25874640Y9980000D02*
X24551640Y11303000D01*
X24551640Y11303000D02*
X22222460Y11303000D01*
X22222460Y11303000D02*
X19946620Y13578840D01*
X19946620Y13578840D02*
X17785080Y13578840D01*
X17785080Y13578840D02*
X17443760Y13237520D01*
X17443760Y13237520D02*
X17443760Y11752440D01*
X14843760Y5552440D02*
X14843760Y7765360D01*
X21673200Y7440000D02*
X23335000Y7440000D01*
X20750800Y8362400D02*
X21673200Y7440000D01*
X15440800Y8362400D02*
X20750800Y8362400D01*
X14843760Y7765360D02*
X15440800Y8362400D01*
X17430800Y7192400D02*
X20684100Y7192400D01*
X24643080Y6189980D02*
X21686520Y6189980D01*
X24643080Y6189980D02*
X25875000Y7421900D01*
X20684100Y7192400D02*
X21686520Y6189980D01*
X17443760Y5552440D02*
X17443760Y7179440D01*
X17443760Y7179440D02*
X17430800Y7192400D01*
X25875000Y7440000D02*
X25875000Y7421900D01*
X23335000Y4900000D02*
X21859580Y4900000D01*
X15493760Y4569700D02*
X15493760Y5552440D01*
X15824200Y4239260D02*
X15493760Y4569700D01*
X21198840Y4239260D02*
X15824200Y4239260D01*
X21859580Y4900000D02*
X21198840Y4239260D01*
X23335000Y4900000D02*
X23335000Y4836180D01*
X16793760Y5552440D02*
X16793760Y6609800D01*
X16793760Y6609800D02*
X16791940Y6611620D01*
X23335000Y2360000D02*
X22398080Y3296920D01*
X16793760Y2839000D02*
X16793760Y1440040D01*
X17251680Y3296920D02*
X16793760Y2839000D01*
X22398080Y3296920D02*
X17251680Y3296920D01*
X25875000Y2360000D02*
X24549460Y3685540D01*
X16143760Y3332000D02*
X16143760Y1440040D01*
X16497300Y3685540D02*
X16143760Y3332000D01*
X24549460Y3685540D02*
X16497300Y3685540D01*
X23335000Y-180000D02*
X15907680Y-180000D01*
X15493760Y233920D02*
X15493760Y1440040D01*
X15907680Y-180000D02*
X15493760Y233920D01*
X25875000Y-180000D02*
X25875000Y-167660D01*
X25875000Y-167660D02*
X24627840Y1079500D01*
X24627840Y1079500D02*
X22783800Y1079500D01*
X22783800Y1079500D02*
X20970240Y2893060D01*
X20970240Y2893060D02*
X17731740Y2893060D01*
X17731740Y2893060D02*
X17443760Y2605080D01*
X17443760Y2605080D02*
X17443760Y1440040D01*
X23335000Y-2720000D02*
X21503300Y-2720000D01*
X14843760Y-1958340D02*
X14843760Y-4759960D01*
X15224760Y-1577340D02*
X14843760Y-1958340D01*
X20360640Y-1577340D02*
X15224760Y-1577340D01*
X21503300Y-2720000D02*
X20360640Y-1577340D01*
X25875000Y-2720000D02*
X24624980Y-3970020D01*
X17443760Y-2741620D02*
X17443760Y-4759960D01*
X17998440Y-2186940D02*
X17443760Y-2741620D01*
X20055840Y-2186940D02*
X17998440Y-2186940D01*
X21838920Y-3970020D02*
X20055840Y-2186940D01*
X24624980Y-3970020D02*
X21838920Y-3970020D01*
X23335000Y-5260000D02*
X21554780Y-5260000D01*
X15493760Y-5846840D02*
X15493760Y-4759960D01*
X15788640Y-6141720D02*
X15493760Y-5846840D01*
X20673060Y-6141720D02*
X15788640Y-6141720D01*
X21554780Y-5260000D02*
X20673060Y-6141720D01*
X16793760Y-4759960D02*
X16793760Y-3641640D01*
X16793760Y-3641640D02*
X16791940Y-3639820D01*
X23335000Y-7800000D02*
X21957960Y-7800000D01*
X16732800Y-7536900D02*
X16732800Y-9568320D01*
X17152620Y-7117080D02*
X16732800Y-7536900D01*
X21275040Y-7117080D02*
X17152620Y-7117080D01*
X21957960Y-7800000D02*
X21275040Y-7117080D01*
X25875000Y-7800000D02*
X25874640Y-7800000D01*
X25874640Y-7800000D02*
X24582120Y-6507480D01*
X24582120Y-6507480D02*
X16596360Y-6507480D01*
X16596360Y-6507480D02*
X16082800Y-7021040D01*
X16082800Y-7021040D02*
X16082800Y-9568320D01*
X23335000Y-10340000D02*
X20835960Y-10340000D01*
X15432800Y-11203700D02*
X15432800Y-9568320D01*
X15735300Y-11506200D02*
X15432800Y-11203700D01*
X19669760Y-11506200D02*
X15735300Y-11506200D01*
X20835960Y-10340000D02*
X19669760Y-11506200D01*
X25875000Y-10340000D02*
X24597720Y-9062720D01*
X17382800Y-7900360D02*
X17382800Y-9568320D01*
X17683480Y-7599680D02*
X17382800Y-7900360D01*
X20787360Y-7599680D02*
X17683480Y-7599680D01*
X22250400Y-9062720D02*
X20787360Y-7599680D01*
X24597720Y-9062720D02*
X22250400Y-9062720D01*
X860800Y-14557440D02*
X860640Y-14557440D01*
D39*
X19415800Y17162400D02*
X19390800Y17187400D01*
X18590800Y17187400D02*
X19390800Y17187400D01*
D38*
X15190800Y21737400D02*
X15190800Y20887400D01*
X-17349200Y16032400D02*
X-18509200Y16032400D01*
X-18834200Y15707400D02*
X-18834200Y15287400D01*
X-18509200Y16032400D02*
X-18834200Y15707400D01*
D39*
X13512800Y1765400D02*
X13140800Y2137400D01*
X13140800Y2137400D02*
X12165800Y2137400D01*
X13512800Y1765400D02*
X13512800Y1283400D01*
D38*
X-4191700Y1384300D02*
X-4561100Y1384300D01*
D39*
X-7983580Y1488020D02*
X-8309200Y1162400D01*
X-7983580Y1488020D02*
X-7983580Y3452220D01*
X-4561100Y1384300D02*
X-5109200Y1932400D01*
X760800Y4124420D02*
X760800Y4817400D01*
X190800Y5387400D02*
X190800Y7237400D01*
X760800Y4817400D02*
X190800Y5387400D01*
X6048800Y5404420D02*
X5673780Y5404420D01*
X5090800Y5987400D02*
X5090800Y6662400D01*
X5673780Y5404420D02*
X5090800Y5987400D01*
X-1709200Y9212400D02*
X-2084200Y8837400D01*
X-2084200Y8837400D02*
X-2084200Y7787400D01*
X-2084200Y7787400D02*
X-1534200Y7237400D01*
X-1534200Y7237400D02*
X190800Y7237400D01*
X190800Y7237400D02*
X3090800Y7237400D01*
X3090800Y7237400D02*
X3665800Y6662400D01*
X3665800Y6662400D02*
X5090800Y6662400D01*
X5945800Y7092400D02*
X8650800Y7092400D01*
X5090800Y6662400D02*
X5515800Y6662400D01*
X5515800Y6662400D02*
X5945800Y7092400D01*
X255820Y-11116280D02*
X255820Y-13952620D01*
X860800Y-14557440D02*
X1986280Y-14557440D01*
X255820Y-13952620D02*
X860640Y-14557440D01*
X-8684200Y-7887600D02*
X-8134200Y-7887600D01*
X-8134200Y-7887600D02*
X-7891150Y-8130650D01*
X-7891150Y-8130650D02*
X-7891150Y-9346079D01*
X-8684200Y-15637600D02*
X-8684200Y-16162600D01*
X-8684200Y-16162600D02*
X-8336800Y-16510000D01*
X-8336800Y-16510000D02*
X-7566700Y-16510000D01*
X-18262600Y-9991000D02*
X-18259200Y-9987600D01*
X-18262600Y-9991000D02*
X-18262600Y-11097400D01*
X-18208300Y-1286700D02*
X-18208300Y-342900D01*
X-18208300Y-1286700D02*
X-18859200Y-1937600D01*
X-19507200Y-1219900D02*
X-19507200Y-685600D01*
X-19507200Y-685600D02*
X-19164500Y-342900D01*
X-19164500Y-342900D02*
X-18208300Y-342900D01*
X18590800Y17187400D02*
X18590800Y15537400D01*
X18590800Y15537400D02*
X18565800Y15512400D01*
X5818440Y-6598920D02*
X6604480Y-6598920D01*
X6604480Y-6598920D02*
X6615800Y-6587600D01*
X7260800Y-18667600D02*
X8050800Y-18667600D01*
X6215800Y-18812600D02*
X7115800Y-18812600D01*
X7115800Y-18812600D02*
X7260800Y-18667600D01*
X14115800Y11687400D02*
X14115800Y11672400D01*
D40*
X12165880Y-9887520D02*
X12165800Y-9887600D01*
X13274040Y-9887520D02*
X12165880Y-9887520D01*
D39*
X-11454800Y14254600D02*
X-11454800Y15283000D01*
X-11454800Y15283000D02*
X-11459200Y15287400D01*
D38*
X13512800Y1283400D02*
X14201800Y1283400D01*
X14201800Y1283400D02*
X14358440Y1440040D01*
X14358440Y1440040D02*
X14843760Y1440040D01*
X5818440Y-6598920D02*
X5818440Y-4971060D01*
X5818440Y-4971060D02*
X5809660Y-4962280D01*
D39*
X3925820Y-6708480D02*
X5708880Y-6708480D01*
D38*
X5708880Y-6708480D02*
X5818440Y-6598920D01*
D39*
X13274040Y-9887520D02*
X14060880Y-9887520D01*
X14380080Y-9568320D02*
X14782800Y-9568320D01*
X14060880Y-9887520D02*
X14380080Y-9568320D01*
D38*
X13510800Y11672400D02*
X14115800Y11672400D01*
X14115800Y11672400D02*
X14250800Y11672400D01*
X14330840Y11752440D02*
X14843760Y11752440D01*
X14250800Y11672400D02*
X14330840Y11752440D01*
X6048800Y5404420D02*
X6048800Y4654400D01*
X6548800Y4154400D02*
X6548800Y3584420D01*
X6048800Y4654400D02*
X6548800Y4154400D01*
X8763000Y5181000D02*
X8763000Y6220200D01*
X8763000Y6220200D02*
X8650800Y6332400D01*
X8650800Y6332400D02*
X8650800Y7092400D01*
X-1715200Y9218400D02*
X-1709200Y9212400D01*
X-1715200Y9218400D02*
X-1715200Y10061400D01*
X-9606280Y-8797860D02*
X-9007540Y-8797860D01*
X-9007540Y-8797860D02*
X-8459321Y-9346079D01*
X-8459321Y-9346079D02*
X-7891150Y-9346079D01*
D40*
X-3639820Y-17164620D02*
X-3639820Y-16654780D01*
X-3784600Y-16510000D02*
X-5666700Y-16510000D01*
X-3639820Y-16654780D02*
X-3784600Y-16510000D01*
X-7264400Y-15417800D02*
X-5918200Y-15417800D01*
X-7566700Y-15720100D02*
X-7264400Y-15417800D01*
X-7566700Y-15720100D02*
X-7566700Y-16510000D01*
X-5666700Y-16510000D02*
X-5666700Y-15669300D01*
X-5918200Y-15417800D02*
X-5666700Y-15669300D01*
D38*
X-2715200Y16151400D02*
X-2715200Y16715800D01*
X-2715200Y16715800D02*
X-2463800Y16967200D01*
X-2215200Y16718600D02*
X-2463800Y16967200D01*
X-2215200Y16718600D02*
X-2215200Y16151400D01*
D40*
X-19532600Y-11799000D02*
X-19532600Y-11404600D01*
X-19532600Y-11404600D02*
X-19225400Y-11097400D01*
X-19225400Y-11097400D02*
X-18262600Y-11097400D01*
X-11454800Y14254600D02*
X-10782800Y14254600D01*
X-10424900Y13896700D02*
X-10424900Y12538500D01*
X-10782800Y14254600D02*
X-10424900Y13896700D01*
D39*
X1986280Y-14557440D02*
X2771840Y-14557440D01*
X2771840Y-14557440D02*
X3342680Y-15128280D01*
D38*
X3342680Y-15128280D02*
X3779820Y-15128280D01*
D39*
X-8117140Y7157720D02*
X-8117140Y5567680D01*
X-8117140Y5567680D02*
X-8117140Y4782120D01*
X-8117140Y4782120D02*
X-7983580Y4648560D01*
X-7983580Y4648560D02*
X-7983580Y3452220D01*
X-19723100Y9817800D02*
X-19076100Y9817800D01*
X-19076100Y9817800D02*
X-18827450Y9569150D01*
X-18531700Y9273400D02*
X-18161000Y9273400D01*
X-18827450Y9569150D02*
X-18531700Y9273400D01*
D41*
X-10369200Y16654600D02*
X-6617000Y16654600D01*
X-6104200Y17167400D02*
X-6104200Y20730000D01*
X-6617000Y16654600D02*
X-6104200Y17167400D01*
D40*
X-13354200Y17657400D02*
X-13354800Y17656800D01*
D39*
X-11454800Y17683000D02*
X-12024200Y18252400D01*
X-12024200Y18252400D02*
X-12759200Y18252400D01*
X-13354200Y17657400D02*
X-12759200Y18252400D01*
X-11454800Y16654600D02*
X-11454800Y17683000D01*
D40*
X-26534200Y17662400D02*
X-26531000Y17662400D01*
D39*
X-13354800Y17656800D02*
X-13354800Y16654600D01*
D40*
X-11454800Y16654600D02*
X-10369200Y16654600D01*
X-10369200Y16654600D02*
X-9943600Y16654600D01*
X-9943600Y16654600D02*
X-9447700Y16158700D01*
D39*
X-26619200Y19964400D02*
X-26619200Y18592800D01*
X-26531000Y18504600D02*
X-26531000Y17662400D01*
X-26531000Y17662400D02*
X-26531000Y16840200D01*
X-26619200Y18592800D02*
X-26531000Y18504600D01*
D38*
X2079800Y12356400D02*
X9366800Y12356400D01*
X9366800Y12356400D02*
X10063000Y11660200D01*
X10063000Y11660200D02*
X10063000Y10992400D01*
X10063000Y10992400D02*
X10063000Y5181000D01*
X3724800Y11856400D02*
X2079800Y11856400D01*
X3724800Y11856400D02*
X3730800Y11862400D01*
X3940800Y-4077600D02*
X3925820Y-4092580D01*
X3925820Y-4092580D02*
X3925820Y-4758480D01*
X-9933580Y3452220D02*
X-10689020Y3452220D01*
X4440800Y4452400D02*
X4440800Y4442400D01*
X-10689020Y3452220D02*
X-10689200Y3452400D01*
X-5666700Y-18910000D02*
X-5666700Y-19650100D01*
X-5579200Y-19737600D02*
X-4589200Y-19737600D01*
X-5666700Y-19650100D02*
X-5579200Y-19737600D01*
X-445200Y-1943100D02*
X-1054700Y-1943100D01*
X-1669200Y-2557600D02*
X-1669200Y-3907600D01*
X-1054700Y-1943100D02*
X-1669200Y-2557600D01*
X-3632460Y-14126880D02*
X-1669920Y-14126880D01*
X-1669920Y-14126880D02*
X-1669200Y-14127600D01*
X-1408320Y-5408480D02*
X-1659200Y-5157600D01*
X-1659200Y-5157600D02*
X-1659200Y-3917600D01*
X-1659200Y-3917600D02*
X-1669200Y-3907600D01*
X-474180Y-5408480D02*
X-1408320Y-5408480D01*
X-9283580Y-2933220D02*
X-9279200Y-2937600D01*
X-9283580Y-2933220D02*
X-9283580Y-947780D01*
D40*
X7086600Y-1028000D02*
X6031200Y-1028000D01*
X6031200Y-1028000D02*
X6030800Y-1027600D01*
X8763000Y381000D02*
X7759400Y381000D01*
X7086600Y-291800D02*
X7086600Y-1028000D01*
X7759400Y381000D02*
X7086600Y-291800D01*
X-3632460Y-14126880D02*
X-3632460Y-14909540D01*
X-2743200Y-15798800D02*
X-2743200Y-17830800D01*
X-3632460Y-14909540D02*
X-2743200Y-15798800D01*
X-5666700Y-18910000D02*
X-5666700Y-18087300D01*
X-5666700Y-18087300D02*
X-5410200Y-17830800D01*
X-5410200Y-17830800D02*
X-2743200Y-17830800D01*
X-1905000Y-18059400D02*
X-1905000Y-18682400D01*
X-2743200Y-17830800D02*
X-2133600Y-17830800D01*
X-2133600Y-17830800D02*
X-1905000Y-18059400D01*
D38*
X-3632460Y-14126880D02*
X-5552460Y-14126880D01*
X-5552460Y-14126880D02*
X-7452460Y-14126880D01*
X-7452460Y-14126880D02*
X-9282460Y-14126880D01*
X6030800Y14192400D02*
X5410800Y14192400D01*
X5246800Y14356400D02*
X2079800Y14356400D01*
X5410800Y14192400D02*
X5246800Y14356400D01*
X2045820Y-10426280D02*
X2730080Y-10426280D01*
X3114080Y-10810280D02*
X3779820Y-10810280D01*
X2730080Y-10426280D02*
X3114080Y-10810280D01*
X-1644180Y-11116280D02*
X-1644180Y-10457980D01*
X1180680Y-10426280D02*
X2045820Y-10426280D01*
X914400Y-10160000D02*
X1180680Y-10426280D01*
X-1346200Y-10160000D02*
X914400Y-10160000D01*
X-1644180Y-10457980D02*
X-1346200Y-10160000D01*
X-4841150Y-10896079D02*
X-3327921Y-10896079D01*
X-3107720Y-11116280D02*
X-1644180Y-11116280D01*
X-3327921Y-10896079D02*
X-3107720Y-11116280D01*
X-2524760Y-6312600D02*
X-4150360Y-6312600D01*
X-4150360Y-6312600D02*
X-4170680Y-6332920D01*
X-1644180Y-8716280D02*
X-1644180Y-7982420D01*
X-2524760Y-7101840D02*
X-2524760Y-6312600D01*
X-1644180Y-7982420D02*
X-2524760Y-7101840D01*
X2534920Y-357440D02*
X3960640Y-357440D01*
X8737600Y-2044400D02*
X8737600Y-2528000D01*
X8490800Y-1797600D02*
X8737600Y-2044400D01*
X5400800Y-1797600D02*
X8490800Y-1797600D01*
X3960640Y-357440D02*
X5400800Y-1797600D01*
X2060800Y1324420D02*
X2060800Y606200D01*
X2534920Y132080D02*
X2534920Y-357440D01*
X2060800Y606200D02*
X2534920Y132080D01*
D41*
X17115800Y18962400D02*
X15740800Y18962400D01*
X15740800Y18962400D02*
X14690800Y20012400D01*
X17090800Y17187400D02*
X17090800Y18937400D01*
X17090800Y18937400D02*
X17115800Y18962400D01*
D38*
X-5279200Y13356400D02*
X-5283200Y13360400D01*
X-4010200Y13356400D02*
X-5279200Y13356400D01*
X14690800Y20012400D02*
X14690800Y20887400D01*
X-5255200Y11356400D02*
X-5257800Y11353800D01*
X-5255200Y11356400D02*
X-4010200Y11356400D01*
X-9283580Y4436780D02*
X-9283580Y3452220D01*
X-9519200Y4672400D02*
X-10829200Y4672400D01*
X-9283580Y4436780D02*
X-9519200Y4672400D01*
X9413000Y4304600D02*
X9150800Y4042400D01*
X9413000Y5181000D02*
X9413000Y4304600D01*
X7860800Y4042400D02*
X6900800Y5002400D01*
X9150800Y4042400D02*
X7860800Y4042400D01*
X4849920Y-5408480D02*
X3925820Y-5408480D01*
X5110800Y-4117600D02*
X5120800Y-4107600D01*
X5110800Y-5147600D02*
X5110800Y-4117600D01*
X4849920Y-5408480D02*
X5110800Y-5147600D01*
X-24114200Y20730000D02*
X-24114200Y18957400D01*
X-24114200Y18957400D02*
X-22899200Y17742400D01*
X-22899200Y17742400D02*
X-22899200Y16672400D01*
D41*
X-3505200Y22504400D02*
X-3454400Y22555200D01*
D38*
X14190800Y20887400D02*
X14190800Y21737400D01*
X-4010200Y10856400D02*
X-8535200Y10856400D01*
X-8535200Y10856400D02*
X-8579200Y10812400D01*
X-21574200Y20730000D02*
X-21574200Y16997400D01*
X-21574200Y16997400D02*
X-22899200Y15672400D01*
X-22899200Y15672400D02*
X-22899200Y15112400D01*
X15690800Y20887400D02*
X15690800Y22287400D01*
X-7384200Y23837400D02*
X-7384200Y24412400D01*
X-7384200Y24412400D02*
X-7409200Y24412400D01*
D41*
X-21574200Y23270000D02*
X-21574200Y24122400D01*
X-21574200Y24122400D02*
X-21284200Y24412400D01*
X-21284200Y24412400D02*
X-7409200Y24412400D01*
X-1024200Y24202400D02*
X-1024200Y23270000D01*
X-7409200Y24412400D02*
X-1234200Y24412400D01*
X-1234200Y24412400D02*
X-1024200Y24202400D01*
D38*
X-6038200Y10061400D02*
X-3215200Y10061400D01*
X-6038200Y10061400D02*
X-6039200Y10062400D01*
X2090800Y16412400D02*
X2090800Y16912400D01*
X2340800Y17162400D02*
X3990800Y17162400D01*
X2090800Y16912400D02*
X2340800Y17162400D01*
X2079800Y15356400D02*
X2079800Y16401400D01*
X2079800Y16401400D02*
X2090800Y16412400D01*
X2940800Y16387400D02*
X5265800Y16387400D01*
X6010800Y17132400D02*
X7530800Y17132400D01*
X5265800Y16387400D02*
X6010800Y17132400D01*
X2079800Y14856400D02*
X2809800Y14856400D01*
X2940800Y14987400D02*
X2940800Y16387400D01*
X2809800Y14856400D02*
X2940800Y14987400D01*
X-5552460Y-12626880D02*
X-5552460Y-12125940D01*
X-5841150Y-11837250D02*
X-5841150Y-10896079D01*
X-5552460Y-12125940D02*
X-5841150Y-11837250D01*
X-5341150Y-10896079D02*
X-5341150Y-11676850D01*
X-3632460Y-12013940D02*
X-3632460Y-12626880D01*
X-3810000Y-11836400D02*
X-3632460Y-12013940D01*
X-5181600Y-11836400D02*
X-3810000Y-11836400D01*
X-5341150Y-11676850D02*
X-5181600Y-11836400D01*
X-7452460Y-12626880D02*
X-7452460Y-12253060D01*
X-6341150Y-11827550D02*
X-6341150Y-10896079D01*
X-6578600Y-12065000D02*
X-6341150Y-11827550D01*
X-7264400Y-12065000D02*
X-6578600Y-12065000D01*
X-7452460Y-12253060D02*
X-7264400Y-12065000D01*
X-7983580Y-947780D02*
X-7983580Y538020D01*
X-7082220Y1439380D02*
X-7082220Y5590540D01*
X-7983580Y538020D02*
X-7082220Y1439380D01*
X1284800Y9188400D02*
X1290800Y9182400D01*
X1284800Y10061400D02*
X1284800Y9188400D01*
X8200800Y-15817600D02*
X2630800Y-15817600D01*
X9166200Y-13792200D02*
X9943400Y-13792200D01*
X8490800Y-14467600D02*
X8490800Y-15527600D01*
X9166200Y-13792200D02*
X8490800Y-14467600D01*
X8490800Y-15527600D02*
X8200800Y-15817600D01*
X784800Y8686400D02*
X780800Y8682400D01*
X784800Y10061400D02*
X784800Y8686400D01*
X9089800Y-16347600D02*
X1370800Y-16347600D01*
X9089800Y-16347600D02*
X9968800Y-15468600D01*
X-2524760Y-4812600D02*
X-2524760Y-5374640D01*
X-1470320Y-6708480D02*
X-474180Y-6708480D01*
X-1651000Y-6527800D02*
X-1470320Y-6708480D01*
X-1651000Y-5918200D02*
X-1651000Y-6527800D01*
X-1981200Y-5588000D02*
X-1651000Y-5918200D01*
X-2311400Y-5588000D02*
X-1981200Y-5588000D01*
X-2524760Y-5374640D02*
X-2311400Y-5588000D01*
X-715200Y10061400D02*
X-715200Y9188400D01*
X-715200Y9188400D02*
X-709200Y9182400D01*
X-14911000Y5054200D02*
X-15499200Y5642400D01*
X-14911000Y5054200D02*
X-14911000Y3073400D01*
X-13658300Y1611500D02*
X-13659200Y1612400D01*
X-13658300Y1611500D02*
X-13658300Y-342900D01*
X19332800Y-8539600D02*
X19330800Y-8537600D01*
X19332800Y-8539600D02*
X19332800Y-9568320D01*
X19393760Y365360D02*
X19390800Y362400D01*
X19393760Y1440040D02*
X19393760Y365360D01*
X19393760Y12769440D02*
X19390800Y12772400D01*
X19393760Y12769440D02*
X19393760Y11752440D01*
X-4010200Y11856400D02*
X-8635200Y11856400D01*
X-13614400Y10717200D02*
X-13614400Y10312400D01*
X-13359200Y10972400D02*
X-13614400Y10717200D01*
X-9519200Y10972400D02*
X-13359200Y10972400D01*
X-8635200Y11856400D02*
X-9519200Y10972400D01*
D40*
X-13712600Y-10061800D02*
X-13716000Y-10058400D01*
X-13712600Y-11097400D02*
X-13712600Y-10061800D01*
D38*
X-13611000Y9273400D02*
X-13611000Y10309000D01*
X-13611000Y10309000D02*
X-13614400Y10312400D01*
D40*
X-14362600Y-9739800D02*
X-14362600Y-11097400D01*
X-14362600Y-9739800D02*
X-14351000Y-9728200D01*
D38*
X-14308300Y1981500D02*
X-14308300Y-342900D01*
X18743760Y13069440D02*
X18743760Y11752440D01*
X18743760Y13069440D02*
X18740800Y13072400D01*
X18682800Y-9568320D02*
X18682800Y-8245600D01*
X18682800Y-8245600D02*
X18690800Y-8237600D01*
X18743760Y2399440D02*
X18740800Y2402400D01*
X18743760Y2399440D02*
X18743760Y1440040D01*
X-4010200Y12356400D02*
X-8715200Y12356400D01*
X-14249400Y11102200D02*
X-14249400Y10642600D01*
X-13999200Y11352400D02*
X-14249400Y11102200D01*
X-9719200Y11352400D02*
X-13999200Y11352400D01*
X-8715200Y12356400D02*
X-9719200Y11352400D01*
X-14261000Y9273400D02*
X-14261000Y10631000D01*
X-14261000Y10631000D02*
X-14249400Y10642600D01*
D40*
X-15012600Y-11097400D02*
X-15012600Y-10059600D01*
X-15012600Y-10059600D02*
X-15011400Y-10058400D01*
D38*
X-14958300Y-342900D02*
X-14958300Y1231500D01*
X18032800Y-8489600D02*
X18030800Y-8487600D01*
X18032800Y-8489600D02*
X18032800Y-9568320D01*
X18093760Y355360D02*
X18090800Y352400D01*
X18093760Y1440040D02*
X18093760Y355360D01*
X18093760Y12795360D02*
X18100800Y12802400D01*
X18093760Y12795360D02*
X18093760Y11752440D01*
X-4010200Y12856400D02*
X-6719200Y12856400D01*
X-6719200Y12856400D02*
X-8735200Y12856400D01*
X-14909800Y11381800D02*
X-14909800Y10312400D01*
X-14549200Y11742400D02*
X-14909800Y11381800D01*
X-9849200Y11742400D02*
X-14549200Y11742400D01*
X-8735200Y12856400D02*
X-9849200Y11742400D01*
X-14911000Y9273400D02*
X-14911000Y10311200D01*
X-14911000Y10311200D02*
X-14909800Y10312400D01*
X-5255200Y14856400D02*
X-5257800Y14859000D01*
X-4010200Y14856400D02*
X-5255200Y14856400D01*
X-14958300Y-7658500D02*
X-14039200Y-8577600D01*
X-14039200Y-8577600D02*
X-13059200Y-8577600D01*
X-14958300Y-7658500D02*
X-14958300Y-6542900D01*
X-15012600Y-18364200D02*
X-15009200Y-18367600D01*
X-15012600Y-17297400D02*
X-15012600Y-18364200D01*
X-2715200Y9206400D02*
X-2719200Y9202400D01*
X-2715200Y9206400D02*
X-2715200Y10061400D01*
X-3215200Y17363000D02*
X-3225800Y17373600D01*
X-3215200Y17363000D02*
X-3215200Y16151400D01*
X18093760Y-4759960D02*
X18093760Y-3524640D01*
X20180800Y-3147600D02*
X21550800Y-4517600D01*
X18470800Y-3147600D02*
X20180800Y-3147600D01*
X18093760Y-3524640D02*
X18470800Y-3147600D01*
X784800Y16686400D02*
X830800Y16732400D01*
X830800Y16732400D02*
X830800Y17442400D01*
X784800Y16151400D02*
X784800Y16686400D01*
X18032800Y-16669600D02*
X18270800Y-16907600D01*
X18270800Y-16907600D02*
X20730800Y-16907600D01*
X18032800Y-16669600D02*
X18032800Y-15768320D01*
X3770800Y-17037600D02*
X160800Y-17037600D01*
X4148800Y3584420D02*
X3232820Y3584420D01*
X-1215200Y8716400D02*
X-1215200Y10061400D01*
X-1215200Y8716400D02*
X-1219200Y8712400D01*
X3232820Y3584420D02*
X3230800Y3582400D01*
X4891480Y-15128280D02*
X4890800Y-15127600D01*
X6179820Y-15128280D02*
X4891480Y-15128280D01*
X5340800Y-17987600D02*
X4890800Y-17537600D01*
X5340800Y-17987600D02*
X6170800Y-17987600D01*
X6170800Y-17987600D02*
X6840800Y-17987600D01*
X6840800Y-17987600D02*
X7660800Y-17167600D01*
X7660800Y-17167600D02*
X8050800Y-17167600D01*
X8274800Y10856400D02*
X8280800Y10862400D01*
X2079800Y10856400D02*
X8274800Y10856400D01*
X16460800Y322400D02*
X16470800Y322400D01*
X1530800Y16912400D02*
X1530800Y17352400D01*
X1284800Y16666400D02*
X1530800Y16912400D01*
X18093760Y6455360D02*
X18350800Y6712400D01*
X18350800Y6712400D02*
X20130800Y6712400D01*
X20130800Y6712400D02*
X20830800Y6012400D01*
X18093760Y5552440D02*
X18093760Y6455360D01*
X1284800Y16666400D02*
X1284800Y16151400D01*
X-8633580Y3452220D02*
X-8633580Y2198020D01*
X-11799200Y2202400D02*
X-11799200Y3362400D01*
X-11489200Y1892400D02*
X-11799200Y2202400D01*
X-8939200Y1892400D02*
X-11489200Y1892400D01*
X-8633580Y2198020D02*
X-8939200Y1892400D01*
X-8633580Y4616780D02*
X-8829200Y4812400D01*
X-8633580Y3452220D02*
X-8633580Y4616780D01*
X-8063200Y14356400D02*
X-8069200Y14362400D01*
X-8063200Y14356400D02*
X-4010200Y14356400D01*
X284800Y16151400D02*
X284800Y17606400D01*
X13690800Y18312400D02*
X13690800Y20887400D01*
X13340800Y17962400D02*
X13690800Y18312400D01*
X640800Y17962400D02*
X13340800Y17962400D01*
X284800Y17606400D02*
X640800Y17962400D01*
X-215200Y16151400D02*
X-215200Y17906400D01*
X13190800Y18762400D02*
X13190800Y20887400D01*
X12740800Y18312400D02*
X13190800Y18762400D01*
X190800Y18312400D02*
X12740800Y18312400D01*
X-215200Y17906400D02*
X190800Y18312400D01*
X-715200Y16151400D02*
X-715200Y18256400D01*
X12690800Y19037400D02*
X12690800Y20887400D01*
X12290800Y18637400D02*
X12690800Y19037400D01*
X-334200Y18637400D02*
X12290800Y18637400D01*
X-715200Y18256400D02*
X-334200Y18637400D01*
X-759200Y19012400D02*
X11765800Y19012400D01*
X-1215200Y18556400D02*
X-759200Y19012400D01*
X-1215200Y16151400D02*
X-1215200Y18556400D01*
X12190800Y19437400D02*
X12190800Y20887400D01*
X11765800Y19012400D02*
X12190800Y19437400D01*
X-1234200Y19362400D02*
X11290800Y19362400D01*
X-1715200Y18881400D02*
X-1234200Y19362400D01*
X-1715200Y16151400D02*
X-1715200Y18881400D01*
X11690800Y19762400D02*
X11690800Y20887400D01*
X11290800Y19362400D02*
X11690800Y19762400D01*
X2890800Y-3907600D02*
X2430800Y-4367600D01*
X2430800Y-4367600D02*
X2430800Y-6057600D01*
X2079800Y11356400D02*
X3016800Y11356400D01*
X3016800Y11356400D02*
X3020800Y11352400D01*
X2431680Y-6058480D02*
X2430800Y-6057600D01*
X2431680Y-6058480D02*
X3925820Y-6058480D01*
X2904800Y12856400D02*
X2910800Y12862400D01*
X2079800Y12856400D02*
X2904800Y12856400D01*
X-7341150Y-10896079D02*
X-7887679Y-10896079D01*
X-7887679Y-10896079D02*
X-7889200Y-10897600D01*
X-215200Y10061400D02*
X-215200Y8708400D01*
X-215200Y8708400D02*
X-209200Y8702400D01*
X-6841150Y-6839550D02*
X-6841150Y-8296079D01*
X-6841150Y-6839550D02*
X-6839200Y-6837600D01*
X1060800Y-3557600D02*
X1060800Y-1949100D01*
X1060800Y-1949100D02*
X1054800Y-1943100D01*
X1410800Y2212400D02*
X1620800Y2422400D01*
X1620800Y2422400D02*
X2170800Y2422400D01*
X2170800Y2422400D02*
X2740800Y1852400D01*
X1410800Y1324420D02*
X1410800Y2212400D01*
X2916800Y13856400D02*
X2920800Y13852400D01*
X2916800Y13856400D02*
X2079800Y13856400D01*
X1054800Y-1943100D02*
X1054800Y-322580D01*
X1054800Y-322580D02*
X1066800Y-310580D01*
X1066800Y-310580D02*
X1066800Y279400D01*
X1066800Y279400D02*
X1410800Y623400D01*
X1410800Y623400D02*
X1410800Y1324420D01*
X16082800Y-15768320D02*
X16082800Y-16955600D01*
X16082800Y-16955600D02*
X16070800Y-16967600D01*
X4611480Y-13228280D02*
X3779820Y-13228280D01*
X4611480Y-13228280D02*
X4920800Y-13537600D01*
X6298780Y1684420D02*
X5490800Y2492400D01*
X6548800Y1684420D02*
X6298780Y1684420D01*
X4520800Y13356400D02*
X4520800Y13352400D01*
X13866800Y13356400D02*
X14080800Y13142400D01*
X4520800Y13356400D02*
X13866800Y13356400D01*
X14080800Y13142400D02*
X15530800Y13142400D01*
X2079800Y13356400D02*
X4420800Y13356400D01*
X4420800Y13356400D02*
X4520800Y13356400D01*
X16143760Y-3100560D02*
X16130800Y-3087600D01*
X16143760Y-4759960D02*
X16143760Y-3100560D01*
X16143760Y5552440D02*
X16143760Y6925360D01*
X16143760Y6925360D02*
X16150800Y6932400D01*
X-16861000Y4161000D02*
X-16865600Y4165600D01*
X-16861000Y3073400D02*
X-16861000Y4161000D01*
X-16962600Y-17297400D02*
X-16962600Y-18283400D01*
X-16962600Y-18283400D02*
X-16967200Y-18288000D01*
X-16908300Y-6542900D02*
X-16908300Y-7535700D01*
X-16908300Y-7535700D02*
X-16916400Y-7543800D01*
D40*
X-13354800Y14254600D02*
X-14386400Y14254600D01*
X-14731600Y13909400D02*
X-14731600Y12551200D01*
X-14386400Y14254600D02*
X-14731600Y13909400D01*
D38*
X2045820Y-8926280D02*
X3763820Y-8926280D01*
X3763820Y-8926280D02*
X3779820Y-8910280D01*
X255820Y-8716280D02*
X994680Y-8716280D01*
X1204680Y-8926280D02*
X2045820Y-8926280D01*
X994680Y-8716280D02*
X1204680Y-8926280D01*
D40*
X-9448800Y-18707800D02*
X-8419400Y-18707800D01*
X-8217200Y-18910000D02*
X-7566700Y-18910000D01*
X-8419400Y-18707800D02*
X-8217200Y-18910000D01*
D38*
X1000800Y5904420D02*
X1000800Y5298400D01*
X1410800Y4888400D02*
X1410800Y4124420D01*
X1000800Y5298400D02*
X1410800Y4888400D01*
X2500800Y5904420D02*
X2500800Y5345600D01*
X2060800Y4905600D02*
X2060800Y4124420D01*
X2500800Y5345600D02*
X2060800Y4905600D01*
X-4582860Y5590540D02*
X-5582220Y5590540D01*
X-5582220Y5590540D02*
X-5582220Y5022280D01*
X-6091700Y4512800D02*
X-6091700Y3784300D01*
X-5582220Y5022280D02*
X-6091700Y4512800D01*
X-6841150Y-10896079D02*
X-6841150Y-11540150D01*
X-9282460Y-12000260D02*
X-9282460Y-12626880D01*
X-9017000Y-11734800D02*
X-9282460Y-12000260D01*
X-7035800Y-11734800D02*
X-9017000Y-11734800D01*
X-6841150Y-11540150D02*
X-7035800Y-11734800D01*
X9413000Y381000D02*
X9413000Y-439800D01*
X9560800Y-587600D02*
X9560800Y-1028000D01*
X9413000Y-439800D02*
X9560800Y-587600D01*
D40*
X8737600Y-1028000D02*
X9560800Y-1028000D01*
X9560800Y-1028000D02*
X10388600Y-1028000D01*
X10388600Y-1028000D02*
X10414000Y-1053400D01*
D38*
X284800Y10061400D02*
X284800Y9218400D01*
X284800Y9218400D02*
X290800Y9212400D01*
X11102200Y5181000D02*
X10713000Y5181000D01*
X11102200Y5181000D02*
X12010800Y4272400D01*
X6179820Y-9860280D02*
X7643480Y-9860280D01*
X8070800Y-10287600D02*
X8070800Y-12807600D01*
X7643480Y-9860280D02*
X8070800Y-10287600D01*
X7420120Y-14178280D02*
X8070800Y-13527600D01*
X8070800Y-13527600D02*
X8070800Y-12807600D01*
X7420120Y-14178280D02*
X6179820Y-14178280D01*
X-1892300Y3830360D02*
X-767040Y3830360D01*
X-767040Y3830360D02*
X-472980Y4124420D01*
X-472980Y4124420D02*
X110800Y4124420D01*
X-3689200Y12400D02*
X-3059200Y12400D01*
X-3059200Y12400D02*
X-3039200Y12400D01*
X-3039200Y12400D02*
X-3059200Y12400D01*
X-3679200Y-1757600D02*
X-3249200Y-1757600D01*
X-3059200Y-1567600D02*
X-3059200Y12400D01*
X-3059200Y12400D02*
X-3059200Y3830360D01*
X-3249200Y-1757600D02*
X-3059200Y-1567600D01*
X-3059200Y3830360D02*
X-3059200Y3832400D01*
X-3059200Y3832400D02*
X-3059200Y3830360D01*
X-1892300Y3830360D02*
X-3059200Y3830360D01*
X-3059200Y3830360D02*
X-3139200Y3830360D01*
X-3139200Y3830360D02*
X-4145640Y3830360D01*
X-4145640Y3830360D02*
X-4191700Y3784300D01*
X-2468840Y3830360D02*
X-1892300Y3830360D01*
X-4589200Y12400D02*
X-5219200Y12400D01*
X-4579200Y-1757600D02*
X-5219200Y-1757600D01*
X-5219200Y-1757600D02*
X-5219200Y-1767600D01*
X-6091700Y1384300D02*
X-5471100Y1384300D01*
X-5119200Y-2987600D02*
X-4559200Y-2987600D01*
X-5219200Y-2887600D02*
X-5119200Y-2987600D01*
X-5219200Y1132400D02*
X-5219200Y12400D01*
X-5219200Y12400D02*
X-5219200Y-1767600D01*
X-5219200Y-1767600D02*
X-5219200Y-2887600D01*
X-5471100Y1384300D02*
X-5219200Y1132400D01*
X-1892260Y1930400D02*
X-787400Y1930400D01*
X-181420Y1324420D02*
X110800Y1324420D01*
X-787400Y1930400D02*
X-181420Y1324420D01*
X-1892260Y1930400D02*
X-1892300Y1930360D01*
X-3659200Y-2987600D02*
X-2809200Y-2987600D01*
X-1892300Y-2070700D02*
X-1892300Y1930360D01*
X-2809200Y-2987600D02*
X-1892300Y-2070700D01*
X508000Y2870200D02*
X110800Y2473000D01*
X110800Y2473000D02*
X110800Y1324420D01*
X4148800Y2634420D02*
X2547180Y2634420D01*
X2311400Y2870200D02*
X2547180Y2634420D01*
X508000Y2870200D02*
X2311400Y2870200D01*
X-1892260Y1930400D02*
X-1892300Y1930360D01*
X-1892300Y1930360D02*
X-1892260Y1930400D01*
M02*
