G04 #@! TF.FileFunction,Copper,L4,Bot,Signal*
%FSLAX46Y46*%
G04 Gerber Fmt 4.6, Leading zero omitted, Abs format (unit mm)*
G04 Created by KiCad (PCBNEW 4.0.1-stable) date 5/8/2017 10:12:06 PM*
%MOMM*%
G01*
G04 APERTURE LIST*
%ADD10C,0.100000*%
%ADD11R,1.700000X1.700000*%
%ADD12O,1.700000X1.700000*%
%ADD13C,1.397000*%
%ADD14C,0.457200*%
%ADD15R,0.381000X1.651000*%
%ADD16R,1.000000X0.700000*%
%ADD17R,1.200000X0.900000*%
%ADD18R,0.900000X1.200000*%
%ADD19R,0.500000X0.900000*%
%ADD20C,0.508000*%
%ADD21C,0.152400*%
%ADD22C,0.203200*%
%ADD23C,0.254000*%
%ADD24C,0.177800*%
G04 APERTURE END LIST*
D10*
D11*
X25875000Y17600000D03*
D12*
X23335000Y17600000D03*
X25875000Y15060000D03*
X23335000Y15060000D03*
X25875000Y12520000D03*
X23335000Y12520000D03*
X25875000Y9980000D03*
X23335000Y9980000D03*
X25875000Y7440000D03*
X23335000Y7440000D03*
X25875000Y4900000D03*
X23335000Y4900000D03*
X25875000Y2360000D03*
X23335000Y2360000D03*
X25875000Y-180000D03*
X23335000Y-180000D03*
X25875000Y-2720000D03*
X23335000Y-2720000D03*
X25875000Y-5260000D03*
X23335000Y-5260000D03*
X25875000Y-7800000D03*
X23335000Y-7800000D03*
X25875000Y-10340000D03*
X23335000Y-10340000D03*
X25875000Y-12880000D03*
X23335000Y-12880000D03*
X25875000Y-15420000D03*
X23335000Y-15420000D03*
X25875000Y-17960000D03*
X23335000Y-17960000D03*
D11*
X-23325000Y12800000D03*
D12*
X-25865000Y12800000D03*
X-23325000Y10260000D03*
X-25865000Y10260000D03*
X-23325000Y7720000D03*
X-25865000Y7720000D03*
X-23325000Y5180000D03*
X-25865000Y5180000D03*
X-23325000Y2640000D03*
X-25865000Y2640000D03*
X-23325000Y100000D03*
X-25865000Y100000D03*
X-23325000Y-2440000D03*
X-25865000Y-2440000D03*
X-23325000Y-4980000D03*
X-25865000Y-4980000D03*
X-23325000Y-7520000D03*
X-25865000Y-7520000D03*
X-23325000Y-10060000D03*
X-25865000Y-10060000D03*
X-23325000Y-12600000D03*
X-25865000Y-12600000D03*
X-23325000Y-15140000D03*
X-25865000Y-15140000D03*
X-23325000Y-17680000D03*
X-25865000Y-17680000D03*
D13*
X12217400Y-18415000D03*
D14*
X-965200Y14556400D03*
X-2415200Y14556400D03*
X-2415200Y11656400D03*
X-2415200Y13106400D03*
X-965200Y13106400D03*
X534800Y11606400D03*
X-965200Y11656400D03*
X484800Y13106400D03*
X534800Y14606400D03*
D15*
X-19532600Y-304800D03*
X-18897600Y-304800D03*
X-18262600Y-304800D03*
X-17627600Y-304800D03*
X-16992600Y-304800D03*
X-16357600Y-304800D03*
X-15722600Y-304800D03*
X-15087600Y-304800D03*
X-14452600Y-304800D03*
X-13817600Y-304800D03*
X-13182600Y-304800D03*
X-12547600Y-304800D03*
X-12547600Y-5765800D03*
X-13182600Y-5765800D03*
X-13817600Y-5765800D03*
X-14452600Y-5765800D03*
X-15087600Y-5765800D03*
X-15722600Y-5765800D03*
X-16357600Y-5765800D03*
X-16992600Y-5765800D03*
X-17627600Y-5765800D03*
X-18262600Y-5765800D03*
X-18897600Y-5765800D03*
X-19532600Y-5765800D03*
X8174120Y5950220D03*
X8809120Y5950220D03*
X9444120Y5950220D03*
X10079120Y5950220D03*
X10714120Y5950220D03*
X11349120Y5950220D03*
X11984120Y5950220D03*
X12619120Y5950220D03*
X13254120Y5950220D03*
X13889120Y5950220D03*
X14524120Y5950220D03*
X15159120Y5950220D03*
X15159120Y489220D03*
X14524120Y489220D03*
X13889120Y489220D03*
X13254120Y489220D03*
X12619120Y489220D03*
X11984120Y489220D03*
X11349120Y489220D03*
X10714120Y489220D03*
X10079120Y489220D03*
X9444120Y489220D03*
X8809120Y489220D03*
X8174120Y489220D03*
D16*
X6375400Y-11130280D03*
X6375400Y-10180280D03*
X6375400Y-12080280D03*
X3975400Y-12080280D03*
X3975400Y-10180280D03*
X16611600Y-7292340D03*
X16611600Y-6342340D03*
X16611600Y-8242340D03*
X14211600Y-8242340D03*
X14211600Y-6342340D03*
X-19941540Y-15011400D03*
X-19941540Y-15961400D03*
X-19941540Y-14061400D03*
X-17541540Y-14061400D03*
X-17541540Y-15961400D03*
D17*
X-20327800Y-8356600D03*
X-18127800Y-8356600D03*
X6660800Y342400D03*
X4460800Y342400D03*
D18*
X-15679420Y-16299360D03*
X-15679420Y-14099360D03*
X12410440Y-6230440D03*
X12410440Y-8430440D03*
D19*
X-2546920Y16129000D03*
X-4046920Y16129000D03*
X-1790000Y10403840D03*
X-3290000Y10403840D03*
X8073960Y-11940540D03*
X9573960Y-11940540D03*
X5255960Y-8384540D03*
X3755960Y-8384540D03*
X9573960Y-10670540D03*
X8073960Y-10670540D03*
X8385240Y-8387080D03*
X6885240Y-8387080D03*
D13*
X24663400Y22733000D03*
D11*
X-26654200Y20730000D03*
D12*
X-26654200Y23270000D03*
X-24114200Y20730000D03*
X-24114200Y23270000D03*
X-21574200Y20730000D03*
X-21574200Y23270000D03*
X-19034200Y20730000D03*
X-19034200Y23270000D03*
X-16494200Y20730000D03*
X-16494200Y23270000D03*
D11*
X-6104200Y20730000D03*
D12*
X-6104200Y23270000D03*
X-3564200Y20730000D03*
X-3564200Y23270000D03*
X-1024200Y20730000D03*
X-1024200Y23270000D03*
X1515800Y20730000D03*
X1515800Y23270000D03*
X4055800Y20730000D03*
X4055800Y23270000D03*
D20*
X-17679200Y7720000D03*
X-1149200Y-3277600D03*
X20815800Y-4762600D03*
X-18884200Y-7037600D03*
X-12549200Y1122400D03*
X18615800Y19987400D03*
X-18909200Y2387400D03*
X15690800Y14787400D03*
X16815800Y20887400D03*
X13520800Y-1947600D03*
X10710800Y2312400D03*
X11530800Y-2547600D03*
X20870800Y5122400D03*
X3570800Y-1857600D03*
X7318440Y-5767600D03*
X-949200Y-7537600D03*
X2750800Y-18927600D03*
X13280800Y-12197600D03*
X-12989200Y3072400D03*
X13880800Y2432400D03*
X2790800Y-8027600D03*
X9240800Y-12887600D03*
X7210800Y-13227600D03*
X9170800Y-8377600D03*
X1981200Y-12344400D03*
X7660800Y8602400D03*
X11170800Y11672400D03*
X15400800Y7542400D03*
X10720800Y7982400D03*
X11340800Y7642400D03*
X13250800Y7682400D03*
X13890800Y7392400D03*
X5156200Y1701800D03*
X8820800Y2432400D03*
X6060800Y-2527600D03*
X15580800Y-8247600D03*
X11390800Y-8437600D03*
X20090800Y-15757600D03*
X-13069200Y-17287600D03*
X-12979200Y-7807600D03*
X-15919200Y-8357600D03*
X-16379200Y-1937600D03*
X-9626600Y8026400D03*
X-4165600Y-4140200D03*
X-10464800Y-17195800D03*
X-1905000Y-16408400D03*
X-3632200Y-19380200D03*
X-4038600Y17018000D03*
X-12406800Y17631200D03*
X-20447000Y279400D03*
X-20421600Y-10312400D03*
X-14757400Y-14097000D03*
X-6629400Y-17449800D03*
X-9435000Y13745000D03*
X-12559200Y12551200D03*
X-24257000Y16840200D03*
X787400Y-4749800D03*
X812800Y-6070600D03*
X-7340600Y-7416800D03*
X-9601200Y-11074400D03*
X-4292600Y-7442200D03*
X-3403600Y-9855200D03*
X3810000Y5410200D03*
X-1219200Y-304800D03*
X762000Y2286000D03*
X-2387600Y5588000D03*
X-5130800Y4673600D03*
X-8638540Y-2278380D03*
X-9923780Y-2280920D03*
X-20751800Y8318500D03*
X-15561000Y4422400D03*
X-21717000Y4584700D03*
X-21729700Y-5016500D03*
X17430800Y7192400D03*
X16791940Y6611620D03*
X16791940Y-3639820D03*
X860640Y-14557440D03*
X14115800Y17162400D03*
X19415800Y17162400D03*
X15715800Y17162400D03*
X15190800Y21737400D03*
X12165800Y2137400D03*
X-8309200Y1162400D03*
X-5109200Y1932400D03*
X-8684200Y-7887600D03*
X-8684200Y-15637600D03*
X-18834200Y15287400D03*
X-18459200Y-15962600D03*
X-18259200Y-9987600D03*
X-18859200Y-1937600D03*
X-18827450Y9569150D03*
X-2484200Y18087400D03*
X6115800Y-8462600D03*
X11390800Y-6262600D03*
X6615800Y-6587600D03*
X9140800Y17162400D03*
X6215800Y-18812600D03*
X14115800Y11687400D03*
X12165800Y-9887600D03*
X-11459200Y15287400D03*
X-1709200Y9212400D03*
X-2463800Y16967200D03*
X-13354800Y17656800D03*
X-19659200Y17637400D03*
X-19889200Y-7277600D03*
X-26534200Y17662400D03*
X-4359200Y-907600D03*
X-4359200Y8722400D03*
X-19659200Y7202400D03*
X-10369200Y16654600D03*
X10060800Y-18327600D03*
X10063000Y10992400D03*
X3730800Y11862400D03*
X3940800Y-4077600D03*
X-10689200Y-12817600D03*
X4440800Y4452400D03*
X-10689200Y3452400D03*
X-1669200Y-14127600D03*
X-1669200Y-3907600D03*
X-9279200Y-2937600D03*
X6030800Y-1027600D03*
X6030800Y14192400D03*
X14690800Y20012400D03*
X14690800Y14712400D03*
X-5283200Y13360400D03*
X6900800Y10302400D03*
X-5257800Y11353800D03*
X6900800Y6522400D03*
X-10829200Y4672400D03*
X6900800Y5002400D03*
X5630800Y-16917600D03*
X5120800Y-4107600D03*
X14190800Y21737400D03*
X-8579200Y10812400D03*
X15690800Y22287400D03*
X-7384200Y23837400D03*
X-6039200Y10062400D03*
X2090800Y16412400D03*
X2940800Y16387400D03*
X1290800Y9182400D03*
X2630800Y-15817600D03*
X780800Y8682400D03*
X1370800Y-16347600D03*
X-709200Y9182400D03*
X-709200Y6492400D03*
X-15499200Y5642400D03*
X-13614400Y10312400D03*
X-13659200Y1612400D03*
X19340800Y-13017600D03*
X19330800Y-8537600D03*
X19390800Y362400D03*
X19390800Y12772400D03*
X-13716000Y-10058400D03*
X-14351000Y-9728200D03*
X-14249400Y10642600D03*
X-14309200Y1982400D03*
X18740800Y13072400D03*
X18690800Y-8237600D03*
X18740800Y2402400D03*
X-15011400Y-10058400D03*
X-14959200Y1232400D03*
X-14909800Y10312400D03*
X-6719200Y12856400D03*
X18030800Y-8487600D03*
X18090800Y352400D03*
X18100800Y12802400D03*
X-5257800Y14859000D03*
X-13059200Y-8577600D03*
X-3659200Y-8577600D03*
X-15009200Y-18367600D03*
X-409200Y-18367600D03*
X-2719200Y9202400D03*
X21540800Y15362400D03*
X-3225800Y17373600D03*
X21550800Y-4517600D03*
X830800Y17442400D03*
X20300800Y15892400D03*
X20730800Y-16907600D03*
X160800Y-17037600D03*
X-1219200Y2902400D03*
X-1219200Y8712400D03*
X3230800Y3582400D03*
X4890800Y-15127600D03*
X4890800Y-17537600D03*
X-11809200Y-5767600D03*
X-11809200Y-15127600D03*
X15180800Y3692400D03*
X7540800Y5962400D03*
X8280800Y10862400D03*
X-21309200Y-15747600D03*
X-20439200Y-1697600D03*
X15420800Y-6597600D03*
X16460800Y322400D03*
X20810800Y16552400D03*
X1530800Y17352400D03*
X20830800Y6012400D03*
X-8829200Y4812400D03*
X-8069200Y14362400D03*
X3020800Y11352400D03*
X2430800Y-6057600D03*
X2910800Y12862400D03*
X-7329200Y11352400D03*
X-7889200Y-10897600D03*
X-209200Y8702400D03*
X-6839200Y8182400D03*
X-6839200Y-6837600D03*
X2740800Y1852400D03*
X2920800Y13852400D03*
X16070800Y-16967600D03*
X16070800Y-13217600D03*
X4920800Y-13537600D03*
X5490800Y2492400D03*
X4520800Y13352400D03*
X4520800Y7342400D03*
X15530800Y13142400D03*
X16130800Y-3087600D03*
X16150800Y6932400D03*
X-16865600Y4165600D03*
X-16967200Y-18288000D03*
X-16916400Y-7543800D03*
X290800Y9212400D03*
X12010800Y10662400D03*
X12010800Y4272400D03*
X8070800Y-12807600D03*
D21*
X-18262600Y-304800D02*
X-18262600Y3415800D01*
X-21879200Y8814200D02*
X-23325000Y10260000D01*
X-21879200Y7032400D02*
X-21879200Y8814200D01*
X-18262600Y3415800D02*
X-21879200Y7032400D01*
X-17627600Y-304800D02*
X-17627600Y1430800D01*
X-17679200Y1482400D02*
X-17627600Y1430800D01*
X-17679200Y1482400D02*
X-17679200Y7720000D01*
X-18897600Y-5765800D02*
X-18897600Y-7024200D01*
X-18897600Y-7024200D02*
X-18884200Y-7037600D01*
X-13817600Y-304800D02*
X-13817600Y1122400D01*
X-13834200Y1112400D02*
X-13834200Y1122400D01*
X-13827600Y1112400D02*
X-13834200Y1112400D01*
X-13817600Y1122400D02*
X-13827600Y1112400D01*
X-14452600Y-304800D02*
X-14452600Y594000D01*
D22*
X-12547600Y1120800D02*
X-12547600Y-304800D01*
D23*
X-12547600Y1120800D02*
X-12549200Y1122400D01*
D21*
X-13924200Y1122400D02*
X-13834200Y1122400D01*
X-13834200Y1122400D02*
X-12549200Y1122400D01*
X-14452600Y594000D02*
X-13924200Y1122400D01*
D23*
X-18897600Y-304800D02*
X-18897600Y2375800D01*
X-18897600Y2375800D02*
X-18909200Y2387400D01*
X15690800Y14787400D02*
X15690800Y14812400D01*
D21*
X7318440Y-5767600D02*
X7320800Y-5767600D01*
X13280800Y-12197600D02*
X13280800Y-12257600D01*
X-12989200Y3072400D02*
X-12999200Y3072400D01*
X13254120Y489220D02*
X13254120Y1805720D01*
X13889120Y2424080D02*
X13880800Y2432400D01*
X13889120Y2424080D02*
X13889120Y489220D01*
X13254120Y1805720D02*
X13880800Y2432400D01*
X3755960Y-8384540D02*
X3147740Y-8384540D01*
X3147740Y-8384540D02*
X2790800Y-8027600D01*
X9573960Y-11940540D02*
X9573960Y-12554440D01*
X9573960Y-12554440D02*
X9240800Y-12887600D01*
X8385240Y-8387080D02*
X9161320Y-8387080D01*
X9161320Y-8387080D02*
X9170800Y-8377600D01*
X6375400Y-12080280D02*
X3975400Y-12080280D01*
X3975400Y-12080280D02*
X3048120Y-12080280D01*
X2784000Y-12344400D02*
X1981200Y-12344400D01*
X3048120Y-12080280D02*
X2784000Y-12344400D01*
X8809120Y5950220D02*
X8809120Y7454080D01*
X8809120Y7454080D02*
X7660800Y8602400D01*
X15159120Y5950220D02*
X15159120Y7300720D01*
X15159120Y7300720D02*
X15400800Y7542400D01*
X10714120Y7975720D02*
X10720800Y7982400D01*
X10714120Y7975720D02*
X10714120Y5950220D01*
X11349120Y5950220D02*
X11349120Y7634080D01*
X11349120Y7634080D02*
X11340800Y7642400D01*
X13254120Y5950220D02*
X13254120Y7679080D01*
X13254120Y7679080D02*
X13250800Y7682400D01*
X13889120Y5950220D02*
X13889120Y7390720D01*
X13889120Y7390720D02*
X13890800Y7392400D01*
X4460800Y342400D02*
X4460800Y1006400D01*
X4460800Y1006400D02*
X5156200Y1701800D01*
X11349120Y489220D02*
X11349120Y1674080D01*
X10714120Y2309080D02*
X10710800Y2312400D01*
X10714120Y2309080D02*
X10714120Y489220D01*
X11349120Y1674080D02*
X10710800Y2312400D01*
X8809120Y489220D02*
X8809120Y2420720D01*
X8809120Y2420720D02*
X8820800Y2432400D01*
X16611600Y-8242340D02*
X15586060Y-8242340D01*
X15586060Y-8242340D02*
X15580800Y-8247600D01*
X14211600Y-8242340D02*
X13346060Y-8242340D01*
X13157960Y-8430440D02*
X12410440Y-8430440D01*
X13346060Y-8242340D02*
X13157960Y-8430440D01*
X12410440Y-8430440D02*
X11397960Y-8430440D01*
X11397960Y-8430440D02*
X11390800Y-8437600D01*
X-3290000Y10403840D02*
X-3290000Y10781600D01*
X-3290000Y10781600D02*
X-2415200Y11656400D01*
D23*
X-12979200Y-7807600D02*
X-13819200Y-7807600D01*
X-13817600Y-5765800D02*
X-13817600Y-7807600D01*
X-13819200Y-7827600D02*
X-13819200Y-7807600D01*
X-13819200Y-7809200D02*
X-13819200Y-7827600D01*
X-13817600Y-7807600D02*
X-13819200Y-7809200D01*
X-14452600Y-5765800D02*
X-14452600Y-7344200D01*
X-13989200Y-7807600D02*
X-13819200Y-7807600D01*
X-14452600Y-7344200D02*
X-13989200Y-7807600D01*
X-16357600Y-5765800D02*
X-16357600Y-6977600D01*
X-16349200Y-6947600D02*
X-16349200Y-6977600D01*
X-16349200Y-6969200D02*
X-16349200Y-6947600D01*
X-16357600Y-6977600D02*
X-16349200Y-6969200D01*
X-16992600Y-5765800D02*
X-16992600Y-6754200D01*
X-15920200Y-8356600D02*
X-15919200Y-8357600D01*
X-15920200Y-8356600D02*
X-18127800Y-8356600D01*
X-15919200Y-7207600D02*
X-15919200Y-8357600D01*
X-16149200Y-6977600D02*
X-15919200Y-7207600D01*
X-16769200Y-6977600D02*
X-16349200Y-6977600D01*
X-16349200Y-6977600D02*
X-16149200Y-6977600D01*
X-16992600Y-6754200D02*
X-16769200Y-6977600D01*
D21*
X-16357600Y-304800D02*
X-16357600Y-1916000D01*
X-16992600Y-1324200D02*
X-16379200Y-1937600D01*
X-16992600Y-1324200D02*
X-16992600Y-304800D01*
X-16357600Y-1916000D02*
X-16379200Y-1937600D01*
D22*
X-10464800Y-17195800D02*
X-10414000Y-17246600D01*
X-1905000Y-16408400D02*
X-1905000Y-16383000D01*
X-3632200Y-19380200D02*
X-3632200Y-19354800D01*
D21*
X-4046920Y16129000D02*
X-4046920Y17009680D01*
X-4046920Y17009680D02*
X-4038600Y17018000D01*
D22*
X-15679420Y-14099360D02*
X-14759760Y-14099360D01*
X-14759760Y-14099360D02*
X-14757400Y-14097000D01*
X-19941540Y-14061400D02*
X-17541540Y-14061400D01*
X-17541540Y-14061400D02*
X-17503580Y-14099360D01*
X-17503580Y-14099360D02*
X-15679420Y-14099360D01*
D21*
X-15722600Y-304800D02*
X-15722600Y2999000D01*
X-15561000Y3160600D02*
X-15722600Y2999000D01*
X-15561000Y3160600D02*
X-15561000Y4422400D01*
X-24568000Y3937000D02*
X-25865000Y2640000D01*
X-22364700Y3937000D02*
X-24568000Y3937000D01*
X-21717000Y4584700D02*
X-22364700Y3937000D01*
X-15087600Y-304800D02*
X-15087600Y-1916000D01*
X-21376800Y2640000D02*
X-23325000Y2640000D01*
X-21019200Y2282400D02*
X-21376800Y2640000D01*
X-21019200Y-2037600D02*
X-21019200Y2282400D01*
X-20539200Y-2517600D02*
X-21019200Y-2037600D01*
X-15689200Y-2517600D02*
X-20539200Y-2517600D01*
X-15087600Y-1916000D02*
X-15689200Y-2517600D01*
X-13182600Y-304800D02*
X-13182600Y-1911000D01*
X-22046800Y100000D02*
X-23325000Y100000D01*
X-21619200Y-327600D02*
X-22046800Y100000D01*
X-21619200Y-2157600D02*
X-21619200Y-327600D01*
X-20809200Y-2967600D02*
X-21619200Y-2157600D01*
X-14239200Y-2967600D02*
X-20809200Y-2967600D01*
X-13182600Y-1911000D02*
X-14239200Y-2967600D01*
X-23325000Y-2440000D02*
X-22006800Y-2440000D01*
X-13182600Y-3724200D02*
X-13182600Y-5765800D01*
X-13469200Y-3437600D02*
X-13182600Y-3724200D01*
X-21009200Y-3437600D02*
X-13469200Y-3437600D01*
X-22006800Y-2440000D02*
X-21009200Y-3437600D01*
X-15087600Y-5765800D02*
X-15087600Y-4169200D01*
X-22162600Y-3817600D02*
X-23325000Y-4980000D01*
X-15439200Y-3817600D02*
X-22162600Y-3817600D01*
X-15087600Y-4169200D02*
X-15439200Y-3817600D01*
X-24568000Y-6223000D02*
X-25865000Y-7520000D01*
X-22936200Y-6223000D02*
X-24568000Y-6223000D01*
X-21729700Y-5016500D02*
X-22936200Y-6223000D01*
X-15722600Y-4504200D02*
X-16069200Y-4157600D01*
X-15722600Y-5765800D02*
X-15722600Y-4504200D01*
X-21209200Y-5404200D02*
X-23325000Y-7520000D01*
X-21209200Y-4597600D02*
X-21209200Y-5404200D01*
X-20769200Y-4157600D02*
X-21209200Y-4597600D01*
X-16069200Y-4157600D02*
X-20769200Y-4157600D01*
X-17627600Y-5765800D02*
X-17627600Y-4779200D01*
X-21819200Y-8554200D02*
X-23325000Y-10060000D01*
X-21819200Y-6907600D02*
X-21819200Y-8554200D01*
X-20729200Y-5817600D02*
X-21819200Y-6907600D01*
X-20729200Y-4867600D02*
X-20729200Y-5817600D01*
X-20429200Y-4567600D02*
X-20729200Y-4867600D01*
X-17839200Y-4567600D02*
X-20429200Y-4567600D01*
X-17627600Y-4779200D02*
X-17839200Y-4567600D01*
X-19219200Y-7862600D02*
X-18919200Y-7562600D01*
X-18262600Y-7266000D02*
X-18262600Y-5765800D01*
X-18559200Y-7562600D02*
X-18262600Y-7266000D01*
X-18919200Y-7562600D02*
X-18559200Y-7562600D01*
X-21309200Y-10584200D02*
X-23325000Y-12600000D01*
X-21309200Y-10097600D02*
X-21309200Y-10584200D01*
X-20709200Y-9497600D02*
X-21309200Y-10097600D01*
X-19779200Y-9497600D02*
X-20709200Y-9497600D01*
X-19219200Y-8937600D02*
X-19779200Y-9497600D01*
X-19219200Y-7857600D02*
X-19219200Y-7862600D01*
X-19219200Y-7862600D02*
X-19219200Y-8937600D01*
D22*
X-23325000Y-15140000D02*
X-21972600Y-15140000D01*
X-21844000Y-15011400D02*
X-19941540Y-15011400D01*
X-21972600Y-15140000D02*
X-21844000Y-15011400D01*
D21*
X9444120Y5950220D02*
X9444120Y8785720D01*
X24607400Y13792400D02*
X25875000Y15060000D01*
X22500800Y13792400D02*
X24607400Y13792400D01*
X21750800Y13042400D02*
X22500800Y13792400D01*
X21750800Y11632400D02*
X21750800Y13042400D01*
X20280800Y10162400D02*
X21750800Y11632400D01*
X10820800Y10162400D02*
X20280800Y10162400D01*
X9444120Y8785720D02*
X10820800Y10162400D01*
X10079120Y5950220D02*
X10079120Y8360720D01*
X24647400Y11292400D02*
X25875000Y12520000D01*
X22630800Y11292400D02*
X24647400Y11292400D01*
X20800800Y9462400D02*
X22630800Y11292400D01*
X11180800Y9462400D02*
X20800800Y9462400D01*
X10079120Y8360720D02*
X11180800Y9462400D01*
X11984120Y5950220D02*
X11984120Y8265720D01*
X24617400Y8722400D02*
X25875000Y9980000D01*
X12440800Y8722400D02*
X24617400Y8722400D01*
X11984120Y8265720D02*
X12440800Y8722400D01*
X12619120Y5950220D02*
X12619120Y7830720D01*
X16400800Y8222400D02*
X17430800Y7192400D01*
X13010800Y8222400D02*
X16400800Y8222400D01*
X12619120Y7830720D02*
X13010800Y8222400D01*
X17430800Y7192400D02*
X17440800Y7192400D01*
X14524120Y5950220D02*
X14524120Y4659080D01*
X16791940Y4763540D02*
X16791940Y6611620D01*
X16390800Y4362400D02*
X16791940Y4763540D01*
X14820800Y4362400D02*
X16390800Y4362400D01*
X14524120Y4659080D02*
X14820800Y4362400D01*
X24587560Y6187440D02*
X25875000Y4900000D01*
X22219920Y6187440D02*
X24587560Y6187440D01*
X21795740Y6611620D02*
X22219920Y6187440D01*
X16791940Y6611620D02*
X21795740Y6611620D01*
X14524120Y489220D02*
X14524120Y-430920D01*
X24602600Y3632400D02*
X25875000Y2360000D01*
X22280800Y3632400D02*
X24602600Y3632400D01*
X21210800Y2562400D02*
X22280800Y3632400D01*
X21210800Y1282400D02*
X21210800Y2562400D01*
X19260800Y-667600D02*
X21210800Y1282400D01*
X14760800Y-667600D02*
X19260800Y-667600D01*
X14524120Y-430920D02*
X14760800Y-667600D01*
X12619120Y489220D02*
X12619120Y-795920D01*
X24572600Y1122400D02*
X25875000Y-180000D01*
X22570800Y1122400D02*
X24572600Y1122400D01*
X20390800Y-1057600D02*
X22570800Y1122400D01*
X12880800Y-1057600D02*
X20390800Y-1057600D01*
X12619120Y-795920D02*
X12880800Y-1057600D01*
X25875000Y-2720000D02*
X25875000Y-2701800D01*
X25875000Y-2701800D02*
X24620800Y-1447600D01*
X11984120Y-1070920D02*
X11984120Y489220D01*
X12360800Y-1447600D02*
X11984120Y-1070920D01*
X24620800Y-1447600D02*
X12360800Y-1447600D01*
X16791940Y-3639820D02*
X10583020Y-3639820D01*
X10079120Y-3135920D02*
X10079120Y489220D01*
X10583020Y-3639820D02*
X10079120Y-3135920D01*
X24582480Y-3967480D02*
X25875000Y-5260000D01*
X22301200Y-3967480D02*
X24582480Y-3967480D01*
X21973540Y-3639820D02*
X22301200Y-3967480D01*
X16791940Y-3639820D02*
X21973540Y-3639820D01*
X25875000Y-7800000D02*
X25875000Y-7781800D01*
X25875000Y-7781800D02*
X24580800Y-6487600D01*
X9444120Y-4320920D02*
X9444120Y489220D01*
X10200800Y-5077600D02*
X9444120Y-4320920D01*
X17070800Y-5077600D02*
X10200800Y-5077600D01*
X18480800Y-6487600D02*
X17070800Y-5077600D01*
X24580800Y-6487600D02*
X18480800Y-6487600D01*
X16611600Y-7292340D02*
X20625540Y-7292340D01*
X24572600Y-9037600D02*
X25875000Y-10340000D01*
X22370800Y-9037600D02*
X24572600Y-9037600D01*
X20625540Y-7292340D02*
X22370800Y-9037600D01*
D23*
X-219520Y-15637600D02*
X-8684200Y-15637600D01*
X860640Y-14557440D02*
X-219520Y-15637600D01*
X23335000Y-12880000D02*
X21653200Y-12880000D01*
X18660800Y-9887600D02*
X12165800Y-9887600D01*
X21653200Y-12880000D02*
X18660800Y-9887600D01*
X14115800Y17162400D02*
X9140800Y17162400D01*
X15715800Y17162400D02*
X14115800Y17162400D01*
X19415800Y17162400D02*
X15715800Y17162400D01*
X-5879200Y1162400D02*
X-8309200Y1162400D01*
X-5109200Y1932400D02*
X-5879200Y1162400D01*
X-11459200Y15287400D02*
X-18834200Y15287400D01*
X-18458000Y-15961400D02*
X-18459200Y-15962600D01*
X-18458000Y-15961400D02*
X-17541540Y-15961400D01*
X-18827450Y9569150D02*
X-18834200Y9562400D01*
X6115800Y-8462600D02*
X5334020Y-8462600D01*
X5334020Y-8462600D02*
X5255960Y-8384540D01*
X12378280Y-6262600D02*
X11390800Y-6262600D01*
X12378280Y-6262600D02*
X12410440Y-6230440D01*
X-3934200Y18087400D02*
X-2484200Y18087400D01*
X-11459200Y15287400D02*
X-6734200Y15287400D01*
X-6734200Y15287400D02*
X-3934200Y18087400D01*
X-2484200Y18087400D02*
X3740800Y18087400D01*
X3740800Y18087400D02*
X4665800Y17162400D01*
X4665800Y17162400D02*
X9140800Y17162400D01*
D21*
X3975400Y-10180280D02*
X4858120Y-10180280D01*
X5255960Y-9782440D02*
X5255960Y-8384540D01*
X4858120Y-10180280D02*
X5255960Y-9782440D01*
X14211600Y-6342340D02*
X13335540Y-6342340D01*
X13223640Y-6230440D02*
X12410440Y-6230440D01*
X13335540Y-6342340D02*
X13223640Y-6230440D01*
X-1790000Y10403840D02*
X-1790000Y9763200D01*
X-1790000Y9763200D02*
X-1709200Y9682400D01*
X-1709200Y9682400D02*
X-1709200Y9212400D01*
X-2463800Y16967200D02*
X-2463800Y16212120D01*
X-2463800Y16212120D02*
X-2546920Y16129000D01*
D23*
X-17541540Y-15961400D02*
X-16677600Y-15961400D01*
X-16677600Y-15961400D02*
X-16339640Y-16299360D01*
X-16339640Y-16299360D02*
X-15679420Y-16299360D01*
D24*
X-19659200Y17637400D02*
X-13374200Y17637400D01*
X-13374200Y17637400D02*
X-13354800Y17656800D01*
X-26534200Y17662400D02*
X-19684200Y17662400D01*
X-19684200Y17662400D02*
X-19659200Y17637400D01*
D22*
X-26528600Y17656800D02*
X-26534200Y17662400D01*
D21*
X-17599200Y8722400D02*
X-19119200Y7202400D01*
X-4359200Y8722400D02*
X-17599200Y8722400D01*
X4900800Y-907600D02*
X-4359200Y-907600D01*
X4900800Y-907600D02*
X6150800Y342400D01*
X-19119200Y7202400D02*
X-19659200Y7202400D01*
X6660800Y342400D02*
X6150800Y342400D01*
X-10369200Y16654600D02*
X-10369200Y16662400D01*
X6660800Y342400D02*
X7520800Y342400D01*
X7667620Y489220D02*
X8174120Y489220D01*
X7520800Y342400D02*
X7667620Y489220D01*
D23*
X-19532600Y-5765800D02*
X-19532600Y-6921000D01*
X-19532600Y-6921000D02*
X-19889200Y-7277600D01*
X-20327800Y-7716200D02*
X-20327800Y-8356600D01*
X-19889200Y-7277600D02*
X-20327800Y-7716200D01*
D21*
X10060800Y-18327600D02*
X4760800Y-18327600D01*
X-14781600Y-17680000D02*
X-23325000Y-17680000D01*
X-13399200Y-16297600D02*
X-14781600Y-17680000D01*
X-3329200Y-16297600D02*
X-13399200Y-16297600D01*
X-1969200Y-17657600D02*
X-3329200Y-16297600D01*
X4090800Y-17657600D02*
X-1969200Y-17657600D01*
X4760800Y-18327600D02*
X4090800Y-17657600D01*
X-10689200Y-12817600D02*
X-21069200Y-12817600D01*
X-24599200Y-16414200D02*
X-24599200Y-14577600D01*
X-24599200Y-14577600D02*
X-23859200Y-13837600D01*
X-23859200Y-13837600D02*
X-22089200Y-13837600D01*
X-22089200Y-13837600D02*
X-21069200Y-12817600D01*
X-25865000Y-17680000D02*
X-24599200Y-16414200D01*
X1290800Y4452400D02*
X4440800Y4452400D01*
X1020800Y4182400D02*
X1290800Y4452400D01*
X-2119200Y4182400D02*
X1020800Y4182400D01*
X-2849200Y3452400D02*
X-2119200Y4182400D01*
X-10689200Y3452400D02*
X-2849200Y3452400D01*
X-1669200Y-3907600D02*
X200800Y-3907600D01*
X4170800Y-2887600D02*
X6030800Y-1027600D01*
X1220800Y-2887600D02*
X4170800Y-2887600D01*
X200800Y-3907600D02*
X1220800Y-2887600D01*
X-9279200Y-2937600D02*
X-3959200Y-2937600D01*
X-2989200Y-3907600D02*
X-1669200Y-3907600D01*
X-3959200Y-2937600D02*
X-2989200Y-3907600D01*
D22*
X6020800Y-1037600D02*
X6020800Y-1057600D01*
X6030800Y-1027600D02*
X6020800Y-1037600D01*
D21*
X14690800Y14712400D02*
X2910800Y14712400D01*
X2910800Y14712400D02*
X2905800Y14707400D01*
X2905800Y14707400D02*
X2260800Y14062400D01*
X2260800Y14062400D02*
X-4581200Y14062400D01*
X-4581200Y14062400D02*
X-5283200Y13360400D01*
X1290800Y12122400D02*
X3110800Y10302400D01*
X-3279200Y12122400D02*
X1290800Y12122400D01*
X-4047800Y11353800D02*
X-3279200Y12122400D01*
X6900800Y10302400D02*
X3110800Y10302400D01*
X-5257800Y11353800D02*
X-4047800Y11353800D01*
X-9919200Y5582400D02*
X-4349200Y5582400D01*
X-4349200Y5582400D02*
X-3559200Y4792400D01*
X-3559200Y4792400D02*
X-2139200Y4792400D01*
X-2139200Y4792400D02*
X-1249200Y5682400D01*
X-1249200Y5682400D02*
X1620800Y5682400D01*
X1620800Y5682400D02*
X2460800Y6522400D01*
X2460800Y6522400D02*
X6900800Y6522400D01*
X-10829200Y4672400D02*
X-9919200Y5582400D01*
X5630800Y-16917600D02*
X14010800Y-16917600D01*
X15053200Y-17960000D02*
X23335000Y-17960000D01*
X14010800Y-16917600D02*
X15053200Y-17960000D01*
D24*
X-24079200Y22504400D02*
X-24079200Y22479000D01*
D21*
X-1611600Y18777400D02*
X-3564200Y20730000D01*
X10165800Y18777400D02*
X-1611600Y18777400D01*
X13125800Y21737400D02*
X10165800Y18777400D01*
X14190800Y21737400D02*
X13125800Y21737400D01*
X168400Y19537400D02*
X-1024200Y20730000D01*
X4835800Y19537400D02*
X168400Y19537400D01*
X7585800Y22287400D02*
X4835800Y19537400D01*
X15690800Y22287400D02*
X7585800Y22287400D01*
D24*
X-18709200Y22037400D02*
X1215800Y22037400D01*
D22*
X-19034200Y21712400D02*
X-18709200Y22037400D01*
X-19034200Y20730000D02*
X-19034200Y21712400D01*
D24*
X1515800Y21737400D02*
X1515800Y20730000D01*
X1215800Y22037400D02*
X1515800Y21737400D01*
X-19034200Y23270000D02*
X-19034200Y24187400D01*
X1515800Y24262400D02*
X1515800Y23270000D01*
X1365800Y24412400D02*
X1515800Y24262400D01*
X-18809200Y24412400D02*
X1365800Y24412400D01*
X-19034200Y24187400D02*
X-18809200Y24412400D01*
X-18999200Y22504400D02*
X-18973800Y22504400D01*
D21*
X-14649200Y6492400D02*
X-709200Y6492400D01*
X-15499200Y5642400D02*
X-14649200Y6492400D01*
X-13716000Y-10058400D02*
X-7038400Y-10058400D01*
X17260800Y-13017600D02*
X19340800Y-13017600D01*
X15890800Y-14387600D02*
X17260800Y-13017600D01*
X4790800Y-14387600D02*
X15890800Y-14387600D01*
X3420800Y-13017600D02*
X4790800Y-14387600D01*
X-4079200Y-13017600D02*
X3420800Y-13017600D01*
X-7038400Y-10058400D02*
X-4079200Y-13017600D01*
X-14309200Y1982400D02*
X-13794200Y2497400D01*
X-13794200Y2497400D02*
X-4119200Y2497400D01*
X18740800Y2402400D02*
X18150800Y2402400D01*
X17520800Y3032400D02*
X18150800Y2402400D01*
X2980800Y3032400D02*
X17520800Y3032400D01*
X1750800Y1802400D02*
X2980800Y3032400D01*
X-3424200Y1802400D02*
X1750800Y1802400D01*
X-4119200Y2497400D02*
X-3424200Y1802400D01*
X3630800Y13362400D02*
X4430800Y12562400D01*
X1460800Y13362400D02*
X3630800Y13362400D01*
X1150800Y13672400D02*
X1460800Y13362400D01*
X-3159200Y13672400D02*
X1150800Y13672400D01*
X-3975200Y12856400D02*
X-3159200Y13672400D01*
X-6719200Y12856400D02*
X-3975200Y12856400D01*
X17180800Y12802400D02*
X18100800Y12802400D01*
X16940800Y12562400D02*
X17180800Y12802400D01*
X4430800Y12562400D02*
X16940800Y12562400D01*
X-13059200Y-8577600D02*
X-3659200Y-8577600D01*
X-15009200Y-18367600D02*
X-409200Y-18367600D01*
X-3225800Y15554000D02*
X-3034200Y15362400D01*
X-3034200Y15362400D02*
X21540800Y15362400D01*
X-3225800Y17373600D02*
X-3225800Y15554000D01*
X830800Y17442400D02*
X830800Y16552400D01*
X1490800Y15892400D02*
X20300800Y15892400D01*
X830800Y16552400D02*
X1490800Y15892400D01*
X-539200Y3582400D02*
X-1219200Y2902400D01*
X3230800Y3582400D02*
X-539200Y3582400D01*
X-19941540Y-15961400D02*
X-19533000Y-15961400D01*
X-19533000Y-15961400D02*
X-18699200Y-15127600D01*
X-18699200Y-15127600D02*
X-11809200Y-15127600D01*
X15180800Y3692400D02*
X8170800Y3692400D01*
X7540800Y4322400D02*
X8160800Y3702400D01*
X7540800Y5962400D02*
X7540800Y4322400D01*
X8170800Y3692400D02*
X8160800Y3702400D01*
X-11809200Y-5767600D02*
X-659200Y-5767600D01*
X-11811000Y-5765800D02*
X-11809200Y-5767600D01*
X-12547600Y-5765800D02*
X-11811000Y-5765800D01*
X14770800Y-7247600D02*
X15420800Y-6597600D01*
X820800Y-7247600D02*
X14770800Y-7247600D01*
X-659200Y-5767600D02*
X820800Y-7247600D01*
X-21095400Y-15961400D02*
X-19941540Y-15961400D01*
X-21095400Y-15961400D02*
X-21309200Y-15747600D01*
X-19532600Y-791000D02*
X-20439200Y-1697600D01*
X-19532600Y-304800D02*
X-19532600Y-791000D01*
X7552980Y5950220D02*
X7540800Y5962400D01*
X8174120Y5950220D02*
X7552980Y5950220D01*
X15676060Y-6342340D02*
X15420800Y-6597600D01*
X15676060Y-6342340D02*
X16611600Y-6342340D01*
X15159120Y489220D02*
X16293980Y489220D01*
X16293980Y489220D02*
X16460800Y322400D01*
X3390800Y17352400D02*
X4190800Y16552400D01*
X4190800Y16552400D02*
X20810800Y16552400D01*
X1530800Y17352400D02*
X3390800Y17352400D01*
X-6149200Y11352400D02*
X-5009200Y12492400D01*
X-7329200Y11352400D02*
X-6149200Y11352400D01*
X2540800Y12492400D02*
X2910800Y12862400D01*
X-5009200Y12492400D02*
X2540800Y12492400D01*
X-7889200Y-10897600D02*
X-7899200Y-10897600D01*
X-6839200Y8182400D02*
X-729200Y8182400D01*
X-209200Y8702400D02*
X-729200Y8182400D01*
X6375400Y-10180280D02*
X6375400Y-9553000D01*
X6885240Y-9043160D02*
X6885240Y-8387080D01*
X6375400Y-9553000D02*
X6885240Y-9043160D01*
X6330800Y-13537600D02*
X6650800Y-13857600D01*
X6650800Y-13857600D02*
X13790800Y-13857600D01*
X13790800Y-13857600D02*
X14430800Y-13217600D01*
X14430800Y-13217600D02*
X16070800Y-13217600D01*
X4920800Y-13537600D02*
X6330800Y-13537600D01*
X-15519200Y7342400D02*
X4520800Y7342400D01*
X-16865600Y5996000D02*
X-15519200Y7342400D01*
X-16865600Y5996000D02*
X-16865600Y4165600D01*
X16150800Y6932400D02*
X16170800Y6932400D01*
X6375400Y-11130280D02*
X7028120Y-11130280D01*
X7487860Y-10670540D02*
X8073960Y-10670540D01*
X7028120Y-11130280D02*
X7487860Y-10670540D01*
X12010800Y10662400D02*
X10650800Y10662400D01*
X830800Y9752400D02*
X9720800Y9752400D01*
X9720800Y9752400D02*
X10640800Y10672400D01*
X290800Y9212400D02*
X830800Y9752400D01*
X10650800Y10662400D02*
X10640800Y10672400D01*
X8073960Y-11940540D02*
X8587860Y-11940540D01*
X9047860Y-10670540D02*
X9573960Y-10670540D01*
X8860800Y-10857600D02*
X9047860Y-10670540D01*
X8860800Y-11667600D02*
X8860800Y-10857600D01*
X8587860Y-11940540D02*
X8860800Y-11667600D01*
X8073960Y-11940540D02*
X8073960Y-12804440D01*
X8073960Y-12804440D02*
X8070800Y-12807600D01*
M02*
