G04 #@! TF.FileFunction,Copper,L3,Inr,Signal*
%FSLAX46Y46*%
G04 Gerber Fmt 4.6, Leading zero omitted, Abs format (unit mm)*
G04 Created by KiCad (PCBNEW 4.0.1-stable) date 5/8/2017 10:12:06 PM*
%MOMM*%
G01*
G04 APERTURE LIST*
%ADD10C,0.100000*%
%ADD11R,1.700000X1.700000*%
%ADD12O,1.700000X1.700000*%
%ADD13C,1.397000*%
%ADD14C,0.457200*%
%ADD15C,0.508000*%
%ADD16C,0.254000*%
%ADD17C,0.177800*%
%ADD18C,0.203200*%
%ADD19C,0.152400*%
G04 APERTURE END LIST*
D10*
D11*
X25875000Y17600000D03*
D12*
X23335000Y17600000D03*
X25875000Y15060000D03*
X23335000Y15060000D03*
X25875000Y12520000D03*
X23335000Y12520000D03*
X25875000Y9980000D03*
X23335000Y9980000D03*
X25875000Y7440000D03*
X23335000Y7440000D03*
X25875000Y4900000D03*
X23335000Y4900000D03*
X25875000Y2360000D03*
X23335000Y2360000D03*
X25875000Y-180000D03*
X23335000Y-180000D03*
X25875000Y-2720000D03*
X23335000Y-2720000D03*
X25875000Y-5260000D03*
X23335000Y-5260000D03*
X25875000Y-7800000D03*
X23335000Y-7800000D03*
X25875000Y-10340000D03*
X23335000Y-10340000D03*
X25875000Y-12880000D03*
X23335000Y-12880000D03*
X25875000Y-15420000D03*
X23335000Y-15420000D03*
X25875000Y-17960000D03*
X23335000Y-17960000D03*
D11*
X-23325000Y12800000D03*
D12*
X-25865000Y12800000D03*
X-23325000Y10260000D03*
X-25865000Y10260000D03*
X-23325000Y7720000D03*
X-25865000Y7720000D03*
X-23325000Y5180000D03*
X-25865000Y5180000D03*
X-23325000Y2640000D03*
X-25865000Y2640000D03*
X-23325000Y100000D03*
X-25865000Y100000D03*
X-23325000Y-2440000D03*
X-25865000Y-2440000D03*
X-23325000Y-4980000D03*
X-25865000Y-4980000D03*
X-23325000Y-7520000D03*
X-25865000Y-7520000D03*
X-23325000Y-10060000D03*
X-25865000Y-10060000D03*
X-23325000Y-12600000D03*
X-25865000Y-12600000D03*
X-23325000Y-15140000D03*
X-25865000Y-15140000D03*
X-23325000Y-17680000D03*
X-25865000Y-17680000D03*
D13*
X12217400Y-18415000D03*
D14*
X-965200Y14556400D03*
X-2415200Y14556400D03*
X-2415200Y11656400D03*
X-2415200Y13106400D03*
X-965200Y13106400D03*
X534800Y11606400D03*
X-965200Y11656400D03*
X484800Y13106400D03*
X534800Y14606400D03*
D13*
X24663400Y22733000D03*
D11*
X-26654200Y20730000D03*
D12*
X-26654200Y23270000D03*
X-24114200Y20730000D03*
X-24114200Y23270000D03*
X-21574200Y20730000D03*
X-21574200Y23270000D03*
X-19034200Y20730000D03*
X-19034200Y23270000D03*
X-16494200Y20730000D03*
X-16494200Y23270000D03*
D11*
X-6104200Y20730000D03*
D12*
X-6104200Y23270000D03*
X-3564200Y20730000D03*
X-3564200Y23270000D03*
X-1024200Y20730000D03*
X-1024200Y23270000D03*
X1515800Y20730000D03*
X1515800Y23270000D03*
X4055800Y20730000D03*
X4055800Y23270000D03*
D15*
X-17679200Y7720000D03*
X-1149200Y-3277600D03*
X20815800Y-4762600D03*
X-18884200Y-7037600D03*
X-12549200Y1122400D03*
X18615800Y19987400D03*
X-18909200Y2387400D03*
X15690800Y14787400D03*
X16815800Y20887400D03*
X13520800Y-1947600D03*
X10710800Y2312400D03*
X11530800Y-2547600D03*
X20870800Y5122400D03*
X3570800Y-1857600D03*
X7318440Y-5767600D03*
X-949200Y-7537600D03*
X2750800Y-18927600D03*
X13280800Y-12197600D03*
X-12989200Y3072400D03*
X13880800Y2432400D03*
X2790800Y-8027600D03*
X9240800Y-12887600D03*
X7210800Y-13227600D03*
X9170800Y-8377600D03*
X1981200Y-12344400D03*
X7660800Y8602400D03*
X11170800Y11672400D03*
X15400800Y7542400D03*
X10720800Y7982400D03*
X11340800Y7642400D03*
X13250800Y7682400D03*
X13890800Y7392400D03*
X5156200Y1701800D03*
X8820800Y2432400D03*
X6060800Y-2527600D03*
X15580800Y-8247600D03*
X11390800Y-8437600D03*
X20090800Y-15757600D03*
X-13069200Y-17287600D03*
X-12979200Y-7807600D03*
X-15919200Y-8357600D03*
X-16379200Y-1937600D03*
X-9626600Y8026400D03*
X-4165600Y-4140200D03*
X-10464800Y-17195800D03*
X-1905000Y-16408400D03*
X-3632200Y-19380200D03*
X-4038600Y17018000D03*
X-12406800Y17631200D03*
X-20447000Y279400D03*
X-20421600Y-10312400D03*
X-14757400Y-14097000D03*
X-6629400Y-17449800D03*
X-9435000Y13745000D03*
X-12559200Y12551200D03*
X-24257000Y16840200D03*
X787400Y-4749800D03*
X812800Y-6070600D03*
X-7340600Y-7416800D03*
X-9601200Y-11074400D03*
X-4292600Y-7442200D03*
X-3403600Y-9855200D03*
X3810000Y5410200D03*
X-1219200Y-304800D03*
X762000Y2286000D03*
X-2387600Y5588000D03*
X-5130800Y4673600D03*
X-8638540Y-2278380D03*
X-9923780Y-2280920D03*
X-20751800Y8318500D03*
X-15561000Y4422400D03*
X-21717000Y4584700D03*
X-21729700Y-5016500D03*
X17430800Y7192400D03*
X16791940Y6611620D03*
X16791940Y-3639820D03*
X860640Y-14557440D03*
X14115800Y17162400D03*
X19415800Y17162400D03*
X15715800Y17162400D03*
X15190800Y21737400D03*
X12165800Y2137400D03*
X-8309200Y1162400D03*
X-5109200Y1932400D03*
X-8684200Y-7887600D03*
X-8684200Y-15637600D03*
X-18834200Y15287400D03*
X-18459200Y-15962600D03*
X-18259200Y-9987600D03*
X-18859200Y-1937600D03*
X-18827450Y9569150D03*
X-2484200Y18087400D03*
X6115800Y-8462600D03*
X11390800Y-6262600D03*
X6615800Y-6587600D03*
X9140800Y17162400D03*
X6215800Y-18812600D03*
X14115800Y11687400D03*
X12165800Y-9887600D03*
X-11459200Y15287400D03*
X-1709200Y9212400D03*
X-2463800Y16967200D03*
X-13354800Y17656800D03*
X-19659200Y17637400D03*
X-19889200Y-7277600D03*
X-26534200Y17662400D03*
X-4359200Y-907600D03*
X-4359200Y8722400D03*
X-19659200Y7202400D03*
X-10369200Y16654600D03*
X10060800Y-18327600D03*
X10063000Y10992400D03*
X3730800Y11862400D03*
X3940800Y-4077600D03*
X-10689200Y-12817600D03*
X4440800Y4452400D03*
X-10689200Y3452400D03*
X-1669200Y-14127600D03*
X-1669200Y-3907600D03*
X-9279200Y-2937600D03*
X6030800Y-1027600D03*
X6030800Y14192400D03*
X14690800Y20012400D03*
X14690800Y14712400D03*
X-5283200Y13360400D03*
X6900800Y10302400D03*
X-5257800Y11353800D03*
X6900800Y6522400D03*
X-10829200Y4672400D03*
X6900800Y5002400D03*
X5630800Y-16917600D03*
X5120800Y-4107600D03*
X14190800Y21737400D03*
X-8579200Y10812400D03*
X15690800Y22287400D03*
X-7384200Y23837400D03*
X-6039200Y10062400D03*
X2090800Y16412400D03*
X2940800Y16387400D03*
X1290800Y9182400D03*
X2630800Y-15817600D03*
X780800Y8682400D03*
X1370800Y-16347600D03*
X-709200Y9182400D03*
X-709200Y6492400D03*
X-15499200Y5642400D03*
X-13614400Y10312400D03*
X-13659200Y1612400D03*
X19340800Y-13017600D03*
X19330800Y-8537600D03*
X19390800Y362400D03*
X19390800Y12772400D03*
X-13716000Y-10058400D03*
X-14351000Y-9728200D03*
X-14249400Y10642600D03*
X-14309200Y1982400D03*
X18740800Y13072400D03*
X18690800Y-8237600D03*
X18740800Y2402400D03*
X-15011400Y-10058400D03*
X-14959200Y1232400D03*
X-14909800Y10312400D03*
X-6719200Y12856400D03*
X18030800Y-8487600D03*
X18090800Y352400D03*
X18100800Y12802400D03*
X-5257800Y14859000D03*
X-13059200Y-8577600D03*
X-3659200Y-8577600D03*
X-15009200Y-18367600D03*
X-409200Y-18367600D03*
X-2719200Y9202400D03*
X21540800Y15362400D03*
X-3225800Y17373600D03*
X21550800Y-4517600D03*
X830800Y17442400D03*
X20300800Y15892400D03*
X20730800Y-16907600D03*
X160800Y-17037600D03*
X-1219200Y2902400D03*
X-1219200Y8712400D03*
X3230800Y3582400D03*
X4890800Y-15127600D03*
X4890800Y-17537600D03*
X-11809200Y-5767600D03*
X-11809200Y-15127600D03*
X15180800Y3692400D03*
X7540800Y5962400D03*
X8280800Y10862400D03*
X-21309200Y-15747600D03*
X-20439200Y-1697600D03*
X15420800Y-6597600D03*
X16460800Y322400D03*
X20810800Y16552400D03*
X1530800Y17352400D03*
X20830800Y6012400D03*
X-8829200Y4812400D03*
X-8069200Y14362400D03*
X3020800Y11352400D03*
X2430800Y-6057600D03*
X2910800Y12862400D03*
X-7329200Y11352400D03*
X-7889200Y-10897600D03*
X-209200Y8702400D03*
X-6839200Y8182400D03*
X-6839200Y-6837600D03*
X2740800Y1852400D03*
X2920800Y13852400D03*
X16070800Y-16967600D03*
X16070800Y-13217600D03*
X4920800Y-13537600D03*
X5490800Y2492400D03*
X4520800Y13352400D03*
X4520800Y7342400D03*
X15530800Y13142400D03*
X16130800Y-3087600D03*
X16150800Y6932400D03*
X-16865600Y4165600D03*
X-16967200Y-18288000D03*
X-16916400Y-7543800D03*
X290800Y9212400D03*
X12010800Y10662400D03*
X12010800Y4272400D03*
X8070800Y-12807600D03*
D16*
X-8309200Y1162400D02*
X-7909200Y762400D01*
X-8684200Y-3637600D02*
X-8684200Y-7887600D01*
X-7909200Y-2862600D02*
X-8684200Y-3637600D01*
X-7909200Y-2212600D02*
X-7909200Y-2862600D01*
X-7909200Y762400D02*
X-7909200Y-2212600D01*
X-8309200Y1162400D02*
X-9759200Y2612400D01*
X-11459200Y7537400D02*
X-11459200Y15287400D01*
X-9759200Y5837400D02*
X-9759200Y2612400D01*
X-11459200Y7537400D02*
X-9759200Y5837400D01*
X14115800Y17162400D02*
X14115800Y11687400D01*
X15190800Y20862400D02*
X15715800Y20337400D01*
X15715800Y20337400D02*
X15715800Y17162400D01*
X15190800Y21737400D02*
X15190800Y20862400D01*
X12165800Y2137400D02*
X12165800Y-6262600D01*
X12165800Y2887400D02*
X12165800Y2137400D01*
X12165800Y2887400D02*
X12640800Y3362400D01*
X12640800Y3362400D02*
X12640800Y8712400D01*
X12640800Y8712400D02*
X14115800Y10187400D01*
X14115800Y11687400D02*
X14115800Y10187400D01*
X-8684200Y-7887600D02*
X-8684200Y-15637600D01*
X-18827450Y15280650D02*
X-18834200Y15287400D01*
X-18827450Y15280650D02*
X-18827450Y9569150D01*
X-18259200Y-9987600D02*
X-18259200Y-13987600D01*
X-18459200Y-14187600D02*
X-18459200Y-15962600D01*
X-18259200Y-13987600D02*
X-18459200Y-14187600D01*
X-18859200Y-1937600D02*
X-18859200Y-4287600D01*
X-18259200Y-4887600D02*
X-18259200Y-9987600D01*
X-18859200Y-4287600D02*
X-18259200Y-4887600D01*
X-18827450Y9569150D02*
X-18827450Y3555650D01*
X-18827450Y3555650D02*
X-18084200Y2812400D01*
X-18084200Y2812400D02*
X-18084200Y-1162600D01*
X-18084200Y-1162600D02*
X-18859200Y-1937600D01*
X-2463800Y16967200D02*
X-2463800Y16392000D01*
X-1709200Y15637400D02*
X-1709200Y9212400D01*
X-2463800Y16392000D02*
X-1709200Y15637400D01*
X-2484200Y18087400D02*
X-2484200Y16987600D01*
X-2484200Y16987600D02*
X-2463800Y16967200D01*
X11390800Y-6262600D02*
X12165800Y-6262600D01*
X9140800Y17162400D02*
X9140800Y4587400D01*
X6615800Y-3687600D02*
X6615800Y-6587600D01*
X7965800Y-2337600D02*
X6615800Y-3687600D01*
X7965800Y3412400D02*
X7965800Y-2337600D01*
X9140800Y4587400D02*
X7965800Y3412400D01*
X6615800Y-6587600D02*
X6615800Y-7012600D01*
X6615800Y-7012600D02*
X6115800Y-7512600D01*
X6115800Y-7512600D02*
X6115800Y-8462600D01*
X6115800Y-8462600D02*
X6115800Y-11462600D01*
X6115800Y-11462600D02*
X6215800Y-11562600D01*
X6215800Y-11562600D02*
X6215800Y-18812600D01*
X12165800Y-9887600D02*
X12165800Y-6262600D01*
D17*
X-6104200Y20730000D02*
X-6104200Y23270000D01*
D18*
X-26654200Y23270000D02*
X-26654200Y20730000D01*
D19*
X-19659200Y17637400D02*
X-19659200Y7202400D01*
X-19659200Y7202400D02*
X-19659200Y-3177600D01*
X-19889200Y-3407600D02*
X-19659200Y-3177600D01*
X-19889200Y-3407600D02*
X-19889200Y-7277600D01*
X-4359200Y8722400D02*
X-4359200Y-907600D01*
X10063000Y-18325400D02*
X10060800Y-18327600D01*
X10063000Y10992400D02*
X10063000Y-18325400D01*
X3730800Y6652400D02*
X4440800Y5942400D01*
X3730800Y11862400D02*
X3730800Y6652400D01*
X4440800Y4452400D02*
X4440800Y-2537600D01*
X4440800Y-2537600D02*
X3940800Y-3037600D01*
X3940800Y-3037600D02*
X3940800Y-4077600D01*
X4440800Y4452400D02*
X4440800Y5942400D01*
X-10689200Y-12817600D02*
X-10689200Y3452400D01*
X6030800Y-1027600D02*
X6030800Y14192400D01*
X-1669200Y-3907600D02*
X-1669200Y-14117600D01*
X14690800Y14712400D02*
X14690800Y20012400D01*
X5120800Y-4107600D02*
X5120800Y-2667600D01*
X6900800Y-887600D02*
X6900800Y5002400D01*
X5120800Y-2667600D02*
X6900800Y-887600D01*
X6900800Y6522400D02*
X6900800Y10302400D01*
X6900800Y5002400D02*
X6900800Y6522400D01*
X5120800Y-4107600D02*
X5120800Y-11067600D01*
X5120800Y-11067600D02*
X5630800Y-11577600D01*
X5630800Y-11577600D02*
X5630800Y-16917600D01*
X-8579200Y10812400D02*
X-8579200Y24412400D01*
X-8579200Y24412400D02*
X-8584200Y24412400D01*
D17*
X-3564200Y20730000D02*
X-3564200Y23270000D01*
X-24114200Y23270000D02*
X-24114200Y24132400D01*
X-24114200Y24132400D02*
X-23834200Y24412400D01*
X-23834200Y24412400D02*
X-8584200Y24412400D01*
X-3564200Y24167400D02*
X-3564200Y23270000D01*
X-8584200Y24412400D02*
X-3809200Y24412400D01*
X-3809200Y24412400D02*
X-3564200Y24167400D01*
D18*
X-24114200Y23270000D02*
X-24114200Y20730000D01*
D19*
X-8585200Y10818400D02*
X-8579200Y10812400D01*
D17*
X-1024200Y20730000D02*
X-1024200Y23270000D01*
D18*
X-21574200Y23270000D02*
X-21574200Y20730000D01*
D19*
X-6039200Y18442400D02*
X-7384200Y19787400D01*
X-7384200Y19787400D02*
X-7384200Y23837400D01*
X-6039200Y10062400D02*
X-6039200Y18442400D01*
X-6045200Y10068400D02*
X-6039200Y10062400D01*
X2090800Y16412400D02*
X2090800Y19112400D01*
X1515800Y19687400D02*
X1515800Y20730000D01*
X2090800Y19112400D02*
X1515800Y19687400D01*
X2940800Y16387400D02*
X2940800Y21845000D01*
X2940800Y21845000D02*
X1515800Y23270000D01*
X2630800Y-15817600D02*
X2630800Y-11937600D01*
X1290800Y9182400D02*
X1290800Y3392400D01*
X1870800Y-11177600D02*
X2630800Y-11937600D01*
X1870800Y2812400D02*
X1870800Y-11177600D01*
X1290800Y3392400D02*
X1870800Y2812400D01*
X1370800Y-16347600D02*
X1370800Y2742400D01*
X780800Y8682400D02*
X780800Y3332400D01*
X780800Y3332400D02*
X1370800Y2742400D01*
X-709200Y6492400D02*
X-709200Y9182400D01*
X-13659200Y1612400D02*
X-13659200Y-4769200D01*
X-13716000Y-4826000D02*
X-13665200Y-4775200D01*
X-13716000Y-4826000D02*
X-13716000Y-10058400D01*
X-13659200Y-4769200D02*
X-13665200Y-4775200D01*
X-13665200Y4749800D02*
X-13665200Y1618400D01*
X-13614400Y10312400D02*
X-13614400Y4800600D01*
X-13665200Y4749800D02*
X-13614400Y4800600D01*
X-13665200Y1618400D02*
X-13659200Y1612400D01*
X19340800Y-13017600D02*
X19340800Y-8547600D01*
X19340800Y-8547600D02*
X19330800Y-8537600D01*
X19390800Y362400D02*
X19390800Y-6797600D01*
X19390800Y-6797600D02*
X19330800Y-6857600D01*
X19330800Y-6857600D02*
X19330800Y-8537600D01*
X19390800Y12772400D02*
X19390800Y362400D01*
X-14309200Y1982400D02*
X-14309200Y-6816200D01*
X-14351000Y-6858000D02*
X-14300200Y-6807200D01*
X-14351000Y-9728200D02*
X-14351000Y-6858000D01*
X-14309200Y-6816200D02*
X-14300200Y-6807200D01*
X-14300200Y4622800D02*
X-14300200Y1991400D01*
X-14249400Y10642600D02*
X-14249400Y4673600D01*
X-14300200Y4622800D02*
X-14249400Y4673600D01*
X18740800Y2402400D02*
X18740800Y13072400D01*
X18690800Y-8237600D02*
X18690800Y-6977600D01*
X18690800Y-6977600D02*
X18740800Y-6927600D01*
X18740800Y-6927600D02*
X18740800Y2402400D01*
X-14959200Y1232400D02*
X-14959200Y26800D01*
X-15011400Y-25400D02*
X-14960600Y25400D01*
X-15011400Y-10058400D02*
X-15011400Y-25400D01*
X-14959200Y4802000D02*
X-14960600Y4800600D01*
X-14960600Y4800600D02*
X-14909800Y4851400D01*
X-14909800Y4851400D02*
X-14909800Y10312400D01*
X-14959200Y1232400D02*
X-14959200Y4802000D01*
X-14959200Y26800D02*
X-14960600Y25400D01*
X18090800Y352400D02*
X18090800Y-6887600D01*
X18030800Y-6947600D02*
X18030800Y-8487600D01*
X18090800Y-6887600D02*
X18030800Y-6947600D01*
X18100800Y12802400D02*
X18100800Y362400D01*
X18100800Y362400D02*
X18090800Y352400D01*
X-3659200Y-8577600D02*
X-3659200Y14222400D01*
X-4295800Y14859000D02*
X-5257800Y14859000D01*
X-3659200Y14222400D02*
X-4295800Y14859000D01*
X-2719200Y9202400D02*
X-2719200Y6262400D01*
X-409200Y-2777600D02*
X-409200Y-18367600D01*
X-2969200Y-217600D02*
X-409200Y-2777600D01*
X-2969200Y6012400D02*
X-2969200Y-217600D01*
X-2719200Y6262400D02*
X-2969200Y6012400D01*
X21540800Y-4507600D02*
X21540800Y15362400D01*
X21540800Y-4507600D02*
X21550800Y-4517600D01*
X21540800Y-4507600D02*
X21550800Y-4517600D01*
X20300800Y-13457600D02*
X20730800Y-13887600D01*
X20300800Y15892400D02*
X20300800Y-13457600D01*
X20730800Y-16907600D02*
X20730800Y-13887600D01*
X-1219200Y1072400D02*
X160800Y-307600D01*
X160800Y-307600D02*
X160800Y-17037600D01*
X-1219200Y1072400D02*
X-1219200Y2902400D01*
X-1219200Y2902400D02*
X-1219200Y8712400D01*
X4890800Y-17537600D02*
X4890800Y-15127600D01*
X-11809200Y-5767600D02*
X-11809200Y-15127600D01*
X16460800Y1102400D02*
X15180800Y2382400D01*
X15180800Y2382400D02*
X15180800Y3692400D01*
X16460800Y1102400D02*
X16460800Y322400D01*
X8280800Y10862400D02*
X8280800Y8182400D01*
X7540800Y7442400D02*
X7540800Y5962400D01*
X8280800Y8182400D02*
X7540800Y7442400D01*
X-20439200Y-1697600D02*
X-20439200Y-6527600D01*
X-20439200Y-6527600D02*
X-21309200Y-7397600D01*
X-21309200Y-7397600D02*
X-21309200Y-15747600D01*
X16460800Y322400D02*
X16460800Y-1487600D01*
X16460800Y-1487600D02*
X15420800Y-2527600D01*
X15420800Y-2527600D02*
X15420800Y-6597600D01*
X20810800Y16552400D02*
X20810800Y6032400D01*
X20810800Y6032400D02*
X20830800Y6012400D01*
X-8069200Y14362400D02*
X-8069200Y9792400D01*
X-8829200Y9032400D02*
X-8829200Y4812400D01*
X-8069200Y9792400D02*
X-8829200Y9032400D01*
X3020800Y4872400D02*
X3910800Y3982400D01*
X3020800Y11352400D02*
X3020800Y4872400D01*
X2430800Y-1867600D02*
X2430800Y-6057600D01*
X3910800Y-387600D02*
X2430800Y-1867600D01*
X3910800Y3982400D02*
X3910800Y-387600D01*
X-7329200Y11352400D02*
X-7329200Y-4207600D01*
X-7889200Y-4767600D02*
X-7889200Y-10897600D01*
X-7329200Y-4207600D02*
X-7889200Y-4767600D01*
X-6839200Y8182400D02*
X-6839200Y-6837600D01*
X2740800Y1852400D02*
X2740800Y3102400D01*
X2320800Y13252400D02*
X2920800Y13852400D01*
X2320800Y3522400D02*
X2320800Y13252400D01*
X2740800Y3102400D02*
X2320800Y3522400D01*
X16070800Y-13217600D02*
X16070800Y-5567600D01*
X16070800Y-5567600D02*
X16130800Y-5507600D01*
X16130800Y-5507600D02*
X16130800Y-3087600D01*
X16070800Y-16967600D02*
X16070800Y-13217600D01*
X5490800Y2492400D02*
X5490800Y6372400D01*
X5490800Y6372400D02*
X4520800Y7342400D01*
X4520800Y7342400D02*
X4520800Y13352400D01*
X15530800Y13142400D02*
X15530800Y10642400D01*
X15530800Y10642400D02*
X16150800Y10022400D01*
X16150800Y10022400D02*
X16150800Y6932400D01*
X16130800Y-3087600D02*
X16130800Y-2447600D01*
X16130800Y-2447600D02*
X17140800Y-1437600D01*
X17140800Y-1437600D02*
X17140800Y1882400D01*
X17140800Y1882400D02*
X16150800Y2872400D01*
X16150800Y2872400D02*
X16150800Y6932400D01*
X-16865600Y4165600D02*
X-16865600Y-3098800D01*
X-16865600Y-3098800D02*
X-16916400Y-3149600D01*
X-16916400Y-3149600D02*
X-16916400Y-7543800D01*
X-16916400Y-7543800D02*
X-16916400Y-12903200D01*
X-16916400Y-12903200D02*
X-16967200Y-12954000D01*
X-16967200Y-12954000D02*
X-16967200Y-18288000D01*
X12010800Y10662400D02*
X12010800Y4272400D01*
M02*
