G04 #@! TF.FileFunction,Soldermask,Bot*
%FSLAX46Y46*%
G04 Gerber Fmt 4.6, Leading zero omitted, Abs format (unit mm)*
G04 Created by KiCad (PCBNEW 4.0.1-stable) date 5/8/2017 10:12:07 PM*
%MOMM*%
G01*
G04 APERTURE LIST*
%ADD10C,0.100000*%
%ADD11R,2.100000X2.100000*%
%ADD12O,2.100000X2.100000*%
%ADD13C,1.797000*%
%ADD14R,0.781000X2.051000*%
%ADD15R,1.400000X1.100000*%
%ADD16R,1.600000X1.300000*%
%ADD17R,1.300000X1.600000*%
%ADD18R,0.900000X1.300000*%
G04 APERTURE END LIST*
D10*
D11*
X25875000Y17600000D03*
D12*
X23335000Y17600000D03*
X25875000Y15060000D03*
X23335000Y15060000D03*
X25875000Y12520000D03*
X23335000Y12520000D03*
X25875000Y9980000D03*
X23335000Y9980000D03*
X25875000Y7440000D03*
X23335000Y7440000D03*
X25875000Y4900000D03*
X23335000Y4900000D03*
X25875000Y2360000D03*
X23335000Y2360000D03*
X25875000Y-180000D03*
X23335000Y-180000D03*
X25875000Y-2720000D03*
X23335000Y-2720000D03*
X25875000Y-5260000D03*
X23335000Y-5260000D03*
X25875000Y-7800000D03*
X23335000Y-7800000D03*
X25875000Y-10340000D03*
X23335000Y-10340000D03*
X25875000Y-12880000D03*
X23335000Y-12880000D03*
X25875000Y-15420000D03*
X23335000Y-15420000D03*
X25875000Y-17960000D03*
X23335000Y-17960000D03*
D11*
X-23325000Y12800000D03*
D12*
X-25865000Y12800000D03*
X-23325000Y10260000D03*
X-25865000Y10260000D03*
X-23325000Y7720000D03*
X-25865000Y7720000D03*
X-23325000Y5180000D03*
X-25865000Y5180000D03*
X-23325000Y2640000D03*
X-25865000Y2640000D03*
X-23325000Y100000D03*
X-25865000Y100000D03*
X-23325000Y-2440000D03*
X-25865000Y-2440000D03*
X-23325000Y-4980000D03*
X-25865000Y-4980000D03*
X-23325000Y-7520000D03*
X-25865000Y-7520000D03*
X-23325000Y-10060000D03*
X-25865000Y-10060000D03*
X-23325000Y-12600000D03*
X-25865000Y-12600000D03*
X-23325000Y-15140000D03*
X-25865000Y-15140000D03*
X-23325000Y-17680000D03*
X-25865000Y-17680000D03*
D13*
X12217400Y-18415000D03*
D14*
X-19532600Y-304800D03*
X-18897600Y-304800D03*
X-18262600Y-304800D03*
X-17627600Y-304800D03*
X-16992600Y-304800D03*
X-16357600Y-304800D03*
X-15722600Y-304800D03*
X-15087600Y-304800D03*
X-14452600Y-304800D03*
X-13817600Y-304800D03*
X-13182600Y-304800D03*
X-12547600Y-304800D03*
X-12547600Y-5765800D03*
X-13182600Y-5765800D03*
X-13817600Y-5765800D03*
X-14452600Y-5765800D03*
X-15087600Y-5765800D03*
X-15722600Y-5765800D03*
X-16357600Y-5765800D03*
X-16992600Y-5765800D03*
X-17627600Y-5765800D03*
X-18262600Y-5765800D03*
X-18897600Y-5765800D03*
X-19532600Y-5765800D03*
X8174120Y5950220D03*
X8809120Y5950220D03*
X9444120Y5950220D03*
X10079120Y5950220D03*
X10714120Y5950220D03*
X11349120Y5950220D03*
X11984120Y5950220D03*
X12619120Y5950220D03*
X13254120Y5950220D03*
X13889120Y5950220D03*
X14524120Y5950220D03*
X15159120Y5950220D03*
X15159120Y489220D03*
X14524120Y489220D03*
X13889120Y489220D03*
X13254120Y489220D03*
X12619120Y489220D03*
X11984120Y489220D03*
X11349120Y489220D03*
X10714120Y489220D03*
X10079120Y489220D03*
X9444120Y489220D03*
X8809120Y489220D03*
X8174120Y489220D03*
D15*
X6375400Y-11130280D03*
X6375400Y-10180280D03*
X6375400Y-12080280D03*
X3975400Y-12080280D03*
X3975400Y-10180280D03*
X16611600Y-7292340D03*
X16611600Y-6342340D03*
X16611600Y-8242340D03*
X14211600Y-8242340D03*
X14211600Y-6342340D03*
X-19941540Y-15011400D03*
X-19941540Y-15961400D03*
X-19941540Y-14061400D03*
X-17541540Y-14061400D03*
X-17541540Y-15961400D03*
D16*
X-20327800Y-8356600D03*
X-18127800Y-8356600D03*
X6660800Y342400D03*
X4460800Y342400D03*
D17*
X-15679420Y-16299360D03*
X-15679420Y-14099360D03*
X12410440Y-6230440D03*
X12410440Y-8430440D03*
D18*
X-2546920Y16129000D03*
X-4046920Y16129000D03*
X-1790000Y10403840D03*
X-3290000Y10403840D03*
X8073960Y-11940540D03*
X9573960Y-11940540D03*
X5255960Y-8384540D03*
X3755960Y-8384540D03*
X9573960Y-10670540D03*
X8073960Y-10670540D03*
X8385240Y-8387080D03*
X6885240Y-8387080D03*
D13*
X24663400Y22733000D03*
D11*
X-26654200Y20730000D03*
D12*
X-26654200Y23270000D03*
X-24114200Y20730000D03*
X-24114200Y23270000D03*
X-21574200Y20730000D03*
X-21574200Y23270000D03*
X-19034200Y20730000D03*
X-19034200Y23270000D03*
X-16494200Y20730000D03*
X-16494200Y23270000D03*
D11*
X-6104200Y20730000D03*
D12*
X-6104200Y23270000D03*
X-3564200Y20730000D03*
X-3564200Y23270000D03*
X-1024200Y20730000D03*
X-1024200Y23270000D03*
X1515800Y20730000D03*
X1515800Y23270000D03*
X4055800Y20730000D03*
X4055800Y23270000D03*
M02*
