G04 #@! TF.FileFunction,Soldermask,Top*
%FSLAX46Y46*%
G04 Gerber Fmt 4.6, Leading zero omitted, Abs format (unit mm)*
G04 Created by KiCad (PCBNEW 4.0.1-stable) date 5/8/2017 10:12:07 PM*
%MOMM*%
G01*
G04 APERTURE LIST*
%ADD10C,0.100000*%
%ADD11R,2.100000X2.100000*%
%ADD12O,2.100000X2.100000*%
%ADD13C,1.797000*%
%ADD14C,0.908000*%
%ADD15R,0.750000X1.600000*%
%ADD16R,1.110000X0.680000*%
%ADD17R,0.680000X1.110000*%
%ADD18C,0.680000*%
%ADD19R,1.550000X1.550000*%
%ADD20R,4.500000X4.500000*%
%ADD21R,1.300000X0.640000*%
%ADD22R,0.640000X1.300000*%
%ADD23R,2.300000X1.300000*%
%ADD24R,1.150000X1.300000*%
%ADD25R,1.400000X1.100000*%
%ADD26R,1.100000X1.400000*%
%ADD27R,1.850000X0.850000*%
%ADD28R,0.850000X1.850000*%
%ADD29R,1.300000X0.900000*%
%ADD30R,0.900000X1.300000*%
%ADD31R,0.800000X1.400000*%
%ADD32R,1.700000X1.100000*%
%ADD33R,0.810000X1.420000*%
%ADD34R,0.800000X1.000000*%
%ADD35R,0.730000X1.200000*%
%ADD36R,1.000000X3.000000*%
G04 APERTURE END LIST*
D10*
D11*
X25875000Y17600000D03*
D12*
X23335000Y17600000D03*
X25875000Y15060000D03*
X23335000Y15060000D03*
X25875000Y12520000D03*
X23335000Y12520000D03*
X25875000Y9980000D03*
X23335000Y9980000D03*
X25875000Y7440000D03*
X23335000Y7440000D03*
X25875000Y4900000D03*
X23335000Y4900000D03*
X25875000Y2360000D03*
X23335000Y2360000D03*
X25875000Y-180000D03*
X23335000Y-180000D03*
X25875000Y-2720000D03*
X23335000Y-2720000D03*
X25875000Y-5260000D03*
X23335000Y-5260000D03*
X25875000Y-7800000D03*
X23335000Y-7800000D03*
X25875000Y-10340000D03*
X23335000Y-10340000D03*
X25875000Y-12880000D03*
X23335000Y-12880000D03*
X25875000Y-15420000D03*
X23335000Y-15420000D03*
X25875000Y-17960000D03*
X23335000Y-17960000D03*
D11*
X-23325000Y12800000D03*
D12*
X-25865000Y12800000D03*
X-23325000Y10260000D03*
X-25865000Y10260000D03*
X-23325000Y7720000D03*
X-25865000Y7720000D03*
X-23325000Y5180000D03*
X-25865000Y5180000D03*
X-23325000Y2640000D03*
X-25865000Y2640000D03*
X-23325000Y100000D03*
X-25865000Y100000D03*
X-23325000Y-2440000D03*
X-25865000Y-2440000D03*
X-23325000Y-4980000D03*
X-25865000Y-4980000D03*
X-23325000Y-7520000D03*
X-25865000Y-7520000D03*
X-23325000Y-10060000D03*
X-25865000Y-10060000D03*
X-23325000Y-12600000D03*
X-25865000Y-12600000D03*
X-23325000Y-15140000D03*
X-25865000Y-15140000D03*
X-23325000Y-17680000D03*
X-25865000Y-17680000D03*
D13*
X12217400Y-18415000D03*
D14*
X-4589200Y-19737600D03*
D15*
X-18161000Y3073400D03*
X-17511000Y3073400D03*
X-16861000Y3073400D03*
X-16211000Y3073400D03*
X-15561000Y3073400D03*
X-14911000Y3073400D03*
X-14261000Y3073400D03*
X-13611000Y3073400D03*
X-13611000Y9273400D03*
X-14261000Y9273400D03*
X-14911000Y9273400D03*
X-15561000Y9273400D03*
X-16211000Y9273400D03*
X-16861000Y9273400D03*
X-17511000Y9273400D03*
X-18161000Y9273400D03*
X-18208300Y-6542900D03*
X-17558300Y-6542900D03*
X-16908300Y-6542900D03*
X-16258300Y-6542900D03*
X-15608300Y-6542900D03*
X-14958300Y-6542900D03*
X-14308300Y-6542900D03*
X-13658300Y-6542900D03*
X-13658300Y-342900D03*
X-14308300Y-342900D03*
X-14958300Y-342900D03*
X-15608300Y-342900D03*
X-16258300Y-342900D03*
X-16908300Y-342900D03*
X-17558300Y-342900D03*
X-18208300Y-342900D03*
X-18262600Y-17297400D03*
X-17612600Y-17297400D03*
X-16962600Y-17297400D03*
X-16312600Y-17297400D03*
X-15662600Y-17297400D03*
X-15012600Y-17297400D03*
X-14362600Y-17297400D03*
X-13712600Y-17297400D03*
X-13712600Y-11097400D03*
X-14362600Y-11097400D03*
X-15012600Y-11097400D03*
X-15662600Y-11097400D03*
X-16312600Y-11097400D03*
X-16962600Y-11097400D03*
X-17612600Y-11097400D03*
X-18262600Y-11097400D03*
D16*
X-4010200Y15356400D03*
X-4010200Y14856400D03*
X-4010200Y14356400D03*
X-4010200Y13856400D03*
X-4010200Y13356400D03*
X-4010200Y12856400D03*
X-4010200Y12356400D03*
X-4010200Y11856400D03*
X-4010200Y11356400D03*
X-4010200Y10856400D03*
D17*
X-3215200Y10061400D03*
X-2715200Y10061400D03*
X-2215200Y10061400D03*
X-1715200Y10061400D03*
X-1215200Y10061400D03*
X-715200Y10061400D03*
X-215200Y10061400D03*
X284800Y10061400D03*
X784800Y10061400D03*
X1284800Y10061400D03*
D16*
X2079800Y10856400D03*
X2079800Y11356400D03*
X2079800Y11856400D03*
X2079800Y12356400D03*
X2079800Y12856400D03*
X2079800Y13356400D03*
X2079800Y13856400D03*
X2079800Y14356400D03*
X2079800Y14856400D03*
X2079800Y15356400D03*
D17*
X1284800Y16151400D03*
X784800Y16151400D03*
X284800Y16151400D03*
X-215200Y16151400D03*
X-715200Y16151400D03*
X-1215200Y16151400D03*
X-1715200Y16151400D03*
X-2215200Y16151400D03*
X-2715200Y16151400D03*
X-3215200Y16151400D03*
D18*
X1724800Y10856400D03*
X1724800Y11356400D03*
X1724800Y11856400D03*
X1724800Y12356400D03*
X1724800Y12856400D03*
X1724800Y13356400D03*
X1724800Y13856400D03*
X1724800Y14356400D03*
X1724800Y14856400D03*
X1724800Y15356400D03*
X1284800Y15796400D03*
X784800Y15796400D03*
X284800Y15796400D03*
X-215200Y15796400D03*
X-715200Y15796400D03*
X-1215200Y15796400D03*
X-1715200Y15796400D03*
X-2215200Y15796400D03*
X-2715200Y15796400D03*
X-3215200Y15796400D03*
X-3655200Y15356400D03*
X-3655200Y14856400D03*
X-3655200Y14356400D03*
X-3655200Y13856400D03*
X-3655200Y13356400D03*
X-3655200Y12856400D03*
X-3655200Y12356400D03*
X-3655200Y11856400D03*
X-3655200Y11356400D03*
X-3655200Y10856400D03*
X-3215200Y10416400D03*
X-2715200Y10416400D03*
X-2215200Y10416400D03*
X-1715200Y10416400D03*
X-1215200Y10416400D03*
X-715200Y10416400D03*
X-215200Y10416400D03*
X284800Y10416400D03*
X784800Y10416400D03*
X1284800Y10416400D03*
D19*
X-965200Y13106400D03*
X-965200Y14556400D03*
X-965200Y11656400D03*
X-2415200Y11656400D03*
X-2415200Y13106400D03*
X-2415200Y14556400D03*
X484800Y14556400D03*
X484800Y13106400D03*
X484800Y11656400D03*
D20*
X-965200Y13106400D03*
D15*
X14843760Y5552440D03*
X15493760Y5552440D03*
X16143760Y5552440D03*
X16793760Y5552440D03*
X17443760Y5552440D03*
X18093760Y5552440D03*
X18743760Y5552440D03*
X19393760Y5552440D03*
X19393760Y11752440D03*
X18743760Y11752440D03*
X18093760Y11752440D03*
X17443760Y11752440D03*
X16793760Y11752440D03*
X16143760Y11752440D03*
X15493760Y11752440D03*
X14843760Y11752440D03*
D21*
X-7891150Y-9846079D03*
D22*
X-7341150Y-10896079D03*
X-6841150Y-10896079D03*
X-6341150Y-10896079D03*
X-5841150Y-10896079D03*
X-5341150Y-10896079D03*
X-4841150Y-10896079D03*
D21*
X-4291150Y-9846079D03*
X-4291150Y-9346079D03*
D22*
X-4841150Y-8296079D03*
X-5341150Y-8296079D03*
X-5841150Y-8296079D03*
X-6341150Y-8296079D03*
X-6841150Y-8296079D03*
X-7341150Y-8296079D03*
D21*
X-7891150Y-9346079D03*
D23*
X-6091150Y-9596079D03*
D24*
X-6666150Y-9596079D03*
X-5516150Y-9596079D03*
D15*
X14843760Y-4759960D03*
X15493760Y-4759960D03*
X16143760Y-4759960D03*
X16793760Y-4759960D03*
X17443760Y-4759960D03*
X18093760Y-4759960D03*
X18743760Y-4759960D03*
X19393760Y-4759960D03*
X19393760Y1440040D03*
X18743760Y1440040D03*
X18093760Y1440040D03*
X17443760Y1440040D03*
X16793760Y1440040D03*
X16143760Y1440040D03*
X15493760Y1440040D03*
X14843760Y1440040D03*
X14782800Y-15768320D03*
X15432800Y-15768320D03*
X16082800Y-15768320D03*
X16732800Y-15768320D03*
X17382800Y-15768320D03*
X18032800Y-15768320D03*
X18682800Y-15768320D03*
X19332800Y-15768320D03*
X19332800Y-9568320D03*
X18682800Y-9568320D03*
X18032800Y-9568320D03*
X17382800Y-9568320D03*
X16732800Y-9568320D03*
X16082800Y-9568320D03*
X15432800Y-9568320D03*
X14782800Y-9568320D03*
D25*
X6179820Y-9860280D03*
X3779820Y-8910280D03*
X3779820Y-10810280D03*
D26*
X-12404800Y16654600D03*
X-11454800Y16654600D03*
X-13354800Y16654600D03*
X-13354800Y14254600D03*
X-11454800Y14254600D03*
D25*
X4148800Y2634420D03*
X4148800Y3584420D03*
X4148800Y1684420D03*
X6548800Y1684420D03*
X6548800Y3584420D03*
D26*
X-694180Y-8716280D03*
X255820Y-8716280D03*
X-1644180Y-8716280D03*
X-1644180Y-11116280D03*
X255820Y-11116280D03*
X-5141700Y3784300D03*
X-4191700Y3784300D03*
X-6091700Y3784300D03*
X-6091700Y1384300D03*
X-4191700Y1384300D03*
D25*
X6179820Y-14178280D03*
X6179820Y-15128280D03*
X6179820Y-13228280D03*
X3779820Y-13228280D03*
X3779820Y-15128280D03*
D26*
X-6616700Y-16510000D03*
X-5666700Y-16510000D03*
X-7566700Y-16510000D03*
X-7566700Y-18910000D03*
X-5666700Y-18910000D03*
D27*
X3925820Y-6708480D03*
X3925820Y-6058480D03*
X3925820Y-5408480D03*
X3925820Y-4758480D03*
X-474180Y-4758480D03*
X-474180Y-5408480D03*
X-474180Y-6058480D03*
X-474180Y-6708480D03*
D28*
X-7983580Y3452220D03*
X-8633580Y3452220D03*
X-9283580Y3452220D03*
X-9933580Y3452220D03*
X-9933580Y-947780D03*
X-9283580Y-947780D03*
X-8633580Y-947780D03*
X-7983580Y-947780D03*
D29*
X-9282460Y-12626880D03*
X-9282460Y-14126880D03*
X-5552460Y-12626880D03*
X-5552460Y-14126880D03*
X-3632460Y-12626880D03*
X-3632460Y-14126880D03*
X-7452460Y-12626880D03*
X-7452460Y-14126880D03*
D30*
X9968800Y-15468600D03*
X11468800Y-15468600D03*
X9943400Y-13792200D03*
X11443400Y-13792200D03*
D31*
X110800Y1324420D03*
X760800Y1324420D03*
X1410800Y1324420D03*
X2060800Y1324420D03*
X2060800Y4124420D03*
X1410800Y4124420D03*
X760800Y4124420D03*
X110800Y4124420D03*
D29*
X-19723100Y9817800D03*
X-19723100Y8317800D03*
X-1905000Y-18682400D03*
X-1905000Y-17182400D03*
X-3639820Y-17164620D03*
X-3639820Y-18664620D03*
D30*
X-14731600Y12551200D03*
X-13231600Y12551200D03*
X-10424900Y12538500D03*
X-11924900Y12538500D03*
D29*
X-9447700Y16158700D03*
X-9447700Y14658700D03*
X-9448800Y-18707800D03*
X-9448800Y-17207800D03*
D14*
X-17349200Y16032400D03*
X2890800Y-3907600D03*
X-22899200Y16672400D03*
X-22899200Y15112400D03*
X3990800Y17162400D03*
X7530800Y17132400D03*
D29*
X-19507200Y-1219900D03*
X-19507200Y280100D03*
X-19532600Y-11799000D03*
X-19532600Y-10299000D03*
X1986280Y-14557440D03*
X1986280Y-13057440D03*
D30*
X13510800Y11672400D03*
X12010800Y11672400D03*
X6048800Y5404420D03*
X4548800Y5404420D03*
D29*
X13512800Y1283400D03*
X13512800Y-216600D03*
X13274040Y-9887520D03*
X13274040Y-11387520D03*
D30*
X18565800Y15512400D03*
X17065800Y15512400D03*
X17115800Y18962400D03*
X18615800Y18962400D03*
X18590800Y17187400D03*
X17090800Y17187400D03*
X5818440Y-6598920D03*
X7318440Y-6598920D03*
X5809660Y-4962280D03*
X7309660Y-4962280D03*
D29*
X2045820Y-10426280D03*
X2045820Y-8926280D03*
X-4170680Y-6332920D03*
X-4170680Y-4832920D03*
D30*
X-8117140Y7157720D03*
X-9617140Y7157720D03*
X-8127300Y5557520D03*
X-9627300Y5557520D03*
X1000800Y5904420D03*
X2500800Y5904420D03*
X-4582860Y5590540D03*
X-3082860Y5590540D03*
D29*
X2534920Y-357440D03*
X2534920Y-1857440D03*
X-2524760Y-4812600D03*
X-2524760Y-6312600D03*
D32*
X-1892300Y1930360D03*
X-1892300Y3830360D03*
D30*
X-7082220Y5590540D03*
X-5582220Y5590540D03*
X1054800Y-1943100D03*
X-445200Y-1943100D03*
X-432500Y-309880D03*
X1067500Y-309880D03*
D29*
X-9606280Y-8797860D03*
X-9606280Y-10297860D03*
D30*
X-25031000Y16840200D03*
X-26531000Y16840200D03*
D29*
X7086600Y-2528000D03*
X7086600Y-1028000D03*
X8650800Y8592400D03*
X8650800Y7092400D03*
X10414000Y-1053400D03*
X10414000Y-2553400D03*
X8737600Y-2528000D03*
X8737600Y-1028000D03*
D33*
X8763000Y381000D03*
X9413000Y381000D03*
X10063000Y381000D03*
X10713000Y381000D03*
X10713000Y5181000D03*
X10063000Y5181000D03*
X9413000Y5181000D03*
X8763000Y5181000D03*
D13*
X24663400Y22733000D03*
D25*
X6170800Y-17987600D03*
X3770800Y-17037600D03*
X3770800Y-18937600D03*
D29*
X8050800Y-17167600D03*
X8050800Y-18667600D03*
D34*
X-3689200Y12400D03*
X-4589200Y12400D03*
D30*
X1060800Y-3557600D03*
X-439200Y-3557600D03*
D34*
X-4559200Y-2987600D03*
X-3659200Y-2987600D03*
X-4579200Y-1757600D03*
X-3679200Y-1757600D03*
D35*
X16190800Y20887400D03*
X15690800Y20887400D03*
X15190800Y20887400D03*
X14690800Y20887400D03*
X14190800Y20887400D03*
X13690800Y20887400D03*
X13190800Y20887400D03*
X12690800Y20887400D03*
X12190800Y20887400D03*
X11690800Y20887400D03*
D36*
X17090800Y23187400D03*
X10790800Y23187400D03*
D11*
X-26654200Y20730000D03*
D12*
X-26654200Y23270000D03*
X-24114200Y20730000D03*
X-24114200Y23270000D03*
X-21574200Y20730000D03*
X-21574200Y23270000D03*
X-19034200Y20730000D03*
X-19034200Y23270000D03*
X-16494200Y20730000D03*
X-16494200Y23270000D03*
D11*
X-6104200Y20730000D03*
D12*
X-6104200Y23270000D03*
X-3564200Y20730000D03*
X-3564200Y23270000D03*
X-1024200Y20730000D03*
X-1024200Y23270000D03*
X1515800Y20730000D03*
X1515800Y23270000D03*
X4055800Y20730000D03*
X4055800Y23270000D03*
D14*
X-11799200Y3362400D03*
M02*
