G04 #@! TF.FileFunction,Paste,Bot*
%FSLAX46Y46*%
G04 Gerber Fmt 4.6, Leading zero omitted, Abs format (unit mm)*
G04 Created by KiCad (PCBNEW 4.0.1-stable) date 2/20/2017 7:55:22 PM*
%MOMM*%
G01*
G04 APERTURE LIST*
%ADD10C,0.100000*%
%ADD11R,1.200000X0.900000*%
%ADD12R,1.500000X0.350000*%
G04 APERTURE END LIST*
D10*
D11*
X1100000Y2667000D03*
X-1100000Y2667000D03*
X-973000Y-2667000D03*
X1227000Y-2667000D03*
X-23045600Y10287000D03*
X-20845600Y10287000D03*
X-23045600Y7721600D03*
X-20845600Y7721600D03*
X-23071000Y5257800D03*
X-20871000Y5257800D03*
X-23134500Y2679700D03*
X-20934500Y2679700D03*
X-23106560Y121920D03*
X-20906560Y121920D03*
X-23106560Y-2397760D03*
X-20906560Y-2397760D03*
X-23091320Y-4912360D03*
X-20891320Y-4912360D03*
X-23121800Y-7472680D03*
X-20921800Y-7472680D03*
X-23137040Y-10012680D03*
X-20937040Y-10012680D03*
X-22984640Y-12573000D03*
X-20784640Y-12573000D03*
X-23076080Y-15087600D03*
X-20876080Y-15087600D03*
X20900000Y15100000D03*
X23100000Y15100000D03*
X20875000Y12575000D03*
X23075000Y12575000D03*
X20875000Y10050000D03*
X23075000Y10050000D03*
X20875000Y7500000D03*
X23075000Y7500000D03*
X20850000Y4900000D03*
X23050000Y4900000D03*
X20850000Y2375000D03*
X23050000Y2375000D03*
X20875000Y-175000D03*
X23075000Y-175000D03*
X20875000Y-2725000D03*
X23075000Y-2725000D03*
X20875000Y-5225000D03*
X23075000Y-5225000D03*
X20875000Y-7750000D03*
X23075000Y-7750000D03*
X20875000Y-10350000D03*
X23075000Y-10350000D03*
D12*
X-1525000Y975000D03*
X-1525000Y325000D03*
X-1525000Y-325000D03*
X-1525000Y-975000D03*
X1525000Y-975000D03*
X1525000Y-325000D03*
X1525000Y325000D03*
X1525000Y975000D03*
M02*
