G04 #@! TF.FileFunction,Legend,Top*
%FSLAX46Y46*%
G04 Gerber Fmt 4.6, Leading zero omitted, Abs format (unit mm)*
G04 Created by KiCad (PCBNEW 4.0.1-stable) date 2/18/2017 12:31:51 AM*
%MOMM*%
G01*
G04 APERTURE LIST*
%ADD10C,0.100000*%
%ADD11C,0.127000*%
%ADD12C,0.152400*%
%ADD13C,0.200000*%
%ADD14C,0.150000*%
G04 APERTURE END LIST*
D10*
D11*
X-5485795Y-11823700D02*
X-5582557Y-11775319D01*
X-5727700Y-11775319D01*
X-5872842Y-11823700D01*
X-5969604Y-11920462D01*
X-6017985Y-12017224D01*
X-6066366Y-12210748D01*
X-6066366Y-12355890D01*
X-6017985Y-12549414D01*
X-5969604Y-12646176D01*
X-5872842Y-12742938D01*
X-5727700Y-12791319D01*
X-5630938Y-12791319D01*
X-5485795Y-12742938D01*
X-5437414Y-12694557D01*
X-5437414Y-12355890D01*
X-5630938Y-12355890D01*
X-5001985Y-12791319D02*
X-5001985Y-11775319D01*
X-4421414Y-12791319D01*
X-4421414Y-11775319D01*
X-3937604Y-12791319D02*
X-3937604Y-11775319D01*
X-3695699Y-11775319D01*
X-3550557Y-11823700D01*
X-3453795Y-11920462D01*
X-3405414Y-12017224D01*
X-3357033Y-12210748D01*
X-3357033Y-12355890D01*
X-3405414Y-12549414D01*
X-3453795Y-12646176D01*
X-3550557Y-12742938D01*
X-3695699Y-12791319D01*
X-3937604Y-12791319D01*
X5736167Y-14383657D02*
X5687786Y-14432038D01*
X5542643Y-14480419D01*
X5445881Y-14480419D01*
X5300739Y-14432038D01*
X5203977Y-14335276D01*
X5155596Y-14238514D01*
X5107215Y-14044990D01*
X5107215Y-13899848D01*
X5155596Y-13706324D01*
X5203977Y-13609562D01*
X5300739Y-13512800D01*
X5445881Y-13464419D01*
X5542643Y-13464419D01*
X5687786Y-13512800D01*
X5736167Y-13561181D01*
X6123215Y-14432038D02*
X6268358Y-14480419D01*
X6510262Y-14480419D01*
X6607024Y-14432038D01*
X6655405Y-14383657D01*
X6703786Y-14286895D01*
X6703786Y-14190133D01*
X6655405Y-14093371D01*
X6607024Y-14044990D01*
X6510262Y-13996610D01*
X6316739Y-13948229D01*
X6219977Y-13899848D01*
X6171596Y-13851467D01*
X6123215Y-13754705D01*
X6123215Y-13657943D01*
X6171596Y-13561181D01*
X6219977Y-13512800D01*
X6316739Y-13464419D01*
X6558643Y-13464419D01*
X6703786Y-13512800D01*
X4913691Y-13289280D02*
X6897310Y-13289280D01*
X1932215Y-18254738D02*
X2077358Y-18303119D01*
X2319262Y-18303119D01*
X2416024Y-18254738D01*
X2464405Y-18206357D01*
X2512786Y-18109595D01*
X2512786Y-18012833D01*
X2464405Y-17916071D01*
X2416024Y-17867690D01*
X2319262Y-17819310D01*
X2125739Y-17770929D01*
X2028977Y-17722548D01*
X1980596Y-17674167D01*
X1932215Y-17577405D01*
X1932215Y-17480643D01*
X1980596Y-17383881D01*
X2028977Y-17335500D01*
X2125739Y-17287119D01*
X2367643Y-17287119D01*
X2512786Y-17335500D01*
X3528786Y-18206357D02*
X3480405Y-18254738D01*
X3335262Y-18303119D01*
X3238500Y-18303119D01*
X3093358Y-18254738D01*
X2996596Y-18157976D01*
X2948215Y-18061214D01*
X2899834Y-17867690D01*
X2899834Y-17722548D01*
X2948215Y-17529024D01*
X2996596Y-17432262D01*
X3093358Y-17335500D01*
X3238500Y-17287119D01*
X3335262Y-17287119D01*
X3480405Y-17335500D01*
X3528786Y-17383881D01*
X3964215Y-18303119D02*
X3964215Y-17287119D01*
X4544786Y-18303119D02*
X4109358Y-17722548D01*
X4544786Y-17287119D02*
X3964215Y-17867690D01*
X-10522252Y-19435838D02*
X-10377109Y-19484219D01*
X-10135205Y-19484219D01*
X-10038443Y-19435838D01*
X-9990062Y-19387457D01*
X-9941681Y-19290695D01*
X-9941681Y-19193933D01*
X-9990062Y-19097171D01*
X-10038443Y-19048790D01*
X-10135205Y-19000410D01*
X-10328728Y-18952029D01*
X-10425490Y-18903648D01*
X-10473871Y-18855267D01*
X-10522252Y-18758505D01*
X-10522252Y-18661743D01*
X-10473871Y-18564981D01*
X-10425490Y-18516600D01*
X-10328728Y-18468219D01*
X-10086824Y-18468219D01*
X-9941681Y-18516600D01*
X-9506252Y-19484219D02*
X-9506252Y-18468219D01*
X-9022442Y-19484219D02*
X-9022442Y-18468219D01*
X-8683776Y-19193933D01*
X-8345109Y-18468219D01*
X-8345109Y-19484219D01*
X-7667775Y-18468219D02*
X-7474252Y-18468219D01*
X-7377490Y-18516600D01*
X-7280728Y-18613362D01*
X-7232347Y-18806886D01*
X-7232347Y-19145552D01*
X-7280728Y-19339076D01*
X-7377490Y-19435838D01*
X-7474252Y-19484219D01*
X-7667775Y-19484219D01*
X-7764537Y-19435838D01*
X-7861299Y-19339076D01*
X-7909680Y-19145552D01*
X-7909680Y-18806886D01*
X-7861299Y-18613362D01*
X-7764537Y-18516600D01*
X-7667775Y-18468219D01*
X-5289852Y-16730738D02*
X-5144709Y-16779119D01*
X-4902805Y-16779119D01*
X-4806043Y-16730738D01*
X-4757662Y-16682357D01*
X-4709281Y-16585595D01*
X-4709281Y-16488833D01*
X-4757662Y-16392071D01*
X-4806043Y-16343690D01*
X-4902805Y-16295310D01*
X-5096328Y-16246929D01*
X-5193090Y-16198548D01*
X-5241471Y-16150167D01*
X-5289852Y-16053405D01*
X-5289852Y-15956643D01*
X-5241471Y-15859881D01*
X-5193090Y-15811500D01*
X-5096328Y-15763119D01*
X-4854424Y-15763119D01*
X-4709281Y-15811500D01*
X-4080328Y-15763119D02*
X-3886805Y-15763119D01*
X-3790043Y-15811500D01*
X-3693281Y-15908262D01*
X-3644900Y-16101786D01*
X-3644900Y-16440452D01*
X-3693281Y-16633976D01*
X-3790043Y-16730738D01*
X-3886805Y-16779119D01*
X-4080328Y-16779119D01*
X-4177090Y-16730738D01*
X-4273852Y-16633976D01*
X-4322233Y-16440452D01*
X-4322233Y-16101786D01*
X-4273852Y-15908262D01*
X-4177090Y-15811500D01*
X-4080328Y-15763119D01*
X-3209471Y-16779119D02*
X-3209471Y-15763119D01*
X-2870805Y-16488833D01*
X-2532138Y-15763119D01*
X-2532138Y-16779119D01*
X-2048328Y-16779119D02*
X-2048328Y-15763119D01*
D12*
X-28532666Y14973300D02*
X-28532666Y14084300D01*
X-28532666Y14930967D02*
X-28448000Y14973300D01*
X-28278666Y14973300D01*
X-28194000Y14930967D01*
X-28151666Y14888633D01*
X-28109333Y14803967D01*
X-28109333Y14549967D01*
X-28151666Y14465300D01*
X-28194000Y14422967D01*
X-28278666Y14380633D01*
X-28448000Y14380633D01*
X-28532666Y14422967D01*
X-27728333Y14380633D02*
X-27728333Y14973300D01*
X-27728333Y15269633D02*
X-27770667Y15227300D01*
X-27728333Y15184967D01*
X-27686000Y15227300D01*
X-27728333Y15269633D01*
X-27728333Y15184967D01*
X-27305000Y14973300D02*
X-27305000Y14380633D01*
X-27305000Y14888633D02*
X-27262667Y14930967D01*
X-27178000Y14973300D01*
X-27051000Y14973300D01*
X-26966334Y14930967D01*
X-26924000Y14846300D01*
X-26924000Y14380633D01*
X-26035001Y14380633D02*
X-26543001Y14380633D01*
X-26289001Y14380633D02*
X-26289001Y15269633D01*
X-26373667Y15142633D01*
X-26458334Y15057967D01*
X-26543001Y15015633D01*
X17009534Y17614900D02*
X17009534Y16725900D01*
X17009534Y17572567D02*
X17094200Y17614900D01*
X17263534Y17614900D01*
X17348200Y17572567D01*
X17390534Y17530233D01*
X17432867Y17445567D01*
X17432867Y17191567D01*
X17390534Y17106900D01*
X17348200Y17064567D01*
X17263534Y17022233D01*
X17094200Y17022233D01*
X17009534Y17064567D01*
X17813867Y17022233D02*
X17813867Y17614900D01*
X17813867Y17911233D02*
X17771533Y17868900D01*
X17813867Y17826567D01*
X17856200Y17868900D01*
X17813867Y17911233D01*
X17813867Y17826567D01*
X18237200Y17614900D02*
X18237200Y17022233D01*
X18237200Y17530233D02*
X18279533Y17572567D01*
X18364200Y17614900D01*
X18491200Y17614900D01*
X18575866Y17572567D01*
X18618200Y17487900D01*
X18618200Y17022233D01*
X19507199Y17022233D02*
X18999199Y17022233D01*
X19253199Y17022233D02*
X19253199Y17911233D01*
X19168533Y17784233D01*
X19083866Y17699567D01*
X18999199Y17657233D01*
D13*
X2500000Y-3100000D02*
X2500000Y3100000D01*
X-2500000Y3150000D02*
X-2500000Y-3300000D01*
X-500000Y0D02*
X-450000Y0D01*
X550000Y0D02*
X-500000Y0D01*
X0Y400000D02*
X0Y-350000D01*
X2500000Y-3150000D02*
G75*
G03X2500000Y-3150000I-2500000J0D01*
G01*
X0Y-2550000D02*
X0Y-3700000D01*
X600000Y-3150000D02*
X-600000Y-3150000D01*
X0Y2650000D02*
X0Y3700000D01*
X600000Y3150000D02*
X-600000Y3150000D01*
X2500000Y3150000D02*
G75*
G03X2500000Y3150000I-2500000J0D01*
G01*
D14*
X-14387800Y13500000D02*
G75*
G03X-14387800Y13500000I-2612200J0D01*
G01*
X19612200Y-13500000D02*
G75*
G03X19612200Y-13500000I-2612200J0D01*
G01*
X19612200Y13500000D02*
G75*
G03X19612200Y13500000I-2612200J0D01*
G01*
X-14387800Y-13500000D02*
G75*
G03X-14387800Y-13500000I-2612200J0D01*
G01*
X-449200Y2249800D02*
X550800Y2249800D01*
X550800Y899800D02*
X-449200Y899800D01*
X766700Y-2605400D02*
X-233300Y-2605400D01*
X-233300Y-1255400D02*
X766700Y-1255400D01*
X-25338095Y14947619D02*
X-25338095Y15947619D01*
X-24957142Y15947619D01*
X-24861904Y15900000D01*
X-24814285Y15852381D01*
X-24766666Y15757143D01*
X-24766666Y15614286D01*
X-24814285Y15519048D01*
X-24861904Y15471429D01*
X-24957142Y15423810D01*
X-25338095Y15423810D01*
X-23814285Y14947619D02*
X-24385714Y14947619D01*
X-24100000Y14947619D02*
X-24100000Y15947619D01*
X-24195238Y15804762D01*
X-24290476Y15709524D01*
X-24385714Y15661905D01*
X18029305Y18521419D02*
X18029305Y19521419D01*
X18410258Y19521419D01*
X18505496Y19473800D01*
X18553115Y19426181D01*
X18600734Y19330943D01*
X18600734Y19188086D01*
X18553115Y19092848D01*
X18505496Y19045229D01*
X18410258Y18997610D01*
X18029305Y18997610D01*
X18981686Y19426181D02*
X19029305Y19473800D01*
X19124543Y19521419D01*
X19362639Y19521419D01*
X19457877Y19473800D01*
X19505496Y19426181D01*
X19553115Y19330943D01*
X19553115Y19235705D01*
X19505496Y19092848D01*
X18934067Y18521419D01*
X19553115Y18521419D01*
X-4141766Y1420857D02*
X-4189385Y1373238D01*
X-4332242Y1325619D01*
X-4427480Y1325619D01*
X-4570338Y1373238D01*
X-4665576Y1468476D01*
X-4713195Y1563714D01*
X-4760814Y1754190D01*
X-4760814Y1897048D01*
X-4713195Y2087524D01*
X-4665576Y2182762D01*
X-4570338Y2278000D01*
X-4427480Y2325619D01*
X-4332242Y2325619D01*
X-4189385Y2278000D01*
X-4141766Y2230381D01*
X-3189385Y1325619D02*
X-3760814Y1325619D01*
X-3475100Y1325619D02*
X-3475100Y2325619D01*
X-3570338Y2182762D01*
X-3665576Y2087524D01*
X-3760814Y2039905D01*
X-4617957Y-2636781D02*
X-4951291Y-2160590D01*
X-5189386Y-2636781D02*
X-5189386Y-1636781D01*
X-4808433Y-1636781D01*
X-4713195Y-1684400D01*
X-4665576Y-1732019D01*
X-4617957Y-1827257D01*
X-4617957Y-1970114D01*
X-4665576Y-2065352D01*
X-4713195Y-2112971D01*
X-4808433Y-2160590D01*
X-5189386Y-2160590D01*
X-4237005Y-1732019D02*
X-4189386Y-1684400D01*
X-4094148Y-1636781D01*
X-3856052Y-1636781D01*
X-3760814Y-1684400D01*
X-3713195Y-1732019D01*
X-3665576Y-1827257D01*
X-3665576Y-1922495D01*
X-3713195Y-2065352D01*
X-4284624Y-2636781D01*
X-3665576Y-2636781D01*
X-3332243Y-1636781D02*
X-2713195Y-1636781D01*
X-3046529Y-2017733D01*
X-2903671Y-2017733D01*
X-2808433Y-2065352D01*
X-2760814Y-2112971D01*
X-2713195Y-2208210D01*
X-2713195Y-2446305D01*
X-2760814Y-2541543D01*
X-2808433Y-2589162D01*
X-2903671Y-2636781D01*
X-3189386Y-2636781D01*
X-3284624Y-2589162D01*
X-3332243Y-2541543D01*
M02*
