G04 #@! TF.FileFunction,Soldermask,Bot*
%FSLAX46Y46*%
G04 Gerber Fmt 4.6, Leading zero omitted, Abs format (unit mm)*
G04 Created by KiCad (PCBNEW 4.0.1-stable) date 2/9/2017 10:22:46 PM*
%MOMM*%
G01*
G04 APERTURE LIST*
%ADD10C,0.100000*%
%ADD11C,1.797000*%
%ADD12C,3.448000*%
%ADD13R,2.100000X2.100000*%
%ADD14O,2.100000X2.100000*%
G04 APERTURE END LIST*
D10*
D11*
X-36830000Y23704600D03*
X-36830000Y26244600D03*
X-34290000Y23704600D03*
X-34290000Y26244600D03*
X-31750000Y23704600D03*
X-31750000Y26244600D03*
X-29210000Y23704600D03*
X-29210000Y26244600D03*
X-26670000Y23704600D03*
X-26670000Y26244600D03*
X-24130000Y23704600D03*
X-24130000Y26244600D03*
X-21590000Y23704600D03*
X-21590000Y26244600D03*
X-19050000Y23704600D03*
X-19050000Y26244600D03*
X-16510000Y23704600D03*
X-16510000Y26244600D03*
X-13970000Y23704600D03*
X-13970000Y26244600D03*
X-11430000Y23704600D03*
X-11430000Y26244600D03*
X-8890000Y23704600D03*
X-8890000Y26244600D03*
X-6350000Y23704600D03*
X-6350000Y26244600D03*
X-3810000Y23704600D03*
X-3810000Y26244600D03*
X-1270000Y23704600D03*
X-1270000Y26244600D03*
X1270000Y23704600D03*
X1270000Y26244600D03*
X3810000Y23704600D03*
X3810000Y26244600D03*
X6350000Y23704600D03*
X6350000Y26244600D03*
X8890000Y23704600D03*
X8890000Y26244600D03*
X11430000Y23704600D03*
X11430000Y26244600D03*
X13970000Y23704600D03*
X13970000Y26244600D03*
X16510000Y23704600D03*
X16510000Y26244600D03*
X19050000Y23704600D03*
X19050000Y26244600D03*
X21590000Y23704600D03*
X21590000Y26244600D03*
X24130000Y23704600D03*
X24130000Y26244600D03*
X26670000Y23704600D03*
X26670000Y26244600D03*
X29210000Y23704600D03*
X29210000Y26244600D03*
X31750000Y23704600D03*
X31750000Y26244600D03*
X34290000Y23704600D03*
X34290000Y26244600D03*
X36830000Y23704600D03*
X36830000Y26244600D03*
D12*
X45720000Y24720600D03*
X-45720000Y24720600D03*
D13*
X25875000Y17600000D03*
D14*
X23335000Y17600000D03*
X25875000Y15060000D03*
X23335000Y15060000D03*
X25875000Y12520000D03*
X23335000Y12520000D03*
X25875000Y9980000D03*
X23335000Y9980000D03*
X25875000Y7440000D03*
X23335000Y7440000D03*
X25875000Y4900000D03*
X23335000Y4900000D03*
X25875000Y2360000D03*
X23335000Y2360000D03*
X25875000Y-180000D03*
X23335000Y-180000D03*
X25875000Y-2720000D03*
X23335000Y-2720000D03*
X25875000Y-5260000D03*
X23335000Y-5260000D03*
X25875000Y-7800000D03*
X23335000Y-7800000D03*
X25875000Y-10340000D03*
X23335000Y-10340000D03*
X25875000Y-12880000D03*
X23335000Y-12880000D03*
X25875000Y-15420000D03*
X23335000Y-15420000D03*
X25875000Y-17960000D03*
X23335000Y-17960000D03*
D13*
X-23325000Y12800000D03*
D14*
X-25865000Y12800000D03*
X-23325000Y10260000D03*
X-25865000Y10260000D03*
X-23325000Y7720000D03*
X-25865000Y7720000D03*
X-23325000Y5180000D03*
X-25865000Y5180000D03*
X-23325000Y2640000D03*
X-25865000Y2640000D03*
X-23325000Y100000D03*
X-25865000Y100000D03*
X-23325000Y-2440000D03*
X-25865000Y-2440000D03*
X-23325000Y-4980000D03*
X-25865000Y-4980000D03*
X-23325000Y-7520000D03*
X-25865000Y-7520000D03*
X-23325000Y-10060000D03*
X-25865000Y-10060000D03*
X-23325000Y-12600000D03*
X-25865000Y-12600000D03*
X-23325000Y-15140000D03*
X-25865000Y-15140000D03*
X-23325000Y-17680000D03*
X-25865000Y-17680000D03*
D11*
X13589000Y-17805400D03*
X17526000Y-17780000D03*
X-10490200Y-13131800D03*
X-18796000Y-18186400D03*
X3708400Y-4826000D03*
X47294800Y20929600D03*
M02*
