M48
;DRILL file {KiCad 4.0.1-stable} date 2/9/2017 10:23:01 PM
;FORMAT={-:-/ absolute / inch / decimal}
FMAT,2
INCH,TZ
T1C0.013
T2C0.035
T3C0.039
T4C0.040
T5C0.106
%
G90
G05
M72
T1
X-1.117Y0.304
X-0.771Y0.354
X-0.7678Y0.2292
X-0.7468Y-0.2212
X-0.7454Y-0.3212
X-0.7452Y-0.1212
X-0.744Y0.254
X-0.74Y0.329
X-0.738Y0.454
X-0.7222Y-0.1964
X-0.722Y-0.296
X-0.721Y-0.0962
X-0.707Y0.5404
X-0.6694Y-0.4078
X-0.626Y0.304
X-0.622Y0.429
X-0.6Y0.154
X-0.573Y0.236
X-0.5634Y-0.3028
X-0.548Y-0.424
X-0.545Y0.055
X-0.513Y0.104
X-0.425Y0.634
X-0.4136Y0.404
X-0.4112Y0.304
X-0.4006Y-0.296
X-0.4002Y-0.196
X-0.4002Y-0.3464
X-0.3994Y-0.2462
X-0.3988Y-0.1462
X-0.388Y0.058
X-0.3862Y0.3788
X-0.385Y0.279
X-0.3756Y-0.1214
X-0.3756Y-0.1712
X-0.3756Y-0.2712
X-0.3752Y-0.3212
X-0.3748Y-0.2212
X-0.1862Y-0.5396
X-0.1854Y-0.4898
X-0.1848Y-0.6396
X-0.1846Y-0.4396
X-0.1616Y-0.5148
X-0.1616Y-0.5642
X-0.1614Y-0.6144
X-0.1602Y-0.4646
X-0.1088Y-0.7262
X0.16Y-0.6144
X0.1604Y-0.5144
X0.1604Y-0.6648
X0.1612Y-0.5646
X0.1618Y-0.4646
X0.185Y-0.4398
X0.185Y-0.4896
X0.185Y-0.5896
X0.1854Y-0.6396
X0.1858Y-0.5396
X0.2002Y0.0852
X0.201Y0.135
X0.2016Y0.0354
X0.2016Y-0.0148
X0.2018Y0.1852
X0.2242Y-0.0398
X0.2248Y0.11
X0.2248Y0.0606
X0.225Y0.0104
X0.226Y0.2102
X0.2262Y0.1602
X0.241Y-0.384
X0.2776Y-0.1014
X0.3554Y-0.4256
X0.3562Y-0.3758
X0.3568Y-0.4754
X0.3568Y-0.5256
X0.357Y-0.3256
X0.3794Y-0.5506
X0.38Y-0.4008
X0.38Y-0.4502
X0.3802Y-0.5004
X0.3814Y-0.3506
X0.4328Y-0.6122
X0.4926Y-0.0932
X0.546Y0.228
X0.5464Y0.0104
X0.5468Y0.1104
X0.5468Y-0.04
X0.5476Y0.0602
X0.5714Y0.185
X0.5714Y0.0352
X0.5718Y-0.0148
X0.5722Y0.0852
X0.7016Y-0.5004
X0.702Y-0.299
X0.702Y-0.4004
X0.702Y-0.5508
X0.7266Y-0.3258
X0.7266Y-0.3756
X0.7266Y-0.4756
X0.727Y-0.5256
X0.7274Y-0.4256
X1.1368Y-0.1572
X1.932Y1.141
T2
X-1.45Y1.0333
X-1.45Y0.9333
X-1.35Y1.0333
X-1.35Y0.9333
X-1.25Y1.0333
X-1.25Y0.9333
X-1.15Y1.0333
X-1.15Y0.9333
X-1.05Y1.0333
X-1.05Y0.9333
X-0.95Y1.0333
X-0.95Y0.9333
X-0.85Y1.0333
X-0.85Y0.9333
X-0.75Y1.0333
X-0.75Y0.9333
X-0.65Y1.0333
X-0.65Y0.9333
X-0.55Y1.0333
X-0.55Y0.9333
X-0.45Y1.0333
X-0.45Y0.9333
X-0.35Y1.0333
X-0.35Y0.9333
X-0.25Y1.0333
X-0.25Y0.9333
X-0.15Y1.0333
X-0.15Y0.9333
X-0.05Y1.0333
X-0.05Y0.9333
X0.05Y1.0333
X0.05Y0.9333
X0.15Y1.0333
X0.15Y0.9333
X0.25Y1.0333
X0.25Y0.9333
X0.35Y1.0333
X0.35Y0.9333
X0.45Y1.0333
X0.45Y0.9333
X0.55Y1.0333
X0.55Y0.9333
X0.65Y1.0333
X0.65Y0.9333
X0.75Y1.0333
X0.75Y0.9333
X0.85Y1.0333
X0.85Y0.9333
X0.95Y1.0333
X0.95Y0.9333
X1.05Y1.0333
X1.05Y0.9333
X1.15Y1.0333
X1.15Y0.9333
X1.25Y1.0333
X1.25Y0.9333
X1.35Y1.0333
X1.35Y0.9333
X1.45Y1.0333
X1.45Y0.9333
T3
X-1.0183Y0.5039
X-1.0183Y0.4039
X-1.0183Y0.3039
X-1.0183Y0.2039
X-1.0183Y0.1039
X-1.0183Y0.0039
X-1.0183Y-0.0961
X-1.0183Y-0.1961
X-1.0183Y-0.2961
X-1.0183Y-0.3961
X-1.0183Y-0.4961
X-1.0183Y-0.5961
X-1.0183Y-0.6961
X-0.9183Y0.5039
X-0.9183Y0.4039
X-0.9183Y0.3039
X-0.9183Y0.2039
X-0.9183Y0.1039
X-0.9183Y0.0039
X-0.9183Y-0.0961
X-0.9183Y-0.1961
X-0.9183Y-0.2961
X-0.9183Y-0.3961
X-0.9183Y-0.4961
X-0.9183Y-0.5961
X-0.9183Y-0.6961
X0.9187Y0.6929
X0.9187Y0.5929
X0.9187Y0.4929
X0.9187Y0.3929
X0.9187Y0.2929
X0.9187Y0.1929
X0.9187Y0.0929
X0.9187Y-0.0071
X0.9187Y-0.1071
X0.9187Y-0.2071
X0.9187Y-0.3071
X0.9187Y-0.4071
X0.9187Y-0.5071
X0.9187Y-0.6071
X0.9187Y-0.7071
X1.0187Y0.6929
X1.0187Y0.5929
X1.0187Y0.4929
X1.0187Y0.3929
X1.0187Y0.2929
X1.0187Y0.1929
X1.0187Y0.0929
X1.0187Y-0.0071
X1.0187Y-0.1071
X1.0187Y-0.2071
X1.0187Y-0.3071
X1.0187Y-0.4071
X1.0187Y-0.5071
X1.0187Y-0.6071
X1.0187Y-0.7071
T4
X-0.74Y-0.716
X-0.413Y-0.517
X0.146Y-0.19
X0.535Y-0.701
X0.69Y-0.7
X1.862Y0.824
T5
X-1.8Y0.9733
X1.8Y0.9733
T0
M30
