G04 #@! TF.FileFunction,Copper,L4,Bot,Signal*
%FSLAX46Y46*%
G04 Gerber Fmt 4.6, Leading zero omitted, Abs format (unit mm)*
G04 Created by KiCad (PCBNEW 4.0.1-stable) date 2/17/2017 10:30:22 PM*
%MOMM*%
G01*
G04 APERTURE LIST*
%ADD10C,0.100000*%
%ADD11C,1.397000*%
%ADD12C,3.048000*%
%ADD13R,1.700000X1.700000*%
%ADD14O,1.700000X1.700000*%
%ADD15C,0.685800*%
%ADD16C,0.203200*%
%ADD17C,0.152400*%
%ADD18C,0.254000*%
%ADD19C,0.304800*%
G04 APERTURE END LIST*
D10*
D11*
X-36830000Y23704600D03*
X-36830000Y26244600D03*
X-34290000Y23704600D03*
X-34290000Y26244600D03*
X-31750000Y23704600D03*
X-31750000Y26244600D03*
X-29210000Y23704600D03*
X-29210000Y26244600D03*
X-26670000Y23704600D03*
X-26670000Y26244600D03*
X-24130000Y23704600D03*
X-24130000Y26244600D03*
X-21590000Y23704600D03*
X-21590000Y26244600D03*
X-19050000Y23704600D03*
X-19050000Y26244600D03*
X-16510000Y23704600D03*
X-16510000Y26244600D03*
X-13970000Y23704600D03*
X-13970000Y26244600D03*
X-11430000Y23704600D03*
X-11430000Y26244600D03*
X-8890000Y23704600D03*
X-8890000Y26244600D03*
X-6350000Y23704600D03*
X-6350000Y26244600D03*
X-3810000Y23704600D03*
X-3810000Y26244600D03*
X-1270000Y23704600D03*
X-1270000Y26244600D03*
X1270000Y23704600D03*
X1270000Y26244600D03*
X3810000Y23704600D03*
X3810000Y26244600D03*
X6350000Y23704600D03*
X6350000Y26244600D03*
X8890000Y23704600D03*
X8890000Y26244600D03*
X11430000Y23704600D03*
X11430000Y26244600D03*
X13970000Y23704600D03*
X13970000Y26244600D03*
X16510000Y23704600D03*
X16510000Y26244600D03*
X19050000Y23704600D03*
X19050000Y26244600D03*
X21590000Y23704600D03*
X21590000Y26244600D03*
X24130000Y23704600D03*
X24130000Y26244600D03*
X26670000Y23704600D03*
X26670000Y26244600D03*
X29210000Y23704600D03*
X29210000Y26244600D03*
X31750000Y23704600D03*
X31750000Y26244600D03*
X34290000Y23704600D03*
X34290000Y26244600D03*
X36830000Y23704600D03*
X36830000Y26244600D03*
D12*
X45720000Y24720600D03*
X-45720000Y24720600D03*
D13*
X25875000Y17600000D03*
D14*
X23335000Y17600000D03*
X25875000Y15060000D03*
X23335000Y15060000D03*
X25875000Y12520000D03*
X23335000Y12520000D03*
X25875000Y9980000D03*
X23335000Y9980000D03*
X25875000Y7440000D03*
X23335000Y7440000D03*
X25875000Y4900000D03*
X23335000Y4900000D03*
X25875000Y2360000D03*
X23335000Y2360000D03*
X25875000Y-180000D03*
X23335000Y-180000D03*
X25875000Y-2720000D03*
X23335000Y-2720000D03*
X25875000Y-5260000D03*
X23335000Y-5260000D03*
X25875000Y-7800000D03*
X23335000Y-7800000D03*
X25875000Y-10340000D03*
X23335000Y-10340000D03*
X25875000Y-12880000D03*
X23335000Y-12880000D03*
X25875000Y-15420000D03*
X23335000Y-15420000D03*
X25875000Y-17960000D03*
X23335000Y-17960000D03*
D13*
X-23325000Y12800000D03*
D14*
X-25865000Y12800000D03*
X-23325000Y10260000D03*
X-25865000Y10260000D03*
X-23325000Y7720000D03*
X-25865000Y7720000D03*
X-23325000Y5180000D03*
X-25865000Y5180000D03*
X-23325000Y2640000D03*
X-25865000Y2640000D03*
X-23325000Y100000D03*
X-25865000Y100000D03*
X-23325000Y-2440000D03*
X-25865000Y-2440000D03*
X-23325000Y-4980000D03*
X-25865000Y-4980000D03*
X-23325000Y-7520000D03*
X-25865000Y-7520000D03*
X-23325000Y-10060000D03*
X-25865000Y-10060000D03*
X-23325000Y-12600000D03*
X-25865000Y-12600000D03*
X-23325000Y-15140000D03*
X-25865000Y-15140000D03*
X-23325000Y-17680000D03*
X-25865000Y-17680000D03*
D11*
X13589000Y-17805400D03*
X17526000Y-17780000D03*
X-10490200Y-13131800D03*
X-18796000Y-18186400D03*
X3708400Y-4826000D03*
X47294800Y20929600D03*
X-28676600Y14274800D03*
X-19050000Y-11201400D03*
D15*
X-18897600Y6451600D03*
X-18796000Y8356600D03*
X-19583400Y8991600D03*
X-15798800Y10896600D03*
X-18745200Y11531600D03*
X-28371800Y7721600D03*
X-15900400Y7721600D03*
X18455640Y-9540240D03*
X-13919200Y-10769600D03*
X17830800Y-7594600D03*
X13868400Y5791200D03*
X6121400Y-9753600D03*
X-9855200Y1473200D03*
X-10795000Y16103600D03*
X7051040Y-2575560D03*
X10993120Y-15549880D03*
X-2763520Y-18445480D03*
X-19502120Y5821680D03*
X-17002760Y-10358120D03*
X-15240000Y3911600D03*
X-14554200Y5994400D03*
X-13843000Y1397000D03*
X-13030200Y2641600D03*
X-10129520Y-3713480D03*
X-9540240Y-4348480D03*
X-10144760Y-6253480D03*
X-9540240Y-6888480D03*
X-10165080Y-8798560D03*
X-4104640Y-14330680D03*
X-4709160Y-12440920D03*
X-4069080Y-11800840D03*
X4074160Y-16885920D03*
X4699000Y-14975840D03*
X4094480Y-14340840D03*
X4699000Y-12435840D03*
X4109720Y-11800840D03*
X5694680Y-1010920D03*
X5120640Y899160D03*
X5709920Y1539240D03*
X5105400Y3429000D03*
X5745480Y4069080D03*
X13888720Y-1016000D03*
X14513560Y894080D03*
X13909040Y1529080D03*
X9687560Y-8905240D03*
X9047480Y-9545320D03*
X9652000Y-11435080D03*
X9062720Y-12075160D03*
X9636760Y-13985240D03*
X17830800Y-13990320D03*
X-10505440Y10261600D03*
X-9809480Y9621520D03*
X-10444480Y7721600D03*
X-9779000Y7086600D03*
X-18933160Y-8158480D03*
X-18338800Y-7518400D03*
X-18968720Y-5618480D03*
X-18343880Y-4988560D03*
X-18928080Y-3078480D03*
X-9540240Y-3083560D03*
X-10165080Y-4978400D03*
X-9519920Y-5618480D03*
X-10175240Y-7518400D03*
X-9530080Y-8158480D03*
X-4693920Y-16245840D03*
X-4099560Y-15605760D03*
X-4729480Y-13705840D03*
X-4104640Y-13075920D03*
X-4688840Y-11165840D03*
X4709160Y-16245840D03*
X4064000Y-15605760D03*
X4719320Y-13705840D03*
X4074160Y-13065760D03*
X4699000Y-11170920D03*
X5120640Y-375920D03*
X5715000Y264160D03*
X5085080Y2164080D03*
X5709920Y2794000D03*
X5125720Y4704080D03*
X14523720Y-375920D03*
X13878560Y264160D03*
X14533880Y2164080D03*
X13888720Y2804160D03*
X14513560Y4699000D03*
X9067800Y-8270240D03*
X9652000Y-10180320D03*
X9027160Y-10810240D03*
X9657080Y-12710160D03*
X9062720Y-13350240D03*
X18455640Y-8275320D03*
X17830800Y-10170160D03*
X18475960Y-10810240D03*
X18465800Y-13350240D03*
X49072800Y28981400D03*
X5740400Y5339080D03*
X-14310360Y-7691120D03*
X-18313400Y-2443480D03*
X-17957800Y13726160D03*
X12512040Y-2367280D03*
X28874720Y-3992880D03*
X18455640Y-12080240D03*
X17820640Y-12710160D03*
D16*
X-18897600Y6451600D02*
X-27178000Y6451600D01*
X-27255800Y12800000D02*
X-27635200Y12420600D01*
X-27635200Y12420600D02*
X-27635200Y6908800D01*
X-27635200Y6908800D02*
X-27178000Y6451600D01*
X-27255800Y12800000D02*
X-25865000Y12800000D01*
D17*
X-18897600Y6451600D02*
X-18846800Y6451600D01*
D18*
X23335000Y17600000D02*
X-1998640Y17600000D01*
X-14478000Y8356600D02*
X-18796000Y8356600D01*
X-12212320Y6090920D02*
X-14478000Y8356600D01*
X-8336280Y6090920D02*
X-12212320Y6090920D01*
X-5293360Y9133840D02*
X-8336280Y6090920D01*
X-5293360Y14305280D02*
X-5293360Y9133840D01*
X-1998640Y17600000D02*
X-5293360Y14305280D01*
D16*
X-24622000Y9017000D02*
X-19608800Y9017000D01*
X-25865000Y10260000D02*
X-24622000Y9017000D01*
X-19608800Y9017000D02*
X-19583400Y8991600D01*
X-23325000Y10260000D02*
X-18061000Y10260000D01*
X-17424400Y10896600D02*
X-15798800Y10896600D01*
X-18061000Y10260000D02*
X-17424400Y10896600D01*
X-21742400Y14528800D02*
X-18745200Y11531600D01*
X-26797000Y14528800D02*
X-21742400Y14528800D01*
X-28371800Y12954000D02*
X-26797000Y14528800D01*
X-28371800Y7721600D02*
X-28371800Y12954000D01*
X-23325000Y7720000D02*
X-15902000Y7720000D01*
X-15902000Y7720000D02*
X-15900400Y7721600D01*
X19110960Y-9540240D02*
X18455640Y-9540240D01*
X20970240Y-11399520D02*
X19110960Y-9540240D01*
X20970240Y-14376400D02*
X20970240Y-11399520D01*
X23335000Y-15420000D02*
X22013840Y-15420000D01*
X22013840Y-15420000D02*
X20970240Y-14376400D01*
D18*
X-10795000Y16103600D02*
X-10795000Y16078200D01*
D19*
X34290000Y26244600D02*
X36830000Y26244600D01*
X36830000Y26244600D02*
X36830000Y23704600D01*
D16*
X-15240000Y3911600D02*
X-24596600Y3911600D01*
X-24596600Y3911600D02*
X-25865000Y5180000D01*
X-23325000Y5180000D02*
X-18848400Y5180000D01*
X-18034000Y5994400D02*
X-14554200Y5994400D01*
X-18848400Y5180000D02*
X-18034000Y5994400D01*
X-13843000Y1397000D02*
X-24622000Y1397000D01*
X-24622000Y1397000D02*
X-25865000Y2640000D01*
X-23325000Y2640000D02*
X-13031800Y2640000D01*
X-13031800Y2640000D02*
X-13030200Y2641600D01*
D17*
X-23325000Y100000D02*
X-23174200Y-50800D01*
D16*
X-23325000Y-4980000D02*
X-21068360Y-4980000D01*
X-19801840Y-3713480D02*
X-10129520Y-3713480D01*
X-21068360Y-4980000D02*
X-19801840Y-3713480D01*
X-10129520Y-3713480D02*
X-10129520Y-3718560D01*
X-25865000Y-7520000D02*
X-24573080Y-6228080D01*
X-19278600Y-4348480D02*
X-9540240Y-4348480D01*
X-21158200Y-6228080D02*
X-19278600Y-4348480D01*
X-24573080Y-6228080D02*
X-21158200Y-6228080D01*
X-23325000Y-7520000D02*
X-20956600Y-7520000D01*
X-19690080Y-6253480D02*
X-10144760Y-6253480D01*
X-20956600Y-7520000D02*
X-19690080Y-6253480D01*
X-25865000Y-10060000D02*
X-24583240Y-8778240D01*
X-15468600Y-6888480D02*
X-9540240Y-6888480D01*
X-17358360Y-8778240D02*
X-15468600Y-6888480D01*
X-24583240Y-8778240D02*
X-17358360Y-8778240D01*
X-23325000Y-10060000D02*
X-19204000Y-10060000D01*
X-15016480Y-8798560D02*
X-10165080Y-8798560D01*
X-15605760Y-9387840D02*
X-15016480Y-8798560D01*
X-18531840Y-9387840D02*
X-15605760Y-9387840D01*
X-19204000Y-10060000D02*
X-18531840Y-9387840D01*
X-25865000Y-15140000D02*
X-24622000Y-16383000D01*
X-7208520Y-14330680D02*
X-4104640Y-14330680D01*
X-9260840Y-16383000D02*
X-7208520Y-14330680D01*
X-24622000Y-16383000D02*
X-9260840Y-16383000D01*
X-23325000Y-15140000D02*
X-10628960Y-15140000D01*
X-7929880Y-12440920D02*
X-4709160Y-12440920D01*
X-10628960Y-15140000D02*
X-7929880Y-12440920D01*
X-4709160Y-12440920D02*
X-4709160Y-12435840D01*
X23335000Y15060000D02*
X-1866560Y15060000D01*
X-3378200Y-11109960D02*
X-4069080Y-11800840D01*
X-3378200Y13548360D02*
X-3378200Y-11109960D01*
X-1866560Y15060000D02*
X-3378200Y13548360D01*
X-4069080Y-11800840D02*
X-4099560Y-11831320D01*
X25875000Y15060000D02*
X24612280Y13797280D01*
X-873760Y-16885920D02*
X4074160Y-16885920D01*
X-2504440Y-15255240D02*
X-873760Y-16885920D01*
X-2504440Y12578080D02*
X-2504440Y-15255240D01*
X-1285240Y13797280D02*
X-2504440Y12578080D01*
X24612280Y13797280D02*
X-1285240Y13797280D01*
X23335000Y12520000D02*
X-459400Y12520000D01*
X-711200Y-14975840D02*
X4699000Y-14975840D01*
X-1518920Y-14168120D02*
X-711200Y-14975840D01*
X-1518920Y11460480D02*
X-1518920Y-14168120D01*
X-459400Y12520000D02*
X-1518920Y11460480D01*
X25875000Y12520000D02*
X24642760Y11287760D01*
X-223520Y9479280D02*
X-223520Y-13477240D01*
X-223520Y-13477240D02*
X640080Y-14340840D01*
X640080Y-14340840D02*
X4094480Y-14340840D01*
X-223520Y10571480D02*
X-223520Y9479280D01*
X1117600Y11912600D02*
X-223520Y10571480D01*
X21381720Y11912600D02*
X1117600Y11912600D01*
X22006560Y11287760D02*
X21381720Y11912600D01*
X24642760Y11287760D02*
X22006560Y11287760D01*
X1940560Y11328400D02*
X711200Y10099040D01*
X711200Y-11755120D02*
X711200Y10099040D01*
X21815720Y9980000D02*
X20467320Y11328400D01*
X20467320Y11328400D02*
X1940560Y11328400D01*
X1391920Y-12435840D02*
X4699000Y-12435840D01*
X711200Y-11755120D02*
X1391920Y-12435840D01*
X21815720Y9980000D02*
X23335000Y9980000D01*
X2352040Y-11800840D02*
X1468120Y-10916920D01*
X24617360Y8722360D02*
X22245320Y8722360D01*
X22245320Y8722360D02*
X20208240Y10759440D01*
X25875000Y9980000D02*
X24617360Y8722360D01*
X2372360Y-11800840D02*
X4109720Y-11800840D01*
X2352040Y-11800840D02*
X2372360Y-11800840D01*
X2814320Y10759440D02*
X1468120Y9413240D01*
X20208240Y10759440D02*
X2814320Y10759440D01*
X1468120Y-10916920D02*
X1468120Y9413240D01*
X4109720Y-11800840D02*
X4109720Y-11805920D01*
X3703320Y10078720D02*
X2321560Y8696960D01*
X2321560Y8696960D02*
X2321560Y-304800D01*
X22003680Y7440000D02*
X19364960Y10078720D01*
X19364960Y10078720D02*
X3703320Y10078720D01*
X3027680Y-1010920D02*
X5694680Y-1010920D01*
X2321560Y-304800D02*
X3027680Y-1010920D01*
X22003680Y7440000D02*
X23335000Y7440000D01*
X3098800Y8173720D02*
X3098800Y2082800D01*
X24627520Y6192520D02*
X22367240Y6192520D01*
X22367240Y6192520D02*
X19075400Y9484360D01*
X19075400Y9484360D02*
X4409440Y9484360D01*
X4409440Y9484360D02*
X3098800Y8173720D01*
X4282440Y899160D02*
X5120640Y899160D01*
X3098800Y2082800D02*
X4282440Y899160D01*
X24627520Y6192520D02*
X25875000Y7440000D01*
X3820160Y7609840D02*
X3820160Y2245360D01*
X22064640Y4900000D02*
X18135600Y8829040D01*
X18135600Y8829040D02*
X5039360Y8829040D01*
X5039360Y8829040D02*
X3820160Y7609840D01*
X4526280Y1539240D02*
X5709920Y1539240D01*
X3820160Y2245360D02*
X4526280Y1539240D01*
X22064640Y4900000D02*
X23335000Y4900000D01*
X4516122Y7167882D02*
X4516122Y4018278D01*
X25875000Y4900000D02*
X24632600Y3657600D01*
X4516122Y4018278D02*
X5105400Y3429000D01*
X5461000Y8112760D02*
X4516122Y7167882D01*
X17810480Y8112760D02*
X5461000Y8112760D01*
X22265640Y3657600D02*
X17810480Y8112760D01*
X24632600Y3657600D02*
X22265640Y3657600D01*
X5105400Y3429000D02*
X5105400Y3434080D01*
X23335000Y2360000D02*
X22024000Y2360000D01*
X6482080Y4805680D02*
X5745480Y4069080D01*
X6482080Y6461760D02*
X6482080Y4805680D01*
X7416800Y7396480D02*
X6482080Y6461760D01*
X16987520Y7396480D02*
X7416800Y7396480D01*
X22024000Y2360000D02*
X16987520Y7396480D01*
X5745480Y4069080D02*
X5715000Y4038600D01*
X18384520Y-1016000D02*
X18790920Y-1422400D01*
X18384520Y-1016000D02*
X13888720Y-1016000D01*
X26857960Y-1422400D02*
X27660600Y-619760D01*
X18790920Y-1422400D02*
X26857960Y-1422400D01*
X25875000Y2360000D02*
X27180200Y2360000D01*
X27660600Y1879600D02*
X27660600Y-619760D01*
X27180200Y2360000D02*
X27660600Y1879600D01*
X23335000Y-180000D02*
X20682880Y-180000D01*
X19608800Y894080D02*
X14513560Y894080D01*
X20682880Y-180000D02*
X19608800Y894080D01*
X25875000Y-180000D02*
X24546920Y1148080D01*
X20634960Y1529080D02*
X13909040Y1529080D01*
X21015960Y1148080D02*
X20634960Y1529080D01*
X24546920Y1148080D02*
X21015960Y1148080D01*
X23335000Y-5260000D02*
X15100640Y-5260000D01*
X11455400Y-8905240D02*
X9687560Y-8905240D01*
X15100640Y-5260000D02*
X11455400Y-8905240D01*
X9687560Y-8905240D02*
X9657080Y-8935720D01*
X25875000Y-5260000D02*
X24617360Y-6517640D01*
X12578080Y-9545320D02*
X9047480Y-9545320D01*
X15605760Y-6517640D02*
X12578080Y-9545320D01*
X24617360Y-6517640D02*
X15605760Y-6517640D01*
X9047480Y-9545320D02*
X9047480Y-9540240D01*
X23335000Y-7800000D02*
X21973200Y-7800000D01*
X21973200Y-7800000D02*
X21153120Y-6979920D01*
X21153120Y-6979920D02*
X16474440Y-6979920D01*
X12019280Y-11435080D02*
X9652000Y-11435080D01*
X16474440Y-6979920D02*
X12019280Y-11435080D01*
X25875000Y-7800000D02*
X27347840Y-7800000D01*
X8173720Y-12964160D02*
X9062720Y-12075160D01*
X8173720Y-15600680D02*
X8173720Y-12964160D01*
X8829040Y-16256000D02*
X8173720Y-15600680D01*
X18470880Y-16256000D02*
X8829040Y-16256000D01*
X21417280Y-19202400D02*
X18470880Y-16256000D01*
X27142440Y-19202400D02*
X21417280Y-19202400D01*
X28000960Y-18343880D02*
X27142440Y-19202400D01*
X28000960Y-8453120D02*
X28000960Y-18343880D01*
X27347840Y-7800000D02*
X28000960Y-8453120D01*
X23335000Y-10340000D02*
X21343280Y-10340000D01*
X21343280Y-10340000D02*
X19903440Y-8900160D01*
X19903440Y-8900160D02*
X15986760Y-8900160D01*
X10901680Y-13985240D02*
X9636760Y-13985240D01*
X15986760Y-8900160D02*
X10901680Y-13985240D01*
X23335000Y-17960000D02*
X21363600Y-17960000D01*
X21363600Y-17960000D02*
X19552920Y-16149320D01*
X19552920Y-16149320D02*
X19552920Y-14808200D01*
X18735040Y-13990320D02*
X17830800Y-13990320D01*
X19552920Y-14808200D02*
X18735040Y-13990320D01*
D19*
X31750000Y26244600D02*
X31750000Y23704600D01*
D16*
X-29210000Y17251680D02*
X-29210000Y23704600D01*
X-27879040Y15920720D02*
X-29210000Y17251680D01*
X-19126200Y15920720D02*
X-27879040Y15920720D01*
X-13467080Y10261600D02*
X-19126200Y15920720D01*
X-10505440Y10261600D02*
X-13467080Y10261600D01*
X-28021280Y25055880D02*
X-29210000Y26244600D01*
X-28021280Y17160240D02*
X-28021280Y25055880D01*
X-27391360Y16530320D02*
X-28021280Y17160240D01*
X-18989040Y16530320D02*
X-27391360Y16530320D01*
X-13421360Y10962640D02*
X-18989040Y16530320D01*
X-10195560Y10962640D02*
X-13421360Y10962640D01*
X-9809480Y10576560D02*
X-10195560Y10962640D01*
X-9809480Y9621520D02*
X-9809480Y10576560D01*
X-26670000Y17602200D02*
X-26670000Y23704600D01*
X-26131520Y17063720D02*
X-26670000Y17602200D01*
X-18785840Y17063720D02*
X-26131520Y17063720D01*
X-13223240Y11501120D02*
X-18785840Y17063720D01*
X-9951720Y11501120D02*
X-13223240Y11501120D01*
X-9149080Y10698480D02*
X-9951720Y11501120D01*
X-9149080Y9017000D02*
X-9149080Y10698480D01*
X-10444480Y7721600D02*
X-9149080Y9017000D01*
X-25476200Y25050800D02*
X-26670000Y26244600D01*
X-25476200Y18343880D02*
X-25476200Y25050800D01*
X-24709120Y17576800D02*
X-25476200Y18343880D01*
X-18709640Y17576800D02*
X-24709120Y17576800D01*
X-13070840Y11938000D02*
X-18709640Y17576800D01*
X-9738360Y11938000D02*
X-13070840Y11938000D01*
X-8661400Y10861040D02*
X-9738360Y11938000D01*
X-8661400Y8204200D02*
X-8661400Y10861040D01*
X-9779000Y7086600D02*
X-8661400Y8204200D01*
X-10175240Y-7518400D02*
X-10175240Y-7523480D01*
X4064000Y-15605760D02*
X4064000Y-15610840D01*
X13878560Y264160D02*
X13878560Y259080D01*
D18*
X26670000Y28422600D02*
X26670000Y26244600D01*
X27228800Y28981400D02*
X26670000Y28422600D01*
X49072800Y28981400D02*
X27228800Y28981400D01*
D19*
X26670000Y26244600D02*
X26670000Y23704600D01*
X26670000Y23704600D02*
X29210000Y23704600D01*
X12512040Y-2367280D02*
X14137640Y-3992880D01*
X14137640Y-3992880D02*
X28874720Y-3992880D01*
D16*
X25875000Y-15420000D02*
X24637680Y-16657320D01*
X19669760Y-12080240D02*
X18455640Y-12080240D01*
X20253960Y-12664440D02*
X19669760Y-12080240D01*
X20253960Y-15123160D02*
X20253960Y-12664440D01*
X21788120Y-16657320D02*
X20253960Y-15123160D01*
X24637680Y-16657320D02*
X21788120Y-16657320D01*
X17820640Y-12710160D02*
X17820640Y-12715240D01*
M02*
