G04 #@! TF.FileFunction,Legend,Top*
%FSLAX46Y46*%
G04 Gerber Fmt 4.6, Leading zero omitted, Abs format (unit mm)*
G04 Created by KiCad (PCBNEW 4.0.2-stable) date 1/24/2017 5:25:06 AM*
%MOMM*%
G01*
G04 APERTURE LIST*
%ADD10C,0.100000*%
%ADD11C,0.152400*%
%ADD12C,0.200000*%
%ADD13C,0.150000*%
G04 APERTURE END LIST*
D10*
D11*
X-28532666Y14973300D02*
X-28532666Y14084300D01*
X-28532666Y14930967D02*
X-28448000Y14973300D01*
X-28278666Y14973300D01*
X-28194000Y14930967D01*
X-28151666Y14888633D01*
X-28109333Y14803967D01*
X-28109333Y14549967D01*
X-28151666Y14465300D01*
X-28194000Y14422967D01*
X-28278666Y14380633D01*
X-28448000Y14380633D01*
X-28532666Y14422967D01*
X-27728333Y14380633D02*
X-27728333Y14973300D01*
X-27728333Y15269633D02*
X-27770667Y15227300D01*
X-27728333Y15184967D01*
X-27686000Y15227300D01*
X-27728333Y15269633D01*
X-27728333Y15184967D01*
X-27305000Y14973300D02*
X-27305000Y14380633D01*
X-27305000Y14888633D02*
X-27262667Y14930967D01*
X-27178000Y14973300D01*
X-27051000Y14973300D01*
X-26966334Y14930967D01*
X-26924000Y14846300D01*
X-26924000Y14380633D01*
X-26035001Y14380633D02*
X-26543001Y14380633D01*
X-26289001Y14380633D02*
X-26289001Y15269633D01*
X-26373667Y15142633D01*
X-26458334Y15057967D01*
X-26543001Y15015633D01*
X17009534Y17614900D02*
X17009534Y16725900D01*
X17009534Y17572567D02*
X17094200Y17614900D01*
X17263534Y17614900D01*
X17348200Y17572567D01*
X17390534Y17530233D01*
X17432867Y17445567D01*
X17432867Y17191567D01*
X17390534Y17106900D01*
X17348200Y17064567D01*
X17263534Y17022233D01*
X17094200Y17022233D01*
X17009534Y17064567D01*
X17813867Y17022233D02*
X17813867Y17614900D01*
X17813867Y17911233D02*
X17771533Y17868900D01*
X17813867Y17826567D01*
X17856200Y17868900D01*
X17813867Y17911233D01*
X17813867Y17826567D01*
X18237200Y17614900D02*
X18237200Y17022233D01*
X18237200Y17530233D02*
X18279533Y17572567D01*
X18364200Y17614900D01*
X18491200Y17614900D01*
X18575866Y17572567D01*
X18618200Y17487900D01*
X18618200Y17022233D01*
X19507199Y17022233D02*
X18999199Y17022233D01*
X19253199Y17022233D02*
X19253199Y17911233D01*
X19168533Y17784233D01*
X19083866Y17699567D01*
X18999199Y17657233D01*
D12*
X2500000Y-3100000D02*
X2500000Y3100000D01*
X-2500000Y3150000D02*
X-2500000Y-3300000D01*
X-500000Y0D02*
X-450000Y0D01*
X550000Y0D02*
X-500000Y0D01*
X0Y400000D02*
X0Y-350000D01*
X2500000Y-3150000D02*
G75*
G03X2500000Y-3150000I-2500000J0D01*
G01*
X0Y-2550000D02*
X0Y-3700000D01*
X600000Y-3150000D02*
X-600000Y-3150000D01*
X0Y2650000D02*
X0Y3700000D01*
X600000Y3150000D02*
X-600000Y3150000D01*
X2500000Y3150000D02*
G75*
G03X2500000Y3150000I-2500000J0D01*
G01*
D13*
X-14387800Y13500000D02*
G75*
G03X-14387800Y13500000I-2612200J0D01*
G01*
X19612200Y-13500000D02*
G75*
G03X19612200Y-13500000I-2612200J0D01*
G01*
X19612200Y13500000D02*
G75*
G03X19612200Y13500000I-2612200J0D01*
G01*
X-14387800Y-13500000D02*
G75*
G03X-14387800Y-13500000I-2612200J0D01*
G01*
X-25338095Y14947619D02*
X-25338095Y15947619D01*
X-24957142Y15947619D01*
X-24861904Y15900000D01*
X-24814285Y15852381D01*
X-24766666Y15757143D01*
X-24766666Y15614286D01*
X-24814285Y15519048D01*
X-24861904Y15471429D01*
X-24957142Y15423810D01*
X-25338095Y15423810D01*
X-23814285Y14947619D02*
X-24385714Y14947619D01*
X-24100000Y14947619D02*
X-24100000Y15947619D01*
X-24195238Y15804762D01*
X-24290476Y15709524D01*
X-24385714Y15661905D01*
X18029305Y18521419D02*
X18029305Y19521419D01*
X18410258Y19521419D01*
X18505496Y19473800D01*
X18553115Y19426181D01*
X18600734Y19330943D01*
X18600734Y19188086D01*
X18553115Y19092848D01*
X18505496Y19045229D01*
X18410258Y18997610D01*
X18029305Y18997610D01*
X18981686Y19426181D02*
X19029305Y19473800D01*
X19124543Y19521419D01*
X19362639Y19521419D01*
X19457877Y19473800D01*
X19505496Y19426181D01*
X19553115Y19330943D01*
X19553115Y19235705D01*
X19505496Y19092848D01*
X18934067Y18521419D01*
X19553115Y18521419D01*
M02*
