G04 #@! TF.FileFunction,Copper,L1,Top,Signal*
%FSLAX46Y46*%
G04 Gerber Fmt 4.6, Leading zero omitted, Abs format (unit mm)*
G04 Created by KiCad (PCBNEW 4.0.2-stable) date 1/24/2017 5:25:06 AM*
%MOMM*%
G01*
G04 APERTURE LIST*
%ADD10C,0.100000*%
%ADD11R,3.560000X1.270000*%
%ADD12C,0.685800*%
%ADD13C,0.254000*%
%ADD14C,0.250000*%
G04 APERTURE END LIST*
D10*
D11*
X-27200000Y12800000D03*
X-21990000Y12800000D03*
X-27200000Y10260000D03*
X-21990000Y10260000D03*
X-27200000Y7720000D03*
X-21990000Y7720000D03*
X-27200000Y5180000D03*
X-21990000Y5180000D03*
X-27200000Y2640000D03*
X-21990000Y2640000D03*
X-27200000Y100000D03*
X-21990000Y100000D03*
X-27200000Y-2440000D03*
X-21990000Y-2440000D03*
X-27200000Y-4980000D03*
X-21990000Y-4980000D03*
X-27200000Y-7520000D03*
X-21990000Y-7520000D03*
X-27200000Y-10060000D03*
X-21990000Y-10060000D03*
X-27200000Y-12600000D03*
X-21990000Y-12600000D03*
X-27200000Y-15140000D03*
X-21990000Y-15140000D03*
X-27200000Y-17680000D03*
X-21990000Y-17680000D03*
X22000000Y17600000D03*
X27210000Y17600000D03*
X22000000Y15060000D03*
X27210000Y15060000D03*
X22000000Y12520000D03*
X27210000Y12520000D03*
X22000000Y9980000D03*
X27210000Y9980000D03*
X22000000Y7440000D03*
X27210000Y7440000D03*
X22000000Y4900000D03*
X27210000Y4900000D03*
X22000000Y2360000D03*
X27210000Y2360000D03*
X22000000Y-180000D03*
X27210000Y-180000D03*
X22000000Y-2720000D03*
X27210000Y-2720000D03*
X22000000Y-5260000D03*
X27210000Y-5260000D03*
X22000000Y-7800000D03*
X27210000Y-7800000D03*
X22000000Y-10340000D03*
X27210000Y-10340000D03*
X22000000Y-12880000D03*
X27210000Y-12880000D03*
X22000000Y-15420000D03*
X27210000Y-15420000D03*
X22000000Y-17960000D03*
X27210000Y-17960000D03*
D12*
X-27254200Y15407640D03*
X19450000Y17625000D03*
X-24612600Y10261600D03*
X-19075400Y10261600D03*
X-24638000Y7747000D03*
X-6223000Y5003800D03*
X-19100800Y7747000D03*
X-2209800Y-3810000D03*
X2325000Y-3800000D03*
X3350000Y-600000D03*
X-2362200Y3810000D03*
X2286000Y3810000D03*
X-24658320Y5293360D03*
X-19121120Y5293360D03*
X-6070600Y2997200D03*
X-14061440Y3002280D03*
X-24683720Y2778760D03*
X-19146520Y2778760D03*
X-24668480Y86360D03*
X-6070600Y1016000D03*
X-19131280Y86360D03*
X-24693880Y-2428240D03*
X-19156680Y-2428240D03*
X-24714200Y-4881880D03*
X-5994400Y-1016000D03*
X-19177000Y-4881880D03*
X-24739600Y-7396480D03*
X-19202400Y-7396480D03*
X-6045200Y-2997200D03*
X-24754840Y-10048240D03*
X-19217640Y-10048240D03*
X-24775160Y-12501880D03*
X-6045200Y-5003800D03*
X-19588480Y-12578080D03*
X-24800560Y-15016480D03*
X-19263360Y-15016480D03*
X-5918200Y-7010400D03*
X19350000Y15050000D03*
X24775000Y15075000D03*
X6200000Y5000000D03*
X19700000Y12575000D03*
X24750000Y12500000D03*
X19325000Y9950000D03*
X6150000Y3000000D03*
X24750000Y9975000D03*
X19225000Y7450000D03*
X24650000Y7475000D03*
X6150000Y1000000D03*
X19200000Y4875000D03*
X24625000Y4900000D03*
X19200000Y2350000D03*
X24625000Y2375000D03*
X6150000Y-1000000D03*
X19175000Y-225000D03*
X24600000Y-200000D03*
X19250000Y-2675000D03*
X6125000Y-3000000D03*
X24675000Y-2650000D03*
X19225000Y-5250000D03*
X24650000Y-5225000D03*
X6125000Y-5000000D03*
X19225000Y-7775000D03*
X24650000Y-7750000D03*
X19200000Y-10350000D03*
X6050000Y-7000000D03*
X24625000Y-10325000D03*
X-3149600Y660400D03*
X-3175000Y1879600D03*
X3149600Y1905000D03*
D13*
X-27200000Y15353440D02*
X-27200000Y12800000D01*
X-27254200Y15407640D02*
X-27200000Y15353440D01*
X19475000Y17600000D02*
X22000000Y17600000D01*
X19450000Y17625000D02*
X19475000Y17600000D01*
X-24614200Y10260000D02*
X-24612600Y10261600D01*
X-24614200Y10260000D02*
X-27200000Y10260000D01*
X-19077000Y10260000D02*
X-19075400Y10261600D01*
X-19077000Y10260000D02*
X-21990000Y10260000D01*
X-6223000Y5003800D02*
X-9773920Y5003800D01*
X-27225400Y7745400D02*
X-24639600Y7745400D01*
X-24639600Y7745400D02*
X-24638000Y7747000D01*
X-24638000Y6913880D02*
X-24638000Y7747000D01*
X-24145240Y6421120D02*
X-24638000Y6913880D01*
X-11191240Y6421120D02*
X-24145240Y6421120D01*
X-9773920Y5003800D02*
X-11191240Y6421120D01*
X-19102400Y7745400D02*
X-22015400Y7745400D01*
X-19102400Y7745400D02*
X-19100800Y7747000D01*
X-2209800Y-3810000D02*
X-2209800Y-6540200D01*
X19855000Y-15420000D02*
X22000000Y-15420000D01*
X18450000Y-16825000D02*
X19855000Y-15420000D01*
X14975000Y-16825000D02*
X18450000Y-16825000D01*
X11150000Y-13000000D02*
X14975000Y-16825000D01*
X4250000Y-13000000D02*
X11150000Y-13000000D01*
X-2209800Y-6540200D02*
X4250000Y-13000000D01*
X-2209800Y-3810000D02*
X-50800Y-3810000D01*
X-5054600Y-9017000D02*
X5178400Y-19250000D01*
X-2362200Y3810000D02*
X-3886200Y3810000D01*
X-3886200Y3810000D02*
X-5054600Y2641600D01*
X-5054600Y2641600D02*
X-5054600Y-9017000D01*
X27210000Y-18890000D02*
X27210000Y-17960000D01*
X26850000Y-19250000D02*
X27210000Y-18890000D01*
X5178400Y-19250000D02*
X26850000Y-19250000D01*
X3350000Y-2775000D02*
X3350000Y-600000D01*
X2325000Y-3800000D02*
X3350000Y-2775000D01*
X-1060000Y3810000D02*
X-2362200Y3810000D01*
X3350000Y-600000D02*
X-1060000Y3810000D01*
X5156200Y-5715000D02*
X5156200Y-7656200D01*
X2286000Y3810000D02*
X4343400Y3810000D01*
X5156200Y2997200D02*
X5156200Y-5715000D01*
X4343400Y3810000D02*
X5156200Y2997200D01*
X27210000Y-11985000D02*
X27210000Y-12880000D01*
X26875000Y-11650000D02*
X27210000Y-11985000D01*
X19200000Y-11650000D02*
X26875000Y-11650000D01*
X18150000Y-10600000D02*
X19200000Y-11650000D01*
X15650000Y-10600000D02*
X18150000Y-10600000D01*
X13900000Y-8850000D02*
X15650000Y-10600000D01*
X6350000Y-8850000D02*
X13900000Y-8850000D01*
X5156200Y-7656200D02*
X6350000Y-8850000D01*
X-24659920Y5291760D02*
X-27245720Y5291760D01*
X-24659920Y5291760D02*
X-24658320Y5293360D01*
X-6070600Y2997200D02*
X-11805920Y2997200D01*
X-22035720Y5291760D02*
X-19122720Y5291760D01*
X-19122720Y5291760D02*
X-19121120Y5293360D01*
X-14102080Y5293360D02*
X-19121120Y5293360D01*
X-11805920Y2997200D02*
X-14102080Y5293360D01*
X-24683720Y3307080D02*
X-24683720Y2778760D01*
X-24130000Y3860800D02*
X-24683720Y3307080D01*
X-14919960Y3860800D02*
X-24130000Y3860800D01*
X-14061440Y3002280D02*
X-14919960Y3860800D01*
X-24685320Y2777160D02*
X-24683720Y2778760D01*
X-24685320Y2777160D02*
X-27271120Y2777160D01*
X-19148120Y2777160D02*
X-19146520Y2778760D01*
X-19148120Y2777160D02*
X-22061120Y2777160D01*
X-6070600Y1016000D02*
X-14030960Y1016000D01*
X-24670080Y84760D02*
X-27255880Y84760D01*
X-24670080Y84760D02*
X-24668480Y86360D01*
X-24668480Y1066800D02*
X-24668480Y86360D01*
X-24404320Y1330960D02*
X-24668480Y1066800D01*
X-14345920Y1330960D02*
X-24404320Y1330960D01*
X-14030960Y1016000D02*
X-14345920Y1330960D01*
X-19132880Y84760D02*
X-22045880Y84760D01*
X-19132880Y84760D02*
X-19131280Y86360D01*
X-24695480Y-2429840D02*
X-24693880Y-2428240D01*
X-24695480Y-2429840D02*
X-27281280Y-2429840D01*
X-19158280Y-2429840D02*
X-19156680Y-2428240D01*
X-19158280Y-2429840D02*
X-22071280Y-2429840D01*
X-5994400Y-1016000D02*
X-12639040Y-1016000D01*
X-24715800Y-4883480D02*
X-24714200Y-4881880D01*
X-24715800Y-4883480D02*
X-27301600Y-4883480D01*
X-24714200Y-4251960D02*
X-24714200Y-4881880D01*
X-24155400Y-3693160D02*
X-24714200Y-4251960D01*
X-15316200Y-3693160D02*
X-24155400Y-3693160D01*
X-12639040Y-1016000D02*
X-15316200Y-3693160D01*
X-19178600Y-4883480D02*
X-19177000Y-4881880D01*
X-19178600Y-4883480D02*
X-22091600Y-4883480D01*
X-24741200Y-7398080D02*
X-27327000Y-7398080D01*
X-24741200Y-7398080D02*
X-24739600Y-7396480D01*
X-6045200Y-2997200D02*
X-11577320Y-2997200D01*
X-19204000Y-7398080D02*
X-22117000Y-7398080D01*
X-19204000Y-7398080D02*
X-19202400Y-7396480D01*
X-15976600Y-7396480D02*
X-19202400Y-7396480D01*
X-11577320Y-2997200D02*
X-15976600Y-7396480D01*
X-24756440Y-10049840D02*
X-27342240Y-10049840D01*
X-24756440Y-10049840D02*
X-24754840Y-10048240D01*
X-19219240Y-10049840D02*
X-22132240Y-10049840D01*
X-19219240Y-10049840D02*
X-19217640Y-10048240D01*
X-6045200Y-5003800D02*
X-11973560Y-5003800D01*
X-24776760Y-12503480D02*
X-27362560Y-12503480D01*
X-24776760Y-12503480D02*
X-24775160Y-12501880D01*
X-24775160Y-11673840D02*
X-24775160Y-12501880D01*
X-24394160Y-11292840D02*
X-24775160Y-11673840D01*
X-18262600Y-11292840D02*
X-24394160Y-11292840D01*
X-11973560Y-5003800D02*
X-18262600Y-11292840D01*
X-19610400Y-12600000D02*
X-21990000Y-12600000D01*
X-19588480Y-12578080D02*
X-19610400Y-12600000D01*
X-24802160Y-15018080D02*
X-24800560Y-15016480D01*
X-24802160Y-15018080D02*
X-27387960Y-15018080D01*
X-5918200Y-7010400D02*
X-7208520Y-7010400D01*
X-19264960Y-15018080D02*
X-22177960Y-15018080D01*
X-19264960Y-15018080D02*
X-19263360Y-15016480D01*
X-18186400Y-16093440D02*
X-19263360Y-15016480D01*
X-14478000Y-16093440D02*
X-18186400Y-16093440D01*
X-12451080Y-14066520D02*
X-14478000Y-16093440D01*
X-12451080Y-12252960D02*
X-12451080Y-14066520D01*
X-7208520Y-7010400D02*
X-12451080Y-12252960D01*
D14*
X-5918200Y-7010400D02*
X-5918200Y-7239000D01*
D13*
X22150000Y15060000D02*
X19360000Y15060000D01*
X19360000Y15060000D02*
X19350000Y15050000D01*
X24790000Y15060000D02*
X24775000Y15075000D01*
X24790000Y15060000D02*
X27360000Y15060000D01*
X6200000Y5000000D02*
X12125000Y5000000D01*
X12125000Y5000000D02*
X19700000Y12575000D01*
X19755000Y12520000D02*
X22000000Y12520000D01*
X19700000Y12575000D02*
X19755000Y12520000D01*
X24765000Y12485000D02*
X27335000Y12485000D01*
X24765000Y12485000D02*
X24750000Y12500000D01*
X19335000Y9960000D02*
X19325000Y9950000D01*
X22125000Y9960000D02*
X19335000Y9960000D01*
X6150000Y3000000D02*
X12500000Y3000000D01*
X24750000Y9250000D02*
X24750000Y9975000D01*
X24225000Y8725000D02*
X24750000Y9250000D01*
X18225000Y8725000D02*
X24225000Y8725000D01*
X12500000Y3000000D02*
X18225000Y8725000D01*
X24765000Y9960000D02*
X27335000Y9960000D01*
X24765000Y9960000D02*
X24750000Y9975000D01*
X19235000Y7460000D02*
X19225000Y7450000D01*
X22025000Y7460000D02*
X19235000Y7460000D01*
X24665000Y7460000D02*
X27235000Y7460000D01*
X24665000Y7460000D02*
X24650000Y7475000D01*
X6150000Y1000000D02*
X13425000Y1000000D01*
X17300000Y4875000D02*
X19200000Y4875000D01*
X13425000Y1000000D02*
X17300000Y4875000D01*
X22000000Y4885000D02*
X19210000Y4885000D01*
X19210000Y4885000D02*
X19200000Y4875000D01*
X24640000Y4885000D02*
X24625000Y4900000D01*
X24640000Y4885000D02*
X27210000Y4885000D01*
X22000000Y2360000D02*
X19210000Y2360000D01*
X19210000Y2360000D02*
X19200000Y2350000D01*
X24640000Y2360000D02*
X24625000Y2375000D01*
X24640000Y2360000D02*
X27210000Y2360000D01*
X6150000Y-1000000D02*
X14225000Y-1000000D01*
X15000000Y-225000D02*
X19175000Y-225000D01*
X14225000Y-1000000D02*
X15000000Y-225000D01*
X19185000Y-215000D02*
X19175000Y-225000D01*
X21975000Y-215000D02*
X19185000Y-215000D01*
X24615000Y-215000D02*
X27185000Y-215000D01*
X24615000Y-215000D02*
X24600000Y-200000D01*
X22050000Y-2665000D02*
X19260000Y-2665000D01*
X19260000Y-2665000D02*
X19250000Y-2675000D01*
X6125000Y-3000000D02*
X15100000Y-3000000D01*
X24675000Y-1825000D02*
X24675000Y-2650000D01*
X24325000Y-1475000D02*
X24675000Y-1825000D01*
X16625000Y-1475000D02*
X24325000Y-1475000D01*
X15100000Y-3000000D02*
X16625000Y-1475000D01*
X24690000Y-2665000D02*
X24675000Y-2650000D01*
X24690000Y-2665000D02*
X27260000Y-2665000D01*
X19235000Y-5240000D02*
X19225000Y-5250000D01*
X22025000Y-5240000D02*
X19235000Y-5240000D01*
X24665000Y-5240000D02*
X27235000Y-5240000D01*
X24665000Y-5240000D02*
X24650000Y-5225000D01*
X6125000Y-5000000D02*
X15100000Y-5000000D01*
X17875000Y-7775000D02*
X19225000Y-7775000D01*
X15100000Y-5000000D02*
X17875000Y-7775000D01*
X19235000Y-7765000D02*
X19225000Y-7775000D01*
X22025000Y-7765000D02*
X19235000Y-7765000D01*
X24665000Y-7765000D02*
X27235000Y-7765000D01*
X24665000Y-7765000D02*
X24650000Y-7750000D01*
X22000000Y-10340000D02*
X19210000Y-10340000D01*
X19210000Y-10340000D02*
X19200000Y-10350000D01*
X6050000Y-7000000D02*
X13675000Y-7000000D01*
X24625000Y-9400000D02*
X24625000Y-10325000D01*
X24275000Y-9050000D02*
X24625000Y-9400000D01*
X15725000Y-9050000D02*
X24275000Y-9050000D01*
X13675000Y-7000000D02*
X15725000Y-9050000D01*
X24640000Y-10340000D02*
X24625000Y-10325000D01*
X24640000Y-10340000D02*
X27210000Y-10340000D01*
X-3149600Y-7467600D02*
X7032800Y-17650000D01*
X-3149600Y660400D02*
X-3149600Y-7467600D01*
X25980000Y-16650000D02*
X27210000Y-15420000D01*
X19725000Y-16650000D02*
X25980000Y-16650000D01*
X18725000Y-17650000D02*
X19725000Y-16650000D01*
X7032800Y-17650000D02*
X18725000Y-17650000D01*
X-4216400Y-8200000D02*
X6033600Y-18450000D01*
X19515000Y-17960000D02*
X22000000Y-17960000D01*
X19025000Y-18450000D02*
X19515000Y-17960000D01*
X6033600Y-18450000D02*
X19025000Y-18450000D01*
X-3175000Y1879600D02*
X-3937000Y1879600D01*
X-4216400Y1600200D02*
X-4216400Y-8200000D01*
X-4216400Y-8200000D02*
X-4216400Y-8204200D01*
X-3937000Y1879600D02*
X-4216400Y1600200D01*
X4368800Y-6629400D02*
X4368800Y-8343800D01*
X3149600Y1905000D02*
X4064000Y1905000D01*
X4368800Y1600200D02*
X4368800Y-6629400D01*
X4064000Y1905000D02*
X4368800Y1600200D01*
X18025000Y-15975000D02*
X21120000Y-12880000D01*
X15450000Y-15975000D02*
X18025000Y-15975000D01*
X10800000Y-11325000D02*
X15450000Y-15975000D01*
X7350000Y-11325000D02*
X10800000Y-11325000D01*
X4368800Y-8343800D02*
X7350000Y-11325000D01*
X21120000Y-12880000D02*
X22000000Y-12880000D01*
M02*
