0
SECTION
2
HEADER
9
$ACADVER
1
AC1006
0
ENDSEC
0
SECTION
2
TABLES
0
TABLE
2
LAYER
70
3
0
LAYER
70
0
62
1
6
CONTINUOUS
2
L8D0
0
LAYER
70
0
62
2
6
CONTINUOUS
2
L99D0
0
LAYER
70
0
62
3
6
CONTINUOUS
2
L9D0
0
ENDTAB
0
ENDSEC
0
SECTION
2
BLOCKS
0
BLOCK
2
SENSOR_WIRING
70
0
10
0
20
0
0
POLYLINE
8
L8D0
70
0
40
100
41
100
66
1
0
VERTEX
8
L8D0
10
8909
20
1000
0
VERTEX
8
L8D0
10
8196
20
1000
0
VERTEX
8
L8D0
10
7516
20
328
0
VERTEX
8
L8D0
10
6322.95
20
328
0
VERTEX
8
L8D0
10
6200.95
20
450
0
VERTEX
8
L8D0
10
749
20
450
0
SEQEND
0
POLYLINE
8
L8D0
70
0
40
100
41
100
66
1
0
VERTEX
8
L8D0
10
-6892
20
1000
0
VERTEX
8
L8D0
10
-5386
20
1000
0
VERTEX
8
L8D0
10
-5136
20
750
0
VERTEX
8
L8D0
10
-696
20
750
0
SEQEND
0
POLYLINE
8
L8D0
70
0
40
100
41
100
66
1
0
VERTEX
8
L8D0
10
-7862
20
2000
0
VERTEX
8
L8D0
10
-5758
20
2000
0
VERTEX
8
L8D0
10
-4808
20
1050
0
VERTEX
8
L8D0
10
-681
20
1050
0
SEQEND
0
POLYLINE
8
L8D0
70
0
40
100
41
100
66
1
0
VERTEX
8
L8D0
10
-8909
20
3000
0
VERTEX
8
L8D0
10
-8196
20
3000
0
VERTEX
8
L8D0
10
-7516
20
2328
0
VERTEX
8
L8D0
10
-5409
20
2328
0
VERTEX
8
L8D0
10
-4431
20
1350
0
VERTEX
8
L8D0
10
-686
20
1350
0
SEQEND
0
POLYLINE
8
L8D0
70
0
40
100
41
100
66
1
0
VERTEX
8
L8D0
10
-6872
20
3000
0
VERTEX
8
L8D0
10
-5533
20
3000
0
VERTEX
8
L8D0
10
-4183
20
1650
0
VERTEX
8
L8D0
10
-721
20
1650
0
SEQEND
0
POLYLINE
8
L8D0
70
0
40
100
41
100
66
1
0
VERTEX
8
L8D0
10
-7862
20
4000
0
VERTEX
8
L8D0
10
-5811
20
4000
0
VERTEX
8
L8D0
10
-3761
20
1950
0
VERTEX
8
L8D0
10
-696
20
1950
0
SEQEND
0
POLYLINE
8
L8D0
70
0
40
100
41
100
66
1
0
VERTEX
8
L8D0
10
-8909
20
5000
0
VERTEX
8
L8D0
10
-8196
20
5000
0
VERTEX
8
L8D0
10
-7516
20
4328
0
VERTEX
8
L8D0
10
-5567
20
4328
0
VERTEX
8
L8D0
10
-3489
20
2250
0
VERTEX
8
L8D0
10
-696
20
2250
0
SEQEND
0
POLYLINE
8
L8D0
70
0
40
100
41
100
66
1
0
VERTEX
8
L8D0
10
-6985
20
5000
0
VERTEX
8
L8D0
10
-5683
20
5000
0
VERTEX
8
L8D0
10
-3233
20
2550
0
VERTEX
8
L8D0
10
-681
20
2550
0
SEQEND
0
POLYLINE
8
L8D0
70
0
40
100
41
100
66
1
0
VERTEX
8
L8D0
10
-671
20
2850
0
VERTEX
8
L8D0
10
-2920
20
2850
0
VERTEX
8
L8D0
10
-6070
20
6000
0
VERTEX
8
L8D0
10
-7862
20
6000
0
SEQEND
0
POLYLINE
8
L8D0
70
0
40
100
41
100
66
1
0
VERTEX
8
L8D0
10
-691
20
3150
0
VERTEX
8
L8D0
10
-2783
20
3150
0
VERTEX
8
L8D0
10
-5961
20
6328
0
VERTEX
8
L8D0
10
-7516
20
6328
0
VERTEX
8
L8D0
10
-8196
20
7000
0
VERTEX
8
L8D0
10
-8909
20
7000
0
SEQEND
0
POLYLINE
8
L8D0
70
0
40
100
41
100
66
1
0
VERTEX
8
L8D0
10
-7862
20
0
0
VERTEX
8
L8D0
10
-6068.9
20
0
0
VERTEX
8
L8D0
10
-5918.9
20
150
0
VERTEX
8
L8D0
10
-741
20
150
0
SEQEND
0
POLYLINE
8
L8D0
70
0
40
100
41
100
66
1
0
VERTEX
8
L8D0
10
-8909
20
-1000
0
VERTEX
8
L8D0
10
-8196
20
-1000
0
VERTEX
8
L8D0
10
-7516
20
-328
0
VERTEX
8
L8D0
10
-5912.9
20
-328
0
VERTEX
8
L8D0
10
-5734.9
20
-150
0
VERTEX
8
L8D0
10
-716
20
-150
0
SEQEND
0
POLYLINE
8
L8D0
70
0
40
100
41
100
66
1
0
VERTEX
8
L8D0
10
-6892
20
-1000
0
VERTEX
8
L8D0
10
-5997.9
20
-1000
0
VERTEX
8
L8D0
10
-5447.9
20
-450
0
VERTEX
8
L8D0
10
-721
20
-450
0
SEQEND
0
POLYLINE
8
L8D0
70
0
40
100
41
100
66
1
0
VERTEX
8
L8D0
10
-7862
20
-2000
0
VERTEX
8
L8D0
10
-6385.9
20
-2000
0
VERTEX
8
L8D0
10
-5135.9
20
-750
0
VERTEX
8
L8D0
10
-696
20
-750
0
SEQEND
0
POLYLINE
8
L8D0
70
0
40
100
41
100
66
1
0
VERTEX
8
L8D0
10
-8909
20
-3000
0
VERTEX
8
L8D0
10
-8196
20
-3000
0
VERTEX
8
L8D0
10
-7516
20
-2328
0
VERTEX
8
L8D0
10
-6085.9
20
-2328
0
VERTEX
8
L8D0
10
-4807.9
20
-1050
0
VERTEX
8
L8D0
10
-681
20
-1050
0
SEQEND
0
POLYLINE
8
L8D0
70
0
40
100
41
100
66
1
0
VERTEX
8
L8D0
10
-6872
20
-3000
0
VERTEX
8
L8D0
10
-6080.9
20
-3000
0
VERTEX
8
L8D0
10
-4430.9
20
-1350
0
VERTEX
8
L8D0
10
-686
20
-1350
0
SEQEND
0
POLYLINE
8
L8D0
70
0
40
100
41
100
66
1
0
VERTEX
8
L8D0
10
-7862
20
-4000
0
VERTEX
8
L8D0
10
-6532.9
20
-4000
0
VERTEX
8
L8D0
10
-4182.9
20
-1650
0
VERTEX
8
L8D0
10
-721
20
-1650
0
SEQEND
0
POLYLINE
8
L8D0
70
0
40
100
41
100
66
1
0
VERTEX
8
L8D0
10
-8909
20
-5000
0
VERTEX
8
L8D0
10
-8196
20
-5000
0
VERTEX
8
L8D0
10
-7516
20
-4328
0
VERTEX
8
L8D0
10
-6138.9
20
-4328
0
VERTEX
8
L8D0
10
-3760.9
20
-1950
0
VERTEX
8
L8D0
10
-696
20
-1950
0
SEQEND
0
POLYLINE
8
L8D0
70
0
40
100
41
100
66
1
0
VERTEX
8
L8D0
10
-6985
20
-5000
0
VERTEX
8
L8D0
10
-6238.9
20
-5000
0
VERTEX
8
L8D0
10
-3488.9
20
-2250
0
VERTEX
8
L8D0
10
-696
20
-2250
0
SEQEND
0
POLYLINE
8
L8D0
70
0
40
100
41
100
66
1
0
VERTEX
8
L8D0
10
-7862
20
-6000
0
VERTEX
8
L8D0
10
-6682.9
20
-6000
0
VERTEX
8
L8D0
10
-3232.9
20
-2550
0
VERTEX
8
L8D0
10
-681
20
-2550
0
SEQEND
0
POLYLINE
8
L8D0
70
0
40
100
41
100
66
1
0
VERTEX
8
L8D0
10
-671
20
-2850
0
VERTEX
8
L8D0
10
-2919.9
20
-2850
0
VERTEX
8
L8D0
10
-6397.9
20
-6328
0
VERTEX
8
L8D0
10
-7516
20
-6328
0
VERTEX
8
L8D0
10
-8196
20
-7000
0
VERTEX
8
L8D0
10
-8909
20
-7000
0
SEQEND
0
POLYLINE
8
L8D0
70
0
40
100
41
100
66
1
0
VERTEX
8
L8D0
10
-691
20
-3150
0
VERTEX
8
L8D0
10
-2782.9
20
-3150
0
VERTEX
8
L8D0
10
-6632.9
20
-7000
0
VERTEX
8
L8D0
10
-6923
20
-7000
0
SEQEND
0
POLYLINE
8
L8D0
70
0
40
150
41
150
66
1
0
VERTEX
8
L8D0
10
527
20
4286
0
VERTEX
8
L8D0
10
3467
20
4286
0
VERTEX
8
L8D0
10
6181
20
7000
0
VERTEX
8
L8D0
10
6948
20
7000
0
SEQEND
0
POLYLINE
8
L8D0
70
0
40
100
41
100
66
1
0
VERTEX
8
L8D0
10
-8909
20
1000
0
VERTEX
8
L8D0
10
-8196
20
1000
0
VERTEX
8
L8D0
10
-7516
20
328
0
VERTEX
8
L8D0
10
-6322.95
20
328
0
VERTEX
8
L8D0
10
-6200.95
20
450
0
VERTEX
8
L8D0
10
-749
20
450
0
SEQEND
0
POLYLINE
8
L8D0
70
0
40
100
41
100
66
1
0
VERTEX
8
L8D0
10
691
20
-3150
0
VERTEX
8
L8D0
10
2782.9
20
-3150
0
VERTEX
8
L8D0
10
6632.9
20
-7000
0
VERTEX
8
L8D0
10
6923
20
-7000
0
SEQEND
0
POLYLINE
8
L8D0
70
0
40
100
41
100
66
1
0
VERTEX
8
L8D0
10
671
20
-2850
0
VERTEX
8
L8D0
10
2919.9
20
-2850
0
VERTEX
8
L8D0
10
6397.9
20
-6328
0
VERTEX
8
L8D0
10
7516
20
-6328
0
VERTEX
8
L8D0
10
8196
20
-7000
0
VERTEX
8
L8D0
10
8909
20
-7000
0
SEQEND
0
POLYLINE
8
L8D0
70
0
40
100
41
100
66
1
0
VERTEX
8
L8D0
10
7862
20
-6000
0
VERTEX
8
L8D0
10
6682.9
20
-6000
0
VERTEX
8
L8D0
10
3232.9
20
-2550
0
VERTEX
8
L8D0
10
681
20
-2550
0
SEQEND
0
POLYLINE
8
L8D0
70
0
40
100
41
100
66
1
0
VERTEX
8
L8D0
10
6985
20
-5000
0
VERTEX
8
L8D0
10
6238.9
20
-5000
0
VERTEX
8
L8D0
10
3488.9
20
-2250
0
VERTEX
8
L8D0
10
696
20
-2250
0
SEQEND
0
POLYLINE
8
L8D0
70
0
40
100
41
100
66
1
0
VERTEX
8
L8D0
10
8909
20
-5000
0
VERTEX
8
L8D0
10
8196
20
-5000
0
VERTEX
8
L8D0
10
7516
20
-4328
0
VERTEX
8
L8D0
10
6138.9
20
-4328
0
VERTEX
8
L8D0
10
3760.9
20
-1950
0
VERTEX
8
L8D0
10
696
20
-1950
0
SEQEND
0
POLYLINE
8
L8D0
70
0
40
100
41
100
66
1
0
VERTEX
8
L8D0
10
7862
20
-4000
0
VERTEX
8
L8D0
10
6532.9
20
-4000
0
VERTEX
8
L8D0
10
4182.9
20
-1650
0
VERTEX
8
L8D0
10
721
20
-1650
0
SEQEND
0
POLYLINE
8
L8D0
70
0
40
100
41
100
66
1
0
VERTEX
8
L8D0
10
6872
20
-3000
0
VERTEX
8
L8D0
10
6080.9
20
-3000
0
VERTEX
8
L8D0
10
4430.9
20
-1350
0
VERTEX
8
L8D0
10
686
20
-1350
0
SEQEND
0
POLYLINE
8
L8D0
70
0
40
100
41
100
66
1
0
VERTEX
8
L8D0
10
8909
20
-3000
0
VERTEX
8
L8D0
10
8196
20
-3000
0
VERTEX
8
L8D0
10
7516
20
-2328
0
VERTEX
8
L8D0
10
6085.9
20
-2328
0
VERTEX
8
L8D0
10
4807.9
20
-1050
0
VERTEX
8
L8D0
10
681
20
-1050
0
SEQEND
0
POLYLINE
8
L8D0
70
0
40
100
41
100
66
1
0
VERTEX
8
L8D0
10
7862
20
-2000
0
VERTEX
8
L8D0
10
6385.9
20
-2000
0
VERTEX
8
L8D0
10
5135.9
20
-750
0
VERTEX
8
L8D0
10
696
20
-750
0
SEQEND
0
POLYLINE
8
L8D0
70
0
40
100
41
100
66
1
0
VERTEX
8
L8D0
10
6892
20
-1000
0
VERTEX
8
L8D0
10
5997.9
20
-1000
0
VERTEX
8
L8D0
10
5447.9
20
-450
0
VERTEX
8
L8D0
10
721
20
-450
0
SEQEND
0
POLYLINE
8
L8D0
70
0
40
100
41
100
66
1
0
VERTEX
8
L8D0
10
8909
20
-1000
0
VERTEX
8
L8D0
10
8196
20
-1000
0
VERTEX
8
L8D0
10
7516
20
-328
0
VERTEX
8
L8D0
10
5912.9
20
-328
0
VERTEX
8
L8D0
10
5734.9
20
-150
0
VERTEX
8
L8D0
10
716
20
-150
0
SEQEND
0
POLYLINE
8
L8D0
70
0
40
100
41
100
66
1
0
VERTEX
8
L8D0
10
7862
20
0
0
VERTEX
8
L8D0
10
6068.9
20
0
0
VERTEX
8
L8D0
10
5918.9
20
150
0
VERTEX
8
L8D0
10
741
20
150
0
SEQEND
0
POLYLINE
8
L8D0
70
0
40
100
41
100
66
1
0
VERTEX
8
L8D0
10
691
20
3150
0
VERTEX
8
L8D0
10
2783
20
3150
0
VERTEX
8
L8D0
10
5961
20
6328
0
VERTEX
8
L8D0
10
7516
20
6328
0
VERTEX
8
L8D0
10
8196
20
7000
0
VERTEX
8
L8D0
10
8909
20
7000
0
SEQEND
0
POLYLINE
8
L8D0
70
0
40
100
41
100
66
1
0
VERTEX
8
L8D0
10
671
20
2850
0
VERTEX
8
L8D0
10
2920
20
2850
0
VERTEX
8
L8D0
10
6070
20
6000
0
VERTEX
8
L8D0
10
7862
20
6000
0
SEQEND
0
POLYLINE
8
L8D0
70
0
40
100
41
100
66
1
0
VERTEX
8
L8D0
10
6985
20
5000
0
VERTEX
8
L8D0
10
5683
20
5000
0
VERTEX
8
L8D0
10
3233
20
2550
0
VERTEX
8
L8D0
10
681
20
2550
0
SEQEND
0
POLYLINE
8
L8D0
70
0
40
100
41
100
66
1
0
VERTEX
8
L8D0
10
8909
20
5000
0
VERTEX
8
L8D0
10
8196
20
5000
0
VERTEX
8
L8D0
10
7516
20
4328
0
VERTEX
8
L8D0
10
5567
20
4328
0
VERTEX
8
L8D0
10
3489
20
2250
0
VERTEX
8
L8D0
10
696
20
2250
0
SEQEND
0
POLYLINE
8
L8D0
70
0
40
100
41
100
66
1
0
VERTEX
8
L8D0
10
7862
20
4000
0
VERTEX
8
L8D0
10
5811
20
4000
0
VERTEX
8
L8D0
10
3761
20
1950
0
VERTEX
8
L8D0
10
696
20
1950
0
SEQEND
0
POLYLINE
8
L8D0
70
0
40
100
41
100
66
1
0
VERTEX
8
L8D0
10
6872
20
3000
0
VERTEX
8
L8D0
10
5533
20
3000
0
VERTEX
8
L8D0
10
4183
20
1650
0
VERTEX
8
L8D0
10
721
20
1650
0
SEQEND
0
POLYLINE
8
L8D0
70
0
40
100
41
100
66
1
0
VERTEX
8
L8D0
10
8909
20
3000
0
VERTEX
8
L8D0
10
8196
20
3000
0
VERTEX
8
L8D0
10
7516
20
2328
0
VERTEX
8
L8D0
10
5409
20
2328
0
VERTEX
8
L8D0
10
4431
20
1350
0
VERTEX
8
L8D0
10
686
20
1350
0
SEQEND
0
POLYLINE
8
L8D0
70
0
40
100
41
100
66
1
0
VERTEX
8
L8D0
10
7862
20
2000
0
VERTEX
8
L8D0
10
5758
20
2000
0
VERTEX
8
L8D0
10
4808
20
1050
0
VERTEX
8
L8D0
10
681
20
1050
0
SEQEND
0
POLYLINE
8
L8D0
70
0
40
100
41
100
66
1
0
VERTEX
8
L8D0
10
6892
20
1000
0
VERTEX
8
L8D0
10
5386
20
1000
0
VERTEX
8
L8D0
10
5136
20
750
0
VERTEX
8
L8D0
10
696
20
750
0
SEQEND
0
POLYLINE
8
L8D0
70
0
40
150
41
150
66
1
0
VERTEX
8
L8D0
10
-671.65
20
4286
0
VERTEX
8
L8D0
10
-2967
20
4286
0
VERTEX
8
L8D0
10
-5681
20
7000
0
VERTEX
8
L8D0
10
-6948
20
7000
0
SEQEND
0
ENDBLK
0
BLOCK
2
POGOPAD_OCTAGON
70
0
10
0
20
0
0
POLYLINE
8
L8D0
70
1
40
0
41
0
66
1
0
VERTEX
8
L8D0
10
-195
20
-400
0
VERTEX
8
L8D0
10
-400
20
-195
0
VERTEX
8
L8D0
10
-400
20
195
0
VERTEX
8
L8D0
10
-195
20
400
0
VERTEX
8
L8D0
10
195
20
400
0
VERTEX
8
L8D0
10
400
20
195
0
VERTEX
8
L8D0
10
400
20
-195
0
VERTEX
8
L8D0
10
195
20
-400
0
SEQEND
0
ENDBLK
0
BLOCK
2
INTER_CELL1
70
0
10
0
20
0
0
POLYLINE
8
L8D0
70
0
40
6
41
6
66
1
0
VERTEX
8
L8D0
10
285
20
27.55
0
VERTEX
8
L8D0
10
125
20
27.55
0
SEQEND
0
POLYLINE
8
L8D0
70
0
40
6
41
6
66
1
0
VERTEX
8
L8D0
10
285
20
63.55
0
VERTEX
8
L8D0
10
125
20
63.55
0
SEQEND
0
POLYLINE
8
L8D0
70
0
40
6
41
6
66
1
0
VERTEX
8
L8D0
10
285
20
99.55
0
VERTEX
8
L8D0
10
125
20
99.55
0
SEQEND
0
POLYLINE
8
L8D0
70
0
40
6
41
6
66
1
0
VERTEX
8
L8D0
10
285
20
135.55
0
VERTEX
8
L8D0
10
125
20
135.55
0
SEQEND
0
POLYLINE
8
L8D0
70
0
40
6
41
6
66
1
0
VERTEX
8
L8D0
10
275
20
36.55
0
VERTEX
8
L8D0
10
115
20
36.55
0
SEQEND
0
POLYLINE
8
L8D0
70
0
40
6
41
6
66
1
0
VERTEX
8
L8D0
10
275
20
72.55
0
VERTEX
8
L8D0
10
115
20
72.55
0
SEQEND
0
POLYLINE
8
L8D0
70
0
40
6
41
6
66
1
0
VERTEX
8
L8D0
10
275
20
108.55
0
VERTEX
8
L8D0
10
115
20
108.55
0
SEQEND
0
POLYLINE
8
L8D0
70
0
40
6
41
6
66
1
0
VERTEX
8
L8D0
10
275
20
144.55
0
VERTEX
8
L8D0
10
115
20
144.55
0
SEQEND
0
POLYLINE
8
L8D0
70
0
40
6
41
6
66
1
0
VERTEX
8
L8D0
10
285
20
171.55
0
VERTEX
8
L8D0
10
125
20
171.55
0
SEQEND
0
POLYLINE
8
L8D0
70
0
40
6
41
6
66
1
0
VERTEX
8
L8D0
10
275
20
126.55
0
VERTEX
8
L8D0
10
115
20
126.55
0
SEQEND
0
POLYLINE
8
L8D0
70
0
40
6
41
6
66
1
0
VERTEX
8
L8D0
10
285
20
153.55
0
VERTEX
8
L8D0
10
125
20
153.55
0
SEQEND
0
POLYLINE
8
L8D0
70
0
40
6
41
6
66
1
0
VERTEX
8
L8D0
10
275
20
162.55
0
VERTEX
8
L8D0
10
115
20
162.55
0
SEQEND
0
POLYLINE
8
L8D0
70
0
40
6
41
6
66
1
0
VERTEX
8
L8D0
10
275
20
180.55
0
VERTEX
8
L8D0
10
115
20
180.55
0
SEQEND
0
POLYLINE
8
L8D0
70
0
40
6
41
6
66
1
0
VERTEX
8
L8D0
10
275
20
90.55
0
VERTEX
8
L8D0
10
115
20
90.55
0
SEQEND
0
POLYLINE
8
L8D0
70
0
40
6
41
6
66
1
0
VERTEX
8
L8D0
10
275
20
54.55
0
VERTEX
8
L8D0
10
115
20
54.55
0
SEQEND
0
POLYLINE
8
L8D0
70
0
40
6
41
6
66
1
0
VERTEX
8
L8D0
10
275
20
18.55
0
VERTEX
8
L8D0
10
115
20
18.55
0
SEQEND
0
POLYLINE
8
L8D0
70
0
40
6
41
6
66
1
0
VERTEX
8
L8D0
10
285
20
117.55
0
VERTEX
8
L8D0
10
125
20
117.55
0
SEQEND
0
POLYLINE
8
L8D0
70
0
40
6
41
6
66
1
0
VERTEX
8
L8D0
10
285
20
81.55
0
VERTEX
8
L8D0
10
125
20
81.55
0
SEQEND
0
POLYLINE
8
L8D0
70
0
40
6
41
6
66
1
0
VERTEX
8
L8D0
10
285
20
45.55
0
VERTEX
8
L8D0
10
125
20
45.55
0
SEQEND
0
POLYLINE
8
L8D0
70
0
40
6
41
6
66
1
0
VERTEX
8
L8D0
10
285
20
9.55
0
VERTEX
8
L8D0
10
125
20
9.55
0
SEQEND
0
POLYLINE
8
L8D0
70
1
40
0
41
0
66
1
0
VERTEX
8
L8D0
10
280
20
6.55
0
VERTEX
8
L8D0
10
280
20
174.55
0
VERTEX
8
L8D0
10
400
20
174.55
0
VERTEX
8
L8D0
10
400
20
6.55
0
SEQEND
0
POLYLINE
8
L8D0
70
1
40
0
41
0
66
1
0
VERTEX
8
L8D0
10
300
20
0
0
VERTEX
8
L8D0
10
300
20
6.55
0
VERTEX
8
L8D0
10
400
20
6.55
0
VERTEX
8
L8D0
10
400
20
0
0
SEQEND
0
POLYLINE
8
L8D0
70
1
40
0
41
0
66
1
0
VERTEX
8
L8D0
10
0
20
0
0
VERTEX
8
L8D0
10
0
20
15.55
0
VERTEX
8
L8D0
10
100
20
15.55
0
VERTEX
8
L8D0
10
100
20
0
0
SEQEND
0
POLYLINE
8
L8D0
70
1
40
0
41
0
66
1
0
VERTEX
8
L8D0
10
0
20
15.55
0
VERTEX
8
L8D0
10
0
20
183.55
0
VERTEX
8
L8D0
10
120
20
183.55
0
VERTEX
8
L8D0
10
120
20
15.55
0
SEQEND
0
ENDBLK
0
BLOCK
2
SENSOR_FRAME
70
0
10
0
20
0
0
INSERT
8
0
2
POGOPAD_OCTAGON
10
-7200
20
-7000
41
1
42
1
50
90
0
INSERT
8
0
2
POGOPAD_OCTAGON
10
-7200
20
-5000
41
1
42
1
50
90
0
INSERT
8
0
2
POGOPAD_OCTAGON
10
-7200
20
-3000
41
1
42
1
50
90
0
INSERT
8
0
2
POGOPAD_OCTAGON
10
-7200
20
-1000
41
1
42
1
50
90
0
INSERT
8
0
2
POGOPAD_OCTAGON
10
-7200
20
1000
41
1
42
1
50
90
0
INSERT
8
0
2
POGOPAD_OCTAGON
10
-7200
20
3000
41
1
42
1
50
90
0
INSERT
8
0
2
POGOPAD_OCTAGON
10
-7200
20
5000
41
1
42
1
50
90
0
INSERT
8
0
2
POGOPAD_OCTAGON
10
-7200
20
7000
41
1
42
1
50
90
0
INSERT
8
0
2
POGOPAD_OCTAGON
10
9200
20
-7000
41
1
42
1
50
90
0
INSERT
8
0
2
POGOPAD_OCTAGON
10
9200
20
-5000
41
1
42
1
50
90
0
INSERT
8
0
2
POGOPAD_OCTAGON
10
9200
20
-3000
41
1
42
1
50
90
0
INSERT
8
0
2
POGOPAD_OCTAGON
10
9200
20
-1000
41
1
42
1
50
90
0
INSERT
8
0
2
POGOPAD_OCTAGON
10
9200
20
1000
41
1
42
1
50
90
0
INSERT
8
0
2
POGOPAD_OCTAGON
10
9200
20
3000
41
1
42
1
50
90
0
INSERT
8
0
2
POGOPAD_OCTAGON
10
9200
20
5000
41
1
42
1
50
90
0
INSERT
8
0
2
POGOPAD_OCTAGON
10
9200
20
7000
41
1
42
1
50
90
0
INSERT
8
0
2
POGOPAD_OCTAGON
10
-8200
20
-6000
41
1
42
1
50
90
0
INSERT
8
0
2
POGOPAD_OCTAGON
10
-8200
20
-4000
41
1
42
1
50
90
0
INSERT
8
0
2
POGOPAD_OCTAGON
10
-8200
20
-2000
41
1
42
1
50
90
0
INSERT
8
0
2
POGOPAD_OCTAGON
10
-8200
20
0
41
1
42
1
50
90
0
INSERT
8
0
2
POGOPAD_OCTAGON
10
-8200
20
2000
41
1
42
1
50
90
0
INSERT
8
0
2
POGOPAD_OCTAGON
10
-8200
20
4000
41
1
42
1
50
90
0
INSERT
8
0
2
POGOPAD_OCTAGON
10
-8200
20
6000
41
1
42
1
50
90
0
INSERT
8
0
2
POGOPAD_OCTAGON
10
-9200
20
-7000
41
1
42
1
50
90
0
INSERT
8
0
2
POGOPAD_OCTAGON
10
-9200
20
-5000
41
1
42
1
50
90
0
INSERT
8
0
2
POGOPAD_OCTAGON
10
-9200
20
-3000
41
1
42
1
50
90
0
INSERT
8
0
2
POGOPAD_OCTAGON
10
-9200
20
-1000
41
1
42
1
50
90
0
INSERT
8
0
2
POGOPAD_OCTAGON
10
-9200
20
1000
41
1
42
1
50
90
0
INSERT
8
0
2
POGOPAD_OCTAGON
10
-9200
20
3000
41
1
42
1
50
90
0
INSERT
8
0
2
POGOPAD_OCTAGON
10
-9200
20
5000
41
1
42
1
50
90
0
INSERT
8
0
2
POGOPAD_OCTAGON
10
-9200
20
7000
41
1
42
1
50
90
0
INSERT
8
0
2
POGOPAD_OCTAGON
10
8200
20
-6000
41
1
42
1
50
90
0
INSERT
8
0
2
POGOPAD_OCTAGON
10
8200
20
-4000
41
1
42
1
50
90
0
INSERT
8
0
2
POGOPAD_OCTAGON
10
8200
20
-2000
41
1
42
1
50
90
0
INSERT
8
0
2
POGOPAD_OCTAGON
10
8200
20
0
41
1
42
1
50
90
0
INSERT
8
0
2
POGOPAD_OCTAGON
10
8200
20
2000
41
1
42
1
50
90
0
INSERT
8
0
2
POGOPAD_OCTAGON
10
8200
20
4000
41
1
42
1
50
90
0
INSERT
8
0
2
POGOPAD_OCTAGON
10
8200
20
6000
41
1
42
1
50
90
0
INSERT
8
0
2
POGOPAD_OCTAGON
10
7200
20
-7000
41
1
42
1
50
90
0
INSERT
8
0
2
POGOPAD_OCTAGON
10
7200
20
-5000
41
1
42
1
50
90
0
INSERT
8
0
2
POGOPAD_OCTAGON
10
7200
20
-3000
41
1
42
1
50
90
0
INSERT
8
0
2
POGOPAD_OCTAGON
10
7200
20
-1000
41
1
42
1
50
90
0
INSERT
8
0
2
POGOPAD_OCTAGON
10
7200
20
1000
41
1
42
1
50
90
0
INSERT
8
0
2
POGOPAD_OCTAGON
10
7200
20
3000
41
1
42
1
50
90
0
INSERT
8
0
2
POGOPAD_OCTAGON
10
7200
20
5000
41
1
42
1
50
90
0
INSERT
8
0
2
POGOPAD_OCTAGON
10
7200
20
7000
41
1
42
1
50
90
0
INSERT
8
0
2
SENSOR_WIRING
10
0
20
0
41
1
42
1
50
0
0
TEXT
8
L8D0
10
-9565
20
7021
40
500
1
A1
50
0
72
0
11
-9565
21
7021
73
2
0
TEXT
8
L8D0
10
-8578
20
6015
40
500
1
A2
50
0
72
0
11
-8578
21
6015
73
2
0
TEXT
8
L8D0
10
-7535
20
4991
40
500
1
B1
50
0
72
0
11
-7535
21
4991
73
2
0
TEXT
8
L8D0
10
-9622
20
5009
40
500
1
B2
50
0
72
0
11
-9622
21
5009
73
2
0
TEXT
8
L8D0
10
-8559
20
4023
40
500
1
C1
50
0
72
0
11
-8559
21
4023
73
2
0
TEXT
8
L8D0
10
-7554
20
3017
40
500
1
C2
50
0
72
0
11
-7554
21
3017
73
2
0
TEXT
8
L8D0
10
-9584
20
2998
40
500
1
D1
50
0
72
0
11
-9584
21
2998
73
2
0
TEXT
8
L8D0
10
-8597
20
1992
40
500
1
D2
50
0
72
0
11
-8597
21
1992
73
2
0
TEXT
8
L8D0
10
-7535
20
1062
40
500
1
E1
50
0
72
0
11
-7535
21
1062
73
2
0
TEXT
8
L8D0
10
-9565
20
967
40
500
1
E2
50
0
72
0
11
-9565
21
967
73
2
0
TEXT
8
L8D0
10
-8559
20
-20
40
500
1
F1
50
0
72
0
11
-8559
21
-20
73
2
0
TEXT
8
L8D0
10
-9584
20
-1045
40
500
1
F2
50
0
72
0
11
-9584
21
-1045
73
2
0
TEXT
8
L8D0
10
-7535
20
-1026
40
500
1
G1
50
0
72
0
11
-7535
21
-1026
73
2
0
TEXT
8
L8D0
10
-8597
20
-2032
40
500
1
G2
50
0
72
0
11
-8597
21
-2032
73
2
0
TEXT
8
L8D0
10
-9584
20
-3038
40
500
1
H1
50
0
72
0
11
-9584
21
-3038
73
2
0
TEXT
8
L8D0
10
-7591
20
-3019
40
500
1
H2
50
0
72
0
11
-7591
21
-3019
73
2
0
TEXT
8
L8D0
10
-8578
20
-3967
40
500
1
I1
50
0
72
0
11
-8578
21
-3967
73
2
0
TEXT
8
L8D0
10
-9584
20
-4973
40
500
1
I2
50
0
72
0
11
-9584
21
-4973
73
2
0
TEXT
8
L8D0
10
-7610
20
-5011
40
500
1
J1
50
0
72
0
11
-7610
21
-5011
73
2
0
TEXT
8
L8D0
10
-8559
20
-5998
40
500
1
J2
50
0
72
0
11
-8559
21
-5998
73
2
0
TEXT
8
L8D0
10
-9584
20
-6966
40
500
1
K1
50
0
72
0
11
-9584
21
-6966
73
2
0
TEXT
8
L8D0
10
-7554
20
-7004
40
500
1
K2
50
0
72
0
11
-7554
21
-7004
73
2
0
TEXT
8
L8D0
10
8844
20
7059
40
500
1
L1
50
0
72
0
11
8844
21
7059
73
2
0
TEXT
8
L8D0
10
7857
20
6015
40
500
1
L2
50
0
72
0
11
7857
21
6015
73
2
0
TEXT
8
L8D0
10
6832
20
4991
40
500
1
M1
50
0
72
0
11
6832
21
4991
73
2
0
TEXT
8
L8D0
10
8863
20
5009
40
500
1
M2
50
0
72
0
11
8863
21
5009
73
2
0
TEXT
8
L8D0
10
7857
20
3985
40
500
1
N1
50
0
72
0
11
7857
21
3985
73
2
0
TEXT
8
L8D0
10
6813
20
2998
40
500
1
N2
50
0
72
0
11
6813
21
2998
73
2
0
TEXT
8
L8D0
10
8825
20
2979
40
500
1
O1
50
0
72
0
11
8825
21
2979
73
2
0
TEXT
8
L8D0
10
7838
20
2011
40
500
1
O2
50
0
72
0
11
7838
21
2011
73
2
0
TEXT
8
L8D0
10
6851
20
986
40
500
1
P1
50
0
72
0
11
6851
21
986
73
2
0
TEXT
8
L8D0
10
8863
20
986
40
500
1
P2
50
0
72
0
11
8863
21
986
73
2
0
TEXT
8
L8D0
10
7838
20
-39
40
500
1
Q1
50
0
72
0
11
7838
21
-39
73
2
0
TEXT
8
L8D0
10
8825
20
-1007
40
500
1
Q2
50
0
72
0
11
8825
21
-1007
73
2
0
TEXT
8
L8D0
10
6851
20
-1007
40
500
1
R1
50
0
72
0
11
6851
21
-1007
73
2
0
TEXT
8
L8D0
10
7857
20
-1956
40
500
1
R2
50
0
72
0
11
7857
21
-1956
73
2
0
TEXT
8
L8D0
10
8863
20
-3000
40
500
1
S1
50
0
72
0
11
8863
21
-3000
73
2
0
TEXT
8
L8D0
10
6870
20
-3019
40
500
1
S2
50
0
72
0
11
6870
21
-3019
73
2
0
TEXT
8
L8D0
10
7838
20
-4043
40
500
1
T1
50
0
72
0
11
7838
21
-4043
73
2
0
TEXT
8
L8D0
10
8825
20
-5011
40
500
1
T2
50
0
72
0
11
8825
21
-5011
73
2
0
TEXT
8
L8D0
10
6851
20
-4992
40
500
1
U1
50
0
72
0
11
6851
21
-4992
73
2
0
TEXT
8
L8D0
10
7838
20
-5979
40
500
1
U2
50
0
72
0
11
7838
21
-5979
73
2
0
TEXT
8
L8D0
10
8825
20
-6985
40
500
1
V1
50
0
72
0
11
8825
21
-6985
73
2
0
TEXT
8
L8D0
10
6832
20
-7023
40
500
1
V2
50
0
72
0
11
6832
21
-7023
73
2
0
POLYLINE
8
L8D0
70
0
40
10
41
10
66
1
0
VERTEX
8
L8D0
10
-10700
20
-8445
0
VERTEX
8
L8D0
10
10695
20
-8445
0
VERTEX
8
L8D0
10
10695
20
8445
0
VERTEX
8
L8D0
10
-10695
20
8445
0
VERTEX
8
L8D0
10
-10695
20
-8440
0
SEQEND
0
POLYLINE
8
L99D0
70
0
40
0.1
41
0.1
66
1
0
VERTEX
8
L99D0
10
-10239.5
20
0
0
VERTEX
8
L99D0
10
10188.85
20
0
0
SEQEND
0
POLYLINE
8
L99D0
70
0
40
0.1
41
0.1
66
1
0
VERTEX
8
L99D0
10
0
20
8432.35
0
VERTEX
8
L99D0
10
0
20
-8501.8
0
SEQEND
0
POLYLINE
8
L99D0
70
1
40
0
41
0
66
1
0
VERTEX
8
L99D0
10
-10750
20
-8500
0
VERTEX
8
L99D0
10
-10750
20
8500
0
VERTEX
8
L99D0
10
10750
20
8500
0
VERTEX
8
L99D0
10
10750
20
-8500
0
SEQEND
0
POLYLINE
8
L9D0
70
0
40
25
41
25
66
1
0
VERTEX
8
L9D0
10
-10762.5
20
-8500
0
VERTEX
8
L9D0
10
10750
20
-8500
0
VERTEX
8
L9D0
10
10750
20
8500
0
VERTEX
8
L9D0
10
-10750
20
8500
0
VERTEX
8
L9D0
10
-10750
20
-8487.5
0
SEQEND
0
ENDBLK
0
BLOCK
2
INSIDE_INTER_005
70
0
10
0
20
0
0
INSERT
8
0
2
INTER_CELL1
10
1944.2
20
5399.9
41
1
42
-1
50
270
0
INSERT
8
0
2
INTER_CELL1
10
1944.2
20
6599.9
41
1
42
-1
50
270
0
INSERT
8
0
2
INTER_CELL1
10
1944.2
20
1799.9
41
1
42
-1
50
270
0
INSERT
8
0
2
INTER_CELL1
10
377.1
20
799.9
41
1
42
-1
50
90
0
INSERT
8
0
2
INTER_CELL1
10
377.1
20
1999.9
41
1
42
-1
50
90
0
INSERT
8
0
2
INTER_CELL1
10
377.1
20
3199.9
41
1
42
-1
50
90
0
INSERT
8
0
2
INTER_CELL1
10
377.1
20
4399.9
41
1
42
-1
50
90
0
INSERT
8
0
2
INTER_CELL1
10
377.1
20
5599.9
41
1
42
-1
50
90
0
INSERT
8
0
2
INTER_CELL1
10
377.1
20
6799.9
41
1
42
-1
50
90
0
INSERT
8
0
2
INTER_CELL1
10
377.1
20
6199.9
41
1
42
-1
50
90
0
INSERT
8
0
2
INTER_CELL1
10
377.1
20
1399.9
41
1
42
-1
50
90
0
INSERT
8
0
2
INTER_CELL1
10
377.1
20
2599.9
41
1
42
-1
50
90
0
INSERT
8
0
2
INTER_CELL1
10
377.1
20
3799.9
41
1
42
-1
50
90
0
INSERT
8
0
2
INTER_CELL1
10
377.1
20
4999.9
41
1
42
-1
50
90
0
INSERT
8
0
2
INTER_CELL1
10
1944.2
20
2999.9
41
1
42
-1
50
270
0
INSERT
8
0
2
INTER_CELL1
10
1944.2
20
4199.9
41
1
42
-1
50
270
0
INSERT
8
0
2
INTER_CELL1
10
1944.2
20
7199.9
41
1
42
-1
50
270
0
INSERT
8
0
2
INTER_CELL1
10
1944.2
20
1199.9
41
1
42
-1
50
270
0
INSERT
8
0
2
INTER_CELL1
10
1944.2
20
2399.9
41
1
42
-1
50
270
0
INSERT
8
0
2
INTER_CELL1
10
1944.2
20
3599.9
41
1
42
-1
50
270
0
INSERT
8
0
2
INTER_CELL1
10
1944.2
20
4799.9
41
1
42
-1
50
270
0
INSERT
8
0
2
INTER_CELL1
10
1944.2
20
5999.9
41
1
42
-1
50
270
0
POLYLINE
8
L8D0
70
0
40
300
41
300
66
1
0
VERTEX
8
L8D0
10
1160.8
20
8279.15
0
VERTEX
8
L8D0
10
1160.8
20
250.7
0
SEQEND
0
POLYLINE
8
L8D0
70
0
40
150
41
150
66
1
0
VERTEX
8
L8D0
10
835.8
20
8210.9
0
VERTEX
8
L8D0
10
835.8
20
74.9
0
VERTEX
8
L8D0
10
1485.8
20
74.9
0
VERTEX
8
L8D0
10
1485.8
20
7999.9
0
SEQEND
0
POLYLINE
8
L8D0
70
0
40
150
41
150
66
1
0
VERTEX
8
L8D0
10
366.6
20
8285.9
0
VERTEX
8
L8D0
10
910.8
20
8285.9
0
SEQEND
0
POLYLINE
8
L8D0
70
0
40
150
41
150
66
1
0
VERTEX
8
L8D0
10
1962.75
20
8285.9
0
VERTEX
8
L8D0
10
1010.8
20
8285.9
0
SEQEND
0
ENDBLK
0
ENDSEC
0
SECTION
2
ENTITIES
0
INSERT
8
0
2
INSIDE_INTER_005
10
-1160.8
20
-3999.9
41
1
42
1
50
0
0
INSERT
8
0
2
SENSOR_FRAME
10
0
20
0
41
1
42
1
50
0
0
POLYLINE
8
L8D0
70
1
40
0
41
0
66
1
0
VERTEX
8
L8D0
10
-2302.6
20
-6748.7
0
VERTEX
8
L8D0
10
-2302.6
20
-6120.7
0
VERTEX
8
L8D0
10
-2235.6
20
-6120.7
0
VERTEX
8
L8D0
10
-1981.6
20
-6374.7
0
VERTEX
8
L8D0
10
-1942.6
20
-6374.7
0
VERTEX
8
L8D0
10
-1942.6
20
-6118.7
0
VERTEX
8
L8D0
10
-1822.6
20
-6118.7
0
VERTEX
8
L8D0
10
-1822.6
20
-6748.7
0
VERTEX
8
L8D0
10
-1874.6
20
-6748.7
0
VERTEX
8
L8D0
10
-2146.6
20
-6476.7
0
VERTEX
8
L8D0
10
-2182.6
20
-6476.7
0
VERTEX
8
L8D0
10
-2182.6
20
-6748.7
0
SEQEND
0
POLYLINE
8
L8D0
70
1
40
0
41
0
66
1
0
VERTEX
8
L8D0
10
-1517.8
20
-6748.7
0
VERTEX
8
L8D0
10
-1517.8
20
-6118.7
0
VERTEX
8
L8D0
10
-1007.8
20
-6118.7
0
VERTEX
8
L8D0
10
-1007.8
20
-6238.7
0
VERTEX
8
L8D0
10
-1397.8
20
-6238.7
0
VERTEX
8
L8D0
10
-1397.8
20
-6388.7
0
VERTEX
8
L8D0
10
-1157.8
20
-6388.7
0
VERTEX
8
L8D0
10
-1157.8
20
-6508.7
0
VERTEX
8
L8D0
10
-1397.8
20
-6508.7
0
VERTEX
8
L8D0
10
-1397.8
20
-6628.7
0
VERTEX
8
L8D0
10
-1007.8
20
-6628.7
0
VERTEX
8
L8D0
10
-1007.8
20
-6748.7
0
SEQEND
0
POLYLINE
8
L8D0
70
1
40
0
41
0
66
1
0
VERTEX
8
L8D0
10
-703
20
-6748.7
0
VERTEX
8
L8D0
10
-703
20
-6238.7
0
VERTEX
8
L8D0
10
-583
20
-6118.7
0
VERTEX
8
L8D0
10
-403
20
-6118.7
0
VERTEX
8
L8D0
10
-403
20
-6268.7
0
VERTEX
8
L8D0
10
-523
20
-6268.7
0
VERTEX
8
L8D0
10
-583
20
-6328.7
0
VERTEX
8
L8D0
10
-583
20
-6448.7
0
VERTEX
8
L8D0
10
-373
20
-6448.7
0
VERTEX
8
L8D0
10
-373
20
-6568.7
0
VERTEX
8
L8D0
10
-583
20
-6568.7
0
VERTEX
8
L8D0
10
-583
20
-6748.7
0
SEQEND
0
POLYLINE
8
L8D0
70
1
40
0
41
0
66
1
0
VERTEX
8
L8D0
10
-343
20
-6748.7
0
VERTEX
8
L8D0
10
-343
20
-6568.7
0
VERTEX
8
L8D0
10
-553
20
-6568.7
0
VERTEX
8
L8D0
10
-553
20
-6448.7
0
VERTEX
8
L8D0
10
-343
20
-6448.7
0
VERTEX
8
L8D0
10
-343
20
-6328.7
0
VERTEX
8
L8D0
10
-403
20
-6268.7
0
VERTEX
8
L8D0
10
-523
20
-6268.7
0
VERTEX
8
L8D0
10
-523
20
-6118.7
0
VERTEX
8
L8D0
10
-343
20
-6118.7
0
VERTEX
8
L8D0
10
-193
20
-6268.7
0
VERTEX
8
L8D0
10
-193
20
-6748.7
0
SEQEND
0
POLYLINE
8
L8D0
70
1
40
0
41
0
66
1
0
VERTEX
8
L8D0
10
291.8
20
-6748.7
0
VERTEX
8
L8D0
10
291.8
20
-6628.7
0
VERTEX
8
L8D0
10
411.8
20
-6628.7
0
VERTEX
8
L8D0
10
471.8
20
-6568.7
0
VERTEX
8
L8D0
10
471.8
20
-6298.7
0
VERTEX
8
L8D0
10
411.8
20
-6238.7
0
VERTEX
8
L8D0
10
321.8
20
-6238.7
0
VERTEX
8
L8D0
10
321.8
20
-6118.7
0
VERTEX
8
L8D0
10
501.8
20
-6118.7
0
VERTEX
8
L8D0
10
621.8
20
-6238.7
0
VERTEX
8
L8D0
10
621.8
20
-6628.7
0
VERTEX
8
L8D0
10
501.8
20
-6748.7
0
SEQEND
0
POLYLINE
8
L8D0
70
1
40
0
41
0
66
1
0
VERTEX
8
L8D0
10
231.8
20
-6748.7
0
VERTEX
8
L8D0
10
111.8
20
-6628.7
0
VERTEX
8
L8D0
10
111.8
20
-6238.7
0
VERTEX
8
L8D0
10
231.8
20
-6118.7
0
VERTEX
8
L8D0
10
381.8
20
-6118.7
0
VERTEX
8
L8D0
10
381.8
20
-6238.7
0
VERTEX
8
L8D0
10
291.8
20
-6238.7
0
VERTEX
8
L8D0
10
231.8
20
-6298.7
0
VERTEX
8
L8D0
10
231.8
20
-6568.7
0
VERTEX
8
L8D0
10
291.8
20
-6628.7
0
VERTEX
8
L8D0
10
411.8
20
-6628.7
0
VERTEX
8
L8D0
10
411.8
20
-6748.7
0
SEQEND
0
POLYLINE
8
L8D0
70
1
40
0
41
0
66
1
0
VERTEX
8
L8D0
10
1106.6
20
-6748.7
0
VERTEX
8
L8D0
10
1106.6
20
-6628.7
0
VERTEX
8
L8D0
10
1226.6
20
-6628.7
0
VERTEX
8
L8D0
10
1286.6
20
-6568.7
0
VERTEX
8
L8D0
10
1286.6
20
-6298.7
0
VERTEX
8
L8D0
10
1226.6
20
-6238.7
0
VERTEX
8
L8D0
10
1136.6
20
-6238.7
0
VERTEX
8
L8D0
10
1136.6
20
-6118.7
0
VERTEX
8
L8D0
10
1316.6
20
-6118.7
0
VERTEX
8
L8D0
10
1436.6
20
-6238.7
0
VERTEX
8
L8D0
10
1436.6
20
-6628.7
0
VERTEX
8
L8D0
10
1316.6
20
-6748.7
0
SEQEND
0
POLYLINE
8
L8D0
70
1
40
0
41
0
66
1
0
VERTEX
8
L8D0
10
1046.6
20
-6748.7
0
VERTEX
8
L8D0
10
926.6
20
-6628.7
0
VERTEX
8
L8D0
10
926.6
20
-6238.7
0
VERTEX
8
L8D0
10
1046.6
20
-6118.7
0
VERTEX
8
L8D0
10
1196.6
20
-6118.7
0
VERTEX
8
L8D0
10
1196.6
20
-6238.7
0
VERTEX
8
L8D0
10
1106.6
20
-6238.7
0
VERTEX
8
L8D0
10
1046.6
20
-6298.7
0
VERTEX
8
L8D0
10
1046.6
20
-6568.7
0
VERTEX
8
L8D0
10
1106.6
20
-6628.7
0
VERTEX
8
L8D0
10
1226.6
20
-6628.7
0
VERTEX
8
L8D0
10
1226.6
20
-6748.7
0
SEQEND
0
POLYLINE
8
L8D0
70
1
40
0
41
0
66
1
0
VERTEX
8
L8D0
10
1831.4
20
-6748.7
0
VERTEX
8
L8D0
10
1741.4
20
-6658.7
0
VERTEX
8
L8D0
10
1741.4
20
-6598.7
0
VERTEX
8
L8D0
10
1861.4
20
-6598.7
0
VERTEX
8
L8D0
10
1891.4
20
-6628.7
0
VERTEX
8
L8D0
10
2071.4
20
-6628.7
0
VERTEX
8
L8D0
10
2101.4
20
-6598.7
0
VERTEX
8
L8D0
10
2101.4
20
-6508.7
0
VERTEX
8
L8D0
10
2071.4
20
-6478.7
0
VERTEX
8
L8D0
10
1831.4
20
-6478.7
0
VERTEX
8
L8D0
10
1741.4
20
-6388.7
0
VERTEX
8
L8D0
10
1741.4
20
-6118.7
0
VERTEX
8
L8D0
10
2251.4
20
-6118.7
0
VERTEX
8
L8D0
10
2251.4
20
-6268.7
0
VERTEX
8
L8D0
10
1861.4
20
-6268.7
0
VERTEX
8
L8D0
10
1861.4
20
-6328.7
0
VERTEX
8
L8D0
10
1891.4
20
-6358.7
0
VERTEX
8
L8D0
10
2161.4
20
-6358.7
0
VERTEX
8
L8D0
10
2251.4
20
-6448.7
0
VERTEX
8
L8D0
10
2251.4
20
-6628.7
0
VERTEX
8
L8D0
10
2131.4
20
-6748.7
0
SEQEND
0
POLYLINE
8
L8D0
70
1
40
0
41
0
66
1
0
VERTEX
8
L8D0
10
321.8
20
-6478.7
0
VERTEX
8
L8D0
10
321.8
20
-6418.7
0
VERTEX
8
L8D0
10
381.8
20
-6418.7
0
VERTEX
8
L8D0
10
381.8
20
-6478.7
0
SEQEND
0
POLYLINE
8
L8D0
70
1
40
0
41
0
66
1
0
VERTEX
8
L8D0
10
1136.6
20
-6478.7
0
VERTEX
8
L8D0
10
1136.6
20
-6418.7
0
VERTEX
8
L8D0
10
1196.6
20
-6418.7
0
VERTEX
8
L8D0
10
1196.6
20
-6478.7
0
SEQEND
0
ENDSEC
0
EOF
